<svg width="98" height="296" viewBox="0 0 98 296" fill="none" xmlns="http://www.w3.org/2000/svg">
<path d="M0 -7H161.443V197.213L84.3357 246.007L5.42158 197.213L0 -7Z" fill="#134515"/>
<path d="M6.62634 0.228882H154.214V186.938L83.7243 231.55L11.5826 186.938L6.62634 0.228882Z" fill="#123313"/>
<rect x="80.7213" y="258.658" width="11.4456" height="34.9391" fill="#D9D9D9"/>
<rect x="90.962" y="255.043" width="6.62638" height="40.3607" fill="#D9D9D9"/>
<rect width="6.62638" height="40.3607" transform="matrix(-1 0 0 1 33.7341 223.116)" fill="#D9D9D9"/>
<rect width="6.62638" height="40.3607" transform="matrix(-1 0 0 1 67.4685 248.417)" fill="#D9D9D9"/>
<rect width="6.62638" height="40.3607" transform="matrix(-1 0 0 1 40.3606 226.731)" fill="#56B75A"/>
<rect width="6.62638" height="40.3607" transform="matrix(-1 0 0 1 63.8541 242.995)" fill="#56B75A"/>
<rect width="13.2528" height="45.1798" transform="matrix(-1 0 0 1 57.2277 236.971)" fill="#D9D9D9"/>
<rect width="13.2528" height="45.1798" transform="matrix(-1 0 0 1 24.0958 214.683)" fill="#D9D9D9"/>
<rect width="6.62638" height="40.3607" transform="matrix(-1 0 0 1 29.5173 219.502)" fill="#56B75A"/>
</svg>
