<svg xmlns="http://www.w3.org/2000/svg" fill="none" viewBox="0 0 164 295"><path fill="#134515" d="M0 -8H161.443V196.213L84.3357 245.007L5.42158 196.213L0 -8Z"/><path fill="#123313" d="M6.62634 -0.771118H154.214V185.938L83.7243 230.55L11.5826 185.938L6.62634 -0.771118Z"/><rect width="11.446" height="34.939" x="80.721" y="257.658" fill="#D9D9D9"/><rect width="6.626" height="40.361" x="90.962" y="254.043" fill="#D9D9D9"/><rect width="6.626" height="40.361" x="140.961" y="217.297" fill="#56B75A"/><rect width="6.626" height="40.361" x="107.227" y="242.598" fill="#D9D9D9"/><rect width="6.626" height="40.361" x="134.335" y="220.911" fill="#D9D9D9"/><rect width="6.626" height="40.361" x="110.841" y="237.176" fill="#56B75A"/><rect width="13.253" height="45.18" x="117.468" y="231.152" fill="#D9D9D9"/><rect width="13.253" height="45.18" x="150.599" y="208.864" fill="#56B75A"/><rect width="6.626" height="40.361" x="145.178" y="213.683" fill="#D9D9D9"/><rect width="6.626" height="40.361" fill="#D9D9D9" transform="matrix(-1 0 0 1 33.7341 222.116)"/><rect width="6.626" height="40.361" fill="#D9D9D9" transform="matrix(-1 0 0 1 67.4685 247.417)"/><rect width="6.626" height="40.361" fill="#56B75A" transform="matrix(-1 0 0 1 40.3606 225.731)"/><rect width="6.626" height="40.361" fill="#56B75A" transform="matrix(-1 0 0 1 63.8541 241.995)"/><rect width="13.253" height="45.18" fill="#D9D9D9" transform="matrix(-1 0 0 1 57.2277 235.971)"/><rect width="13.253" height="45.18" fill="#D9D9D9" transform="matrix(-1 0 0 1 24.0958 213.683)"/><rect width="6.626" height="40.361" fill="#56B75A" transform="matrix(-1 0 0 1 29.5174 218.502)"/></svg>