<svg xmlns="http://www.w3.org/2000/svg" fill="none" viewBox="0 0 98 296"><path fill="#134515" d="M0 -7H161.443V197.213L84.3357 246.007L5.42158 197.213L0 -7Z"/><path fill="#123313" d="M6.62634 0.228882H154.214V186.938L83.7243 231.55L11.5826 186.938L6.62634 0.228882Z"/><rect width="11.446" height="34.939" x="80.721" y="258.658" fill="#D9D9D9"/><rect width="6.626" height="40.361" x="90.962" y="255.043" fill="#D9D9D9"/><rect width="6.626" height="40.361" fill="#D9D9D9" transform="matrix(-1 0 0 1 33.7341 223.116)"/><rect width="6.626" height="40.361" fill="#D9D9D9" transform="matrix(-1 0 0 1 67.4685 248.417)"/><rect width="6.626" height="40.361" fill="#56B75A" transform="matrix(-1 0 0 1 40.3606 226.731)"/><rect width="6.626" height="40.361" fill="#56B75A" transform="matrix(-1 0 0 1 63.8541 242.995)"/><rect width="13.253" height="45.18" fill="#D9D9D9" transform="matrix(-1 0 0 1 57.2277 236.971)"/><rect width="13.253" height="45.18" fill="#D9D9D9" transform="matrix(-1 0 0 1 24.0958 214.683)"/><rect width="6.626" height="40.361" fill="#56B75A" transform="matrix(-1 0 0 1 29.5173 219.502)"/></svg>