<svg viewBox="0 0 164 295" fill="none" xmlns="http://www.w3.org/2000/svg">
<path d="M0 -8H161.443V196.213L84.3357 245.007L5.42158 196.213L0 -8Z" fill="#134515"/>
<path d="M6.62634 -0.771118H154.214V185.938L83.7243 230.55L11.5826 185.938L6.62634 -0.771118Z" fill="#123313"/>
<rect x="80.7213" y="257.658" width="11.4456" height="34.9391" fill="#D9D9D9"/>
<rect x="90.962" y="254.043" width="6.62638" height="40.3607" fill="#D9D9D9"/>
<rect x="140.961" y="217.297" width="6.62638" height="40.3607" fill="#56B75A"/>
<rect x="107.227" y="242.598" width="6.62638" height="40.3607" fill="#D9D9D9"/>
<rect x="134.335" y="220.911" width="6.62638" height="40.3607" fill="#D9D9D9"/>
<rect x="110.841" y="237.176" width="6.62638" height="40.3607" fill="#56B75A"/>
<rect x="117.468" y="231.152" width="13.2528" height="45.1798" fill="#D9D9D9"/>
<rect x="150.599" y="208.864" width="13.2528" height="45.1798" fill="#56B75A"/>
<rect x="145.178" y="213.683" width="6.62638" height="40.3607" fill="#D9D9D9"/>
<rect width="6.62638" height="40.3607" transform="matrix(-1 0 0 1 33.7341 222.116)" fill="#D9D9D9"/>
<rect width="6.62638" height="40.3607" transform="matrix(-1 0 0 1 67.4685 247.417)" fill="#D9D9D9"/>
<rect width="6.62638" height="40.3607" transform="matrix(-1 0 0 1 40.3606 225.731)" fill="#56B75A"/>
<rect width="6.62638" height="40.3607" transform="matrix(-1 0 0 1 63.8541 241.995)" fill="#56B75A"/>
<rect width="13.2528" height="45.1798" transform="matrix(-1 0 0 1 57.2277 235.971)" fill="#D9D9D9"/>
<rect width="13.2528" height="45.1798" transform="matrix(-1 0 0 1 24.0958 213.683)" fill="#D9D9D9"/>
<rect width="6.62638" height="40.3607" transform="matrix(-1 0 0 1 29.5174 218.502)" fill="#56B75A"/>
</svg>
