<svg viewBox="0 0 240 113" fill="none" xmlns="http://www.w3.org/2000/svg">
<rect y="80" width="240" height="10.4537" rx="3.58462" fill="#884C29"/>
<path d="M0 84.9001H240V91.7693C240 93.749 238.395 95.3539 236.415 95.3539H3.58462C1.60489 95.3539 0 93.749 0 91.7692V84.9001Z" fill="#5B1A2E"/>
<path d="M40.1815 93.176H60.3267L56.41 109.589C56.0249 111.203 54.5825 112.341 52.9233 112.341H48.3342C46.7318 112.341 45.324 111.278 44.886 109.736L40.1815 93.176Z" fill="#461420"/>
<path d="M176.515 93.176H196.661L192.744 109.589C192.359 111.203 190.916 112.341 189.257 112.341H184.668C183.066 112.341 181.658 111.278 181.22 109.736L176.515 93.176Z" fill="#461420"/>
<rect width="14.3284" height="75.1107" rx="3.31814" transform="matrix(0 -1 -1 0 216 79.4846)" fill="#0F3715"/>
<rect width="13.7251" height="66.2121" rx="3.31814" transform="matrix(0 -1 -1 0 200.767 64.2515)" fill="#0F3715"/>
<rect width="12.3676" height="58.6708" rx="3.31814" transform="matrix(0 -1 -1 0 203.783 48.8673)" fill="#0F3715"/>
<rect width="13.7251" height="73.15" rx="3.31814" transform="matrix(0 -1 -1 0 213.436 77.6747)" fill="#134A1C"/>
<rect width="9.80361" height="4.37392" rx="2.18696" transform="matrix(0 -1 -1 0 207.252 75.8649)" fill="#709E77"/>
<rect width="9.80361" height="4.52474" rx="2.26237" transform="matrix(0 -1 -1 0 200.616 75.8649)" fill="#709E77"/>
<rect width="5.73134" height="8.29536" rx="2.86567" transform="matrix(0 -1 -1 0 154.464 73.6024)" fill="#709E77"/>
<rect width="13.7251" height="64.553" rx="3.31814" transform="matrix(0 -1 -1 0 198.504 62.2906)" fill="#134A1C"/>
<rect width="9.65279" height="3.61979" rx="1.8099" transform="matrix(0 -1 -1 0 192.773 60.33)" fill="#709E77"/>
<rect width="9.65279" height="3.92144" rx="1.96072" transform="matrix(0 -1 -1 0 187.042 60.33)" fill="#709E77"/>
<rect width="5.88217" height="7.39041" rx="2.94108" transform="matrix(0 -1 -1 0 146.47 58.2184)" fill="#709E77"/>
<rect width="11.9152" height="57.1626" rx="3.31814" transform="matrix(0 -1 -1 0 201.672 47.3589)" fill="#134A1C"/>
<rect width="8.44619" height="3.46897" rx="1.73448" transform="matrix(0 -1 -1 0 196.694 45.6998)" fill="#709E77"/>
<rect width="8.44619" height="3.46897" rx="1.73448" transform="matrix(0 -1 -1 0 191.566 45.6998)" fill="#709E77"/>
<rect width="5.27887" height="6.33464" rx="2.63943" transform="matrix(0 -1 -1 0 155.519 44.0408)" fill="#709E77"/>
<rect width="15.1953" height="60.3381" rx="3.31814" transform="matrix(0.974799 -0.223085 0.238345 0.971181 94.0001 20.8855)" fill="#0F3715"/>
<rect x="80.1068" width="13.8759" height="79.183" rx="3.31814" fill="#0F3715"/>
<rect x="24" y="3.16724" width="18.7023" height="76.619" rx="3.31814" fill="#0F3715"/>
<rect x="64.2702" y="26.0928" width="14.0267" height="53.0903" rx="3.31814" fill="#0F3715"/>
<rect x="44.5121" y="19.6073" width="16.2891" height="59.8774" rx="3.31814" fill="#0F3715"/>
<rect width="15.1606" height="60.3298" rx="3.31814" transform="matrix(0.974682 -0.223596 0.237804 0.971313 97.4517 21.4889)" fill="#134A1C"/>
<rect width="10.7591" height="3.56279" rx="1.78139" transform="matrix(0.974682 -0.223596 0.237804 0.971313 100.811 25.957)" fill="#709E77"/>
<rect width="10.7591" height="3.68154" rx="1.84077" transform="matrix(0.974682 -0.223596 0.237804 0.971313 102.11 31.2633)" fill="#709E77"/>
<rect width="6.2354" height="6.76929" rx="3.1177" transform="matrix(0.974682 -0.223596 0.237804 0.971313 113.44 67.772)" fill="#709E77"/>
<rect x="83.5758" y="0.603271" width="13.8759" height="79.183" rx="3.31814" fill="#134A1C"/>
<rect x="85.5366" y="7.39038" width="9.95443" height="4.67557" rx="2.33778" fill="#709E77"/>
<rect x="85.5366" y="14.63" width="9.95443" height="4.67557" rx="2.33778" fill="#709E77"/>
<rect x="87.648" y="64.4022" width="5.88217" height="9.04949" rx="2.94108" fill="#709E77"/>
<rect x="27.6198" y="3.77051" width="18.7023" height="76.619" rx="3.31814" fill="#134A1C"/>
<rect x="30.3347" y="10.2561" width="13.2726" height="4.52474" rx="2.26237" fill="#709E77"/>
<rect x="30.3347" y="17.194" width="13.2726" height="4.67557" rx="2.33778" fill="#709E77"/>
<rect x="33.2003" y="65.6089" width="7.69206" height="8.59701" rx="3.31814" fill="#709E77"/>
<rect x="67.7392" y="26.696" width="14.0267" height="53.0903" rx="3.31814" fill="#134A1C"/>
<rect x="69.6999" y="31.2207" width="10.1053" height="3.31814" rx="1.65907" fill="#709E77"/>
<rect x="69.6999" y="36.047" width="10.1053" height="3.16732" rx="1.58366" fill="#709E77"/>
<rect x="71.6606" y="69.5302" width="6.18382" height="6.03299" rx="3.0165" fill="#709E77"/>
<rect x="48.132" y="20.2104" width="16.1383" height="59.8774" rx="3.31814" fill="#134A1C"/>
<rect x="50.3943" y="25.3386" width="11.6135" height="3.77062" rx="1.88531" fill="#709E77"/>
<rect x="50.3943" y="30.7683" width="11.6135" height="3.61979" rx="1.8099" fill="#709E77"/>
<rect x="52.6567" y="68.4745" width="7.08876" height="6.78711" rx="3.31814" fill="#709E77"/>
<rect x="57.0306" y="19.1547" width="4.07227" height="27.7518" rx="0.452474" fill="#2E9231"/>
</svg>
