<svg xmlns="http://www.w3.org/2000/svg" fill="none" viewBox="0 0 240 113"><rect width="240" height="10.454" y="80" fill="#884C29" rx="3.585"/><path fill="#5B1A2E" d="M0 84.9001H240V91.7693C240 93.749 238.395 95.3539 236.415 95.3539H3.58462C1.60489 95.3539 0 93.749 0 91.7692V84.9001Z"/><path fill="#461420" d="M40.1815 93.176H60.3267L56.41 109.589C56.0249 111.203 54.5825 112.341 52.9233 112.341H48.3342C46.7318 112.341 45.324 111.278 44.886 109.736L40.1815 93.176Z"/><path fill="#461420" d="M176.515 93.176H196.661L192.744 109.589C192.359 111.203 190.916 112.341 189.257 112.341H184.668C183.066 112.341 181.658 111.278 181.22 109.736L176.515 93.176Z"/><rect width="14.328" height="75.111" fill="#0F3715" rx="3.318" transform="matrix(0 -1 -1 0 216 79.4846)"/><rect width="13.725" height="66.212" fill="#0F3715" rx="3.318" transform="matrix(0 -1 -1 0 200.767 64.2515)"/><rect width="12.368" height="58.671" fill="#0F3715" rx="3.318" transform="matrix(0 -1 -1 0 203.783 48.8673)"/><rect width="13.725" height="73.15" fill="#134A1C" rx="3.318" transform="matrix(0 -1 -1 0 213.436 77.6747)"/><rect width="9.804" height="4.374" fill="#709E77" rx="2.187" transform="matrix(0 -1 -1 0 207.252 75.8649)"/><rect width="9.804" height="4.525" fill="#709E77" rx="2.262" transform="matrix(0 -1 -1 0 200.616 75.8649)"/><rect width="5.731" height="8.295" fill="#709E77" rx="2.866" transform="matrix(0 -1 -1 0 154.464 73.6024)"/><rect width="13.725" height="64.553" fill="#134A1C" rx="3.318" transform="matrix(0 -1 -1 0 198.504 62.2906)"/><rect width="9.653" height="3.62" fill="#709E77" rx="1.81" transform="matrix(0 -1 -1 0 192.773 60.33)"/><rect width="9.653" height="3.921" fill="#709E77" rx="1.961" transform="matrix(0 -1 -1 0 187.042 60.33)"/><rect width="5.882" height="7.39" fill="#709E77" rx="2.941" transform="matrix(0 -1 -1 0 146.47 58.2184)"/><rect width="11.915" height="57.163" fill="#134A1C" rx="3.318" transform="matrix(0 -1 -1 0 201.672 47.3589)"/><rect width="8.446" height="3.469" fill="#709E77" rx="1.734" transform="matrix(0 -1 -1 0 196.694 45.6998)"/><rect width="8.446" height="3.469" fill="#709E77" rx="1.734" transform="matrix(0 -1 -1 0 191.566 45.6998)"/><rect width="5.279" height="6.335" fill="#709E77" rx="2.639" transform="matrix(0 -1 -1 0 155.519 44.0408)"/><rect width="15.195" height="60.338" fill="#0F3715" rx="3.318" transform="matrix(0.974799 -0.223085 0.238345 0.971181 94.0001 20.8855)"/><rect width="13.876" height="79.183" x="80.107" fill="#0F3715" rx="3.318"/><rect width="18.702" height="76.619" x="24" y="3.167" fill="#0F3715" rx="3.318"/><rect width="14.027" height="53.09" x="64.27" y="26.093" fill="#0F3715" rx="3.318"/><rect width="16.289" height="59.877" x="44.512" y="19.607" fill="#0F3715" rx="3.318"/><rect width="15.161" height="60.33" fill="#134A1C" rx="3.318" transform="matrix(0.974682 -0.223596 0.237804 0.971313 97.4517 21.4889)"/><rect width="10.759" height="3.563" fill="#709E77" rx="1.781" transform="matrix(0.974682 -0.223596 0.237804 0.971313 100.811 25.957)"/><rect width="10.759" height="3.682" fill="#709E77" rx="1.841" transform="matrix(0.974682 -0.223596 0.237804 0.971313 102.11 31.2633)"/><rect width="6.235" height="6.769" fill="#709E77" rx="3.118" transform="matrix(0.974682 -0.223596 0.237804 0.971313 113.44 67.772)"/><rect width="13.876" height="79.183" x="83.576" y=".603" fill="#134A1C" rx="3.318"/><rect width="9.954" height="4.676" x="85.537" y="7.39" fill="#709E77" rx="2.338"/><rect width="9.954" height="4.676" x="85.537" y="14.63" fill="#709E77" rx="2.338"/><rect width="5.882" height="9.049" x="87.648" y="64.402" fill="#709E77" rx="2.941"/><rect width="18.702" height="76.619" x="27.62" y="3.771" fill="#134A1C" rx="3.318"/><rect width="13.273" height="4.525" x="30.335" y="10.256" fill="#709E77" rx="2.262"/><rect width="13.273" height="4.676" x="30.335" y="17.194" fill="#709E77" rx="2.338"/><rect width="7.692" height="8.597" x="33.2" y="65.609" fill="#709E77" rx="3.318"/><rect width="14.027" height="53.09" x="67.739" y="26.696" fill="#134A1C" rx="3.318"/><rect width="10.105" height="3.318" x="69.7" y="31.221" fill="#709E77" rx="1.659"/><rect width="10.105" height="3.167" x="69.7" y="36.047" fill="#709E77" rx="1.584"/><rect width="6.184" height="6.033" x="71.661" y="69.53" fill="#709E77" rx="3.017"/><rect width="16.138" height="59.877" x="48.132" y="20.21" fill="#134A1C" rx="3.318"/><rect width="11.614" height="3.771" x="50.394" y="25.339" fill="#709E77" rx="1.885"/><rect width="11.614" height="3.62" x="50.394" y="30.768" fill="#709E77" rx="1.81"/><rect width="7.089" height="6.787" x="52.657" y="68.475" fill="#709E77" rx="3.318"/><rect width="4.072" height="27.752" x="57.031" y="19.155" fill="#2E9231" rx=".452"/></svg>