<svg width="251" height="149" viewBox="0 0 251 149" fill="none" xmlns="http://www.w3.org/2000/svg">
<path d="M0.492432 13.3352C0.492432 6.34858 6.15619 0.684814 13.1428 0.684814H129.533C133.443 0.684814 137.133 2.49293 139.529 5.58273L234.364 127.87C240.81 136.182 234.886 148.272 224.367 148.272H13.1428C6.1562 148.272 0.492432 142.609 0.492432 135.622V13.3352Z" fill="#134515"/>
<path d="M8.32373 19.9614C8.32373 12.9748 13.9875 7.31104 20.9741 7.31104H124.807C128.714 7.31104 132.403 9.11697 134.799 12.2036L218.981 120.635C225.434 128.946 219.511 141.043 208.989 141.043H20.9741C13.9875 141.043 8.32373 135.38 8.32373 128.393V19.9614Z" fill="#123313"/>
</svg>
