<!-- filepath: /Users/JeMappelleCHJ/Desktop/JeMappelleCHJ/diamondhacks-2026/public/images/asi-one-logo.svg -->
<svg id="Layer_2" data-name="Layer 2" xmlns="http://www.w3.org/2000/svg" viewBox="0 0 300.7246 68.6227">
  <g id="Layer_1-2" data-name="Layer 1">
    <g>
      <path d="M98.18,17.1791l-12.3782,34.3582h4.6123l3.6514-10.2604h16.1543l3.7744,10.2604h4.7537l-12.7551-34.3582h-7.8127ZM95.5391,37.1351l5.6274-15.814h1.7119l5.8174,15.814h-13.1567Z" fill="#fff"/>
      <path d="M144.7869,33.6285c-1.7104-.7998-3.7415-1.2942-6.095-1.4824l-3.8123-.3295c-1.9141-.1566-3.3579-.7213-4.3298-1.6942-.9731-.9724-1.4592-2.0863-1.4592-3.3418,0-1.098.2744-2.1251.8235-3.0825.5488-.9572,1.3804-1.7336,2.4946-2.3298,1.1133-.5958,2.5181-.8943,4.2122-.8943,1.7571,0,3.1843.3137,4.2834.9414,1.0979.6279,1.906,1.4281,2.4238,2.4001.5176.9731.7764,2.0083.7764,3.1062h4.6125c0-2.1958-.5105-4.0867-1.5295-5.6714-1.0203-1.5839-2.4404-2.8157-4.2598-3.6947-1.8198-.8779-3.9224-1.3176-6.3069-1.3176-2.4163,0-4.5344.447-6.3535,1.3413-1.8201.8944-3.2402,2.1261-4.2598,3.6948-1.0198,1.5693-1.5295,3.4047-1.5295,5.5065,0,2.6672.9097,4.8171,2.73,6.448,1.8193,1.6318,4.2515,2.5732,7.2952,2.8239l3.8123.3295c2.3535.2201,4.1418.793,5.3655,1.7179,1.2239.9261,1.8357,2.0944,1.8357,3.5065,0,1.1614-.314,2.2356-.9414,3.2241-.6279.9885-1.6001,1.7886-2.9182,2.4001-1.3176.6119-3.012.9181-5.0833.9181-2.2278,0-3.9927-.3452-5.2947-1.0355-1.3022-.6899-2.2283-1.5533-2.7766-2.5885-.5496-1.0355-.824-2.071-.824-3.1066h-4.6125c0,2.1024.5334,3.9852,1.6006,5.6479,1.0664,1.6636,2.604,2.9651,4.6123,3.9065,2.0076.9414,4.4395,1.4121,7.2949,1.4121,2.6985,0,5.0671-.4554,7.1072-1.3651,2.0393-.9095,3.624-2.1805,4.7537-3.8123,1.1299-1.631,1.6946-3.4984,1.6946-5.601,0-1.8511-.4634-3.443-1.3887-4.777-.9258-1.3333-2.2437-2.4005-3.9536-3.2008Z" fill="#fff"/>
      <rect x="157.942" y="17.1791" width="4.6125" height="34.3582" fill="#fff"/>
      <rect x="173.993" y="22.6002" width="5.46" height="5.7419" fill="#fff"/>
      <rect x="173.993" y="40.0144" width="5.46" height="5.7421" fill="#fff"/>
      <path d="M206.0782,52.37c-2.9702,0-5.6061-.5119-7.8323-1.5198-2.2361-1.0129-4.1468-2.367-5.6775-4.0248-1.5357-1.6627-2.7093-3.5486-3.4861-5.6081-.7798-2.0635-1.1756-4.2004-1.1756-6.3492v-1.2053c0-2.1478.4067-4.2936,1.2073-6.3789.7966-2.0784,1.9911-3.9762,3.5506-5.6418,1.5506-1.6557,3.4702-2.999,5.7083-3.992,2.2311-.9881,4.8234-1.4901,7.7053-1.4901s5.4732.502,7.7053,1.4901c2.2331.9911,4.1537,2.3343,5.7093,3.993,1.5565,1.6647,2.751,3.5625,3.5486,5.6408.8016,2.0883,1.2083,4.2351,1.2083,6.3789v1.2053c0,2.1498-.3958,4.2857-1.1756,6.3492-.7788,2.0595-1.9524,3.9464-3.4871,5.6071-1.5317,1.6577-3.4414,3.0129-5.6775,4.0258-2.2262,1.0079-4.8611,1.5198-7.8313,1.5198ZM206.0782,19.9695c-2.7589,0-5.2043.6329-7.2658,1.8809-2.0714,1.253-3.6795,2.9831-4.7817,5.1428-1.0923,2.1359-1.6468,4.5823-1.6468,7.2718,0,2.6379.5407,5.0595,1.6081,7.1974,1.0823,2.1617,2.6657,3.9037,4.7083,5.1775,2.0436,1.2748,4.5258,1.9206,7.3779,1.9206,2.8502,0,5.3323-.6458,7.3769-1.9206,2.0456-1.2748,3.6289-3.0168,4.7073-5.1775,1.0675-2.1349,1.6091-4.5555,1.6091-7.1974,0-2.6865-.5536-5.1339-1.6448-7.2718-1.1061-2.1607-2.7033-3.8908-4.747-5.1408-2.0416-1.249-4.498-1.8829-7.3015-1.8829Z" fill="#fff"/>
      <path d="M256.4576,51.4872v-21.0538c0-3.0458-.8872-5.5418-2.6389-7.4176-1.7666-1.8946-4.199-2.8543-7.228-2.8543-3.1044,0-5.6659.9865-7.6121,2.9317-1.9452,1.9462-2.9317,4.5524-2.9317,7.7471v20.6469h-4.5424V17.2448h4.597v7.5257h0s.8041-2.2502,2.6726-4.3373c1.9824-2.2144,5.154-4.2732,9.5117-4.2732h.2719c4.2814,0,7.4427,1.818,9.4574,4.4351,2.0464,2.6588,2.9839,6.063,2.9839,11.195v19.6971h-4.5414Z" fill="#fff"/>
      <path d="M285.0079,52.3769c-7.6978,0-16.9108-5.1055-16.9108-18.706,0-7.2808,4.6016-17.5109,16.513-17.5109,10.9913,0,16.1145,8.2053,16.1145,16.448v2.0319h-28.1631l.0474.8694c.1174,2.1711.5339,4.1498,1.2395,5.8787.8783,2.1602,2.2639,3.8951,4.1192,5.1544,1.8583,1.2622,4.2267,1.9027,7.0403,1.9027,2.9517,0,5.4031-.677,7.286-2.0122,1.6619-1.1763,2.7691-2.5589,3.2902-4.1083l.0188-.0572h4.3096l-.0296.1066c-.5112,1.8395-1.349,3.4728-2.4899,4.8554-1.3688,1.6579-3.1175,2.9418-5.1978,3.8162-2.105.8832-4.5238,1.3313-7.1873,1.3313ZM284.6102,20.0917c-7.9584,0-11.2605,6.0502-11.9114,11.414h23.6149c-.2374-5.5001-3.7338-11.414-11.7035-11.414Z" fill="#fff"/>
      <path d="M0,22.8742h22.8742v22.8742H0v-22.8742ZM57.1855,45.7484h0c6.3165,0,11.4371-5.1206,11.4371-11.4371h0c0-6.3166-5.1206-11.4371-11.4371-11.4371h0c-6.3165,0-11.4371,5.1206-11.4371,11.4371h0c0,6.3166,5.1206,11.4371,11.4371,11.4371ZM45.7484,45.7484h-22.8742s0,22.8742,0,22.8742h22.8742v-22.8742ZM45.7484,0h-22.8742v22.8742h22.8742V0Z" fill="#fff"/>
    </g>
  </g>
</svg>