<svg width="240" height="33" viewBox="0 0 240 33" fill="none" xmlns="http://www.w3.org/2000/svg">
<rect width="240" height="10.4537" rx="3.58462" fill="#884C29"/>
<path d="M0 4.90015H240V11.7693C240 13.749 238.395 15.3539 236.415 15.3539H3.58462C1.60489 15.3539 0 13.749 0 11.7692V4.90015Z" fill="#5B1A2E"/>
<path d="M40.1815 13.176H60.3267L56.41 29.5886C56.0249 31.2025 54.5825 32.3412 52.9233 32.3412H48.3342C46.7318 32.3412 45.324 31.2776 44.886 29.7362L40.1815 13.176Z" fill="#461420"/>
<path d="M176.515 13.176H196.661L192.744 29.5886C192.359 31.2025 190.916 32.3412 189.257 32.3412H184.668C183.066 32.3412 181.658 31.2776 181.22 29.7362L176.515 13.176Z" fill="#461420"/>
</svg>
