<svg width="103" height="81" viewBox="0 0 103 81" fill="none" xmlns="http://www.w3.org/2000/svg">
<rect width="15.1953" height="60.3381" rx="3.31814" transform="matrix(0.974799 -0.223085 0.238345 0.971181 70.0001 20.8855)" fill="#0F3715"/>
<rect x="56.1068" width="13.8759" height="79.183" rx="3.31814" fill="#0F3715"/>
<rect y="3.16724" width="18.7023" height="76.619" rx="3.31814" fill="#0F3715"/>
<rect x="40.2702" y="26.0928" width="14.0267" height="53.0903" rx="3.31814" fill="#0F3715"/>
<rect x="20.5121" y="19.6073" width="16.2891" height="59.8774" rx="3.31814" fill="#0F3715"/>
<rect width="15.1606" height="60.3298" rx="3.31814" transform="matrix(0.974682 -0.223596 0.237804 0.971313 73.4517 21.4889)" fill="#134A1C"/>
<rect width="10.7591" height="3.56279" rx="1.78139" transform="matrix(0.974682 -0.223596 0.237804 0.971313 76.811 25.957)" fill="#709E77"/>
<rect width="10.7591" height="3.68154" rx="1.84077" transform="matrix(0.974682 -0.223596 0.237804 0.971313 78.1101 31.2633)" fill="#709E77"/>
<rect width="6.2354" height="6.76929" rx="3.1177" transform="matrix(0.974682 -0.223596 0.237804 0.971313 89.4397 67.772)" fill="#709E77"/>
<rect x="59.5758" y="0.603271" width="13.8759" height="79.183" rx="3.31814" fill="#134A1C"/>
<rect x="61.5366" y="7.39038" width="9.95443" height="4.67557" rx="2.33778" fill="#709E77"/>
<rect x="61.5366" y="14.63" width="9.95443" height="4.67557" rx="2.33778" fill="#709E77"/>
<rect x="63.648" y="64.4022" width="5.88217" height="9.04949" rx="2.94108" fill="#709E77"/>
<rect x="3.61981" y="3.77051" width="18.7023" height="76.619" rx="3.31814" fill="#134A1C"/>
<rect x="6.33466" y="10.2561" width="13.2726" height="4.52474" rx="2.26237" fill="#709E77"/>
<rect x="6.33466" y="17.194" width="13.2726" height="4.67557" rx="2.33778" fill="#709E77"/>
<rect x="9.20032" y="65.6089" width="7.69206" height="8.59701" rx="3.31814" fill="#709E77"/>
<rect x="43.7392" y="26.696" width="14.0267" height="53.0903" rx="3.31814" fill="#134A1C"/>
<rect x="45.6999" y="31.2207" width="10.1053" height="3.31814" rx="1.65907" fill="#709E77"/>
<rect x="45.6999" y="36.047" width="10.1053" height="3.16732" rx="1.58366" fill="#709E77"/>
<rect x="47.6606" y="69.5302" width="6.18382" height="6.03299" rx="3.0165" fill="#709E77"/>
<rect x="24.132" y="20.2104" width="16.1383" height="59.8774" rx="3.31814" fill="#134A1C"/>
<rect x="26.3943" y="25.3386" width="11.6135" height="3.77062" rx="1.88531" fill="#709E77"/>
<rect x="26.3943" y="30.7683" width="11.6135" height="3.61979" rx="1.8099" fill="#709E77"/>
<rect x="28.6567" y="68.4745" width="7.08876" height="6.78711" rx="3.31814" fill="#709E77"/>
<rect x="33.0306" y="19.1547" width="4.07227" height="27.7518" rx="0.452474" fill="#2E9231"/>
</svg>
