<svg width="83" height="45" viewBox="0 0 83 45" fill="none" xmlns="http://www.w3.org/2000/svg">
<rect width="14.3284" height="75.1107" rx="3.31814" transform="matrix(0 -1 -1 0 82.9999 44.4846)" fill="#0F3715"/>
<rect width="13.7251" height="66.2121" rx="3.31814" transform="matrix(0 -1 -1 0 67.7667 29.2515)" fill="#0F3715"/>
<rect width="12.3676" height="58.6708" rx="3.31814" transform="matrix(0 -1 -1 0 70.7832 13.8673)" fill="#0F3715"/>
<rect width="13.7251" height="73.15" rx="3.31814" transform="matrix(0 -1 -1 0 80.436 42.6747)" fill="#134A1C"/>
<rect width="9.80361" height="4.37392" rx="2.18696" transform="matrix(0 -1 -1 0 74.2521 40.8649)" fill="#709E77"/>
<rect width="9.80361" height="4.52474" rx="2.26237" transform="matrix(0 -1 -1 0 67.616 40.8649)" fill="#709E77"/>
<rect width="5.73134" height="8.29536" rx="2.86567" transform="matrix(0 -1 -1 0 21.4635 38.6024)" fill="#709E77"/>
<rect width="13.7251" height="64.553" rx="3.31814" transform="matrix(0 -1 -1 0 65.5043 27.2906)" fill="#134A1C"/>
<rect width="9.65279" height="3.61979" rx="1.8099" transform="matrix(0 -1 -1 0 59.7729 25.33)" fill="#709E77"/>
<rect width="9.65279" height="3.92144" rx="1.96072" transform="matrix(0 -1 -1 0 54.0416 25.33)" fill="#709E77"/>
<rect width="5.88217" height="7.39041" rx="2.94108" transform="matrix(0 -1 -1 0 13.4697 23.2184)" fill="#709E77"/>
<rect width="11.9152" height="57.1626" rx="3.31814" transform="matrix(0 -1 -1 0 68.6716 12.3589)" fill="#134A1C"/>
<rect width="8.44619" height="3.46897" rx="1.73448" transform="matrix(0 -1 -1 0 63.6945 10.6998)" fill="#709E77"/>
<rect width="8.44619" height="3.46897" rx="1.73448" transform="matrix(0 -1 -1 0 58.5664 10.6998)" fill="#709E77"/>
<rect width="5.27887" height="6.33464" rx="2.63943" transform="matrix(0 -1 -1 0 22.5193 9.04077)" fill="#709E77"/>
</svg>
