<svg viewBox="0 0 916 778" fill="none" xmlns="http://www.w3.org/2000/svg">
<g style="mix-blend-mode:overlay" filter="url(#filter0_f_1470_1429)">
<path d="M2 775.61L172.16 77L743.103 77L913.263 775.61L2 775.61Z" fill="url(#paint0_linear_1470_1429)"/>
</g>
<mask id="mask0_1470_1429" style="mask-type:alpha" maskUnits="userSpaceOnUse" x="172" y="0" width="572" height="156">
<ellipse cx="458.025" cy="77.8396" rx="285.676" ry="77.5994" fill="#D9D9D9"/>
</mask>
<g mask="url(#mask0_1470_1429)">
<ellipse cx="458.025" cy="77.8396" rx="285.676" ry="77.5994" fill="url(#paint1_linear_1470_1429)"/>
<path d="M308.684 98.013C308.684 98.013 301.085 107.899 298.034 119.71C295.168 130.806 296.857 143.811 296.293 145.566C295.13 149.19 281.405 154.668 281.405 154.668" stroke="#FF8768" stroke-width="4.77729" stroke-linecap="round" stroke-linejoin="round"/>
<path d="M399.202 94.7022C420.773 98.178 424.097 94.9838 440.6 114.305" stroke="#FF8768" stroke-width="4.77729" stroke-linecap="round" stroke-linejoin="round"/>
<path d="M319.329 71.2053C299.331 68.3946 281.813 70.6396 262.871 86.9284" stroke="url(#paint2_linear_1470_1429)" stroke-width="4.77729" stroke-linecap="round" stroke-linejoin="round"/>
<rect x="277.771" y="43.6621" width="109.404" height="109.404" rx="5.97162" transform="rotate(-25.53 277.771 43.6621)" fill="url(#paint3_linear_1470_1429)"/>
<path d="M355.032 121.348C355.032 121.348 355.183 142.687 350.908 151.549C346.633 160.41 335.566 170.048 335.37 171.571C334.966 174.715 344.934 185.053 344.934 185.053" stroke="#FE9C82" stroke-width="4.77729" stroke-linecap="round" stroke-linejoin="round"/>
<ellipse cx="374.741" cy="66.536" rx="4.15775" ry="3.98981" transform="rotate(19.1544 374.741 66.536)" fill="#333333"/>
<ellipse cx="352.023" cy="62.6054" rx="4.15775" ry="3.98981" transform="rotate(19.1544 352.023 62.6054)" fill="#333333"/>
<path d="M345.938 46.1037C347.346 43.4899 353.087 42.7563 356.305 44.7786" stroke="#333333" stroke-width="3.13377" stroke-linecap="round" stroke-linejoin="round"/>
<path d="M375.702 49.7091C378.44 48.417 383.634 51.068 385.082 54.4963" stroke="#333333" stroke-width="3.13377" stroke-linecap="round" stroke-linejoin="round"/>
<path d="M610.272 104.821C610.272 104.821 617.578 114.734 620.355 126.456C622.964 137.47 621.036 150.277 621.558 152.021C622.634 155.622 636.077 161.305 636.077 161.305" stroke="#94C0FD" stroke-width="3.31547" stroke-linecap="round"/>
<path d="M521.104 96.8063C499.736 99.8078 496.517 96.5876 479.838 115.336" stroke="#94C0FD" stroke-width="3.31548" stroke-linecap="round"/>
<rect width="108.045" height="108.045" rx="4.14435" transform="matrix(-0.893469 -0.449125 -0.449125 0.893469 641.871 51.7725)" fill="url(#paint4_linear_1470_1429)"/>
<path d="M615.805 64.4774C615.992 84.4209 614.25 86.5867 595.87 103.045" stroke="#94C0FD" stroke-width="3.31548" stroke-linecap="round"/>
<path d="M564.045 126.937C564.045 126.937 563.47 148.004 567.515 156.838C571.559 165.673 582.294 175.411 582.456 176.918C582.792 180.03 572.744 190.039 572.744 190.039" stroke="#94C0FD" stroke-width="3.31548" stroke-linecap="round"/>
<ellipse cx="4.10609" cy="3.94024" rx="4.10609" ry="3.94024" transform="matrix(-0.951073 0.308966 0.308966 0.951073 543.713 81.5971)" fill="#333333"/>
<ellipse cx="4.10609" cy="3.94024" rx="4.10609" ry="3.94024" transform="matrix(-0.951073 0.308966 0.308966 0.951073 566.221 78.1689)" fill="#333333"/>
<path d="M569.866 67.0134C568.527 64.4045 562.873 63.5657 559.656 65.4982" stroke="#333333" stroke-width="3.09484" stroke-linecap="round" stroke-linejoin="round"/>
<path d="M540.412 69.9792C537.733 68.6488 532.552 71.1627 531.054 74.5188" stroke="#333333" stroke-width="3.09484" stroke-linecap="round" stroke-linejoin="round"/>
<path d="M550.607 97.1373C548.988 92.7395 551.334 93.0581 554.114 92.0353C556.894 91.0125 559.056 89.0355 560.674 93.4334C562.292 97.8312 561.35 102.226 558.57 103.248C555.79 104.271 552.225 101.535 550.607 97.1373Z" stroke="#333333" stroke-width="3.135"/>
<path fill-rule="evenodd" clip-rule="evenodd" d="M458.02 183.761C780.164 183.761 1041.31 112.824 1041.31 25.3179C1041.31 -62.1879 780.164 -133.125 458.02 -133.125C135.875 -133.125 -125.275 -62.1879 -125.275 25.3179C-125.275 112.824 135.875 183.761 458.02 183.761ZM458.024 116.462C607.172 116.462 728.081 81.72 728.081 38.8631C728.081 -3.9939 607.172 -38.7363 458.024 -38.7363C308.875 -38.7363 187.967 -3.9939 187.967 38.8631C187.967 81.72 308.875 116.462 458.024 116.462Z" fill="#D9D9D9"/>
<path d="M430.591 116.127C428.144 112.211 429.335 107.053 433.251 104.607C437.166 102.16 442.324 103.351 444.771 107.266C447.218 111.182 446.027 116.34 442.111 118.786C438.196 121.233 433.038 120.043 430.591 116.127Z" fill="#FF8768"/>
<path d="M253.044 84.4747C256.545 81.4642 261.824 81.8617 264.834 85.3625C267.845 88.8634 267.447 94.1418 263.946 97.1523C260.445 100.163 255.167 99.7653 252.156 96.2645C249.146 92.7637 249.543 87.4852 253.044 84.4747Z" fill="url(#paint5_linear_1470_1429)"/>
<path d="M489.697 117.334C492.191 113.517 491.118 108.401 487.301 105.907C483.484 103.413 478.367 104.485 475.873 108.303C473.379 112.12 474.452 117.237 478.269 119.731C482.087 122.225 487.203 121.152 489.697 117.334Z" fill="#94C0FD"/>
<path d="M597.008 112.986C600.405 109.945 600.693 104.725 597.651 101.328C594.609 97.9307 589.39 97.6428 585.993 100.685C582.596 103.726 582.308 108.946 585.35 112.343C588.391 115.74 593.611 116.028 597.008 112.986Z" fill="#94C0FD"/>
<path d="M366.052 83.4209C364.307 87.77 362.29 87.9089 359.541 86.8059C356.792 85.7029 354.351 83.7756 356.096 79.4265C357.841 75.0774 361.484 72.4459 364.234 73.549C366.983 74.652 367.797 79.0718 366.052 83.4209Z" stroke="#333333" stroke-width="3.135"/>
</g>
<defs>
<filter id="filter0_f_1470_1429" x="0.2" y="75.2" width="914.864" height="702.21" filterUnits="userSpaceOnUse" color-interpolation-filters="sRGB">
<feFlood flood-opacity="0" result="BackgroundImageFix"/>
<feBlend mode="normal" in="SourceGraphic" in2="BackgroundImageFix" result="shape"/>
<feGaussianBlur stdDeviation="0.9" result="effect1_foregroundBlur_1470_1429"/>
</filter>
<linearGradient id="paint0_linear_1470_1429" x1="420.749" y1="173.776" x2="420.749" y2="353.445" gradientUnits="userSpaceOnUse">
<stop stop-color="white"/>
<stop offset="1" stop-color="#999999" stop-opacity="0"/>
</linearGradient>
<linearGradient id="paint1_linear_1470_1429" x1="458.025" y1="270.318" x2="458.025" y2="-78.0458" gradientUnits="userSpaceOnUse">
<stop stop-color="#0B1124"/>
<stop offset="1" stop-color="#414F7E"/>
</linearGradient>
<linearGradient id="paint2_linear_1470_1429" x1="296.368" y1="71.4787" x2="257.053" y2="70.8219" gradientUnits="userSpaceOnUse">
<stop offset="0.095" stop-color="#E04F2C"/>
<stop offset="1" stop-color="#FFC2B4"/>
</linearGradient>
<linearGradient id="paint3_linear_1470_1429" x1="365.869" y1="175.197" x2="291.892" y2="20.4503" gradientUnits="userSpaceOnUse">
<stop stop-color="#FDAD94"/>
<stop offset="0.736029" stop-color="#FF724F"/>
</linearGradient>
<linearGradient id="paint4_linear_1470_1429" x1="157.65" y1="58.362" x2="31.5039" y2="76.919" gradientUnits="userSpaceOnUse">
<stop stop-color="#94C0FD"/>
<stop offset="1" stop-color="#3070C7"/>
</linearGradient>
<linearGradient id="paint5_linear_1470_1429" x1="263.946" y1="97.1523" x2="253.044" y2="84.4747" gradientUnits="userSpaceOnUse">
<stop offset="0.095" stop-color="#E04F2C"/>
<stop offset="1" stop-color="#FFC2B4"/>
</linearGradient>
</defs>
</svg>
