<svg viewBox="0 0 788 1245" fill="none" xmlns="http://www.w3.org/2000/svg">
<mask id="mask0_1470_1468" style="mask-type:alpha" maskUnits="userSpaceOnUse" x="275" y="635" width="224" height="610">
<path d="M498.96 635.072L498.96 1166.63L387.208 1244.49L275.457 1166.63L275.457 635.072L498.96 635.072Z" fill="white"/>
</mask>
<g mask="url(#mask0_1470_1468)">
<path d="M498.96 635.072L498.96 1166.63L387.208 1244.49L275.457 1166.63L275.457 635.072L498.96 635.072Z" fill="url(#paint0_linear_1470_1468)"/>
<path d="M602.014 635.315L602.014 1166.88L490.263 1244.73L378.512 1166.88L378.512 635.316L602.014 635.315Z" fill="url(#paint1_linear_1470_1468)"/>
</g>
<path d="M387.208 557.46L498.96 635.315L387.208 713.171L275.457 635.315L387.208 557.46Z" fill="#D9D9D9"/>
<mask id="mask1_1470_1468" style="mask-type:alpha" maskUnits="userSpaceOnUse" x="222" y="631" width="331" height="136">
<path d="M552.364 631.88L552.364 651.262L387.207 766.324L222.051 651.262L222.051 631.88L552.364 631.88Z" fill="#81A1CA"/>
</mask>
<g mask="url(#mask1_1470_1468)">
<path d="M552.364 631.88L552.364 651.262L387.207 766.324L222.051 651.262L222.051 631.88L552.364 631.88Z" fill="url(#paint2_linear_1470_1468)"/>
<rect x="387.207" y="533.795" width="259.531" height="259.531" fill="url(#paint3_linear_1470_1468)" fill-opacity="0.8"/>
</g>
<path d="M387.207 517.178L552.364 632.24L387.207 747.302L222.051 632.24L387.207 517.178Z" fill="#6682A6"/>
<mask id="mask2_1470_1468" style="mask-type:alpha" maskUnits="userSpaceOnUse" x="172" y="526" width="431" height="214">
<path d="M602.016 526.616L602.016 590.316L387.209 739.968L172.402 590.316L172.402 526.616L602.016 526.616Z" fill="white"/>
</mask>
<g mask="url(#mask2_1470_1468)">
<path d="M602.016 526.616L602.016 590.316L387.209 739.968L172.402 590.316L172.402 526.616L602.016 526.616Z" fill="#81A1CA"/>
<rect x="387.215" y="485.17" width="259.531" height="259.531" fill="url(#paint4_linear_1470_1468)" fill-opacity="0.8"/>
</g>
<path d="M387.209 377.432L602.016 527.085L387.209 676.737L172.402 527.085L387.209 377.432Z" fill="#D9D9D9"/>
<mask id="mask3_1470_1468" style="mask-type:alpha" maskUnits="userSpaceOnUse" x="172" y="377" width="431" height="300">
<path d="M387.209 377.432L602.016 527.085L387.209 676.737L172.402 527.085L387.209 377.432Z" fill="#D9D9D9"/>
</mask>
<g mask="url(#mask3_1470_1468)">
<path d="M281.077 458.095C254.962 458.095 211.19 497.367 194.449 512.778C199.17 553.952 272.061 563.533 291.283 580.709C321.462 607.677 388.893 666.957 424.483 645.462C434.527 633.635 504.5 601.352 527.602 580.709C550.704 560.066 558.642 572.644 556.446 545.227C554.25 517.811 557.545 520.67 538.461 504.327C519.377 487.985 492.843 479.598 481.962 477.448H389.053C363.942 470.997 307.192 458.095 281.077 458.095Z" fill="#7FAAC7"/>
</g>
<mask id="mask4_1470_1468" style="mask-type:alpha" maskUnits="userSpaceOnUse" x="209" y="429" width="346" height="183">
<path d="M284.359 429.885C260.868 429.885 224.879 462.26 209.82 478.448C214.067 521.698 276.249 540.639 293.54 558.681C320.687 587.008 388.21 627.291 420.225 604.712C429.26 592.289 478.917 593.741 499.698 572.057C520.478 550.373 563.04 535.862 553.152 524.753C547.881 516.47 533.049 495.615 515.882 478.448C498.716 461.281 474.848 452.472 465.06 450.213H381.486C358.898 443.437 307.851 429.885 284.359 429.885Z" fill="white"/>
</mask>
<g mask="url(#mask4_1470_1468)">
<g filter="url(#filter0_ii_1470_1468)">
<path d="M284.359 429.885C260.868 429.885 224.879 462.26 209.82 478.448C214.067 521.698 276.249 540.639 293.54 558.681C320.687 587.008 388.21 627.291 420.225 604.712C429.26 592.289 478.917 593.741 499.698 572.057C520.478 550.373 546.141 553.119 544.166 524.321C542.19 495.522 533.049 495.615 515.882 478.448C498.716 461.281 474.848 452.472 465.06 450.213H381.486C358.899 443.437 307.851 429.885 284.359 429.885Z" fill="url(#paint5_radial_1470_1468)"/>
<path d="M284.359 429.885C260.868 429.885 224.879 462.26 209.82 478.448C214.067 521.698 276.249 540.639 293.54 558.681C320.687 587.008 388.21 627.291 420.225 604.712C429.26 592.289 478.917 593.741 499.698 572.057C520.478 550.373 546.141 553.119 544.166 524.321C542.19 495.522 533.049 495.615 515.882 478.448C498.716 461.281 474.848 452.472 465.06 450.213H381.486C358.899 443.437 307.851 429.885 284.359 429.885Z" fill="url(#paint6_radial_1470_1468)" fill-opacity="0.2"/>
</g>
<g filter="url(#filter1_f_1470_1468)">
<path d="M284.359 429.884C266.622 429.884 241.759 448.342 224.161 464.353C221.397 466.868 224.706 471.541 228.27 470.414C285.397 452.34 291.454 521.48 313.66 526.414C337.474 531.706 374.682 542.241 394.651 564.804C395.534 565.801 396.932 566.218 398.203 565.82C432.886 554.957 433.827 546.011 454.2 524.752C472.941 505.197 496.418 499.928 521.004 504.053C523.94 504.545 527.17 500.847 527.103 497.871C527.012 493.828 526.513 489.079 515.882 478.447C498.92 461.485 475.416 452.683 465.416 450.297C465.173 450.239 464.934 450.213 464.684 450.213H381.971C381.649 450.213 381.343 450.17 381.035 450.078C358.226 443.258 307.696 429.884 284.359 429.884Z" fill="#FF0000"/>
</g>
<g filter="url(#filter2_f_1470_1468)">
<path d="M314.56 518.975L301.83 477.106C301.392 475.666 300.702 474.315 299.791 473.117L270.421 434.487C267.357 430.456 266.982 424.99 269.467 420.579L305.747 356.172C307.042 353.872 309.024 352.033 311.414 350.911L348.708 333.419C349.507 333.044 350.342 332.754 351.2 332.553L389.508 323.571C392.916 322.772 396.503 323.416 399.42 325.351L458.857 364.782C459.78 365.394 460.619 366.125 461.352 366.955L540.976 457.084C543.025 459.404 544.155 462.391 544.155 465.486L544.155 541.675C544.155 544.436 543.255 547.121 541.591 549.324L518.824 579.465C517.64 581.034 516.106 582.306 514.346 583.181L497.303 591.65C489.833 595.362 480.874 590.981 479.218 582.805L475.103 562.484C474.354 558.789 472.002 555.618 468.682 553.83L414.373 524.587C412.295 523.468 409.945 522.951 407.589 523.094L327.469 527.95C321.608 528.305 316.268 524.593 314.56 518.975Z" fill="url(#paint7_radial_1470_1468)" fill-opacity="0.53" style="mix-blend-mode:lighten"/>
</g>
</g>
<path d="M216.477 471.485C233.865 501.112 279.18 516.714 293.538 531.697C320.685 560.024 388.209 600.307 420.223 577.728C429.258 565.305 478.916 566.757 499.696 545.073C516.829 527.195 537.281 525.924 542.826 509.888" stroke="url(#paint8_linear_1470_1468)" stroke-width="5.87756" stroke-linecap="round" stroke-linejoin="bevel" stroke-dasharray="5.25 5.25"/>
<path d="M216.477 471.485C233.865 501.112 279.18 516.714 293.538 531.697C320.685 560.024 388.209 600.307 420.223 577.728C429.258 565.305 478.916 566.757 499.696 545.073C516.829 527.195 537.281 525.924 542.826 509.888" stroke="url(#paint9_linear_1470_1468)" stroke-width="2.51895" stroke-linecap="round" stroke-linejoin="bevel"/>
<g filter="url(#filter3_dddd_1470_1468)">
<path d="M319.491 395.44L326.807 349.377C327.353 345.943 329.565 343.002 332.713 341.525L361.551 327.998C362.211 327.689 362.902 327.449 363.612 327.283L395.283 319.857C398.101 319.196 401.066 319.728 403.478 321.328L453.111 354.255C453.548 354.545 453.963 354.868 454.352 355.22L499.261 395.878C501.617 398.011 502.879 401.098 502.693 404.271L500.708 438.062L499.41 468.019C499.236 472.043 496.773 475.612 493.073 477.203L461.634 490.723L425.059 501.218C424.414 501.403 423.753 501.526 423.085 501.585L358.664 507.255L335.232 507.255C330.172 507.255 325.833 503.644 324.915 498.668L319.234 467.884C319.115 467.241 319.057 466.588 319.06 465.934L319.361 397.039C319.363 396.504 319.407 395.969 319.491 395.44Z" fill="url(#paint10_linear_1470_1468)" fill-opacity="0.85"/>
<g style="mix-blend-mode:soft-light">
<path fill-rule="evenodd" clip-rule="evenodd" d="M408.445 313.702C406.001 311.793 403.124 310.516 400.068 309.986C397.013 309.455 393.874 309.688 390.929 310.662L324.819 332.497C320.775 333.843 317.756 337.248 316.91 341.423C307.533 387.749 307.497 435.481 316.804 481.821L321.69 506.149C322.313 509.247 324.024 512.02 326.513 513.967C329.003 515.913 332.106 516.905 335.263 516.763L360.045 515.648C407.267 513.511 453.588 501.969 496.292 481.698C500.139 479.87 502.708 476.114 503.039 471.864L508.276 402.426C508.51 399.337 507.977 396.237 506.727 393.402C505.476 390.568 503.545 388.085 501.105 386.175L408.445 313.702ZM396.001 325.982C396.421 325.843 396.869 325.811 397.305 325.888C397.741 325.964 398.152 326.147 398.5 326.42L408.532 361.308L362.77 377.695C361.709 378.308 360.702 379.011 359.761 379.796C354.138 374.681 349.716 370.449 344.254 365.164L341.057 344.143L396.001 325.982ZM330.554 356.438C323.953 396.246 324.512 436.913 332.204 476.525L352.1 394.641C345.26 388.492 339.654 383.187 333.041 376.794L330.554 356.438ZM365.362 406.283L344.629 490.791L419.869 448.906C401.063 435.527 382.872 421.302 365.354 406.276M434.364 458.971L361.479 499.418C401.777 497.334 441.379 488.072 478.422 472.069L459.411 473.299C451.616 468.415 441.987 464.121 434.364 458.971ZM487.814 458.906L467.971 459.608C461.525 455.581 453.22 452.177 446.901 447.953C447.441 446.85 447.886 445.703 448.23 444.524L461.521 402.744L491.167 398.884C491.516 399.157 491.792 399.511 491.971 399.915C492.15 400.32 492.227 400.763 492.194 401.204L487.814 458.906ZM433.142 438.519C412.024 423.698 391.721 407.822 372.235 390.89L422.309 372.081L447.744 391.971L433.142 438.519Z" fill="white" fill-opacity="0.7"/>
</g>
</g>
<defs>
<filter id="filter0_ii_1470_1468" x="202.762" y="429.045" width="341.511" height="183.034" filterUnits="userSpaceOnUse" color-interpolation-filters="sRGB">
<feFlood flood-opacity="0" result="BackgroundImageFix"/>
<feBlend mode="normal" in="SourceGraphic" in2="BackgroundImageFix" result="shape"/>
<feColorMatrix in="SourceAlpha" type="matrix" values="0 0 0 0 0 0 0 0 0 0 0 0 0 0 0 0 0 0 127 0" result="hardAlpha"/>
<feOffset dx="-18.7884" dy="0.76169"/>
<feGaussianBlur stdDeviation="3.52917"/>
<feComposite in2="hardAlpha" operator="arithmetic" k2="-1" k3="1"/>
<feColorMatrix type="matrix" values="0 0 0 0 0.904167 0 0 0 0 0 0 0 0 0 0 0 0 0 0.6 0"/>
<feBlend mode="soft-light" in2="shape" result="effect1_innerShadow_1470_1468"/>
<feColorMatrix in="SourceAlpha" type="matrix" values="0 0 0 0 0 0 0 0 0 0 0 0 0 0 0 0 0 0 127 0" result="hardAlpha"/>
<feOffset dy="-18.4723"/>
<feGaussianBlur stdDeviation="0.419826"/>
<feComposite in2="hardAlpha" operator="arithmetic" k2="-1" k3="1"/>
<feColorMatrix type="matrix" values="0 0 0 0 0 0 0 0 0 0 0 0 0 0 0 0 0 0 0.3 0"/>
<feBlend mode="normal" in2="effect1_innerShadow_1470_1468" result="effect2_innerShadow_1470_1468"/>
</filter>
<filter id="filter1_f_1470_1468" x="160.161" y="366.91" width="429.916" height="262.033" filterUnits="userSpaceOnUse" color-interpolation-filters="sRGB">
<feFlood flood-opacity="0" result="BackgroundImageFix"/>
<feBlend mode="normal" in="SourceGraphic" in2="BackgroundImageFix" result="shape"/>
<feGaussianBlur stdDeviation="31.4869" result="effect1_foregroundBlur_1470_1468"/>
</filter>
<filter id="filter2_f_1470_1468" x="260.573" y="315.974" width="290.845" height="284.272" filterUnits="userSpaceOnUse" color-interpolation-filters="sRGB">
<feFlood flood-opacity="0" result="BackgroundImageFix"/>
<feBlend mode="normal" in="SourceGraphic" in2="BackgroundImageFix" result="shape"/>
<feGaussianBlur stdDeviation="3.63072" result="effect1_foregroundBlur_1470_1468"/>
</filter>
<filter id="filter3_dddd_1470_1468" x="-92.2066" y="-65.8785" width="981.71" height="981.71" filterUnits="userSpaceOnUse" color-interpolation-filters="sRGB">
<feFlood flood-opacity="0" result="BackgroundImageFix"/>
<feColorMatrix in="SourceAlpha" type="matrix" values="0 0 0 0 0 0 0 0 0 0 0 0 0 0 0 0 0 0 127 0" result="hardAlpha"/>
<feOffset/>
<feGaussianBlur stdDeviation="11.0556"/>
<feColorMatrix type="matrix" values="0 0 0 0 0.490196 0 0 0 0 0.682353 0 0 0 0 0.831373 0 0 0 1 0"/>
<feBlend mode="normal" in2="BackgroundImageFix" result="effect1_dropShadow_1470_1468"/>
<feColorMatrix in="SourceAlpha" type="matrix" values="0 0 0 0 0 0 0 0 0 0 0 0 0 0 0 0 0 0 127 0" result="hardAlpha"/>
<feOffset/>
<feGaussianBlur stdDeviation="22.1113"/>
<feColorMatrix type="matrix" values="0 0 0 0 0.490196 0 0 0 0 0.682353 0 0 0 0 0.831373 0 0 0 1 0"/>
<feBlend mode="normal" in2="effect1_dropShadow_1470_1468" result="effect2_dropShadow_1470_1468"/>
<feColorMatrix in="SourceAlpha" type="matrix" values="0 0 0 0 0 0 0 0 0 0 0 0 0 0 0 0 0 0 127 0" result="hardAlpha"/>
<feOffset/>
<feGaussianBlur stdDeviation="77.3895"/>
<feColorMatrix type="matrix" values="0 0 0 0 0.490196 0 0 0 0 0.682353 0 0 0 0 0.831373 0 0 0 1 0"/>
<feBlend mode="normal" in2="effect2_dropShadow_1470_1468" result="effect3_dropShadow_1470_1468"/>
<feColorMatrix in="SourceAlpha" type="matrix" values="0 0 0 0 0 0 0 0 0 0 0 0 0 0 0 0 0 0 127 0" result="hardAlpha"/>
<feOffset/>
<feGaussianBlur stdDeviation="154.779"/>
<feColorMatrix type="matrix" values="0 0 0 0 0.490196 0 0 0 0 0.682353 0 0 0 0 0.831373 0 0 0 1 0"/>
<feBlend mode="normal" in2="effect3_dropShadow_1470_1468" result="effect4_dropShadow_1470_1468"/>
<feBlend mode="normal" in="SourceGraphic" in2="effect4_dropShadow_1470_1468" result="shape"/>
</filter>
<linearGradient id="paint0_linear_1470_1468" x1="387.208" y1="635.072" x2="387.208" y2="1068.14" gradientUnits="userSpaceOnUse">
<stop stop-color="#81A1CA"/>
<stop offset="1" stop-color="#405064" stop-opacity="0"/>
</linearGradient>
<linearGradient id="paint1_linear_1470_1468" x1="490.263" y1="635.315" x2="490.263" y2="1068.38" gradientUnits="userSpaceOnUse">
<stop stop-color="#81A1CA"/>
<stop offset="1" stop-color="#405064" stop-opacity="0"/>
</linearGradient>
<linearGradient id="paint2_linear_1470_1468" x1="387.207" y1="631.88" x2="387.207" y2="817.577" gradientUnits="userSpaceOnUse">
<stop stop-color="#80A1CA"/>
<stop offset="1" stop-color="#546784"/>
</linearGradient>
<linearGradient id="paint3_linear_1470_1468" x1="529.23" y1="656.51" x2="529.23" y2="1223.79" gradientUnits="userSpaceOnUse">
<stop stop-color="#80A1CA" stop-opacity="0"/>
<stop offset="1"/>
</linearGradient>
<linearGradient id="paint4_linear_1470_1468" x1="529.238" y1="607.884" x2="529.238" y2="1175.16" gradientUnits="userSpaceOnUse">
<stop stop-color="#80A1CA" stop-opacity="0"/>
<stop offset="1"/>
</linearGradient>
<radialGradient id="paint5_radial_1470_1468" cx="0" cy="0" r="1" gradientUnits="userSpaceOnUse" gradientTransform="translate(400.262 483.752) rotate(99.6944) scale(156.804 261.722)">
<stop offset="0.599281" stop-color="#620000"/>
<stop offset="1" stop-color="#240202"/>
</radialGradient>
<radialGradient id="paint6_radial_1470_1468" cx="0" cy="0" r="1" gradientUnits="userSpaceOnUse" gradientTransform="translate(392.514 512.265) rotate(101.802) scale(50.3273 153.214)">
<stop offset="0.534722" stop-color="#FF0000"/>
<stop offset="1" stop-color="#FF0000" stop-opacity="0"/>
</radialGradient>
<radialGradient id="paint7_radial_1470_1468" cx="0" cy="0" r="1" gradientUnits="userSpaceOnUse" gradientTransform="translate(346.321 503.038) rotate(-7.42489) scale(203.292 235.392)">
<stop stop-color="white"/>
<stop offset="1" stop-color="white" stop-opacity="0"/>
</radialGradient>
<linearGradient id="paint8_linear_1470_1468" x1="379.651" y1="471.485" x2="379.651" y2="584.333" gradientUnits="userSpaceOnUse">
<stop stop-color="#FFC83C"/>
<stop offset="1" stop-color="#CA4900"/>
</linearGradient>
<linearGradient id="paint9_linear_1470_1468" x1="379.651" y1="471.485" x2="379.651" y2="584.333" gradientUnits="userSpaceOnUse">
<stop stop-color="#FFC83C"/>
<stop offset="1" stop-color="#CA4900"/>
</linearGradient>
<linearGradient id="paint10_linear_1470_1468" x1="334.041" y1="508.998" x2="457.181" y2="356.405" gradientUnits="userSpaceOnUse">
<stop stop-color="white"/>
<stop offset="1" stop-color="#C4E4FD"/>
</linearGradient>
</defs>
</svg>
