<svg width="308" height="290" viewBox="4 0 284 285" fill="none" xmlns="http://www.w3.org/2000/svg">
<ellipse cx="146" cy="142.5" rx="142" ry="142.5" fill="#022603"/>
<g filter="url(#filter0_d_997_2439)">
<path d="M298.833 90.7609L301.777 79.1922L286.898 91.0469L298.833 90.7609Z" fill="#D9D9D9"/>
</g>
<g filter="url(#filter1_d_997_2439)">
<path d="M235.857 24.3295L235.152 14.2021L226.163 27.3432L235.857 24.3295Z" fill="#1C5093"/>
</g>
<g filter="url(#filter2_d_997_2439)">
<path d="M228.731 55.0647L224.629 49.1465L222.349 58.3992L228.731 55.0647Z" fill="#3C6D86"/>
</g>
<g filter="url(#filter3_d_997_2439)">
<path d="M287.255 26.196L284.644 17.0074L278.073 28.8303L287.255 26.196Z" fill="#1C5093"/>
</g>
<g filter="url(#filter4_d_997_2439)">
<path d="M222.34 76.3125L224.557 68.9006L214.672 75.2884L222.34 76.3125Z" fill="#D9D9D9"/>
</g>
<g filter="url(#filter5_d_997_2439)">
<path d="M263.34 83.312L265.557 75.9001L255.672 82.2879L263.34 83.312Z" fill="#1C5093"/>
</g>
<g filter="url(#filter6_d_997_2439)">
<path d="M296.991 67.7628L297.267 60.0313L289.312 68.7058L296.991 67.7628Z" fill="#3C6D86"/>
</g>
<g filter="url(#filter7_d_997_2439)">
<path d="M245.905 109.965L239.77 103.307L237.58 113.524L245.905 109.965Z" fill="#D9D9D9"/>
</g>
<g filter="url(#filter8_d_997_2439)">
<path d="M258.278 43.7111L249.595 41.1482L252.963 51.0401L258.278 43.7111Z" fill="#D9D9D9"/>
</g>
<g filter="url(#filter9_d_997_2439)">
<path d="M149.899 232.428L126.694 282H166.4L205.589 269.735L182.901 224.762L156.087 190.011L163.306 171.102L187.026 162.414L236.529 145.55L285 127.663V108.243L279.328 97L267.468 113.354L216.418 131.751L166.4 145.55L133.398 140.95L45.221 131.751L7.06262 119.997L5 145.55L35.4236 151.171L133.398 171.102L124.116 192.055L149.899 232.428Z" fill="#A8987B"/>
</g>
<g filter="url(#filter10_d_997_2439)">
<rect x="152" y="26" width="7" height="109" fill="#55330D"/>
</g>
<g filter="url(#filter11_d_997_2439)">
<path d="M136.026 47.1285L177.456 30.6639L181.954 43.2628L138.599 55.8753L132.425 53.8172L136.026 47.1285Z" fill="#55330D"/>
</g>
<g filter="url(#filter12_d_997_2439)">
<path d="M136.793 49.4781L178.486 33.751L180.752 40.099L137.847 53.9716L132.342 53.7891L136.793 49.4781Z" fill="#55330D"/>
</g>
<g filter="url(#filter13_d_997_2439)">
<path d="M134.812 64.6221L178.73 71.8253L183.876 76.9705L178.73 82.1156L133.452 77.9302L134.812 64.6221Z" fill="#55330D"/>
</g>
<g filter="url(#filter14_d_997_2439)">
<path d="M134.707 69.7672L178.817 75.0863L184.29 77.0256L179.547 78.235L134.301 73.7428L134.707 69.7672Z" fill="#55330D"/>
</g>
<path d="M137.787 125.428L166.487 124L167 136H126L137.787 125.428Z" fill="#393D39"/>
<g filter="url(#filter15_d_997_2439)">
<path d="M152.822 127.393L168.258 122.248L179.062 124.821L185.751 130.995L188.838 136.654L146.784 138.522L152.822 127.393Z" fill="#393D39"/>
</g>
<ellipse cx="4.45957" cy="2.61539" rx="4.45957" ry="2.61539" transform="matrix(-0.79724 -0.603662 -0.603662 0.79724 171.344 151.662)" fill="#8D8EB3"/>
<ellipse cx="143.413" cy="168.27" rx="4.86591" ry="3.2184" fill="#717297"/>
<ellipse cx="158.662" cy="168.423" rx="4.86591" ry="3.2184" fill="#717297"/>
<g filter="url(#filter16_d_997_2439)">
<path d="M166.822 157.761C166.822 164.865 159.776 168.883 150.009 168.883C140.241 168.883 135.175 164.095 135.175 156.99C135.175 149.885 140.241 141.68 150.009 141.68C159.776 141.68 166.822 150.656 166.822 157.761Z" fill="#8D8EB3"/>
</g>
<g filter="url(#filter17_d_997_2439)">
<path d="M166.074 157.514C163.282 169.433 153.119 165.181 150.807 163.576C148.495 161.971 151.794 159.808 151.794 159.808C152.735 158.452 154.627 153.058 156.939 154.663C159.251 156.267 167.261 152.446 166.074 157.514Z" fill="#5E5F82"/>
</g>
<path d="M143.389 119.825C145.078 122.852 144.472 126.234 140.915 128.22C137.358 130.205 133.104 129.361 131.415 126.334C129.725 123.307 131.477 116.156 134.211 114.63C136.945 113.104 141.699 116.798 143.389 119.825Z" fill="#5E5F82"/>
<path d="M141.352 121.023C142.446 122.983 142.054 125.173 139.751 126.458C137.448 127.744 134.694 127.197 133.6 125.237C132.506 123.277 133.64 118.647 135.41 117.659C137.18 116.671 140.258 119.063 141.352 121.023Z" fill="#ADADC7"/>
<path d="M158.767 119.825C157.077 122.852 157.683 126.234 161.24 128.22C164.798 130.205 169.051 129.361 170.741 126.334C172.43 123.307 170.679 116.156 167.945 114.63C165.211 113.104 160.456 116.798 158.767 119.825Z" fill="#5E5F82"/>
<ellipse cx="135.185" cy="150.674" rx="4.45957" ry="2.61539" transform="rotate(-24.7625 135.185 150.674)" fill="#8D8EB3"/>
<path d="M160.804 121.023C159.71 122.983 160.102 125.173 162.405 126.458C164.709 127.744 167.463 127.197 168.557 125.237C169.651 123.277 168.516 118.647 166.746 117.659C164.976 116.671 161.898 119.063 160.804 121.023Z" fill="#ADADC7"/>
<path d="M169.199 138.92C169.199 147.286 160.358 149.726 151.112 149.726C141.865 149.726 128.139 146.061 131.687 138.307C132.803 130.048 140.857 121.68 150.104 121.68C159.351 121.68 168.242 130.661 169.199 138.92Z" fill="black"/>
<path d="M169.528 140.116C169.362 148.849 160.297 152.671 151.072 152.497C141.847 152.322 128.423 146.795 132.116 138.767C133.393 130.167 141.593 121.584 150.818 121.758C160.043 121.933 168.736 131.476 169.528 140.116Z" fill="#787897"/>
<g filter="url(#filter18_d_997_2439)">
<path d="M173.183 137.045C173.183 146.955 161.374 151.642 150.286 151.642C139.199 151.642 128.202 145.766 128.202 136.319C129.208 129.035 139.199 116.622 150.287 116.622C161.375 116.622 172.036 127.261 173.183 137.045Z" fill="#8D8EB3"/>
</g>
<g filter="url(#filter19_d_997_2439)">
<path d="M158.896 119.825C157.206 122.852 157.812 126.234 161.369 128.22C164.927 130.205 169.18 129.361 170.87 126.334C172.559 123.307 170.808 116.155 168.074 114.629C165.34 113.104 160.585 116.798 158.896 119.825Z" fill="#5E5F82"/>
</g>
<path d="M157.091 139.917C157.091 145.758 156.547 150.76 149.543 150.76C142.539 150.76 131.727 145.758 131.727 139.917C131.727 134.077 137.404 129.343 144.409 129.343C151.413 129.343 157.091 134.077 157.091 139.917Z" fill="#8D8EB3"/>
<g filter="url(#filter20_d_997_2439)">
<path d="M143.389 119.825C145.078 122.852 144.472 126.234 140.915 128.22C137.358 130.205 133.104 129.361 131.415 126.334C129.725 123.307 131.477 116.156 134.211 114.63C136.945 113.104 141.699 116.798 143.389 119.825Z" fill="#5E5F82"/>
</g>
<g filter="url(#filter21_d_997_2439)">
<path d="M139 227.072C126.742 256.454 111.285 258 69.5368 258C35.3155 230.68 35.3148 226.041 15.9064 194.082C3.64843 158 8.37945 158 50.1279 158C91.8764 158 100.182 190.474 139 227.072Z" fill="#1B3316"/>
</g>
<g filter="url(#filter22_d_997_2439)">
<path d="M171 192.792C183.319 222.255 212.576 230.526 240.806 223.806C275.196 196.41 265.444 207.265 276.222 184.521C288.54 148.338 289.055 138 256.718 138C214.629 138 210.009 156.092 171 192.792Z" fill="#1B3316"/>
</g>
<g filter="url(#filter23_d_997_2439)">
<path d="M9.22415 100.039L5.14978 88.818L21.1281 99.1432L9.22415 100.039Z" fill="#D9D9D9"/>
</g>
<g filter="url(#filter24_d_997_2439)">
<path d="M73.1894 31.3295L73.8953 21.2021L82.8838 34.3432L73.1894 31.3295Z" fill="#397633"/>
</g>
<g filter="url(#filter25_d_997_2439)">
<path d="M80.3162 62.0645L84.4176 56.1463L86.698 65.399L80.3162 62.0645Z" fill="#397633"/>
</g>
<g filter="url(#filter26_d_997_2439)">
<path d="M21.7941 33.1955L24.4051 24.0069L30.976 35.8298L21.7941 33.1955Z" fill="#609842"/>
</g>
<g filter="url(#filter27_d_997_2439)">
<path d="M86.7068 83.312L84.4899 75.9001L94.3751 82.2879L86.7068 83.312Z" fill="#D9D9D9"/>
</g>
<g filter="url(#filter28_d_997_2439)">
<path d="M45.7068 92.312L43.4899 84.9001L53.3751 91.2879L45.7068 92.312Z" fill="#3D9843"/>
</g>
<g filter="url(#filter29_d_997_2439)">
<path d="M10.7068 95.312L8.48989 87.9001L18.3751 94.2879L10.7068 95.312Z" fill="#3D9843"/>
</g>
<g filter="url(#filter30_d_997_2439)">
<path d="M60.2648 115.965L66.3994 109.307L68.5896 119.524L60.2648 115.965Z" fill="#D9D9D9"/>
</g>
<g filter="url(#filter31_d_997_2439)">
<path d="M51.9444 55.7111L60.6278 53.1482L57.26 63.0401L51.9444 55.7111Z" fill="#D9D9D9"/>
</g>
<defs>
<filter id="filter0_d_997_2439" x="282.898" y="79.1922" width="22.8789" height="19.8546" filterUnits="userSpaceOnUse" color-interpolation-filters="sRGB">
<feFlood flood-opacity="0" result="BackgroundImageFix"/>
<feColorMatrix in="SourceAlpha" type="matrix" values="0 0 0 0 0 0 0 0 0 0 0 0 0 0 0 0 0 0 127 0" result="hardAlpha"/>
<feOffset dy="4"/>
<feGaussianBlur stdDeviation="2"/>
<feComposite in2="hardAlpha" operator="out"/>
<feColorMatrix type="matrix" values="0 0 0 0 0 0 0 0 0 0 0 0 0 0 0 0 0 0 0.25 0"/>
<feBlend mode="normal" in2="BackgroundImageFix" result="effect1_dropShadow_997_2439"/>
<feBlend mode="normal" in="SourceGraphic" in2="effect1_dropShadow_997_2439" result="shape"/>
</filter>
<filter id="filter1_d_997_2439" x="222.163" y="14.2021" width="17.6943" height="21.1411" filterUnits="userSpaceOnUse" color-interpolation-filters="sRGB">
<feFlood flood-opacity="0" result="BackgroundImageFix"/>
<feColorMatrix in="SourceAlpha" type="matrix" values="0 0 0 0 0 0 0 0 0 0 0 0 0 0 0 0 0 0 127 0" result="hardAlpha"/>
<feOffset dy="4"/>
<feGaussianBlur stdDeviation="2"/>
<feComposite in2="hardAlpha" operator="out"/>
<feColorMatrix type="matrix" values="0 0 0 0 0 0 0 0 0 0 0 0 0 0 0 0 0 0 0.25 0"/>
<feBlend mode="normal" in2="BackgroundImageFix" result="effect1_dropShadow_997_2439"/>
<feBlend mode="normal" in="SourceGraphic" in2="effect1_dropShadow_997_2439" result="shape"/>
</filter>
<filter id="filter2_d_997_2439" x="218.349" y="49.1465" width="14.3818" height="17.2527" filterUnits="userSpaceOnUse" color-interpolation-filters="sRGB">
<feFlood flood-opacity="0" result="BackgroundImageFix"/>
<feColorMatrix in="SourceAlpha" type="matrix" values="0 0 0 0 0 0 0 0 0 0 0 0 0 0 0 0 0 0 127 0" result="hardAlpha"/>
<feOffset dy="4"/>
<feGaussianBlur stdDeviation="2"/>
<feComposite in2="hardAlpha" operator="out"/>
<feColorMatrix type="matrix" values="0 0 0 0 0 0 0 0 0 0 0 0 0 0 0 0 0 0 0.25 0"/>
<feBlend mode="normal" in2="BackgroundImageFix" result="effect1_dropShadow_997_2439"/>
<feBlend mode="normal" in="SourceGraphic" in2="effect1_dropShadow_997_2439" result="shape"/>
</filter>
<filter id="filter3_d_997_2439" x="274.073" y="17.0074" width="17.1816" height="19.823" filterUnits="userSpaceOnUse" color-interpolation-filters="sRGB">
<feFlood flood-opacity="0" result="BackgroundImageFix"/>
<feColorMatrix in="SourceAlpha" type="matrix" values="0 0 0 0 0 0 0 0 0 0 0 0 0 0 0 0 0 0 127 0" result="hardAlpha"/>
<feOffset dy="4"/>
<feGaussianBlur stdDeviation="2"/>
<feComposite in2="hardAlpha" operator="out"/>
<feColorMatrix type="matrix" values="0 0 0 0 0 0 0 0 0 0 0 0 0 0 0 0 0 0 0.25 0"/>
<feBlend mode="normal" in2="BackgroundImageFix" result="effect1_dropShadow_997_2439"/>
<feBlend mode="normal" in="SourceGraphic" in2="effect1_dropShadow_997_2439" result="shape"/>
</filter>
<filter id="filter4_d_997_2439" x="210.672" y="68.9006" width="17.8848" height="15.4119" filterUnits="userSpaceOnUse" color-interpolation-filters="sRGB">
<feFlood flood-opacity="0" result="BackgroundImageFix"/>
<feColorMatrix in="SourceAlpha" type="matrix" values="0 0 0 0 0 0 0 0 0 0 0 0 0 0 0 0 0 0 127 0" result="hardAlpha"/>
<feOffset dy="4"/>
<feGaussianBlur stdDeviation="2"/>
<feComposite in2="hardAlpha" operator="out"/>
<feColorMatrix type="matrix" values="0 0 0 0 0 0 0 0 0 0 0 0 0 0 0 0 0 0 0.25 0"/>
<feBlend mode="normal" in2="BackgroundImageFix" result="effect1_dropShadow_997_2439"/>
<feBlend mode="normal" in="SourceGraphic" in2="effect1_dropShadow_997_2439" result="shape"/>
</filter>
<filter id="filter5_d_997_2439" x="251.672" y="75.9001" width="17.8848" height="15.4119" filterUnits="userSpaceOnUse" color-interpolation-filters="sRGB">
<feFlood flood-opacity="0" result="BackgroundImageFix"/>
<feColorMatrix in="SourceAlpha" type="matrix" values="0 0 0 0 0 0 0 0 0 0 0 0 0 0 0 0 0 0 127 0" result="hardAlpha"/>
<feOffset dy="4"/>
<feGaussianBlur stdDeviation="2"/>
<feComposite in2="hardAlpha" operator="out"/>
<feColorMatrix type="matrix" values="0 0 0 0 0 0 0 0 0 0 0 0 0 0 0 0 0 0 0.25 0"/>
<feBlend mode="normal" in2="BackgroundImageFix" result="effect1_dropShadow_997_2439"/>
<feBlend mode="normal" in="SourceGraphic" in2="effect1_dropShadow_997_2439" result="shape"/>
</filter>
<filter id="filter6_d_997_2439" x="285.312" y="60.0313" width="15.9541" height="16.6745" filterUnits="userSpaceOnUse" color-interpolation-filters="sRGB">
<feFlood flood-opacity="0" result="BackgroundImageFix"/>
<feColorMatrix in="SourceAlpha" type="matrix" values="0 0 0 0 0 0 0 0 0 0 0 0 0 0 0 0 0 0 127 0" result="hardAlpha"/>
<feOffset dy="4"/>
<feGaussianBlur stdDeviation="2"/>
<feComposite in2="hardAlpha" operator="out"/>
<feColorMatrix type="matrix" values="0 0 0 0 0 0 0 0 0 0 0 0 0 0 0 0 0 0 0.25 0"/>
<feBlend mode="normal" in2="BackgroundImageFix" result="effect1_dropShadow_997_2439"/>
<feBlend mode="normal" in="SourceGraphic" in2="effect1_dropShadow_997_2439" result="shape"/>
</filter>
<filter id="filter7_d_997_2439" x="233.58" y="103.307" width="16.3252" height="18.2174" filterUnits="userSpaceOnUse" color-interpolation-filters="sRGB">
<feFlood flood-opacity="0" result="BackgroundImageFix"/>
<feColorMatrix in="SourceAlpha" type="matrix" values="0 0 0 0 0 0 0 0 0 0 0 0 0 0 0 0 0 0 127 0" result="hardAlpha"/>
<feOffset dy="4"/>
<feGaussianBlur stdDeviation="2"/>
<feComposite in2="hardAlpha" operator="out"/>
<feColorMatrix type="matrix" values="0 0 0 0 0 0 0 0 0 0 0 0 0 0 0 0 0 0 0.25 0"/>
<feBlend mode="normal" in2="BackgroundImageFix" result="effect1_dropShadow_997_2439"/>
<feBlend mode="normal" in="SourceGraphic" in2="effect1_dropShadow_997_2439" result="shape"/>
</filter>
<filter id="filter8_d_997_2439" x="245.595" y="41.1482" width="16.6836" height="17.8919" filterUnits="userSpaceOnUse" color-interpolation-filters="sRGB">
<feFlood flood-opacity="0" result="BackgroundImageFix"/>
<feColorMatrix in="SourceAlpha" type="matrix" values="0 0 0 0 0 0 0 0 0 0 0 0 0 0 0 0 0 0 127 0" result="hardAlpha"/>
<feOffset dy="4"/>
<feGaussianBlur stdDeviation="2"/>
<feComposite in2="hardAlpha" operator="out"/>
<feColorMatrix type="matrix" values="0 0 0 0 0 0 0 0 0 0 0 0 0 0 0 0 0 0 0.25 0"/>
<feBlend mode="normal" in2="BackgroundImageFix" result="effect1_dropShadow_997_2439"/>
<feBlend mode="normal" in="SourceGraphic" in2="effect1_dropShadow_997_2439" result="shape"/>
</filter>
<filter id="filter9_d_997_2439" x="1" y="97" width="288" height="193" filterUnits="userSpaceOnUse" color-interpolation-filters="sRGB">
<feFlood flood-opacity="0" result="BackgroundImageFix"/>
<feColorMatrix in="SourceAlpha" type="matrix" values="0 0 0 0 0 0 0 0 0 0 0 0 0 0 0 0 0 0 127 0" result="hardAlpha"/>
<feOffset dy="4"/>
<feGaussianBlur stdDeviation="2"/>
<feComposite in2="hardAlpha" operator="out"/>
<feColorMatrix type="matrix" values="0 0 0 0 0 0 0 0 0 0 0 0 0 0 0 0 0 0 0.25 0"/>
<feBlend mode="normal" in2="BackgroundImageFix" result="effect1_dropShadow_997_2439"/>
<feBlend mode="normal" in="SourceGraphic" in2="effect1_dropShadow_997_2439" result="shape"/>
</filter>
<filter id="filter10_d_997_2439" x="148" y="26" width="15" height="117" filterUnits="userSpaceOnUse" color-interpolation-filters="sRGB">
<feFlood flood-opacity="0" result="BackgroundImageFix"/>
<feColorMatrix in="SourceAlpha" type="matrix" values="0 0 0 0 0 0 0 0 0 0 0 0 0 0 0 0 0 0 127 0" result="hardAlpha"/>
<feOffset dy="4"/>
<feGaussianBlur stdDeviation="2"/>
<feComposite in2="hardAlpha" operator="out"/>
<feColorMatrix type="matrix" values="0 0 0 0 0 0 0 0 0 0 0 0 0 0 0 0 0 0 0.25 0"/>
<feBlend mode="normal" in2="BackgroundImageFix" result="effect1_dropShadow_997_2439"/>
<feBlend mode="normal" in="SourceGraphic" in2="effect1_dropShadow_997_2439" result="shape"/>
</filter>
<filter id="filter11_d_997_2439" x="128.425" y="30.6639" width="57.5283" height="33.2113" filterUnits="userSpaceOnUse" color-interpolation-filters="sRGB">
<feFlood flood-opacity="0" result="BackgroundImageFix"/>
<feColorMatrix in="SourceAlpha" type="matrix" values="0 0 0 0 0 0 0 0 0 0 0 0 0 0 0 0 0 0 127 0" result="hardAlpha"/>
<feOffset dy="4"/>
<feGaussianBlur stdDeviation="2"/>
<feComposite in2="hardAlpha" operator="out"/>
<feColorMatrix type="matrix" values="0 0 0 0 0 0 0 0 0 0 0 0 0 0 0 0 0 0 0.25 0"/>
<feBlend mode="normal" in2="BackgroundImageFix" result="effect1_dropShadow_997_2439"/>
<feBlend mode="normal" in="SourceGraphic" in2="effect1_dropShadow_997_2439" result="shape"/>
</filter>
<filter id="filter12_d_997_2439" x="128.342" y="33.751" width="56.4102" height="28.2206" filterUnits="userSpaceOnUse" color-interpolation-filters="sRGB">
<feFlood flood-opacity="0" result="BackgroundImageFix"/>
<feColorMatrix in="SourceAlpha" type="matrix" values="0 0 0 0 0 0 0 0 0 0 0 0 0 0 0 0 0 0 127 0" result="hardAlpha"/>
<feOffset dy="4"/>
<feGaussianBlur stdDeviation="2"/>
<feComposite in2="hardAlpha" operator="out"/>
<feColorMatrix type="matrix" values="0 0 0 0 0 0 0 0 0 0 0 0 0 0 0 0 0 0 0.25 0"/>
<feBlend mode="normal" in2="BackgroundImageFix" result="effect1_dropShadow_997_2439"/>
<feBlend mode="normal" in="SourceGraphic" in2="effect1_dropShadow_997_2439" result="shape"/>
</filter>
<filter id="filter13_d_997_2439" x="129.452" y="64.6221" width="58.4238" height="25.4936" filterUnits="userSpaceOnUse" color-interpolation-filters="sRGB">
<feFlood flood-opacity="0" result="BackgroundImageFix"/>
<feColorMatrix in="SourceAlpha" type="matrix" values="0 0 0 0 0 0 0 0 0 0 0 0 0 0 0 0 0 0 127 0" result="hardAlpha"/>
<feOffset dy="4"/>
<feGaussianBlur stdDeviation="2"/>
<feComposite in2="hardAlpha" operator="out"/>
<feColorMatrix type="matrix" values="0 0 0 0 0 0 0 0 0 0 0 0 0 0 0 0 0 0 0.25 0"/>
<feBlend mode="normal" in2="BackgroundImageFix" result="effect1_dropShadow_997_2439"/>
<feBlend mode="normal" in="SourceGraphic" in2="effect1_dropShadow_997_2439" result="shape"/>
</filter>
<filter id="filter14_d_997_2439" x="130.301" y="69.7672" width="57.9893" height="16.4678" filterUnits="userSpaceOnUse" color-interpolation-filters="sRGB">
<feFlood flood-opacity="0" result="BackgroundImageFix"/>
<feColorMatrix in="SourceAlpha" type="matrix" values="0 0 0 0 0 0 0 0 0 0 0 0 0 0 0 0 0 0 127 0" result="hardAlpha"/>
<feOffset dy="4"/>
<feGaussianBlur stdDeviation="2"/>
<feComposite in2="hardAlpha" operator="out"/>
<feColorMatrix type="matrix" values="0 0 0 0 0 0 0 0 0 0 0 0 0 0 0 0 0 0 0.25 0"/>
<feBlend mode="normal" in2="BackgroundImageFix" result="effect1_dropShadow_997_2439"/>
<feBlend mode="normal" in="SourceGraphic" in2="effect1_dropShadow_997_2439" result="shape"/>
</filter>
<filter id="filter15_d_997_2439" x="142.784" y="122.248" width="50.0537" height="24.2739" filterUnits="userSpaceOnUse" color-interpolation-filters="sRGB">
<feFlood flood-opacity="0" result="BackgroundImageFix"/>
<feColorMatrix in="SourceAlpha" type="matrix" values="0 0 0 0 0 0 0 0 0 0 0 0 0 0 0 0 0 0 127 0" result="hardAlpha"/>
<feOffset dy="4"/>
<feGaussianBlur stdDeviation="2"/>
<feComposite in2="hardAlpha" operator="out"/>
<feColorMatrix type="matrix" values="0 0 0 0 0 0 0 0 0 0 0 0 0 0 0 0 0 0 0.25 0"/>
<feBlend mode="normal" in2="BackgroundImageFix" result="effect1_dropShadow_997_2439"/>
<feBlend mode="normal" in="SourceGraphic" in2="effect1_dropShadow_997_2439" result="shape"/>
</filter>
<filter id="filter16_d_997_2439" x="131.175" y="141.68" width="39.6475" height="35.2031" filterUnits="userSpaceOnUse" color-interpolation-filters="sRGB">
<feFlood flood-opacity="0" result="BackgroundImageFix"/>
<feColorMatrix in="SourceAlpha" type="matrix" values="0 0 0 0 0 0 0 0 0 0 0 0 0 0 0 0 0 0 127 0" result="hardAlpha"/>
<feOffset dy="4"/>
<feGaussianBlur stdDeviation="2"/>
<feComposite in2="hardAlpha" operator="out"/>
<feColorMatrix type="matrix" values="0 0 0 0 0 0 0 0 0 0 0 0 0 0 0 0 0 0 0.5 0"/>
<feBlend mode="normal" in2="BackgroundImageFix" result="effect1_dropShadow_997_2439"/>
<feBlend mode="normal" in="SourceGraphic" in2="effect1_dropShadow_997_2439" result="shape"/>
</filter>
<filter id="filter17_d_997_2439" x="147.985" y="154.367" width="20.208" height="15.2728" filterUnits="userSpaceOnUse" color-interpolation-filters="sRGB">
<feFlood flood-opacity="0" result="BackgroundImageFix"/>
<feColorMatrix in="SourceAlpha" type="matrix" values="0 0 0 0 0 0 0 0 0 0 0 0 0 0 0 0 0 0 127 0" result="hardAlpha"/>
<feOffset dy="2"/>
<feGaussianBlur stdDeviation="1"/>
<feComposite in2="hardAlpha" operator="out"/>
<feColorMatrix type="matrix" values="0 0 0 0 0 0 0 0 0 0 0 0 0 0 0 0 0 0 0.5 0"/>
<feBlend mode="normal" in2="BackgroundImageFix" result="effect1_dropShadow_997_2439"/>
<feBlend mode="normal" in="SourceGraphic" in2="effect1_dropShadow_997_2439" result="shape"/>
</filter>
<filter id="filter18_d_997_2439" x="126.202" y="116.622" width="48.9805" height="39.0192" filterUnits="userSpaceOnUse" color-interpolation-filters="sRGB">
<feFlood flood-opacity="0" result="BackgroundImageFix"/>
<feColorMatrix in="SourceAlpha" type="matrix" values="0 0 0 0 0 0 0 0 0 0 0 0 0 0 0 0 0 0 127 0" result="hardAlpha"/>
<feOffset dy="2"/>
<feGaussianBlur stdDeviation="1"/>
<feComposite in2="hardAlpha" operator="out"/>
<feColorMatrix type="matrix" values="0 0 0 0 0 0 0 0 0 0 0 0 0 0 0 0 0 0 0.5 0"/>
<feBlend mode="normal" in2="BackgroundImageFix" result="effect1_dropShadow_997_2439"/>
<feBlend mode="normal" in="SourceGraphic" in2="effect1_dropShadow_997_2439" result="shape"/>
</filter>
<filter id="filter19_d_997_2439" x="155.993" y="114.274" width="17.541" height="19.0205" filterUnits="userSpaceOnUse" color-interpolation-filters="sRGB">
<feFlood flood-opacity="0" result="BackgroundImageFix"/>
<feColorMatrix in="SourceAlpha" type="matrix" values="0 0 0 0 0 0 0 0 0 0 0 0 0 0 0 0 0 0 127 0" result="hardAlpha"/>
<feOffset dy="2"/>
<feGaussianBlur stdDeviation="1"/>
<feComposite in2="hardAlpha" operator="out"/>
<feColorMatrix type="matrix" values="0 0 0 0 0 0 0 0 0 0 0 0 0 0 0 0 0 0 0.5 0"/>
<feBlend mode="normal" in2="BackgroundImageFix" result="effect1_dropShadow_997_2439"/>
<feBlend mode="normal" in="SourceGraphic" in2="effect1_dropShadow_997_2439" result="shape"/>
</filter>
<filter id="filter20_d_997_2439" x="128.75" y="114.274" width="17.541" height="19.0205" filterUnits="userSpaceOnUse" color-interpolation-filters="sRGB">
<feFlood flood-opacity="0" result="BackgroundImageFix"/>
<feColorMatrix in="SourceAlpha" type="matrix" values="0 0 0 0 0 0 0 0 0 0 0 0 0 0 0 0 0 0 127 0" result="hardAlpha"/>
<feOffset dy="2"/>
<feGaussianBlur stdDeviation="1"/>
<feComposite in2="hardAlpha" operator="out"/>
<feColorMatrix type="matrix" values="0 0 0 0 0 0 0 0 0 0 0 0 0 0 0 0 0 0 0.5 0"/>
<feBlend mode="normal" in2="BackgroundImageFix" result="effect1_dropShadow_997_2439"/>
<feBlend mode="normal" in="SourceGraphic" in2="effect1_dropShadow_997_2439" result="shape"/>
</filter>
<filter id="filter21_d_997_2439" x="6" y="158" width="137" height="108" filterUnits="userSpaceOnUse" color-interpolation-filters="sRGB">
<feFlood flood-opacity="0" result="BackgroundImageFix"/>
<feColorMatrix in="SourceAlpha" type="matrix" values="0 0 0 0 0 0 0 0 0 0 0 0 0 0 0 0 0 0 127 0" result="hardAlpha"/>
<feOffset dy="4"/>
<feGaussianBlur stdDeviation="2"/>
<feComposite in2="hardAlpha" operator="out"/>
<feColorMatrix type="matrix" values="0 0 0 0 0 0 0 0 0 0 0 0 0 0 0 0 0 0 0.25 0"/>
<feBlend mode="normal" in2="BackgroundImageFix" result="effect1_dropShadow_997_2439"/>
<feBlend mode="normal" in="SourceGraphic" in2="effect1_dropShadow_997_2439" result="shape"/>
</filter>
<filter id="filter22_d_997_2439" x="167" y="138" width="121" height="96" filterUnits="userSpaceOnUse" color-interpolation-filters="sRGB">
<feFlood flood-opacity="0" result="BackgroundImageFix"/>
<feColorMatrix in="SourceAlpha" type="matrix" values="0 0 0 0 0 0 0 0 0 0 0 0 0 0 0 0 0 0 127 0" result="hardAlpha"/>
<feOffset dy="4"/>
<feGaussianBlur stdDeviation="2"/>
<feComposite in2="hardAlpha" operator="out"/>
<feColorMatrix type="matrix" values="0 0 0 0 0 0 0 0 0 0 0 0 0 0 0 0 0 0 0.25 0"/>
<feBlend mode="normal" in2="BackgroundImageFix" result="effect1_dropShadow_997_2439"/>
<feBlend mode="normal" in="SourceGraphic" in2="effect1_dropShadow_997_2439" result="shape"/>
</filter>
<filter id="filter23_d_997_2439" x="1.14941" y="88.818" width="23.9785" height="19.2207" filterUnits="userSpaceOnUse" color-interpolation-filters="sRGB">
<feFlood flood-opacity="0" result="BackgroundImageFix"/>
<feColorMatrix in="SourceAlpha" type="matrix" values="0 0 0 0 0 0 0 0 0 0 0 0 0 0 0 0 0 0 127 0" result="hardAlpha"/>
<feOffset dy="4"/>
<feGaussianBlur stdDeviation="2"/>
<feComposite in2="hardAlpha" operator="out"/>
<feColorMatrix type="matrix" values="0 0 0 0 0 0 0 0 0 0 0 0 0 0 0 0 0 0 0.25 0"/>
<feBlend mode="normal" in2="BackgroundImageFix" result="effect1_dropShadow_997_2439"/>
<feBlend mode="normal" in="SourceGraphic" in2="effect1_dropShadow_997_2439" result="shape"/>
</filter>
<filter id="filter24_d_997_2439" x="69.1895" y="21.2021" width="17.6943" height="21.1411" filterUnits="userSpaceOnUse" color-interpolation-filters="sRGB">
<feFlood flood-opacity="0" result="BackgroundImageFix"/>
<feColorMatrix in="SourceAlpha" type="matrix" values="0 0 0 0 0 0 0 0 0 0 0 0 0 0 0 0 0 0 127 0" result="hardAlpha"/>
<feOffset dy="4"/>
<feGaussianBlur stdDeviation="2"/>
<feComposite in2="hardAlpha" operator="out"/>
<feColorMatrix type="matrix" values="0 0 0 0 0 0 0 0 0 0 0 0 0 0 0 0 0 0 0.25 0"/>
<feBlend mode="normal" in2="BackgroundImageFix" result="effect1_dropShadow_997_2439"/>
<feBlend mode="normal" in="SourceGraphic" in2="effect1_dropShadow_997_2439" result="shape"/>
</filter>
<filter id="filter25_d_997_2439" x="76.3164" y="56.1463" width="14.3818" height="17.2527" filterUnits="userSpaceOnUse" color-interpolation-filters="sRGB">
<feFlood flood-opacity="0" result="BackgroundImageFix"/>
<feColorMatrix in="SourceAlpha" type="matrix" values="0 0 0 0 0 0 0 0 0 0 0 0 0 0 0 0 0 0 127 0" result="hardAlpha"/>
<feOffset dy="4"/>
<feGaussianBlur stdDeviation="2"/>
<feComposite in2="hardAlpha" operator="out"/>
<feColorMatrix type="matrix" values="0 0 0 0 0 0 0 0 0 0 0 0 0 0 0 0 0 0 0.25 0"/>
<feBlend mode="normal" in2="BackgroundImageFix" result="effect1_dropShadow_997_2439"/>
<feBlend mode="normal" in="SourceGraphic" in2="effect1_dropShadow_997_2439" result="shape"/>
</filter>
<filter id="filter26_d_997_2439" x="17.7939" y="24.0069" width="17.1816" height="19.823" filterUnits="userSpaceOnUse" color-interpolation-filters="sRGB">
<feFlood flood-opacity="0" result="BackgroundImageFix"/>
<feColorMatrix in="SourceAlpha" type="matrix" values="0 0 0 0 0 0 0 0 0 0 0 0 0 0 0 0 0 0 127 0" result="hardAlpha"/>
<feOffset dy="4"/>
<feGaussianBlur stdDeviation="2"/>
<feComposite in2="hardAlpha" operator="out"/>
<feColorMatrix type="matrix" values="0 0 0 0 0 0 0 0 0 0 0 0 0 0 0 0 0 0 0.25 0"/>
<feBlend mode="normal" in2="BackgroundImageFix" result="effect1_dropShadow_997_2439"/>
<feBlend mode="normal" in="SourceGraphic" in2="effect1_dropShadow_997_2439" result="shape"/>
</filter>
<filter id="filter27_d_997_2439" x="80.4902" y="75.9001" width="17.8848" height="15.4119" filterUnits="userSpaceOnUse" color-interpolation-filters="sRGB">
<feFlood flood-opacity="0" result="BackgroundImageFix"/>
<feColorMatrix in="SourceAlpha" type="matrix" values="0 0 0 0 0 0 0 0 0 0 0 0 0 0 0 0 0 0 127 0" result="hardAlpha"/>
<feOffset dy="4"/>
<feGaussianBlur stdDeviation="2"/>
<feComposite in2="hardAlpha" operator="out"/>
<feColorMatrix type="matrix" values="0 0 0 0 0 0 0 0 0 0 0 0 0 0 0 0 0 0 0.25 0"/>
<feBlend mode="normal" in2="BackgroundImageFix" result="effect1_dropShadow_997_2439"/>
<feBlend mode="normal" in="SourceGraphic" in2="effect1_dropShadow_997_2439" result="shape"/>
</filter>
<filter id="filter28_d_997_2439" x="39.4902" y="84.9001" width="17.8848" height="15.4119" filterUnits="userSpaceOnUse" color-interpolation-filters="sRGB">
<feFlood flood-opacity="0" result="BackgroundImageFix"/>
<feColorMatrix in="SourceAlpha" type="matrix" values="0 0 0 0 0 0 0 0 0 0 0 0 0 0 0 0 0 0 127 0" result="hardAlpha"/>
<feOffset dy="4"/>
<feGaussianBlur stdDeviation="2"/>
<feComposite in2="hardAlpha" operator="out"/>
<feColorMatrix type="matrix" values="0 0 0 0 0 0 0 0 0 0 0 0 0 0 0 0 0 0 0.25 0"/>
<feBlend mode="normal" in2="BackgroundImageFix" result="effect1_dropShadow_997_2439"/>
<feBlend mode="normal" in="SourceGraphic" in2="effect1_dropShadow_997_2439" result="shape"/>
</filter>
<filter id="filter29_d_997_2439" x="4.49023" y="87.9001" width="17.8848" height="15.4119" filterUnits="userSpaceOnUse" color-interpolation-filters="sRGB">
<feFlood flood-opacity="0" result="BackgroundImageFix"/>
<feColorMatrix in="SourceAlpha" type="matrix" values="0 0 0 0 0 0 0 0 0 0 0 0 0 0 0 0 0 0 127 0" result="hardAlpha"/>
<feOffset dy="4"/>
<feGaussianBlur stdDeviation="2"/>
<feComposite in2="hardAlpha" operator="out"/>
<feColorMatrix type="matrix" values="0 0 0 0 0 0 0 0 0 0 0 0 0 0 0 0 0 0 0.25 0"/>
<feBlend mode="normal" in2="BackgroundImageFix" result="effect1_dropShadow_997_2439"/>
<feBlend mode="normal" in="SourceGraphic" in2="effect1_dropShadow_997_2439" result="shape"/>
</filter>
<filter id="filter30_d_997_2439" x="56.2646" y="109.307" width="16.3252" height="18.2174" filterUnits="userSpaceOnUse" color-interpolation-filters="sRGB">
<feFlood flood-opacity="0" result="BackgroundImageFix"/>
<feColorMatrix in="SourceAlpha" type="matrix" values="0 0 0 0 0 0 0 0 0 0 0 0 0 0 0 0 0 0 127 0" result="hardAlpha"/>
<feOffset dy="4"/>
<feGaussianBlur stdDeviation="2"/>
<feComposite in2="hardAlpha" operator="out"/>
<feColorMatrix type="matrix" values="0 0 0 0 0 0 0 0 0 0 0 0 0 0 0 0 0 0 0.25 0"/>
<feBlend mode="normal" in2="BackgroundImageFix" result="effect1_dropShadow_997_2439"/>
<feBlend mode="normal" in="SourceGraphic" in2="effect1_dropShadow_997_2439" result="shape"/>
</filter>
<filter id="filter31_d_997_2439" x="47.9443" y="53.1482" width="16.6836" height="17.8919" filterUnits="userSpaceOnUse" color-interpolation-filters="sRGB">
<feFlood flood-opacity="0" result="BackgroundImageFix"/>
<feColorMatrix in="SourceAlpha" type="matrix" values="0 0 0 0 0 0 0 0 0 0 0 0 0 0 0 0 0 0 127 0" result="hardAlpha"/>
<feOffset dy="4"/>
<feGaussianBlur stdDeviation="2"/>
<feComposite in2="hardAlpha" operator="out"/>
<feColorMatrix type="matrix" values="0 0 0 0 0 0 0 0 0 0 0 0 0 0 0 0 0 0 0.25 0"/>
<feBlend mode="normal" in2="BackgroundImageFix" result="effect1_dropShadow_997_2439"/>
<feBlend mode="normal" in="SourceGraphic" in2="effect1_dropShadow_997_2439" result="shape"/>
</filter>
</defs>
</svg>
