<svg width="277" height="251" viewBox="0 0 277 251" fill="none" xmlns="http://www.w3.org/2000/svg">
<g filter="url(#filter0_d_997_2444)">
<circle cx="168.002" cy="130" r="105" fill="#91887F"/>
</g>
<g filter="url(#filter1_d_997_2444)">
<ellipse cx="169.002" cy="131" rx="92" ry="93" fill="#E2DFDC"/>
</g>
<path d="M201.167 160.743L195.386 178.153L180.409 185.019L185.055 169.32L201.167 160.743Z" fill="white"/>
<path d="M208.038 50.8333L202.257 68.2429L187.28 75.1087L191.926 59.4096L208.038 50.8333Z" fill="white"/>
<path d="M150.334 75.563L144.554 92.9726L129.577 99.8384L134.223 84.1393L150.334 75.563Z" fill="white"/>
<ellipse cx="209.616" cy="34.9896" rx="27.4859" ry="10.9026" transform="rotate(19.0837 209.616 34.9896)" fill="#91887F"/>
<g filter="url(#filter2_d_997_2444)">
<ellipse cx="213.051" cy="25.4574" rx="39.7063" ry="10.9026" transform="rotate(22.8351 213.051 25.4574)" fill="#91887F"/>
</g>
<g filter="url(#filter3_d_997_2444)">
<ellipse cx="168.002" cy="136.5" rx="8" ry="9.5" fill="#555454"/>
</g>
<g filter="url(#filter4_d_997_2444)">
<path d="M172.002 123.78C172.002 139.255 170.305 125.039 167.322 125.039C164.34 125.039 163.002 137.995 163.002 122.521C163.002 107.046 165.522 79.7041 167.322 69C170.202 83.1672 172.002 108.305 172.002 123.78Z" fill="#555454"/>
</g>
<g filter="url(#filter5_d_997_2444)">
<path d="M179.348 135.272C171.261 139.317 178.059 134.339 176.95 132.121C175.84 129.904 168.572 132.296 176.659 128.251C184.746 124.205 199.973 118.932 206.236 117.472C199.903 123.317 187.436 131.227 179.348 135.272Z" fill="#555454"/>
</g>
<path d="M45.3032 71.4414L55.0936 86.9545L50.899 102.888L41.7115 89.3362L45.3032 71.4414Z" fill="#FFD13B"/>
<path d="M34.9653 126.396L35.3091 140.783L27.3782 148.227L26.7088 135.333L34.9653 126.396Z" fill="#FFD13B"/>
<path d="M235.608 162.35L230.714 171.112L223.944 172.628L228.142 164.641L235.608 162.35Z" fill="#FFD13B"/>
<path d="M232.801 120.901L233.145 135.287L225.214 142.732L224.545 129.837L232.801 120.901Z" fill="#FFD13B"/>
<path d="M132.526 60.4504L137.437 73.9773L132.292 83.561L127.548 71.5525L132.526 60.4504Z" fill="#FFD13B"/>
<path d="M227.321 112.657L232.232 126.184L227.087 135.768L222.343 123.76L227.321 112.657Z" fill="white"/>
<path d="M204.928 44.616L205.226 59.0036L197.271 66.4225L196.643 53.5263L204.928 44.616Z" fill="#FFD13B"/>
<path d="M195.731 158.968L195.612 177.312L183.489 188.469L183.058 172.102L195.731 158.968Z" fill="#FFD13B"/>
<path d="M12.979 178.603L36.021 192.927L39.7258 213.811L18.7079 201.574L12.979 178.603Z" fill="#FFD13B"/>
<path d="M18.4751 174.482L41.5171 188.805L45.2219 209.689L24.2039 197.452L18.4751 174.482Z" fill="#FFFEFB"/>
<path d="M4.73486 90.6755L27.7769 104.999L31.4817 125.883L10.4637 113.646L4.73486 90.6755Z" fill="#FFFEFB"/>
<path d="M61.063 27.4774L84.105 41.801L87.8098 62.6849L66.7918 50.4476L61.063 27.4774Z" fill="#FFFEFB"/>
<path d="M4.29346 100.293L11.8006 104.959L13.0077 111.763L6.15994 107.777L4.29346 100.293Z" fill="#FFD13B"/>
<path d="M68.8638 41.2162L76.371 45.8829L77.578 52.6869L70.7303 48.7L68.8638 41.2162Z" fill="#FFD13B"/>
<path d="M183.53 87.0243L185.994 98.7264L179.98 107.162L177.446 96.78L183.53 87.0243Z" fill="#FFD13B"/>
<ellipse cx="101.54" cy="159.464" rx="42.6318" ry="34.3222" fill="#FFD13B"/>
<ellipse cx="101.325" cy="209.528" rx="37.3932" ry="33.8706" fill="#FFD13B"/>
<circle cx="101.539" cy="212.031" r="12.8257" fill="#F8931F"/>
<path d="M72.7037 158.691C79.2848 167.501 83.2979 168.923 73.7857 176.027C64.2736 183.13 51.2274 181.747 44.6463 172.938C38.0653 164.128 29.4396 153.769 38.9518 146.665C58.2412 155.218 66.1226 149.882 72.7037 158.691Z" fill="#FFD13B"/>
<path d="M79.9752 140.466C83.9966 150.7 87.4919 153.131 76.4414 157.472C65.391 161.813 53.1729 157.035 49.1515 146.801C45.1301 136.567 39.5459 124.298 50.5963 119.957C66.9429 133.299 75.9538 130.232 79.9752 140.466Z" fill="#FFD13B"/>
<path d="M94.5071 127.017C96.1044 137.896 98.9579 141.056 87.2111 142.78C75.4644 144.504 64.6469 137.083 63.0495 126.204C61.4522 115.324 58.7937 102.11 70.5405 100.385C83.4382 117.083 92.9097 116.138 94.5071 127.017Z" fill="#FFD13B"/>
<path d="M115.445 128.027C112.508 138.624 113.841 142.667 102.399 139.497C90.9576 136.327 84.0632 125.167 86.9999 114.571C89.9367 103.974 92.847 90.8124 104.288 93.9824C109.336 114.468 118.381 117.431 115.445 128.027Z" fill="#FFD13B"/>
<path d="M130.371 158.967C123.79 167.776 119.777 169.198 129.289 176.302C138.802 183.406 151.848 182.023 158.429 173.213C165.01 164.404 173.636 154.044 164.123 146.941C144.834 155.494 136.953 150.157 130.371 158.967Z" fill="#FFD13B"/>
<path d="M123.098 140.742C119.077 150.976 115.581 153.407 126.632 157.748C137.682 162.088 149.9 157.311 153.922 147.076C157.943 136.842 163.527 124.573 152.477 120.233C136.13 133.574 127.119 130.507 123.098 140.742Z" fill="#FFD13B"/>
<path d="M108.568 127.293C106.971 138.172 104.117 141.332 115.864 143.056C127.611 144.78 138.428 137.358 140.026 126.479C141.623 115.6 144.281 102.385 132.535 100.661C119.637 117.359 110.165 116.414 108.568 127.293Z" fill="#FFD13B"/>
<path d="M87.619 128.303C90.5557 138.9 89.2229 142.943 100.664 139.773C112.106 136.603 119 125.443 116.064 114.846C113.127 104.25 110.217 91.0881 98.775 94.2581C93.7277 114.744 84.6822 117.707 87.619 128.303Z" fill="#FFD13B"/>
<path d="M101.332 186.922L104.608 197.219H98.4653L101.332 186.922Z" fill="#F8931F"/>
<path d="M124.572 200.737L116.516 207.939L114.003 202.335L124.572 200.737Z" fill="#F8931F"/>
<path d="M114.156 234.883L106.954 226.827L112.559 224.314L114.156 234.883Z" fill="#F8931F"/>
<path d="M79.397 224.471L87.4529 217.269L89.9661 222.874L79.397 224.471Z" fill="#F8931F"/>
<path d="M88.9432 188.92L96.1457 196.976L90.5409 199.489L88.9432 188.92Z" fill="#F8931F"/>
<path d="M115.425 190.745L112.152 201.043L107.137 197.496L115.425 190.745Z" fill="#F8931F"/>
<path d="M123.216 226.098L112.918 222.825L116.465 217.811L123.216 226.098Z" fill="#F8931F"/>
<path d="M88.138 233.528L91.411 223.23L96.4254 226.777L88.138 233.528Z" fill="#F8931F"/>
<path d="M79.7117 198.628L90.0102 201.901L86.4627 206.915L79.7117 198.628Z" fill="#F8931F"/>
<path d="M126.829 211.827L116.531 215.103V208.96L126.829 211.827Z" fill="#F8931F"/>
<path d="M102.466 237.14L99.1901 226.843H105.333L102.466 237.14Z" fill="#F8931F"/>
<path d="M76.2456 212.235L86.5432 208.959V215.102L76.2456 212.235Z" fill="#F8931F"/>
<g filter="url(#filter6_d_997_2444)">
<path d="M107.048 144.561C107.048 160.474 113.696 165.696 102.622 165.696C91.5481 165.696 98.1964 157.583 98.1964 141.67C98.1964 125.758 91.548 117.645 102.622 117.645C113.696 117.645 107.048 128.648 107.048 144.561Z" fill="#6A92F7"/>
</g>
<g filter="url(#filter7_d_997_2444)">
<circle cx="102.528" cy="166.78" r="11.1096" fill="#FD4F00"/>
</g>
<ellipse cx="83.9838" cy="162.335" rx="3.97452" ry="5.14881" fill="#3D1B11"/>
<path d="M77.0679 134.728C88.684 134.728 98.1011 144.145 98.1011 155.761C98.1011 159.172 98.2372 162.05 98.0708 164.768C97.9078 167.43 97.4626 169.508 96.5103 171.142C94.7528 174.157 90.5256 176.783 78.604 176.792C63.7812 176.052 56.1631 170.933 52.1157 164.921C48.2465 159.174 47.3326 152.18 47.2231 146.093C54.6848 141.344 59.0541 138.577 63.0386 136.928C67.0579 135.265 70.7364 134.728 77.0679 134.728Z" stroke="black" stroke-width="5"/>
<path d="M130.018 134.682C118.402 134.682 108.985 144.1 108.985 155.716C108.985 159.082 108.896 161.896 109.114 164.432C109.328 166.927 109.822 168.798 110.776 170.241C112.586 172.977 116.865 175.277 128.547 175.277C140.289 175.277 148.029 170.599 152.887 164.541C157.456 158.843 159.557 151.813 159.841 146.034C152.393 141.293 148.028 138.53 144.047 136.883C140.028 135.219 136.349 134.683 130.018 134.682Z" stroke="black" stroke-width="5"/>
<line x1="94.7173" y1="153.215" x2="107.955" y2="153.215" stroke="#151414" stroke-width="5"/>
<ellipse cx="122.225" cy="162.335" rx="3.97452" ry="5.14881" fill="#3D1B11"/>
<ellipse cx="77.7743" cy="146.02" rx="4.42617" ry="1.26462" transform="rotate(-8.92273 77.7743 146.02)" fill="#FFA409"/>
<ellipse cx="4.42617" cy="1.26462" rx="4.42617" ry="1.26462" transform="matrix(0.991553 0.129704 0.129704 -0.991553 119.598 146.797)" fill="#FFA409"/>
<path d="M66.9316 177.748L104.276 188.007L105.967 244.016L69.0065 234.959L66.9316 177.748Z" fill="#D4DBD4"/>
<path d="M63.9922 177.814L101.337 188.073L103.027 244.082L66.0671 235.025L63.9922 177.814Z" fill="#F2F8F2"/>
<path d="M62.541 179.195L101.517 188.112L101.517 243.964L64.5663 235.139L62.541 179.195Z" fill="#3A533B"/>
<ellipse cx="85.3698" cy="242.74" rx="11.4709" ry="7.58702" fill="#0BB756"/>
<path d="M141.604 177.748L104.259 188.007L102.568 244.016L139.529 234.959L141.604 177.748Z" fill="#D4DBD4"/>
<path d="M144.547 177.814L107.202 188.073L105.512 244.082L142.472 235.025L144.547 177.814Z" fill="#F2F8F2"/>
<path d="M147.641 179.285L108.664 188.202L108.664 244.053L145.615 235.228L147.641 179.285Z" fill="#3A533B"/>
<ellipse cx="123.837" cy="242.726" rx="11.4709" ry="7.58702" fill="#06A7E2"/>
<rect x="100.6" y="188.073" width="8.82482" height="55.8905" fill="#2D412E"/>
<path d="M69.6295 186.043C79.8706 187.026 86.8949 195.313 85.8084 206.634C84.7218 217.955 85.7543 226.002 75.5132 225.019C65.2722 224.036 56.3675 224.358 57.454 213.037C58.5405 201.716 62.5344 211.499 69.6295 186.043Z" fill="#FEF27A"/>
<path d="M135.833 186.959C126.122 190.356 121.293 201.812 125.047 212.548C128.802 223.283 132.07 227.172 141.781 223.775C151.493 220.379 153.185 219.803 149.431 209.067C145.676 198.332 148.793 209.99 135.833 186.959Z" fill="#C5263A"/>
<defs>
<filter id="filter0_d_997_2444" x="59.0024" y="25" width="218" height="218" filterUnits="userSpaceOnUse" color-interpolation-filters="sRGB">
<feFlood flood-opacity="0" result="BackgroundImageFix"/>
<feColorMatrix in="SourceAlpha" type="matrix" values="0 0 0 0 0 0 0 0 0 0 0 0 0 0 0 0 0 0 127 0" result="hardAlpha"/>
<feOffset dy="4"/>
<feGaussianBlur stdDeviation="2"/>
<feComposite in2="hardAlpha" operator="out"/>
<feColorMatrix type="matrix" values="0 0 0 0 0 0 0 0 0 0 0 0 0 0 0 0 0 0 0.25 0"/>
<feBlend mode="normal" in2="BackgroundImageFix" result="effect1_dropShadow_997_2444"/>
<feBlend mode="normal" in="SourceGraphic" in2="effect1_dropShadow_997_2444" result="shape"/>
</filter>
<filter id="filter1_d_997_2444" x="73.0024" y="38" width="192" height="194" filterUnits="userSpaceOnUse" color-interpolation-filters="sRGB">
<feFlood flood-opacity="0" result="BackgroundImageFix"/>
<feColorMatrix in="SourceAlpha" type="matrix" values="0 0 0 0 0 0 0 0 0 0 0 0 0 0 0 0 0 0 127 0" result="hardAlpha"/>
<feOffset dy="4"/>
<feGaussianBlur stdDeviation="2"/>
<feComposite in2="hardAlpha" operator="out"/>
<feColorMatrix type="matrix" values="0 0 0 0 0 0 0 0 0 0 0 0 0 0 0 0 0 0 0.25 0"/>
<feBlend mode="normal" in2="BackgroundImageFix" result="effect1_dropShadow_997_2444"/>
<feBlend mode="normal" in="SourceGraphic" in2="effect1_dropShadow_997_2444" result="shape"/>
</filter>
<filter id="filter2_d_997_2444" x="172.209" y="7.05933" width="81.6836" height="44.7961" filterUnits="userSpaceOnUse" color-interpolation-filters="sRGB">
<feFlood flood-opacity="0" result="BackgroundImageFix"/>
<feColorMatrix in="SourceAlpha" type="matrix" values="0 0 0 0 0 0 0 0 0 0 0 0 0 0 0 0 0 0 127 0" result="hardAlpha"/>
<feOffset dy="4"/>
<feGaussianBlur stdDeviation="2"/>
<feComposite in2="hardAlpha" operator="out"/>
<feColorMatrix type="matrix" values="0 0 0 0 0 0 0 0 0 0 0 0 0 0 0 0 0 0 0.25 0"/>
<feBlend mode="normal" in2="BackgroundImageFix" result="effect1_dropShadow_997_2444"/>
<feBlend mode="normal" in="SourceGraphic" in2="effect1_dropShadow_997_2444" result="shape"/>
</filter>
<filter id="filter3_d_997_2444" x="156.002" y="127" width="24" height="27" filterUnits="userSpaceOnUse" color-interpolation-filters="sRGB">
<feFlood flood-opacity="0" result="BackgroundImageFix"/>
<feColorMatrix in="SourceAlpha" type="matrix" values="0 0 0 0 0 0 0 0 0 0 0 0 0 0 0 0 0 0 127 0" result="hardAlpha"/>
<feOffset dy="4"/>
<feGaussianBlur stdDeviation="2"/>
<feComposite in2="hardAlpha" operator="out"/>
<feColorMatrix type="matrix" values="0 0 0 0 0 0 0 0 0 0 0 0 0 0 0 0 0 0 0.25 0"/>
<feBlend mode="normal" in2="BackgroundImageFix" result="effect1_dropShadow_997_2444"/>
<feBlend mode="normal" in="SourceGraphic" in2="effect1_dropShadow_997_2444" result="shape"/>
</filter>
<filter id="filter4_d_997_2444" x="159.002" y="69" width="17" height="70" filterUnits="userSpaceOnUse" color-interpolation-filters="sRGB">
<feFlood flood-opacity="0" result="BackgroundImageFix"/>
<feColorMatrix in="SourceAlpha" type="matrix" values="0 0 0 0 0 0 0 0 0 0 0 0 0 0 0 0 0 0 127 0" result="hardAlpha"/>
<feOffset dy="4"/>
<feGaussianBlur stdDeviation="2"/>
<feComposite in2="hardAlpha" operator="out"/>
<feColorMatrix type="matrix" values="0 0 0 0 0 0 0 0 0 0 0 0 0 0 0 0 0 0 0.25 0"/>
<feBlend mode="normal" in2="BackgroundImageFix" result="effect1_dropShadow_997_2444"/>
<feBlend mode="normal" in="SourceGraphic" in2="effect1_dropShadow_997_2444" result="shape"/>
</filter>
<filter id="filter5_d_997_2444" x="168.888" y="117.472" width="41.3481" height="27.3356" filterUnits="userSpaceOnUse" color-interpolation-filters="sRGB">
<feFlood flood-opacity="0" result="BackgroundImageFix"/>
<feColorMatrix in="SourceAlpha" type="matrix" values="0 0 0 0 0 0 0 0 0 0 0 0 0 0 0 0 0 0 127 0" result="hardAlpha"/>
<feOffset dy="4"/>
<feGaussianBlur stdDeviation="2"/>
<feComposite in2="hardAlpha" operator="out"/>
<feColorMatrix type="matrix" values="0 0 0 0 0 0 0 0 0 0 0 0 0 0 0 0 0 0 0.25 0"/>
<feBlend mode="normal" in2="BackgroundImageFix" result="effect1_dropShadow_997_2444"/>
<feBlend mode="normal" in="SourceGraphic" in2="effect1_dropShadow_997_2444" result="shape"/>
</filter>
<filter id="filter6_d_997_2444" x="92.2173" y="117.645" width="20.8096" height="62.0511" filterUnits="userSpaceOnUse" color-interpolation-filters="sRGB">
<feFlood flood-opacity="0" result="BackgroundImageFix"/>
<feColorMatrix in="SourceAlpha" type="matrix" values="0 0 0 0 0 0 0 0 0 0 0 0 0 0 0 0 0 0 127 0" result="hardAlpha"/>
<feOffset dy="10"/>
<feGaussianBlur stdDeviation="2"/>
<feComposite in2="hardAlpha" operator="out"/>
<feColorMatrix type="matrix" values="0 0 0 0 0 0 0 0 0 0 0 0 0 0 0 0 0 0 0.5 0"/>
<feBlend mode="normal" in2="BackgroundImageFix" result="effect1_dropShadow_997_2444"/>
<feBlend mode="normal" in="SourceGraphic" in2="effect1_dropShadow_997_2444" result="shape"/>
</filter>
<filter id="filter7_d_997_2444" x="87.4185" y="155.67" width="30.2192" height="32.2191" filterUnits="userSpaceOnUse" color-interpolation-filters="sRGB">
<feFlood flood-opacity="0" result="BackgroundImageFix"/>
<feColorMatrix in="SourceAlpha" type="matrix" values="0 0 0 0 0 0 0 0 0 0 0 0 0 0 0 0 0 0 127 0" result="hardAlpha"/>
<feOffset dy="6"/>
<feGaussianBlur stdDeviation="2"/>
<feComposite in2="hardAlpha" operator="out"/>
<feColorMatrix type="matrix" values="0 0 0 0 0 0 0 0 0 0 0 0 0 0 0 0 0 0 0.3 0"/>
<feBlend mode="normal" in2="BackgroundImageFix" result="effect1_dropShadow_997_2444"/>
<feBlend mode="normal" in="SourceGraphic" in2="effect1_dropShadow_997_2444" result="shape"/>
</filter>
</defs>
</svg>
