<svg width="348" height="335" viewBox="30 37 272 272" fill="none" xmlns="http://www.w3.org/2000/svg">
<circle cx="166" cy="173" r="136" fill="#B18F68"/>
<path d="M131.446 182.758C151.297 227.967 191.062 319.047 191.315 321.698L220.168 231.425L227.735 122.14L165.046 65.9731L52.1016 46.8558L134.214 117.985L131.446 182.758Z" fill="#FFF9E9"/>
<path d="M131.246 97.2666C132.464 100.266 132.236 103.191 130.736 103.8C129.237 104.41 125.565 102.201 124.347 99.2013C123.129 96.2019 124.825 93.5475 126.325 92.9384C127.824 92.3293 130.028 94.2671 131.246 97.2666Z" fill="black"/>
<path d="M115.798 57.8417C116.987 60.8529 117.304 62.8445 115.798 63.439C114.293 64.0334 112.108 62.0743 110.919 59.0631C109.73 56.052 109.987 53.129 111.493 52.5345C112.998 51.9401 114.609 54.8305 115.798 57.8417Z" fill="black"/>
<g filter="url(#filter0_d_997_2484)">
<path d="M157.172 177.449C168.875 225.417 192.23 322.017 192.019 324.671L236.1 240.776L262.52 134.463L210.53 68.2683L102.617 29.8394L171.139 114.14L157.172 177.449Z" fill="#832619"/>
</g>
<g filter="url(#filter1_d_997_2484)">
<path d="M232.096 110.635L101.92 263.512L118.865 279.817L263.476 140.828L282.166 86.8598L232.096 110.635Z" fill="#C8933D"/>
</g>
<g filter="url(#filter2_d_997_2484)">
<path d="M238.114 136.162L105.721 278.631L113.486 280.892L257.025 140.872L278.988 90.054L238.114 136.162Z" fill="#F5DE92"/>
</g>
<rect x="107.039" y="260.1" width="21.7732" height="61.5657" rx="6" transform="rotate(43.8959 107.039 260.1)" fill="url(#paint0_linear_997_2484)"/>
<g filter="url(#filter3_d_997_2484)">
<rect x="99.3613" y="247.505" width="51.0545" height="9.76041" rx="4.88021" transform="rotate(43.8959 99.3613 247.505)" fill="url(#paint1_linear_997_2484)"/>
</g>
<g filter="url(#filter4_ddd_997_2484)">
<rect x="95.3809" y="261.387" width="37.5401" height="9.76041" rx="4.88021" transform="rotate(43.8959 95.3809 261.387)" fill="url(#paint2_linear_997_2484)"/>
</g>
<g filter="url(#filter5_ddd_997_2484)">
<rect x="85.4902" y="271.667" width="37.5401" height="9.76041" rx="4.88021" transform="rotate(43.8959 85.4902 271.667)" fill="url(#paint3_linear_997_2484)"/>
</g>
<g filter="url(#filter6_ddd_997_2484)">
<rect x="75.5996" y="281.946" width="37.5401" height="9.76041" rx="4.88021" transform="rotate(43.8959 75.5996 281.946)" fill="url(#paint4_linear_997_2484)"/>
</g>
<g filter="url(#filter7_ddd_997_2484)">
<rect x="65.708" y="292.226" width="37.5401" height="9.76041" rx="4.88021" transform="rotate(43.8959 65.708 292.226)" fill="url(#paint5_linear_997_2484)"/>
</g>
<path d="M82.1214 63.0998C83.1707 66.1624 83.6527 67.7771 82.1214 68.3017C80.5901 68.8264 78.498 66.7689 77.4488 63.7063C76.3995 60.6436 76.7902 57.7356 78.3215 57.2109C79.8528 56.6863 81.0721 60.0371 82.1214 63.0998Z" fill="black"/>
<path d="M164.025 124.18C165.244 127.179 165.015 130.105 163.516 130.714C162.016 131.323 158.344 129.114 157.126 126.115C155.908 123.115 157.604 120.461 159.104 119.852C160.604 119.243 162.807 121.18 164.025 124.18Z" fill="black"/>
<path d="M152.923 97.8977C154.112 100.909 154.429 102.9 152.923 103.495C151.418 104.089 149.233 102.13 148.044 99.1191C146.855 96.1079 147.112 93.185 148.618 92.5905C150.123 91.996 151.734 94.8865 152.923 97.8977Z" fill="black"/>
<path d="M144.649 115.856C145.698 118.919 146.18 120.534 144.649 121.058C143.117 121.583 141.025 119.526 139.976 116.463C138.927 113.4 139.318 110.492 140.849 109.968C142.38 109.443 143.599 112.794 144.649 115.856Z" fill="black"/>
<path d="M144.925 140.253C146.143 143.253 145.915 146.178 144.415 146.787C142.915 147.396 139.244 145.188 138.025 142.188C136.807 139.189 138.504 136.534 140.003 135.925C141.503 135.316 143.707 137.254 144.925 140.253Z" fill="black"/>
<path d="M138.086 172.494C139.304 175.493 139.076 178.418 137.576 179.027C136.076 179.637 132.405 177.428 131.187 174.428C129.968 171.429 131.665 168.775 133.165 168.165C134.664 167.556 136.868 169.494 138.086 172.494Z" fill="black"/>
<path d="M178.142 270.191C179.36 273.19 179.132 276.116 177.632 276.725C176.132 277.334 172.46 275.125 171.242 272.126C170.024 269.126 171.721 266.472 173.22 265.863C174.72 265.254 176.923 267.191 178.142 270.191Z" fill="black"/>
<path d="M154.877 156.516C156.066 159.527 156.383 161.519 154.877 162.113C153.372 162.708 151.187 160.749 149.998 157.738C148.81 154.726 149.066 151.803 150.572 151.209C152.077 150.614 153.688 153.505 154.877 156.516Z" fill="black"/>
<path d="M151.487 191.083C152.536 194.146 153.018 195.761 151.487 196.285C149.955 196.81 147.863 194.753 146.814 191.69C145.765 188.627 146.155 185.719 147.687 185.195C149.218 184.67 150.437 188.021 151.487 191.083Z" fill="black"/>
<path d="M165.441 249.674C166.66 252.674 166.431 255.599 164.932 256.208C163.432 256.817 159.76 254.609 158.542 251.609C157.324 248.61 159.02 245.955 160.52 245.346C162.02 244.737 164.223 246.675 165.441 249.674Z" fill="black"/>
<path d="M128.695 77.1757C131.288 79.1143 132.603 80.6431 131.634 81.9395C130.665 83.2359 127.777 82.7154 125.184 80.7768C122.591 78.8382 121.275 76.2158 122.244 74.9194C123.214 73.6229 126.102 75.2372 128.695 77.1757Z" fill="black"/>
<path d="M102.924 76.7964C102.504 80.0064 102.209 81.6659 100.371 81.4253C98.5327 81.1847 97.3834 78.3874 97.8036 75.1774C98.2238 71.9674 100.054 69.5602 101.892 69.8008C103.73 70.0414 103.344 73.5864 102.924 76.7964Z" fill="black"/>
<g filter="url(#filter8_d_997_2484)">
<path d="M333.748 163.688C333.898 163.207 334.586 163.226 334.71 163.714L336.44 170.551C336.48 170.71 336.595 170.839 336.749 170.896L343.006 173.241C343.402 173.389 343.447 173.931 343.08 174.142L336.689 177.821C336.571 177.889 336.485 178.002 336.453 178.135L334.71 185.23C334.589 185.724 333.894 185.743 333.746 185.256L331.574 178.1C331.54 177.988 331.468 177.892 331.371 177.828L325.771 174.123C325.44 173.904 325.484 173.404 325.85 173.247L331.31 170.895C331.444 170.838 331.546 170.724 331.59 170.585L333.748 163.688Z" fill="#C6C9E2"/>
</g>
<g filter="url(#filter9_d_997_2484)">
<path d="M278.807 248.338C278.977 247.896 279.609 247.917 279.75 248.369L281.003 252.382C281.052 252.54 281.177 252.664 281.335 252.712L285.751 254.053C286.189 254.186 286.232 254.79 285.817 254.984L281.284 257.099C281.156 257.159 281.058 257.271 281.017 257.407L279.751 261.586C279.613 262.043 278.972 262.064 278.805 261.616L277.214 257.37C277.172 257.256 277.089 257.162 276.983 257.105L273.003 254.97C272.619 254.764 272.663 254.201 273.074 254.057L276.93 252.711C277.069 252.663 277.179 252.556 277.232 252.419L278.807 248.338Z" fill="#C6C9E2"/>
</g>
<g filter="url(#filter10_d_997_2484)">
<path d="M249.869 204.557C250.027 204.089 250.696 204.109 250.826 204.585L251.38 206.62C251.423 206.779 251.542 206.906 251.698 206.961L253.922 207.735C254.334 207.878 254.378 208.442 253.994 208.648L251.641 209.905C251.519 209.971 251.429 210.084 251.394 210.219L250.826 212.363C250.699 212.845 250.023 212.864 249.868 212.391L249.146 210.183C249.109 210.07 249.034 209.974 248.933 209.912L246.847 208.63C246.497 208.415 246.542 207.893 246.924 207.74L248.875 206.96C249.011 206.905 249.116 206.794 249.163 206.655L249.869 204.557Z" fill="#C6C9E2"/>
</g>
<g filter="url(#filter11_d_997_2484)">
<path d="M87.2383 159.596C87.3938 159.124 88.0684 159.143 88.1964 159.624L90.0417 166.55C90.084 166.709 90.202 166.837 90.3571 166.893L96.9485 169.239C97.3553 169.383 97.3996 169.941 97.0207 170.148L90.2994 173.824C90.1781 173.89 90.0897 174.003 90.0552 174.137L88.1972 181.324C88.0717 181.809 87.3894 181.828 87.2368 181.351L84.9202 174.101C84.8843 173.989 84.8098 173.893 84.71 173.83L78.8237 170.131C78.4792 169.914 78.5238 169.399 78.9004 169.245L84.6511 166.892C84.7866 166.836 84.891 166.724 84.9367 166.585L87.2383 159.596Z" fill="#C6C9E2"/>
</g>
<g filter="url(#filter12_d_997_2484)">
<path d="M37.7459 78.7612C37.8927 78.2732 38.59 78.2918 38.7105 78.787L40.4423 85.9035C40.4809 86.0622 40.5945 86.1919 40.7466 86.2512L47.0488 88.7068C47.4363 88.8578 47.4809 89.3882 47.1241 89.6017L40.6852 93.456C40.5693 93.5254 40.4864 93.6387 40.4553 93.7701L38.7112 101.156C38.5932 101.655 37.8885 101.674 37.7446 101.181L35.5712 93.7354C35.539 93.6249 35.4696 93.5289 35.3747 93.4636L29.7332 89.5819C29.4118 89.3607 29.4562 88.8731 29.8122 88.7136L35.3128 86.2501C35.4452 86.1907 35.5454 86.0768 35.5872 85.9378L37.7459 78.7612Z" fill="#C6C9E2"/>
</g>
<g filter="url(#filter13_d_997_2484)">
<path d="M65.314 217.446C65.4781 216.99 66.1291 217.01 66.2645 217.475L67.4026 221.381C67.4489 221.54 67.5707 221.665 67.7279 221.717L71.8403 223.055C72.2656 223.193 72.3092 223.778 71.9092 223.978L67.674 226.095C67.5482 226.158 67.4547 226.271 67.4165 226.406L66.2655 230.477C66.1325 230.947 65.4735 230.967 65.3123 230.505L63.8667 226.369C63.827 226.256 63.7479 226.161 63.6438 226.101L59.9214 223.962C59.5546 223.751 59.5991 223.208 59.9954 223.06L63.5884 221.716C63.7259 221.665 63.8339 221.555 63.8837 221.417L65.314 217.446Z" fill="#C6C9E2"/>
</g>
<g filter="url(#filter14_d_997_2484)">
<path d="M7.88185 171.244C8.05823 170.815 8.6722 170.836 8.8186 171.276L9.36577 172.919C9.41798 173.076 9.54429 173.197 9.70323 173.242L11.6613 173.799C12.1123 173.928 12.1544 174.551 11.7248 174.738L9.6554 175.644C9.52428 175.701 9.42402 175.812 9.38001 175.948L8.81981 177.681C8.67585 178.127 8.05339 178.148 7.87971 177.713L7.1594 175.91C7.11408 175.797 7.02881 175.704 6.91968 175.649L5.08334 174.725C4.68468 174.525 4.72834 173.942 5.15243 173.803L6.86998 173.241C7.009 173.196 7.12113 173.092 7.17681 172.956L7.88185 171.244Z" fill="#C6C9E2"/>
</g>
<defs>
<filter id="filter0_d_997_2484" x="98.6172" y="29.8394" width="167.902" height="302.832" filterUnits="userSpaceOnUse" color-interpolation-filters="sRGB">
<feFlood flood-opacity="0" result="BackgroundImageFix"/>
<feColorMatrix in="SourceAlpha" type="matrix" values="0 0 0 0 0 0 0 0 0 0 0 0 0 0 0 0 0 0 127 0" result="hardAlpha"/>
<feOffset dy="4"/>
<feGaussianBlur stdDeviation="2"/>
<feComposite in2="hardAlpha" operator="out"/>
<feColorMatrix type="matrix" values="0 0 0 0 0 0 0 0 0 0 0 0 0 0 0 0 0 0 0.25 0"/>
<feBlend mode="normal" in2="BackgroundImageFix" result="effect1_dropShadow_997_2484"/>
<feBlend mode="normal" in="SourceGraphic" in2="effect1_dropShadow_997_2484" result="shape"/>
</filter>
<filter id="filter1_d_997_2484" x="97.9209" y="86.8598" width="188.245" height="200.957" filterUnits="userSpaceOnUse" color-interpolation-filters="sRGB">
<feFlood flood-opacity="0" result="BackgroundImageFix"/>
<feColorMatrix in="SourceAlpha" type="matrix" values="0 0 0 0 0 0 0 0 0 0 0 0 0 0 0 0 0 0 127 0" result="hardAlpha"/>
<feOffset dy="4"/>
<feGaussianBlur stdDeviation="2"/>
<feComposite in2="hardAlpha" operator="out"/>
<feColorMatrix type="matrix" values="0 0 0 0 0 0 0 0 0 0 0 0 0 0 0 0 0 0 0.25 0"/>
<feBlend mode="normal" in2="BackgroundImageFix" result="effect1_dropShadow_997_2484"/>
<feBlend mode="normal" in="SourceGraphic" in2="effect1_dropShadow_997_2484" result="shape"/>
</filter>
<filter id="filter2_d_997_2484" x="101.722" y="90.054" width="181.267" height="198.838" filterUnits="userSpaceOnUse" color-interpolation-filters="sRGB">
<feFlood flood-opacity="0" result="BackgroundImageFix"/>
<feColorMatrix in="SourceAlpha" type="matrix" values="0 0 0 0 0 0 0 0 0 0 0 0 0 0 0 0 0 0 127 0" result="hardAlpha"/>
<feOffset dy="4"/>
<feGaussianBlur stdDeviation="2"/>
<feComposite in2="hardAlpha" operator="out"/>
<feColorMatrix type="matrix" values="0 0 0 0 0 0 0 0 0 0 0 0 0 0 0 0 0 0 0.25 0"/>
<feBlend mode="normal" in2="BackgroundImageFix" result="effect1_dropShadow_997_2484"/>
<feBlend mode="normal" in="SourceGraphic" in2="effect1_dropShadow_997_2484" result="shape"/>
</filter>
<filter id="filter3_d_997_2484" x="90.6143" y="249.525" width="47.5166" height="46.3917" filterUnits="userSpaceOnUse" color-interpolation-filters="sRGB">
<feFlood flood-opacity="0" result="BackgroundImageFix"/>
<feColorMatrix in="SourceAlpha" type="matrix" values="0 0 0 0 0 0 0 0 0 0 0 0 0 0 0 0 0 0 127 0" result="hardAlpha"/>
<feOffset dy="4"/>
<feGaussianBlur stdDeviation="2"/>
<feComposite in2="hardAlpha" operator="out"/>
<feColorMatrix type="matrix" values="0 0 0 0 0 0 0 0 0 0 0 0 0 0 0 0 0 0 0.25 0"/>
<feBlend mode="normal" in2="BackgroundImageFix" result="effect1_dropShadow_997_2484"/>
<feBlend mode="normal" in="SourceGraphic" in2="effect1_dropShadow_997_2484" result="shape"/>
</filter>
<filter id="filter4_ddd_997_2484" x="86.6338" y="263.407" width="37.7783" height="37.0214" filterUnits="userSpaceOnUse" color-interpolation-filters="sRGB">
<feFlood flood-opacity="0" result="BackgroundImageFix"/>
<feColorMatrix in="SourceAlpha" type="matrix" values="0 0 0 0 0 0 0 0 0 0 0 0 0 0 0 0 0 0 127 0" result="hardAlpha"/>
<feOffset dy="4"/>
<feGaussianBlur stdDeviation="2"/>
<feComposite in2="hardAlpha" operator="out"/>
<feColorMatrix type="matrix" values="0 0 0 0 0 0 0 0 0 0 0 0 0 0 0 0 0 0 0.25 0"/>
<feBlend mode="normal" in2="BackgroundImageFix" result="effect1_dropShadow_997_2484"/>
<feColorMatrix in="SourceAlpha" type="matrix" values="0 0 0 0 0 0 0 0 0 0 0 0 0 0 0 0 0 0 127 0" result="hardAlpha"/>
<feOffset dy="4"/>
<feGaussianBlur stdDeviation="2"/>
<feComposite in2="hardAlpha" operator="out"/>
<feColorMatrix type="matrix" values="0 0 0 0 0 0 0 0 0 0 0 0 0 0 0 0 0 0 0.25 0"/>
<feBlend mode="normal" in2="effect1_dropShadow_997_2484" result="effect2_dropShadow_997_2484"/>
<feColorMatrix in="SourceAlpha" type="matrix" values="0 0 0 0 0 0 0 0 0 0 0 0 0 0 0 0 0 0 127 0" result="hardAlpha"/>
<feOffset dy="4"/>
<feGaussianBlur stdDeviation="2"/>
<feComposite in2="hardAlpha" operator="out"/>
<feColorMatrix type="matrix" values="0 0 0 0 0 0 0 0 0 0 0 0 0 0 0 0 0 0 0.25 0"/>
<feBlend mode="normal" in2="effect2_dropShadow_997_2484" result="effect3_dropShadow_997_2484"/>
<feBlend mode="normal" in="SourceGraphic" in2="effect3_dropShadow_997_2484" result="shape"/>
</filter>
<filter id="filter5_ddd_997_2484" x="76.7432" y="273.687" width="37.7783" height="37.0214" filterUnits="userSpaceOnUse" color-interpolation-filters="sRGB">
<feFlood flood-opacity="0" result="BackgroundImageFix"/>
<feColorMatrix in="SourceAlpha" type="matrix" values="0 0 0 0 0 0 0 0 0 0 0 0 0 0 0 0 0 0 127 0" result="hardAlpha"/>
<feOffset dy="4"/>
<feGaussianBlur stdDeviation="2"/>
<feComposite in2="hardAlpha" operator="out"/>
<feColorMatrix type="matrix" values="0 0 0 0 0 0 0 0 0 0 0 0 0 0 0 0 0 0 0.25 0"/>
<feBlend mode="normal" in2="BackgroundImageFix" result="effect1_dropShadow_997_2484"/>
<feColorMatrix in="SourceAlpha" type="matrix" values="0 0 0 0 0 0 0 0 0 0 0 0 0 0 0 0 0 0 127 0" result="hardAlpha"/>
<feOffset dy="4"/>
<feGaussianBlur stdDeviation="2"/>
<feComposite in2="hardAlpha" operator="out"/>
<feColorMatrix type="matrix" values="0 0 0 0 0 0 0 0 0 0 0 0 0 0 0 0 0 0 0.25 0"/>
<feBlend mode="normal" in2="effect1_dropShadow_997_2484" result="effect2_dropShadow_997_2484"/>
<feColorMatrix in="SourceAlpha" type="matrix" values="0 0 0 0 0 0 0 0 0 0 0 0 0 0 0 0 0 0 127 0" result="hardAlpha"/>
<feOffset dy="4"/>
<feGaussianBlur stdDeviation="2"/>
<feComposite in2="hardAlpha" operator="out"/>
<feColorMatrix type="matrix" values="0 0 0 0 0 0 0 0 0 0 0 0 0 0 0 0 0 0 0.25 0"/>
<feBlend mode="normal" in2="effect2_dropShadow_997_2484" result="effect3_dropShadow_997_2484"/>
<feBlend mode="normal" in="SourceGraphic" in2="effect3_dropShadow_997_2484" result="shape"/>
</filter>
<filter id="filter6_ddd_997_2484" x="66.8525" y="283.966" width="37.7783" height="37.0214" filterUnits="userSpaceOnUse" color-interpolation-filters="sRGB">
<feFlood flood-opacity="0" result="BackgroundImageFix"/>
<feColorMatrix in="SourceAlpha" type="matrix" values="0 0 0 0 0 0 0 0 0 0 0 0 0 0 0 0 0 0 127 0" result="hardAlpha"/>
<feOffset dy="4"/>
<feGaussianBlur stdDeviation="2"/>
<feComposite in2="hardAlpha" operator="out"/>
<feColorMatrix type="matrix" values="0 0 0 0 0 0 0 0 0 0 0 0 0 0 0 0 0 0 0.25 0"/>
<feBlend mode="normal" in2="BackgroundImageFix" result="effect1_dropShadow_997_2484"/>
<feColorMatrix in="SourceAlpha" type="matrix" values="0 0 0 0 0 0 0 0 0 0 0 0 0 0 0 0 0 0 127 0" result="hardAlpha"/>
<feOffset dy="4"/>
<feGaussianBlur stdDeviation="2"/>
<feComposite in2="hardAlpha" operator="out"/>
<feColorMatrix type="matrix" values="0 0 0 0 0 0 0 0 0 0 0 0 0 0 0 0 0 0 0.25 0"/>
<feBlend mode="normal" in2="effect1_dropShadow_997_2484" result="effect2_dropShadow_997_2484"/>
<feColorMatrix in="SourceAlpha" type="matrix" values="0 0 0 0 0 0 0 0 0 0 0 0 0 0 0 0 0 0 127 0" result="hardAlpha"/>
<feOffset dy="4"/>
<feGaussianBlur stdDeviation="2"/>
<feComposite in2="hardAlpha" operator="out"/>
<feColorMatrix type="matrix" values="0 0 0 0 0 0 0 0 0 0 0 0 0 0 0 0 0 0 0.25 0"/>
<feBlend mode="normal" in2="effect2_dropShadow_997_2484" result="effect3_dropShadow_997_2484"/>
<feBlend mode="normal" in="SourceGraphic" in2="effect3_dropShadow_997_2484" result="shape"/>
</filter>
<filter id="filter7_ddd_997_2484" x="56.9609" y="294.246" width="37.7783" height="37.0214" filterUnits="userSpaceOnUse" color-interpolation-filters="sRGB">
<feFlood flood-opacity="0" result="BackgroundImageFix"/>
<feColorMatrix in="SourceAlpha" type="matrix" values="0 0 0 0 0 0 0 0 0 0 0 0 0 0 0 0 0 0 127 0" result="hardAlpha"/>
<feOffset dy="4"/>
<feGaussianBlur stdDeviation="2"/>
<feComposite in2="hardAlpha" operator="out"/>
<feColorMatrix type="matrix" values="0 0 0 0 0 0 0 0 0 0 0 0 0 0 0 0 0 0 0.25 0"/>
<feBlend mode="normal" in2="BackgroundImageFix" result="effect1_dropShadow_997_2484"/>
<feColorMatrix in="SourceAlpha" type="matrix" values="0 0 0 0 0 0 0 0 0 0 0 0 0 0 0 0 0 0 127 0" result="hardAlpha"/>
<feOffset dy="4"/>
<feGaussianBlur stdDeviation="2"/>
<feComposite in2="hardAlpha" operator="out"/>
<feColorMatrix type="matrix" values="0 0 0 0 0 0 0 0 0 0 0 0 0 0 0 0 0 0 0.25 0"/>
<feBlend mode="normal" in2="effect1_dropShadow_997_2484" result="effect2_dropShadow_997_2484"/>
<feColorMatrix in="SourceAlpha" type="matrix" values="0 0 0 0 0 0 0 0 0 0 0 0 0 0 0 0 0 0 127 0" result="hardAlpha"/>
<feOffset dy="4"/>
<feGaussianBlur stdDeviation="2"/>
<feComposite in2="hardAlpha" operator="out"/>
<feColorMatrix type="matrix" values="0 0 0 0 0 0 0 0 0 0 0 0 0 0 0 0 0 0 0.25 0"/>
<feBlend mode="normal" in2="effect2_dropShadow_997_2484" result="effect3_dropShadow_997_2484"/>
<feBlend mode="normal" in="SourceGraphic" in2="effect3_dropShadow_997_2484" result="shape"/>
</filter>
<filter id="filter8_d_997_2484" x="321.547" y="163.337" width="25.7842" height="30.2739" filterUnits="userSpaceOnUse" color-interpolation-filters="sRGB">
<feFlood flood-opacity="0" result="BackgroundImageFix"/>
<feColorMatrix in="SourceAlpha" type="matrix" values="0 0 0 0 0 0 0 0 0 0 0 0 0 0 0 0 0 0 127 0" result="hardAlpha"/>
<feOffset dy="4"/>
<feGaussianBlur stdDeviation="2"/>
<feComposite in2="hardAlpha" operator="out"/>
<feColorMatrix type="matrix" values="0 0 0 0 0 0 0 0 0 0 0 0 0 0 0 0 0 0 0.25 0"/>
<feBlend mode="normal" in2="BackgroundImageFix" result="effect1_dropShadow_997_2484"/>
<feBlend mode="normal" in="SourceGraphic" in2="effect1_dropShadow_997_2484" result="shape"/>
</filter>
<filter id="filter9_d_997_2484" x="268.739" y="248.018" width="21.3662" height="21.9226" filterUnits="userSpaceOnUse" color-interpolation-filters="sRGB">
<feFlood flood-opacity="0" result="BackgroundImageFix"/>
<feColorMatrix in="SourceAlpha" type="matrix" values="0 0 0 0 0 0 0 0 0 0 0 0 0 0 0 0 0 0 127 0" result="hardAlpha"/>
<feOffset dy="4"/>
<feGaussianBlur stdDeviation="2"/>
<feComposite in2="hardAlpha" operator="out"/>
<feColorMatrix type="matrix" values="0 0 0 0 0 0 0 0 0 0 0 0 0 0 0 0 0 0 0.25 0"/>
<feBlend mode="normal" in2="BackgroundImageFix" result="effect1_dropShadow_997_2484"/>
<feBlend mode="normal" in="SourceGraphic" in2="effect1_dropShadow_997_2484" result="shape"/>
</filter>
<filter id="filter10_d_997_2484" x="242.609" y="204.217" width="15.6484" height="16.5189" filterUnits="userSpaceOnUse" color-interpolation-filters="sRGB">
<feFlood flood-opacity="0" result="BackgroundImageFix"/>
<feColorMatrix in="SourceAlpha" type="matrix" values="0 0 0 0 0 0 0 0 0 0 0 0 0 0 0 0 0 0 127 0" result="hardAlpha"/>
<feOffset dy="4"/>
<feGaussianBlur stdDeviation="2"/>
<feComposite in2="hardAlpha" operator="out"/>
<feColorMatrix type="matrix" values="0 0 0 0 0 0 0 0 0 0 0 0 0 0 0 0 0 0 0.25 0"/>
<feBlend mode="normal" in2="BackgroundImageFix" result="effect1_dropShadow_997_2484"/>
<feBlend mode="normal" in="SourceGraphic" in2="effect1_dropShadow_997_2484" result="shape"/>
</filter>
<filter id="filter11_d_997_2484" x="74.5898" y="159.252" width="26.6914" height="30.4463" filterUnits="userSpaceOnUse" color-interpolation-filters="sRGB">
<feFlood flood-opacity="0" result="BackgroundImageFix"/>
<feColorMatrix in="SourceAlpha" type="matrix" values="0 0 0 0 0 0 0 0 0 0 0 0 0 0 0 0 0 0 127 0" result="hardAlpha"/>
<feOffset dy="4"/>
<feGaussianBlur stdDeviation="2"/>
<feComposite in2="hardAlpha" operator="out"/>
<feColorMatrix type="matrix" values="0 0 0 0 0 0 0 0 0 0 0 0 0 0 0 0 0 0 0.25 0"/>
<feBlend mode="normal" in2="BackgroundImageFix" result="effect1_dropShadow_997_2484"/>
<feBlend mode="normal" in="SourceGraphic" in2="effect1_dropShadow_997_2484" result="shape"/>
</filter>
<filter id="filter12_d_997_2484" x="25.5166" y="78.4052" width="25.8506" height="31.1355" filterUnits="userSpaceOnUse" color-interpolation-filters="sRGB">
<feFlood flood-opacity="0" result="BackgroundImageFix"/>
<feColorMatrix in="SourceAlpha" type="matrix" values="0 0 0 0 0 0 0 0 0 0 0 0 0 0 0 0 0 0 127 0" result="hardAlpha"/>
<feOffset dy="4"/>
<feGaussianBlur stdDeviation="2"/>
<feComposite in2="hardAlpha" operator="out"/>
<feColorMatrix type="matrix" values="0 0 0 0 0 0 0 0 0 0 0 0 0 0 0 0 0 0 0.25 0"/>
<feBlend mode="normal" in2="BackgroundImageFix" result="effect1_dropShadow_997_2484"/>
<feBlend mode="normal" in="SourceGraphic" in2="effect1_dropShadow_997_2484" result="shape"/>
</filter>
<filter id="filter13_d_997_2484" x="55.6709" y="217.115" width="20.5146" height="21.7255" filterUnits="userSpaceOnUse" color-interpolation-filters="sRGB">
<feFlood flood-opacity="0" result="BackgroundImageFix"/>
<feColorMatrix in="SourceAlpha" type="matrix" values="0 0 0 0 0 0 0 0 0 0 0 0 0 0 0 0 0 0 127 0" result="hardAlpha"/>
<feOffset dy="4"/>
<feGaussianBlur stdDeviation="2"/>
<feComposite in2="hardAlpha" operator="out"/>
<feColorMatrix type="matrix" values="0 0 0 0 0 0 0 0 0 0 0 0 0 0 0 0 0 0 0.25 0"/>
<feBlend mode="normal" in2="BackgroundImageFix" result="effect1_dropShadow_997_2484"/>
<feBlend mode="normal" in="SourceGraphic" in2="effect1_dropShadow_997_2484" result="shape"/>
</filter>
<filter id="filter14_d_997_2484" x="0.807617" y="170.934" width="15.2168" height="15.0939" filterUnits="userSpaceOnUse" color-interpolation-filters="sRGB">
<feFlood flood-opacity="0" result="BackgroundImageFix"/>
<feColorMatrix in="SourceAlpha" type="matrix" values="0 0 0 0 0 0 0 0 0 0 0 0 0 0 0 0 0 0 127 0" result="hardAlpha"/>
<feOffset dy="4"/>
<feGaussianBlur stdDeviation="2"/>
<feComposite in2="hardAlpha" operator="out"/>
<feColorMatrix type="matrix" values="0 0 0 0 0 0 0 0 0 0 0 0 0 0 0 0 0 0 0.25 0"/>
<feBlend mode="normal" in2="BackgroundImageFix" result="effect1_dropShadow_997_2484"/>
<feBlend mode="normal" in="SourceGraphic" in2="effect1_dropShadow_997_2484" result="shape"/>
</filter>
<linearGradient id="paint0_linear_997_2484" x1="117.926" y1="260.1" x2="117.926" y2="321.666" gradientUnits="userSpaceOnUse">
<stop stop-color="#B27C25"/>
<stop offset="1" stop-color="#936315"/>
</linearGradient>
<linearGradient id="paint1_linear_997_2484" x1="124.889" y1="247.505" x2="124.889" y2="257.265" gradientUnits="userSpaceOnUse">
<stop stop-color="#B27C25"/>
<stop offset="1" stop-color="#936315"/>
</linearGradient>
<linearGradient id="paint2_linear_997_2484" x1="114.151" y1="261.387" x2="114.151" y2="271.147" gradientUnits="userSpaceOnUse">
<stop stop-color="#B27C25"/>
<stop offset="1" stop-color="#936315"/>
</linearGradient>
<linearGradient id="paint3_linear_997_2484" x1="104.26" y1="271.667" x2="104.26" y2="281.427" gradientUnits="userSpaceOnUse">
<stop stop-color="#B27C25"/>
<stop offset="1" stop-color="#936315"/>
</linearGradient>
<linearGradient id="paint4_linear_997_2484" x1="94.3696" y1="281.946" x2="94.3696" y2="291.707" gradientUnits="userSpaceOnUse">
<stop stop-color="#B27C25"/>
<stop offset="1" stop-color="#936315"/>
</linearGradient>
<linearGradient id="paint5_linear_997_2484" x1="84.478" y1="292.226" x2="84.478" y2="301.986" gradientUnits="userSpaceOnUse">
<stop stop-color="#B27C25"/>
<stop offset="1" stop-color="#936315"/>
</linearGradient>
</defs>
</svg>
