<svg width="328" height="289" viewBox="13 12 277 277" fill="none" xmlns="http://www.w3.org/2000/svg">
<circle cx="151.5" cy="150.5" r="138.5" fill="url(#paint0_linear_997_2485)"/>
<path d="M221 73.9478C221 111.474 189.212 159 150 159C110.788 159 79 111.474 79 73.9478C79 36.4219 110.788 43.5381 150 43.5381C189.212 43.5381 221 36.4219 221 73.9478Z" fill="#B4C7D6"/>
<path d="M79 230.052C79 192.526 110.788 145 150 145C189.212 145 221 192.526 221 230.052C221 267.578 189.212 260.462 150 260.462C110.788 260.462 79 267.578 79 230.052Z" fill="#B4C7D6"/>
<path d="M177.66 45.5127C186.129 45.4321 193.531 45.7222 199.652 47.1094C205.735 48.4879 210.329 50.8991 213.448 54.9014C216.581 58.9212 218.5 64.896 218.5 73.9482C218.5 92.0753 210.79 112.812 198.229 129.015C185.657 145.23 168.561 156.5 150 156.5C131.439 156.5 114.343 145.23 101.771 129.015C89.2096 112.812 81.5001 92.0753 81.5 73.9482C81.5 64.896 83.4188 58.9212 86.5518 54.9014C89.6712 50.8991 94.2648 48.4879 100.348 47.1094C106.469 45.7222 113.871 45.4321 122.34 45.5127C130.609 45.5914 140.279 46.0381 150 46.0381C159.721 46.0381 169.391 45.5914 177.66 45.5127Z" stroke="#FFFAFA" stroke-width="5"/>
<path d="M122.34 258.487C113.871 258.568 106.469 258.278 100.348 256.891C94.2648 255.512 89.6712 253.101 86.5518 249.099C83.4188 245.079 81.5 239.104 81.5 230.052C81.5001 211.925 89.2096 191.188 101.771 174.985C114.343 158.77 131.439 147.5 150 147.5C168.561 147.5 185.657 158.77 198.229 174.985C210.79 191.188 218.5 211.925 218.5 230.052C218.5 239.104 216.581 245.079 213.448 249.099C210.329 253.101 205.735 255.512 199.652 256.891C193.531 258.278 186.129 258.568 177.66 258.487C169.391 258.409 159.721 257.962 150 257.962C140.279 257.962 130.609 258.409 122.34 258.487Z" stroke="#FFFAFA" stroke-width="5"/>
<path d="M188 136.453C176.96 146.726 173.824 156 148.64 156C123.456 156 122.72 149.061 116 138.321C127.04 138.321 128.256 136.453 153.44 136.453C178.624 136.453 173.12 133.184 188 136.453Z" fill="#FFEACE"/>
<path d="M163.148 182.226C163.148 194.468 190.413 193.998 165.52 193.998C140.627 193.998 147.014 158.66 138 137C148.912 137 146.068 137 165.52 137C163.148 158.189 148.44 178.93 163.148 182.226Z" fill="#FFEACE"/>
<g filter="url(#filter0_d_997_2485)">
<rect x="73" y="40" width="154" height="26" rx="3" fill="#6C491E"/>
</g>
<g filter="url(#filter1_d_997_2485)">
<rect x="73" y="235" width="154" height="26" rx="3" fill="#6C491E"/>
</g>
<path d="M213 233.95C194.864 233.95 179.636 233.95 151.432 233.95C123.228 233.95 116.591 236.312 87 233.95C100.841 216.004 121.796 182 150 182C178.204 182 195.818 206.086 213 233.95Z" fill="#FFEACE"/>
<path d="M186.747 205.76L175 235H214L211.181 209.116L201.783 188.504L191.916 177L201.783 194.256L196.145 216.785L186.747 205.76Z" stroke="white"/>
<path d="M286.064 263.472L302.558 273.811L309.815 253.998L285.082 246.478L262.528 247.143L248.092 251.815L267.774 249.397L286.065 263.472L286.064 263.472Z" fill="#B4C7D6" stroke="white"/>
<path d="M268.28 260.986C324.558 273.831 256.581 270.651 231.558 270.651C206.535 270.651 190.062 252.79 181 230.614C191.97 230.614 174.8 221.936 194.354 221.936C208.662 203.135 253.495 257.611 268.28 260.986Z" fill="#FFEACE"/>
<path d="M217.678 236.282L198.609 261.186L223.408 267.904L225.025 261.934L224.002 249.333L217.678 236.282Z" fill="#B4C7D6" stroke="white"/>
<g filter="url(#filter2_d_997_2485)">
<path d="M263.879 62.6707L266.681 51.6621L252.522 62.9428L263.879 62.6707Z" fill="#D9D9D9"/>
</g>
<g filter="url(#filter3_d_997_2485)">
<path d="M248.754 84.6343L248.082 74.9972L239.529 87.5021L248.754 84.6343Z" fill="#1C5093"/>
</g>
<g filter="url(#filter4_d_997_2485)">
<path d="M207.904 6.72248L204.001 1.09081L201.831 9.89557L207.904 6.72248Z" fill="#3C6D86"/>
</g>
<g filter="url(#filter5_d_997_2485)">
<path d="M290.092 82.6534L287.607 73.9096L281.354 85.1602L290.092 82.6534Z" fill="#1C5093"/>
</g>
<g filter="url(#filter6_d_997_2485)">
<path d="M235.891 134.101L238.001 127.048L228.594 133.126L235.891 134.101Z" fill="#D9D9D9"/>
</g>
<g filter="url(#filter7_d_997_2485)">
<path d="M228.891 38.8611L231.001 31.8081L221.594 37.8866L228.891 38.8611Z" fill="#1C5093"/>
</g>
<g filter="url(#filter8_d_997_2485)">
<path d="M300.067 140.072L300.329 132.715L292.76 140.97L300.067 140.072Z" fill="#3C6D86"/>
</g>
<g filter="url(#filter9_d_997_2485)">
<path d="M318.879 111.671L321.681 100.662L307.522 111.943L318.879 111.671Z" fill="#D9D9D9"/>
</g>
<g filter="url(#filter10_d_997_2485)">
<path d="M257.092 13.6535L254.607 4.90975L248.354 16.1603L257.092 13.6535Z" fill="#1C5093"/>
</g>
<g filter="url(#filter11_d_997_2485)">
<path d="M305.067 47.0721L305.329 39.715L297.76 47.9695L305.067 47.0721Z" fill="#3C6D86"/>
</g>
<g filter="url(#filter12_d_997_2485)">
<path d="M258.378 178.58L252.54 172.244L250.456 181.966L258.378 178.58Z" fill="#D9D9D9"/>
</g>
<g filter="url(#filter13_d_997_2485)">
<path d="M269.733 109.435L261.47 106.996L264.675 116.409L269.733 109.435Z" fill="#D9D9D9"/>
</g>
<g filter="url(#filter14_d_997_2485)">
<path d="M51.3239 128.093L54.1261 117.084L39.9675 128.365L51.3239 128.093Z" fill="#D9D9D9"/>
</g>
<g filter="url(#filter15_d_997_2485)">
<path d="M40.3064 66.6534L37.8219 57.9096L31.569 69.1602L40.3064 66.6534Z" fill="#1C5093"/>
</g>
<g filter="url(#filter16_d_997_2485)">
<path d="M23.8909 116.861L26.0005 109.808L16.5939 115.887L23.8909 116.861Z" fill="#1C5093"/>
</g>
<g filter="url(#filter17_d_997_2485)">
<path d="M49.5724 106.208L49.8349 98.8507L42.2654 107.105L49.5724 106.208Z" fill="#3C6D86"/>
</g>
<g filter="url(#filter18_d_997_2485)">
<path d="M12.7327 83.3207L4.46974 80.8819L7.67452 90.2949L12.7327 83.3207Z" fill="#D9D9D9"/>
</g>
<defs>
<filter id="filter0_d_997_2485" x="69" y="40" width="162" height="34" filterUnits="userSpaceOnUse" color-interpolation-filters="sRGB">
<feFlood flood-opacity="0" result="BackgroundImageFix"/>
<feColorMatrix in="SourceAlpha" type="matrix" values="0 0 0 0 0 0 0 0 0 0 0 0 0 0 0 0 0 0 127 0" result="hardAlpha"/>
<feOffset dy="4"/>
<feGaussianBlur stdDeviation="2"/>
<feComposite in2="hardAlpha" operator="out"/>
<feColorMatrix type="matrix" values="0 0 0 0 0 0 0 0 0 0 0 0 0 0 0 0 0 0 0.25 0"/>
<feBlend mode="normal" in2="BackgroundImageFix" result="effect1_dropShadow_997_2485"/>
<feBlend mode="normal" in="SourceGraphic" in2="effect1_dropShadow_997_2485" result="shape"/>
</filter>
<filter id="filter1_d_997_2485" x="69" y="235" width="162" height="34" filterUnits="userSpaceOnUse" color-interpolation-filters="sRGB">
<feFlood flood-opacity="0" result="BackgroundImageFix"/>
<feColorMatrix in="SourceAlpha" type="matrix" values="0 0 0 0 0 0 0 0 0 0 0 0 0 0 0 0 0 0 127 0" result="hardAlpha"/>
<feOffset dy="4"/>
<feGaussianBlur stdDeviation="2"/>
<feComposite in2="hardAlpha" operator="out"/>
<feColorMatrix type="matrix" values="0 0 0 0 0 0 0 0 0 0 0 0 0 0 0 0 0 0 0.25 0"/>
<feBlend mode="normal" in2="BackgroundImageFix" result="effect1_dropShadow_997_2485"/>
<feBlend mode="normal" in="SourceGraphic" in2="effect1_dropShadow_997_2485" result="shape"/>
</filter>
<filter id="filter2_d_997_2485" x="248.522" y="51.6621" width="22.1582" height="19.2806" filterUnits="userSpaceOnUse" color-interpolation-filters="sRGB">
<feFlood flood-opacity="0" result="BackgroundImageFix"/>
<feColorMatrix in="SourceAlpha" type="matrix" values="0 0 0 0 0 0 0 0 0 0 0 0 0 0 0 0 0 0 127 0" result="hardAlpha"/>
<feOffset dy="4"/>
<feGaussianBlur stdDeviation="2"/>
<feComposite in2="hardAlpha" operator="out"/>
<feColorMatrix type="matrix" values="0 0 0 0 0 0 0 0 0 0 0 0 0 0 0 0 0 0 0.25 0"/>
<feBlend mode="normal" in2="BackgroundImageFix" result="effect1_dropShadow_997_2485"/>
<feBlend mode="normal" in="SourceGraphic" in2="effect1_dropShadow_997_2485" result="shape"/>
</filter>
<filter id="filter3_d_997_2485" x="235.528" y="74.9972" width="17.2256" height="20.5049" filterUnits="userSpaceOnUse" color-interpolation-filters="sRGB">
<feFlood flood-opacity="0" result="BackgroundImageFix"/>
<feColorMatrix in="SourceAlpha" type="matrix" values="0 0 0 0 0 0 0 0 0 0 0 0 0 0 0 0 0 0 127 0" result="hardAlpha"/>
<feOffset dy="4"/>
<feGaussianBlur stdDeviation="2"/>
<feComposite in2="hardAlpha" operator="out"/>
<feColorMatrix type="matrix" values="0 0 0 0 0 0 0 0 0 0 0 0 0 0 0 0 0 0 0.25 0"/>
<feBlend mode="normal" in2="BackgroundImageFix" result="effect1_dropShadow_997_2485"/>
<feBlend mode="normal" in="SourceGraphic" in2="effect1_dropShadow_997_2485" result="shape"/>
</filter>
<filter id="filter4_d_997_2485" x="197.831" y="1.09082" width="14.0732" height="16.8047" filterUnits="userSpaceOnUse" color-interpolation-filters="sRGB">
<feFlood flood-opacity="0" result="BackgroundImageFix"/>
<feColorMatrix in="SourceAlpha" type="matrix" values="0 0 0 0 0 0 0 0 0 0 0 0 0 0 0 0 0 0 127 0" result="hardAlpha"/>
<feOffset dy="4"/>
<feGaussianBlur stdDeviation="2"/>
<feComposite in2="hardAlpha" operator="out"/>
<feColorMatrix type="matrix" values="0 0 0 0 0 0 0 0 0 0 0 0 0 0 0 0 0 0 0.25 0"/>
<feBlend mode="normal" in2="BackgroundImageFix" result="effect1_dropShadow_997_2485"/>
<feBlend mode="normal" in="SourceGraphic" in2="effect1_dropShadow_997_2485" result="shape"/>
</filter>
<filter id="filter5_d_997_2485" x="277.354" y="73.9097" width="16.7373" height="19.2505" filterUnits="userSpaceOnUse" color-interpolation-filters="sRGB">
<feFlood flood-opacity="0" result="BackgroundImageFix"/>
<feColorMatrix in="SourceAlpha" type="matrix" values="0 0 0 0 0 0 0 0 0 0 0 0 0 0 0 0 0 0 127 0" result="hardAlpha"/>
<feOffset dy="4"/>
<feGaussianBlur stdDeviation="2"/>
<feComposite in2="hardAlpha" operator="out"/>
<feColorMatrix type="matrix" values="0 0 0 0 0 0 0 0 0 0 0 0 0 0 0 0 0 0 0.25 0"/>
<feBlend mode="normal" in2="BackgroundImageFix" result="effect1_dropShadow_997_2485"/>
<feBlend mode="normal" in="SourceGraphic" in2="effect1_dropShadow_997_2485" result="shape"/>
</filter>
<filter id="filter6_d_997_2485" x="224.594" y="127.048" width="17.4072" height="15.0531" filterUnits="userSpaceOnUse" color-interpolation-filters="sRGB">
<feFlood flood-opacity="0" result="BackgroundImageFix"/>
<feColorMatrix in="SourceAlpha" type="matrix" values="0 0 0 0 0 0 0 0 0 0 0 0 0 0 0 0 0 0 127 0" result="hardAlpha"/>
<feOffset dy="4"/>
<feGaussianBlur stdDeviation="2"/>
<feComposite in2="hardAlpha" operator="out"/>
<feColorMatrix type="matrix" values="0 0 0 0 0 0 0 0 0 0 0 0 0 0 0 0 0 0 0.25 0"/>
<feBlend mode="normal" in2="BackgroundImageFix" result="effect1_dropShadow_997_2485"/>
<feBlend mode="normal" in="SourceGraphic" in2="effect1_dropShadow_997_2485" result="shape"/>
</filter>
<filter id="filter7_d_997_2485" x="217.594" y="31.8081" width="17.4072" height="15.0531" filterUnits="userSpaceOnUse" color-interpolation-filters="sRGB">
<feFlood flood-opacity="0" result="BackgroundImageFix"/>
<feColorMatrix in="SourceAlpha" type="matrix" values="0 0 0 0 0 0 0 0 0 0 0 0 0 0 0 0 0 0 127 0" result="hardAlpha"/>
<feOffset dy="4"/>
<feGaussianBlur stdDeviation="2"/>
<feComposite in2="hardAlpha" operator="out"/>
<feColorMatrix type="matrix" values="0 0 0 0 0 0 0 0 0 0 0 0 0 0 0 0 0 0 0.25 0"/>
<feBlend mode="normal" in2="BackgroundImageFix" result="effect1_dropShadow_997_2485"/>
<feBlend mode="normal" in="SourceGraphic" in2="effect1_dropShadow_997_2485" result="shape"/>
</filter>
<filter id="filter8_d_997_2485" x="288.76" y="132.715" width="15.5693" height="16.2545" filterUnits="userSpaceOnUse" color-interpolation-filters="sRGB">
<feFlood flood-opacity="0" result="BackgroundImageFix"/>
<feColorMatrix in="SourceAlpha" type="matrix" values="0 0 0 0 0 0 0 0 0 0 0 0 0 0 0 0 0 0 127 0" result="hardAlpha"/>
<feOffset dy="4"/>
<feGaussianBlur stdDeviation="2"/>
<feComposite in2="hardAlpha" operator="out"/>
<feColorMatrix type="matrix" values="0 0 0 0 0 0 0 0 0 0 0 0 0 0 0 0 0 0 0.25 0"/>
<feBlend mode="normal" in2="BackgroundImageFix" result="effect1_dropShadow_997_2485"/>
<feBlend mode="normal" in="SourceGraphic" in2="effect1_dropShadow_997_2485" result="shape"/>
</filter>
<filter id="filter9_d_997_2485" x="303.522" y="100.662" width="22.1582" height="19.2806" filterUnits="userSpaceOnUse" color-interpolation-filters="sRGB">
<feFlood flood-opacity="0" result="BackgroundImageFix"/>
<feColorMatrix in="SourceAlpha" type="matrix" values="0 0 0 0 0 0 0 0 0 0 0 0 0 0 0 0 0 0 127 0" result="hardAlpha"/>
<feOffset dy="4"/>
<feGaussianBlur stdDeviation="2"/>
<feComposite in2="hardAlpha" operator="out"/>
<feColorMatrix type="matrix" values="0 0 0 0 0 0 0 0 0 0 0 0 0 0 0 0 0 0 0.25 0"/>
<feBlend mode="normal" in2="BackgroundImageFix" result="effect1_dropShadow_997_2485"/>
<feBlend mode="normal" in="SourceGraphic" in2="effect1_dropShadow_997_2485" result="shape"/>
</filter>
<filter id="filter10_d_997_2485" x="244.354" y="4.90979" width="16.7373" height="19.2505" filterUnits="userSpaceOnUse" color-interpolation-filters="sRGB">
<feFlood flood-opacity="0" result="BackgroundImageFix"/>
<feColorMatrix in="SourceAlpha" type="matrix" values="0 0 0 0 0 0 0 0 0 0 0 0 0 0 0 0 0 0 127 0" result="hardAlpha"/>
<feOffset dy="4"/>
<feGaussianBlur stdDeviation="2"/>
<feComposite in2="hardAlpha" operator="out"/>
<feColorMatrix type="matrix" values="0 0 0 0 0 0 0 0 0 0 0 0 0 0 0 0 0 0 0.25 0"/>
<feBlend mode="normal" in2="BackgroundImageFix" result="effect1_dropShadow_997_2485"/>
<feBlend mode="normal" in="SourceGraphic" in2="effect1_dropShadow_997_2485" result="shape"/>
</filter>
<filter id="filter11_d_997_2485" x="293.76" y="39.715" width="15.5693" height="16.2545" filterUnits="userSpaceOnUse" color-interpolation-filters="sRGB">
<feFlood flood-opacity="0" result="BackgroundImageFix"/>
<feColorMatrix in="SourceAlpha" type="matrix" values="0 0 0 0 0 0 0 0 0 0 0 0 0 0 0 0 0 0 127 0" result="hardAlpha"/>
<feOffset dy="4"/>
<feGaussianBlur stdDeviation="2"/>
<feComposite in2="hardAlpha" operator="out"/>
<feColorMatrix type="matrix" values="0 0 0 0 0 0 0 0 0 0 0 0 0 0 0 0 0 0 0.25 0"/>
<feBlend mode="normal" in2="BackgroundImageFix" result="effect1_dropShadow_997_2485"/>
<feBlend mode="normal" in="SourceGraphic" in2="effect1_dropShadow_997_2485" result="shape"/>
</filter>
<filter id="filter12_d_997_2485" x="246.456" y="172.244" width="15.9219" height="17.7228" filterUnits="userSpaceOnUse" color-interpolation-filters="sRGB">
<feFlood flood-opacity="0" result="BackgroundImageFix"/>
<feColorMatrix in="SourceAlpha" type="matrix" values="0 0 0 0 0 0 0 0 0 0 0 0 0 0 0 0 0 0 127 0" result="hardAlpha"/>
<feOffset dy="4"/>
<feGaussianBlur stdDeviation="2"/>
<feComposite in2="hardAlpha" operator="out"/>
<feColorMatrix type="matrix" values="0 0 0 0 0 0 0 0 0 0 0 0 0 0 0 0 0 0 0.25 0"/>
<feBlend mode="normal" in2="BackgroundImageFix" result="effect1_dropShadow_997_2485"/>
<feBlend mode="normal" in="SourceGraphic" in2="effect1_dropShadow_997_2485" result="shape"/>
</filter>
<filter id="filter13_d_997_2485" x="257.47" y="106.996" width="16.2627" height="17.4131" filterUnits="userSpaceOnUse" color-interpolation-filters="sRGB">
<feFlood flood-opacity="0" result="BackgroundImageFix"/>
<feColorMatrix in="SourceAlpha" type="matrix" values="0 0 0 0 0 0 0 0 0 0 0 0 0 0 0 0 0 0 127 0" result="hardAlpha"/>
<feOffset dy="4"/>
<feGaussianBlur stdDeviation="2"/>
<feComposite in2="hardAlpha" operator="out"/>
<feColorMatrix type="matrix" values="0 0 0 0 0 0 0 0 0 0 0 0 0 0 0 0 0 0 0.25 0"/>
<feBlend mode="normal" in2="BackgroundImageFix" result="effect1_dropShadow_997_2485"/>
<feBlend mode="normal" in="SourceGraphic" in2="effect1_dropShadow_997_2485" result="shape"/>
</filter>
<filter id="filter14_d_997_2485" x="35.9678" y="117.084" width="22.1582" height="19.2806" filterUnits="userSpaceOnUse" color-interpolation-filters="sRGB">
<feFlood flood-opacity="0" result="BackgroundImageFix"/>
<feColorMatrix in="SourceAlpha" type="matrix" values="0 0 0 0 0 0 0 0 0 0 0 0 0 0 0 0 0 0 127 0" result="hardAlpha"/>
<feOffset dy="4"/>
<feGaussianBlur stdDeviation="2"/>
<feComposite in2="hardAlpha" operator="out"/>
<feColorMatrix type="matrix" values="0 0 0 0 0 0 0 0 0 0 0 0 0 0 0 0 0 0 0.25 0"/>
<feBlend mode="normal" in2="BackgroundImageFix" result="effect1_dropShadow_997_2485"/>
<feBlend mode="normal" in="SourceGraphic" in2="effect1_dropShadow_997_2485" result="shape"/>
</filter>
<filter id="filter15_d_997_2485" x="27.5693" y="57.9097" width="16.7373" height="19.2505" filterUnits="userSpaceOnUse" color-interpolation-filters="sRGB">
<feFlood flood-opacity="0" result="BackgroundImageFix"/>
<feColorMatrix in="SourceAlpha" type="matrix" values="0 0 0 0 0 0 0 0 0 0 0 0 0 0 0 0 0 0 127 0" result="hardAlpha"/>
<feOffset dy="4"/>
<feGaussianBlur stdDeviation="2"/>
<feComposite in2="hardAlpha" operator="out"/>
<feColorMatrix type="matrix" values="0 0 0 0 0 0 0 0 0 0 0 0 0 0 0 0 0 0 0.25 0"/>
<feBlend mode="normal" in2="BackgroundImageFix" result="effect1_dropShadow_997_2485"/>
<feBlend mode="normal" in="SourceGraphic" in2="effect1_dropShadow_997_2485" result="shape"/>
</filter>
<filter id="filter16_d_997_2485" x="12.5938" y="109.808" width="17.4072" height="15.0531" filterUnits="userSpaceOnUse" color-interpolation-filters="sRGB">
<feFlood flood-opacity="0" result="BackgroundImageFix"/>
<feColorMatrix in="SourceAlpha" type="matrix" values="0 0 0 0 0 0 0 0 0 0 0 0 0 0 0 0 0 0 127 0" result="hardAlpha"/>
<feOffset dy="4"/>
<feGaussianBlur stdDeviation="2"/>
<feComposite in2="hardAlpha" operator="out"/>
<feColorMatrix type="matrix" values="0 0 0 0 0 0 0 0 0 0 0 0 0 0 0 0 0 0 0.25 0"/>
<feBlend mode="normal" in2="BackgroundImageFix" result="effect1_dropShadow_997_2485"/>
<feBlend mode="normal" in="SourceGraphic" in2="effect1_dropShadow_997_2485" result="shape"/>
</filter>
<filter id="filter17_d_997_2485" x="38.2656" y="98.8507" width="15.5693" height="16.2545" filterUnits="userSpaceOnUse" color-interpolation-filters="sRGB">
<feFlood flood-opacity="0" result="BackgroundImageFix"/>
<feColorMatrix in="SourceAlpha" type="matrix" values="0 0 0 0 0 0 0 0 0 0 0 0 0 0 0 0 0 0 127 0" result="hardAlpha"/>
<feOffset dy="4"/>
<feGaussianBlur stdDeviation="2"/>
<feComposite in2="hardAlpha" operator="out"/>
<feColorMatrix type="matrix" values="0 0 0 0 0 0 0 0 0 0 0 0 0 0 0 0 0 0 0.25 0"/>
<feBlend mode="normal" in2="BackgroundImageFix" result="effect1_dropShadow_997_2485"/>
<feBlend mode="normal" in="SourceGraphic" in2="effect1_dropShadow_997_2485" result="shape"/>
</filter>
<filter id="filter18_d_997_2485" x="0.469727" y="80.8818" width="16.2627" height="17.4131" filterUnits="userSpaceOnUse" color-interpolation-filters="sRGB">
<feFlood flood-opacity="0" result="BackgroundImageFix"/>
<feColorMatrix in="SourceAlpha" type="matrix" values="0 0 0 0 0 0 0 0 0 0 0 0 0 0 0 0 0 0 127 0" result="hardAlpha"/>
<feOffset dy="4"/>
<feGaussianBlur stdDeviation="2"/>
<feComposite in2="hardAlpha" operator="out"/>
<feColorMatrix type="matrix" values="0 0 0 0 0 0 0 0 0 0 0 0 0 0 0 0 0 0 0.25 0"/>
<feBlend mode="normal" in2="BackgroundImageFix" result="effect1_dropShadow_997_2485"/>
<feBlend mode="normal" in="SourceGraphic" in2="effect1_dropShadow_997_2485" result="shape"/>
</filter>
<linearGradient id="paint0_linear_997_2485" x1="152" y1="194.5" x2="152" y2="196" gradientUnits="userSpaceOnUse">
<stop stop-color="#5C1D1E"/>
<stop offset="1" stop-color="#5C1D1E"/>
</linearGradient>
</defs>
</svg>
