<svg width="309" height="277" viewBox="0 0 277 277" fill="none" xmlns="http://www.w3.org/2000/svg">
<mask id="mask0_997_2435" style="mask-type:alpha" maskUnits="userSpaceOnUse" x="0" y="0" width="277" height="277">
<circle cx="138.5" cy="138.5" r="138.5" fill="#1A2A48"/>
</mask>
<g mask="url(#mask0_997_2435)">
<rect x="-67" y="-7" width="395" height="272" fill="#1A2A48"/>
<g opacity="0.36" filter="url(#filter0_d_997_2435)">
<rect x="-39" y="221" width="360" height="7" fill="#9A675C"/>
</g>
<g filter="url(#filter1_d_997_2435)">
<path d="M56.0913 204.31C56.0687 203.713 56.5709 203.23 57.1664 203.275L86.5313 205.508C87.0382 205.547 87.4355 205.959 87.4547 206.467L88.0892 223.198C88.1118 223.795 87.6096 224.278 87.0141 224.233L57.6492 222C57.1423 221.961 56.745 221.549 56.7257 221.041L56.0913 204.31Z" fill="#9A786B"/>
</g>
<path d="M56.375 211.222L87.8149 213.426L87.8866 216.283L56.4935 214.345L56.375 211.222Z" fill="#BFAB91"/>
<path d="M72.1159 199.955C72.273 199.928 72.4341 199.94 72.5857 199.989L84.6238 203.857C85.7465 204.217 85.4287 205.884 84.252 205.806L58.9886 204.138C57.8034 204.059 57.7188 202.348 58.8905 202.153L72.1159 199.955Z" fill="#BFAB91"/>
<g filter="url(#filter2_d_997_2435)">
<path d="M72.4154 196.891C69.5986 197.059 69.0576 199.909 69.4435 202.045C70.0647 205.483 76.5827 203.247 77.154 202.347C77.7253 201.447 76.1107 196.671 72.4154 196.891Z" fill="#E07474"/>
</g>
<path d="M69.1096 198.387C69.1882 197.918 69.8532 197.893 69.9671 198.355C70.0168 198.557 70.2014 198.696 70.4091 198.688L70.4897 198.685C70.9511 198.667 71.2181 199.201 70.9273 199.56L70.5997 199.964C70.4858 200.104 70.4443 200.29 70.4876 200.466L70.6451 201.104C70.7444 201.507 70.2448 201.779 69.96 201.478C69.7923 201.301 69.5069 201.311 69.3532 201.501C69.092 201.823 68.5732 201.589 68.6418 201.18L68.7504 200.531C68.7803 200.353 68.7249 200.171 68.6007 200.04L68.2434 199.662C67.9262 199.326 68.1521 198.773 68.6134 198.756L68.6941 198.753C68.9017 198.745 69.0753 198.592 69.1096 198.387Z" fill="#72BE75"/>
<g filter="url(#filter3_d_997_2435)">
<path d="M0.0912987 203.31C0.0686664 202.713 0.570851 202.23 1.1664 202.275L30.5313 204.508C31.0382 204.547 31.4355 204.959 31.4547 205.467L32.0892 222.198C32.1118 222.795 31.6096 223.278 31.0141 223.233L1.64919 221C1.1423 220.961 0.744989 220.549 0.725726 220.041L0.0912987 203.31Z" fill="#D2B797"/>
</g>
<path d="M0.375 210.222L31.8149 212.426L31.8866 215.283L0.493451 213.345L0.375 210.222Z" fill="#F1E0C8"/>
<path d="M16.1159 198.955C16.273 198.928 16.4341 198.94 16.5857 198.989L28.6238 202.857C29.7465 203.217 29.4287 204.884 28.252 204.806L2.98858 203.138C1.8034 203.059 1.71881 201.348 2.89049 201.153L16.1159 198.955Z" fill="#F1E0C8"/>
<g filter="url(#filter4_d_997_2435)">
<path d="M16.4154 195.891C13.5986 196.059 13.0576 198.909 13.4435 201.045C14.0647 204.483 20.5827 202.247 21.154 201.347C21.7253 200.447 20.1107 195.671 16.4154 195.891Z" fill="#E07474"/>
</g>
<path d="M13.1096 197.387C13.1882 196.918 13.8532 196.893 13.9671 197.355C14.0168 197.557 14.2014 197.696 14.4091 197.688L14.4897 197.685C14.9511 197.667 15.2181 198.201 14.9273 198.56L14.5997 198.964C14.4858 199.104 14.4443 199.29 14.4876 199.466L14.6451 200.104C14.7444 200.507 14.2448 200.779 13.96 200.478C13.7923 200.301 13.5069 200.311 13.3532 200.501C13.092 200.823 12.5732 200.589 12.6418 200.18L12.7504 199.531C12.7803 199.353 12.7249 199.171 12.6007 199.04L12.2434 198.662C11.9262 198.326 12.1521 197.773 12.6134 197.756L12.6941 197.753C12.9017 197.745 13.0753 197.592 13.1096 197.387Z" fill="#72BE75"/>
<g filter="url(#filter5_d_997_2435)">
<path d="M223.091 203.31C223.069 202.713 223.571 202.23 224.166 202.275L253.531 204.508C254.038 204.547 254.435 204.959 254.455 205.467L255.089 222.198C255.112 222.795 254.61 223.278 254.014 223.233L224.649 221C224.142 220.961 223.745 220.549 223.726 220.041L223.091 203.31Z" fill="#9A786B"/>
</g>
<path d="M223.375 210.222L254.815 212.426L254.887 215.283L223.493 213.345L223.375 210.222Z" fill="#BFAB91"/>
<path d="M239.116 198.955C239.273 198.928 239.434 198.94 239.586 198.989L251.624 202.857C252.747 203.217 252.429 204.884 251.252 204.806L225.989 203.138C224.803 203.059 224.719 201.348 225.89 201.153L239.116 198.955Z" fill="#BFAB91"/>
<g filter="url(#filter6_d_997_2435)">
<path d="M239.415 195.891C236.599 196.059 236.058 198.909 236.444 201.045C237.065 204.483 243.583 202.247 244.154 201.347C244.725 200.447 243.111 195.671 239.415 195.891Z" fill="#E07474"/>
</g>
<path d="M236.11 197.387C236.188 196.918 236.853 196.893 236.967 197.355C237.017 197.557 237.201 197.696 237.409 197.688L237.49 197.685C237.951 197.667 238.218 198.201 237.927 198.56L237.6 198.964C237.486 199.104 237.444 199.29 237.488 199.466L237.645 200.104C237.744 200.507 237.245 200.779 236.96 200.478C236.792 200.301 236.507 200.311 236.353 200.501C236.092 200.823 235.573 200.589 235.642 200.18L235.75 199.531C235.78 199.353 235.725 199.171 235.601 199.04L235.243 198.662C234.926 198.326 235.152 197.773 235.613 197.756L235.694 197.753C235.902 197.745 236.075 197.592 236.11 197.387Z" fill="#72BE75"/>
<g filter="url(#filter7_d_997_2435)">
<path d="M201.091 206.31C201.069 205.713 201.571 205.23 202.166 205.275L231.531 207.508C232.038 207.547 232.435 207.959 232.455 208.467L233.089 225.198C233.112 225.795 232.61 226.278 232.014 226.233L202.649 224C202.142 223.961 201.745 223.549 201.726 223.041L201.091 206.31Z" fill="#845A4B"/>
</g>
<path d="M201.375 213.222L232.815 215.426L232.887 218.283L201.493 216.345L201.375 213.222Z" fill="#BFAB91"/>
<path d="M217.116 201.955C217.273 201.928 217.434 201.94 217.586 201.989L229.624 205.857C230.747 206.217 230.429 207.884 229.252 207.806L203.989 206.138C202.803 206.059 202.719 204.348 203.89 204.153L217.116 201.955Z" fill="#BFAB91"/>
<g filter="url(#filter8_d_997_2435)">
<path d="M217.415 198.891C214.599 199.059 214.058 201.909 214.444 204.045C215.065 207.483 221.583 205.247 222.154 204.347C222.725 203.447 221.111 198.671 217.415 198.891Z" fill="#E07474"/>
</g>
<path d="M214.11 200.387C214.188 199.918 214.853 199.893 214.967 200.355C215.017 200.557 215.201 200.696 215.409 200.688L215.49 200.685C215.951 200.667 216.218 201.201 215.927 201.56L215.6 201.964C215.486 202.104 215.444 202.29 215.488 202.466L215.645 203.104C215.744 203.507 215.245 203.779 214.96 203.478C214.792 203.301 214.507 203.311 214.353 203.501C214.092 203.823 213.573 203.589 213.642 203.18L213.75 202.531C213.78 202.353 213.725 202.171 213.601 202.04L213.243 201.662C212.926 201.326 213.152 200.773 213.613 200.756L213.694 200.753C213.902 200.745 214.075 200.592 214.11 200.387Z" fill="#72BE75"/>
<g filter="url(#filter9_d_997_2435)">
<path d="M-15.4458 204.519C-15.4684 203.923 -14.9663 203.439 -14.3707 203.484L14.9942 205.717C15.501 205.756 15.8984 206.168 15.9176 206.676L16.5521 223.407C16.5747 224.004 16.0725 224.487 15.477 224.442L-13.8879 222.209C-14.3948 222.171 -14.7921 221.758 -14.8114 221.25L-15.4458 204.519Z" fill="#D2B797"/>
</g>
<path d="M-15.1621 211.431L16.2778 213.635L16.3495 216.492L-15.0437 214.555L-15.1621 211.431Z" fill="#F1E0C8"/>
<path d="M0.578743 200.164C0.735878 200.138 0.896979 200.149 1.04864 200.198L13.0866 204.066C14.2094 204.427 13.8916 206.093 12.7149 206.016L-12.5485 204.347C-13.7337 204.269 -13.8183 202.557 -12.6466 202.363L0.578743 200.164Z" fill="#F1E0C8"/>
<g filter="url(#filter10_d_997_2435)">
<path d="M0.878311 197.1C-1.93851 197.268 -2.47951 200.119 -2.09359 202.255C-1.47244 205.692 5.04564 203.456 5.6169 202.556C6.18815 201.656 4.57355 196.88 0.878311 197.1Z" fill="#E07474"/>
</g>
<rect opacity="0.9" x="-34" y="160" width="355" height="117" fill="#C9C9C9" fill-opacity="0.11"/>
<g filter="url(#filter11_d_997_2435)">
<rect x="58" y="156.733" width="118.9" height="3" transform="rotate(90 58 156.733)" fill="#7F7674"/>
<rect x="233" y="154" width="123" height="3" transform="rotate(90 233 154)" fill="#7F7674"/>
</g>
<g filter="url(#filter12_d_997_2435)">
<rect x="-14" y="153" width="315" height="7" fill="#7F7674"/>
</g>
<g style="mix-blend-mode:overlay" opacity="0.44">
<rect width="60.5984" height="3.45078" rx="1.72539" transform="matrix(0.735069 -0.677992 0.655957 0.754798 242 228.085)" fill="#EEEEEE"/>
</g>
<g filter="url(#filter13_d_997_2435)">
<path d="M232.133 231.625C242.068 278.495 198.989 280.334 188.129 278.494C177.269 276.654 190.106 266.827 191.185 260.458C192.264 254.088 185.211 228.085 196.071 229.925C206.931 231.765 227.908 211.696 232.133 231.625Z" fill="#5E5F82"/>
<ellipse cx="17.4541" cy="10.2362" rx="17.4541" ry="10.2362" transform="matrix(-0.79724 -0.603662 -0.603662 0.79724 217.175 230.396)" fill="#8D8EB3"/>
<path d="M199.48 254.265C199.48 282.073 171.903 297.797 133.673 297.797C95.4431 297.797 75.6162 279.057 75.6162 251.25C75.6162 223.442 95.4431 191.328 133.673 191.328C171.903 191.328 199.48 226.458 199.48 254.265Z" fill="#8D8EB3"/>
<path d="M107.76 105.791C114.373 117.639 112.001 130.876 98.0786 138.647C84.156 146.418 67.5085 143.114 60.8955 131.266C54.2824 119.418 61.1386 91.4297 71.8389 85.4572C82.5392 79.4848 101.147 93.9431 107.76 105.791Z" fill="#5E5F82"/>
<path d="M99.7901 110.481C104.072 118.152 102.536 126.722 93.5215 131.754C84.5072 136.785 73.7286 134.646 69.4469 126.974C65.1653 119.303 69.6044 101.182 76.5324 97.3154C83.4604 93.4484 95.5084 102.81 99.7901 110.481Z" fill="#ADADC7"/>
<path d="M167.95 105.791C161.337 117.639 163.709 130.876 177.631 138.647C191.554 146.418 208.201 143.114 214.815 131.266C221.428 119.418 214.571 91.4297 203.871 85.4572C193.171 79.4848 174.563 93.9431 167.95 105.791Z" fill="#5E5F82"/>
<ellipse cx="75.6582" cy="226.529" rx="17.4541" ry="10.2362" transform="rotate(-24.7625 75.6582 226.529)" fill="#8D8EB3"/>
<path d="M175.92 110.481C171.638 118.152 173.174 126.722 182.188 131.754C191.203 136.785 201.981 134.646 206.263 126.974C210.545 119.303 206.106 101.182 199.178 97.3154C192.25 93.4484 180.202 102.81 175.92 110.481Z" fill="#ADADC7"/>
<path d="M208.777 180.527C208.777 213.271 174.177 222.819 137.987 222.819C101.797 222.819 48.0763 208.477 61.9623 178.127C66.3309 145.801 97.8539 113.051 134.044 113.051C170.234 113.051 205.032 148.201 208.777 180.527Z" fill="black"/>
<path d="M210.068 185.205C209.421 219.386 173.941 234.346 137.835 233.663C101.73 232.98 49.1916 211.348 63.6446 179.929C68.6414 146.267 100.737 112.675 136.843 113.358C172.948 114.041 206.971 151.39 210.068 185.205Z" fill="#787897"/>
<path d="M224.372 173.188C224.372 211.976 178.155 230.317 134.759 230.317C91.3623 230.317 48.3242 207.321 48.3242 170.345C52.2625 141.837 91.3626 93.257 134.759 93.257C178.156 93.257 219.882 134.894 224.372 173.188Z" fill="#8D8EB3"/>
<path d="M161.391 184.43C161.391 207.288 159.263 226.868 131.85 226.868C104.437 226.868 62.1201 207.288 62.1201 184.43C62.1201 161.572 84.3426 143.042 111.756 143.042C139.168 143.042 161.391 161.572 161.391 184.43Z" fill="#8D8EB3"/>
<path d="M206.377 184.43C206.377 207.288 175.007 224.618 147.595 224.618C120.182 224.618 107.106 207.288 107.106 184.43C107.106 161.572 129.329 143.042 156.742 143.042C184.155 143.042 206.377 161.572 206.377 184.43Z" fill="#8D8EB3"/>
<path d="M122.409 171.399C122.409 189.83 133.509 208.732 107.896 208.732C82.2835 208.732 61.5205 193.79 61.5205 175.358C61.5205 156.927 84.3746 136.753 104.059 136.753C123.744 136.753 122.409 152.967 122.409 171.399Z" fill="#5E5F82"/>
<path d="M152.844 170.465C152.844 189.246 142.009 209.331 167.898 209.331C193.788 209.331 214.775 194.106 214.775 175.325C214.775 156.544 197.827 135.853 171.938 135.853C146.048 135.853 152.844 151.683 152.844 170.465Z" fill="#5E5F82"/>
<ellipse cx="103.358" cy="166.585" rx="6.14819" ry="7.94766" fill="#3D1B11"/>
<ellipse cx="169.338" cy="166.585" rx="6.14819" ry="7.94766" fill="#3D1B11"/>
<g filter="url(#filter14_d_997_2435)">
<path d="M175.486 189.251C175.486 200.507 158.701 209.631 137.997 209.631C117.292 209.631 100.508 200.507 100.508 189.251C100.508 177.995 124.022 175.016 137.997 174.848C151.972 174.679 175.486 177.995 175.486 189.251Z" fill="#ADADC7"/>
</g>
<ellipse cx="137.548" cy="176.491" rx="9.74714" ry="4.64863" fill="#43415D"/>
</g>
<g filter="url(#filter15_d_997_2435)">
<ellipse cx="200.5" cy="132" rx="6.5" ry="6" fill="#D9D9D9"/>
</g>
<g filter="url(#filter16_d_997_2435)">
<circle cx="221" cy="115" r="10" fill="#D9D9D9"/>
</g>
<circle cx="104.529" cy="163" r="2" fill="#B5B5B5"/>
<circle cx="170" cy="163" r="2" fill="#B5B5B5"/>
</g>
<g filter="url(#filter17_d_997_2435)">
<g filter="url(#filter18_d_997_2435)">
<rect x="202.662" y="31.9691" width="66.0363" height="45.9383" fill="#D9D9D9"/>
<circle cx="217.018" cy="36.2759" r="18.6624" fill="#D9D9D9"/>
<circle cx="244.293" cy="27.6624" r="18.6624" fill="#D9D9D9"/>
<circle cx="270.134" cy="36.2759" r="18.6624" fill="#D9D9D9"/>
<circle cx="285.925" cy="60.6806" r="18.6624" fill="#D9D9D9"/>
<circle cx="274.441" cy="77.9074" r="18.6624" fill="#D9D9D9"/>
<circle cx="244.293" cy="86.5209" r="18.6624" fill="#D9D9D9"/>
<circle cx="218.453" cy="77.9074" r="18.6624" fill="#D9D9D9"/>
<circle cx="202.662" cy="59.245" r="18.6624" fill="#D9D9D9"/>
</g>
<g filter="url(#filter19_d_997_2435)">
<path d="M216.355 42.38C216.355 41.7827 216.876 41.3186 217.469 41.3865L271.923 47.6097C272.428 47.6675 272.809 48.0949 272.809 48.6033V80.4624C272.809 81.0597 272.289 81.5238 271.696 81.456L217.242 75.2327C216.737 75.175 216.355 74.7475 216.355 74.2391V42.38Z" fill="#D2B797"/>
</g>
<path d="M216.394 55.7758L272.982 61.9057L272.916 67.0666L216.394 61.4212L216.394 55.7758Z" fill="#F1E0C8"/>
<path d="M245.767 36.4946C245.925 36.4745 246.086 36.4924 246.236 36.5468L274.034 46.6553C275.142 47.0583 274.762 48.7119 273.589 48.5897L214.678 42.4491C213.497 42.326 213.477 40.6128 214.655 40.4626L245.767 36.4946Z" fill="#F1E0C8"/>
<g filter="url(#filter20_d_997_2435)">
<path d="M246.323 31.011C241.228 31.1206 240.056 36.2284 240.607 40.1096C241.492 46.3565 253.408 42.7673 254.501 41.1821C255.594 39.5969 253.007 30.8673 246.323 31.011Z" fill="#E07474"/>
</g>
<path d="M240.255 33.4855C240.429 32.6442 241.63 32.6442 241.804 33.4855C241.88 33.853 242.204 34.1166 242.579 34.1166H242.725C243.559 34.1166 244.004 35.0988 243.455 35.726L242.836 36.4327C242.621 36.6783 242.533 37.0105 242.599 37.3302L242.84 38.4932C242.991 39.2266 242.071 39.6843 241.578 39.121C241.287 38.7895 240.772 38.7895 240.481 39.121C239.988 39.6843 239.068 39.2266 239.219 38.4932L239.46 37.3302C239.526 37.0105 239.438 36.6783 239.223 36.4327L238.604 35.726C238.055 35.0988 238.5 34.1166 239.334 34.1166H239.48C239.855 34.1166 240.179 33.853 240.255 33.4855Z" fill="#72BE75"/>
</g>
<defs>
<filter id="filter0_d_997_2435" x="-44" y="220" width="370" height="17" filterUnits="userSpaceOnUse" color-interpolation-filters="sRGB">
<feFlood flood-opacity="0" result="BackgroundImageFix"/>
<feColorMatrix in="SourceAlpha" type="matrix" values="0 0 0 0 0 0 0 0 0 0 0 0 0 0 0 0 0 0 127 0" result="hardAlpha"/>
<feOffset dy="4"/>
<feGaussianBlur stdDeviation="2.5"/>
<feComposite in2="hardAlpha" operator="out"/>
<feColorMatrix type="matrix" values="0 0 0 0 0 0 0 0 0 0 0 0 0 0 0 0 0 0 1 0"/>
<feBlend mode="normal" in2="BackgroundImageFix" result="effect1_dropShadow_997_2435"/>
<feBlend mode="normal" in="SourceGraphic" in2="effect1_dropShadow_997_2435" result="shape"/>
</filter>
<filter id="filter1_d_997_2435" x="51.0908" y="201.272" width="39.999" height="28.9634" filterUnits="userSpaceOnUse" color-interpolation-filters="sRGB">
<feFlood flood-opacity="0" result="BackgroundImageFix"/>
<feColorMatrix in="SourceAlpha" type="matrix" values="0 0 0 0 0 0 0 0 0 0 0 0 0 0 0 0 0 0 127 0" result="hardAlpha"/>
<feOffset dx="-1" dy="2"/>
<feGaussianBlur stdDeviation="2"/>
<feComposite in2="hardAlpha" operator="out"/>
<feColorMatrix type="matrix" values="0 0 0 0 0 0 0 0 0 0 0 0 0 0 0 0 0 0 0.25 0"/>
<feBlend mode="normal" in2="BackgroundImageFix" result="effect1_dropShadow_997_2435"/>
<feBlend mode="normal" in="SourceGraphic" in2="effect1_dropShadow_997_2435" result="shape"/>
</filter>
<filter id="filter2_d_997_2435" x="68.333" y="196.884" width="9.93359" height="9.01244" filterUnits="userSpaceOnUse" color-interpolation-filters="sRGB">
<feFlood flood-opacity="0" result="BackgroundImageFix"/>
<feColorMatrix in="SourceAlpha" type="matrix" values="0 0 0 0 0 0 0 0 0 0 0 0 0 0 0 0 0 0 127 0" result="hardAlpha"/>
<feOffset dy="1"/>
<feGaussianBlur stdDeviation="0.5"/>
<feComposite in2="hardAlpha" operator="out"/>
<feColorMatrix type="matrix" values="0 0 0 0 0 0 0 0 0 0 0 0 0 0 0 0 0 0 0.21 0"/>
<feBlend mode="normal" in2="BackgroundImageFix" result="effect1_dropShadow_997_2435"/>
<feBlend mode="normal" in="SourceGraphic" in2="effect1_dropShadow_997_2435" result="shape"/>
</filter>
<filter id="filter3_d_997_2435" x="-4.90918" y="200.272" width="39.999" height="28.9634" filterUnits="userSpaceOnUse" color-interpolation-filters="sRGB">
<feFlood flood-opacity="0" result="BackgroundImageFix"/>
<feColorMatrix in="SourceAlpha" type="matrix" values="0 0 0 0 0 0 0 0 0 0 0 0 0 0 0 0 0 0 127 0" result="hardAlpha"/>
<feOffset dx="-1" dy="2"/>
<feGaussianBlur stdDeviation="2"/>
<feComposite in2="hardAlpha" operator="out"/>
<feColorMatrix type="matrix" values="0 0 0 0 0 0 0 0 0 0 0 0 0 0 0 0 0 0 0.25 0"/>
<feBlend mode="normal" in2="BackgroundImageFix" result="effect1_dropShadow_997_2435"/>
<feBlend mode="normal" in="SourceGraphic" in2="effect1_dropShadow_997_2435" result="shape"/>
</filter>
<filter id="filter4_d_997_2435" x="12.333" y="195.884" width="9.93359" height="9.01244" filterUnits="userSpaceOnUse" color-interpolation-filters="sRGB">
<feFlood flood-opacity="0" result="BackgroundImageFix"/>
<feColorMatrix in="SourceAlpha" type="matrix" values="0 0 0 0 0 0 0 0 0 0 0 0 0 0 0 0 0 0 127 0" result="hardAlpha"/>
<feOffset dy="1"/>
<feGaussianBlur stdDeviation="0.5"/>
<feComposite in2="hardAlpha" operator="out"/>
<feColorMatrix type="matrix" values="0 0 0 0 0 0 0 0 0 0 0 0 0 0 0 0 0 0 0.21 0"/>
<feBlend mode="normal" in2="BackgroundImageFix" result="effect1_dropShadow_997_2435"/>
<feBlend mode="normal" in="SourceGraphic" in2="effect1_dropShadow_997_2435" result="shape"/>
</filter>
<filter id="filter5_d_997_2435" x="218.091" y="200.272" width="39.999" height="28.9634" filterUnits="userSpaceOnUse" color-interpolation-filters="sRGB">
<feFlood flood-opacity="0" result="BackgroundImageFix"/>
<feColorMatrix in="SourceAlpha" type="matrix" values="0 0 0 0 0 0 0 0 0 0 0 0 0 0 0 0 0 0 127 0" result="hardAlpha"/>
<feOffset dx="-1" dy="2"/>
<feGaussianBlur stdDeviation="2"/>
<feComposite in2="hardAlpha" operator="out"/>
<feColorMatrix type="matrix" values="0 0 0 0 0 0 0 0 0 0 0 0 0 0 0 0 0 0 0.25 0"/>
<feBlend mode="normal" in2="BackgroundImageFix" result="effect1_dropShadow_997_2435"/>
<feBlend mode="normal" in="SourceGraphic" in2="effect1_dropShadow_997_2435" result="shape"/>
</filter>
<filter id="filter6_d_997_2435" x="235.333" y="195.884" width="9.93359" height="9.01244" filterUnits="userSpaceOnUse" color-interpolation-filters="sRGB">
<feFlood flood-opacity="0" result="BackgroundImageFix"/>
<feColorMatrix in="SourceAlpha" type="matrix" values="0 0 0 0 0 0 0 0 0 0 0 0 0 0 0 0 0 0 127 0" result="hardAlpha"/>
<feOffset dy="1"/>
<feGaussianBlur stdDeviation="0.5"/>
<feComposite in2="hardAlpha" operator="out"/>
<feColorMatrix type="matrix" values="0 0 0 0 0 0 0 0 0 0 0 0 0 0 0 0 0 0 0.21 0"/>
<feBlend mode="normal" in2="BackgroundImageFix" result="effect1_dropShadow_997_2435"/>
<feBlend mode="normal" in="SourceGraphic" in2="effect1_dropShadow_997_2435" result="shape"/>
</filter>
<filter id="filter7_d_997_2435" x="196.091" y="203.272" width="39.999" height="28.9634" filterUnits="userSpaceOnUse" color-interpolation-filters="sRGB">
<feFlood flood-opacity="0" result="BackgroundImageFix"/>
<feColorMatrix in="SourceAlpha" type="matrix" values="0 0 0 0 0 0 0 0 0 0 0 0 0 0 0 0 0 0 127 0" result="hardAlpha"/>
<feOffset dx="-1" dy="2"/>
<feGaussianBlur stdDeviation="2"/>
<feComposite in2="hardAlpha" operator="out"/>
<feColorMatrix type="matrix" values="0 0 0 0 0 0 0 0 0 0 0 0 0 0 0 0 0 0 0.25 0"/>
<feBlend mode="normal" in2="BackgroundImageFix" result="effect1_dropShadow_997_2435"/>
<feBlend mode="normal" in="SourceGraphic" in2="effect1_dropShadow_997_2435" result="shape"/>
</filter>
<filter id="filter8_d_997_2435" x="213.333" y="198.884" width="9.93359" height="9.01244" filterUnits="userSpaceOnUse" color-interpolation-filters="sRGB">
<feFlood flood-opacity="0" result="BackgroundImageFix"/>
<feColorMatrix in="SourceAlpha" type="matrix" values="0 0 0 0 0 0 0 0 0 0 0 0 0 0 0 0 0 0 127 0" result="hardAlpha"/>
<feOffset dy="1"/>
<feGaussianBlur stdDeviation="0.5"/>
<feComposite in2="hardAlpha" operator="out"/>
<feColorMatrix type="matrix" values="0 0 0 0 0 0 0 0 0 0 0 0 0 0 0 0 0 0 0.21 0"/>
<feBlend mode="normal" in2="BackgroundImageFix" result="effect1_dropShadow_997_2435"/>
<feBlend mode="normal" in="SourceGraphic" in2="effect1_dropShadow_997_2435" result="shape"/>
</filter>
<filter id="filter9_d_997_2435" x="-20.4463" y="201.482" width="39.999" height="28.9634" filterUnits="userSpaceOnUse" color-interpolation-filters="sRGB">
<feFlood flood-opacity="0" result="BackgroundImageFix"/>
<feColorMatrix in="SourceAlpha" type="matrix" values="0 0 0 0 0 0 0 0 0 0 0 0 0 0 0 0 0 0 127 0" result="hardAlpha"/>
<feOffset dx="-1" dy="2"/>
<feGaussianBlur stdDeviation="2"/>
<feComposite in2="hardAlpha" operator="out"/>
<feColorMatrix type="matrix" values="0 0 0 0 0 0 0 0 0 0 0 0 0 0 0 0 0 0 0.25 0"/>
<feBlend mode="normal" in2="BackgroundImageFix" result="effect1_dropShadow_997_2435"/>
<feBlend mode="normal" in="SourceGraphic" in2="effect1_dropShadow_997_2435" result="shape"/>
</filter>
<filter id="filter10_d_997_2435" x="-3.2041" y="197.093" width="9.93359" height="9.01244" filterUnits="userSpaceOnUse" color-interpolation-filters="sRGB">
<feFlood flood-opacity="0" result="BackgroundImageFix"/>
<feColorMatrix in="SourceAlpha" type="matrix" values="0 0 0 0 0 0 0 0 0 0 0 0 0 0 0 0 0 0 127 0" result="hardAlpha"/>
<feOffset dy="1"/>
<feGaussianBlur stdDeviation="0.5"/>
<feComposite in2="hardAlpha" operator="out"/>
<feColorMatrix type="matrix" values="0 0 0 0 0 0 0 0 0 0 0 0 0 0 0 0 0 0 0.21 0"/>
<feBlend mode="normal" in2="BackgroundImageFix" result="effect1_dropShadow_997_2435"/>
<feBlend mode="normal" in="SourceGraphic" in2="effect1_dropShadow_997_2435" result="shape"/>
</filter>
<filter id="filter11_d_997_2435" x="51" y="154" width="186" height="131" filterUnits="userSpaceOnUse" color-interpolation-filters="sRGB">
<feFlood flood-opacity="0" result="BackgroundImageFix"/>
<feColorMatrix in="SourceAlpha" type="matrix" values="0 0 0 0 0 0 0 0 0 0 0 0 0 0 0 0 0 0 127 0" result="hardAlpha"/>
<feOffset dy="4"/>
<feGaussianBlur stdDeviation="2"/>
<feComposite in2="hardAlpha" operator="out"/>
<feColorMatrix type="matrix" values="0 0 0 0 0 0 0 0 0 0 0 0 0 0 0 0 0 0 0.25 0"/>
<feBlend mode="normal" in2="BackgroundImageFix" result="effect1_dropShadow_997_2435"/>
<feBlend mode="normal" in="SourceGraphic" in2="effect1_dropShadow_997_2435" result="shape"/>
</filter>
<filter id="filter12_d_997_2435" x="-18" y="153" width="323" height="15" filterUnits="userSpaceOnUse" color-interpolation-filters="sRGB">
<feFlood flood-opacity="0" result="BackgroundImageFix"/>
<feColorMatrix in="SourceAlpha" type="matrix" values="0 0 0 0 0 0 0 0 0 0 0 0 0 0 0 0 0 0 127 0" result="hardAlpha"/>
<feOffset dy="4"/>
<feGaussianBlur stdDeviation="2"/>
<feComposite in2="hardAlpha" operator="out"/>
<feColorMatrix type="matrix" values="0 0 0 0 0 0 0 0 0 0 0 0 0 0 0 0 0 0 0.25 0"/>
<feBlend mode="normal" in2="BackgroundImageFix" result="effect1_dropShadow_997_2435"/>
<feBlend mode="normal" in="SourceGraphic" in2="effect1_dropShadow_997_2435" result="shape"/>
</filter>
<filter id="filter13_d_997_2435" x="28.3242" y="63.0651" width="225.284" height="264.529" filterUnits="userSpaceOnUse" color-interpolation-filters="sRGB">
<feFlood flood-opacity="0" result="BackgroundImageFix"/>
<feColorMatrix in="SourceAlpha" type="matrix" values="0 0 0 0 0 0 0 0 0 0 0 0 0 0 0 0 0 0 127 0" result="hardAlpha"/>
<feOffset dy="-1"/>
<feGaussianBlur stdDeviation="10"/>
<feComposite in2="hardAlpha" operator="out"/>
<feColorMatrix type="matrix" values="0 0 0 0 0 0 0 0 0 0 0 0 0 0 0 0 0 0 0.37 0"/>
<feBlend mode="normal" in2="BackgroundImageFix" result="effect1_dropShadow_997_2435"/>
<feBlend mode="normal" in="SourceGraphic" in2="effect1_dropShadow_997_2435" result="shape"/>
</filter>
<filter id="filter14_d_997_2435" x="96.5078" y="174.842" width="82.9775" height="42.7898" filterUnits="userSpaceOnUse" color-interpolation-filters="sRGB">
<feFlood flood-opacity="0" result="BackgroundImageFix"/>
<feColorMatrix in="SourceAlpha" type="matrix" values="0 0 0 0 0 0 0 0 0 0 0 0 0 0 0 0 0 0 127 0" result="hardAlpha"/>
<feOffset dy="4"/>
<feGaussianBlur stdDeviation="2"/>
<feComposite in2="hardAlpha" operator="out"/>
<feColorMatrix type="matrix" values="0 0 0 0 0 0 0 0 0 0 0 0 0 0 0 0 0 0 0.25 0"/>
<feBlend mode="normal" in2="BackgroundImageFix" result="effect1_dropShadow_997_2435"/>
<feBlend mode="normal" in="SourceGraphic" in2="effect1_dropShadow_997_2435" result="shape"/>
</filter>
<filter id="filter15_d_997_2435" x="190" y="126" width="21" height="20" filterUnits="userSpaceOnUse" color-interpolation-filters="sRGB">
<feFlood flood-opacity="0" result="BackgroundImageFix"/>
<feColorMatrix in="SourceAlpha" type="matrix" values="0 0 0 0 0 0 0 0 0 0 0 0 0 0 0 0 0 0 127 0" result="hardAlpha"/>
<feOffset dy="4"/>
<feGaussianBlur stdDeviation="2"/>
<feComposite in2="hardAlpha" operator="out"/>
<feColorMatrix type="matrix" values="0 0 0 0 0 0 0 0 0 0 0 0 0 0 0 0 0 0 0.29 0"/>
<feBlend mode="normal" in2="BackgroundImageFix" result="effect1_dropShadow_997_2435"/>
<feBlend mode="normal" in="SourceGraphic" in2="effect1_dropShadow_997_2435" result="shape"/>
</filter>
<filter id="filter16_d_997_2435" x="203" y="105" width="28" height="28" filterUnits="userSpaceOnUse" color-interpolation-filters="sRGB">
<feFlood flood-opacity="0" result="BackgroundImageFix"/>
<feColorMatrix in="SourceAlpha" type="matrix" values="0 0 0 0 0 0 0 0 0 0 0 0 0 0 0 0 0 0 127 0" result="hardAlpha"/>
<feOffset dx="-4" dy="4"/>
<feGaussianBlur stdDeviation="2"/>
<feComposite in2="hardAlpha" operator="out"/>
<feColorMatrix type="matrix" values="0 0 0 0 0 0 0 0 0 0 0 0 0 0 0 0 0 0 0.4 0"/>
<feBlend mode="normal" in2="BackgroundImageFix" result="effect1_dropShadow_997_2435"/>
<feBlend mode="normal" in="SourceGraphic" in2="effect1_dropShadow_997_2435" result="shape"/>
</filter>
<filter id="filter17_d_997_2435" x="173" y="9" width="134.588" height="110.183" filterUnits="userSpaceOnUse" color-interpolation-filters="sRGB">
<feFlood flood-opacity="0" result="BackgroundImageFix"/>
<feColorMatrix in="SourceAlpha" type="matrix" values="0 0 0 0 0 0 0 0 0 0 0 0 0 0 0 0 0 0 127 0" result="hardAlpha"/>
<feOffset dx="-4" dy="7"/>
<feGaussianBlur stdDeviation="3.5"/>
<feComposite in2="hardAlpha" operator="out"/>
<feColorMatrix type="matrix" values="0 0 0 0 0 0 0 0 0 0 0 0 0 0 0 0 0 0 0.33 0"/>
<feBlend mode="normal" in2="BackgroundImageFix" result="effect1_dropShadow_997_2435"/>
<feBlend mode="normal" in="SourceGraphic" in2="effect1_dropShadow_997_2435" result="shape"/>
</filter>
<filter id="filter18_d_997_2435" x="180" y="9" width="128.588" height="104.183" filterUnits="userSpaceOnUse" color-interpolation-filters="sRGB">
<feFlood flood-opacity="0" result="BackgroundImageFix"/>
<feColorMatrix in="SourceAlpha" type="matrix" values="0 0 0 0 0 0 0 0 0 0 0 0 0 0 0 0 0 0 127 0" result="hardAlpha"/>
<feOffset dy="4"/>
<feGaussianBlur stdDeviation="2"/>
<feComposite in2="hardAlpha" operator="out"/>
<feColorMatrix type="matrix" values="0 0 0 0 0 0 0 0 0 0 0 0 0 0 0 0 0 0 0.25 0"/>
<feBlend mode="normal" in2="BackgroundImageFix" result="effect1_dropShadow_997_2435"/>
<feBlend mode="normal" in="SourceGraphic" in2="effect1_dropShadow_997_2435" result="shape"/>
</filter>
<filter id="filter19_d_997_2435" x="211.355" y="39.3799" width="64.4541" height="48.0827" filterUnits="userSpaceOnUse" color-interpolation-filters="sRGB">
<feFlood flood-opacity="0" result="BackgroundImageFix"/>
<feColorMatrix in="SourceAlpha" type="matrix" values="0 0 0 0 0 0 0 0 0 0 0 0 0 0 0 0 0 0 127 0" result="hardAlpha"/>
<feOffset dx="-1" dy="2"/>
<feGaussianBlur stdDeviation="2"/>
<feComposite in2="hardAlpha" operator="out"/>
<feColorMatrix type="matrix" values="0 0 0 0 0 0 0 0 0 0 0 0 0 0 0 0 0 0 0.25 0"/>
<feBlend mode="normal" in2="BackgroundImageFix" result="effect1_dropShadow_997_2435"/>
<feBlend mode="normal" in="SourceGraphic" in2="effect1_dropShadow_997_2435" result="shape"/>
</filter>
<filter id="filter20_d_997_2435" x="239.482" y="31.0093" width="16.2607" height="14.6442" filterUnits="userSpaceOnUse" color-interpolation-filters="sRGB">
<feFlood flood-opacity="0" result="BackgroundImageFix"/>
<feColorMatrix in="SourceAlpha" type="matrix" values="0 0 0 0 0 0 0 0 0 0 0 0 0 0 0 0 0 0 127 0" result="hardAlpha"/>
<feOffset dy="1"/>
<feGaussianBlur stdDeviation="0.5"/>
<feComposite in2="hardAlpha" operator="out"/>
<feColorMatrix type="matrix" values="0 0 0 0 0 0 0 0 0 0 0 0 0 0 0 0 0 0 0.21 0"/>
<feBlend mode="normal" in2="BackgroundImageFix" result="effect1_dropShadow_997_2435"/>
<feBlend mode="normal" in="SourceGraphic" in2="effect1_dropShadow_997_2435" result="shape"/>
</filter>
</defs>
</svg>
