<svg width="219" height="251" viewBox="0 0 219 251" fill="none" xmlns="http://www.w3.org/2000/svg">
<ellipse cx="109.413" cy="232.738" rx="109.412" ry="17.7384" fill="#771F1F"/>
<ellipse cx="109.326" cy="232.793" rx="98.0343" ry="15.8827" fill="#8E1515"/>
<rect x="22.2534" y="36.5054" width="171.543" height="191.989" fill="#573814"/>
<g filter="url(#filter0_d_997_2455)">
<rect x="27.001" y="42" width="161" height="179" rx="5" fill="#2F1C07"/>
</g>
<rect width="10.6876" height="40.5818" rx="5.34378" transform="matrix(-1 0 0 1 125.938 177.162)" fill="#0F3715"/>
<rect width="7.27994" height="41.7435" rx="3.63997" transform="matrix(-1 0 0 1 105.879 176)" fill="#0F3715"/>
<rect width="9.83566" height="40.4269" rx="4.91783" transform="matrix(-1 0 0 1 86.9824 177.162)" fill="#0F3715"/>
<rect width="9.68077" height="35.6252" rx="4.84038" transform="matrix(-1 0 0 1 97.6689 182.118)" fill="#0F3715"/>
<rect width="7.35738" height="28.0355" rx="3.67869" transform="matrix(-1 0 0 1 114.243 189.708)" fill="#0F3715"/>
<rect width="8.51908" height="31.598" rx="4.25954" transform="matrix(-1 0 0 1 76.2168 185.836)" fill="#0F3715"/>
<rect width="10.4552" height="39.4975" rx="5.22761" transform="matrix(-1 0 0 1 123.769 178.556)" fill="#134A1C"/>
<rect width="7.51228" height="2.32338" rx="1.16169" transform="matrix(-1 0 0 1 122.297 181.963)" fill="#709E77"/>
<rect width="7.51228" height="2.32338" rx="1.16169" transform="matrix(-1 0 0 1 122.297 185.526)" fill="#709E77"/>
<rect width="4.49188" height="4.49188" rx="2.24594" transform="matrix(-1 0 0 1 120.749 210.386)" fill="#709E77"/>
<rect width="7.12505" height="40.6592" rx="3.56252" transform="matrix(-1 0 0 1 104.252 177.394)" fill="#134A1C"/>
<rect width="5.11145" height="2.40083" rx="1.20042" transform="matrix(-1 0 0 1 103.246 180.879)" fill="#709E77"/>
<rect width="5.11145" height="2.40083" rx="1.20042" transform="matrix(-1 0 0 1 103.246 184.597)" fill="#709E77"/>
<rect width="3.0204" height="4.64677" rx="1.5102" transform="matrix(-1 0 0 1 102.161 210.154)" fill="#709E77"/>
<rect width="9.60332" height="39.3426" rx="4.80166" transform="matrix(-1 0 0 1 85.8198 178.556)" fill="#134A1C"/>
<rect width="6.81526" height="2.32338" rx="1.16169" transform="matrix(-1 0 0 1 84.4268 181.886)" fill="#709E77"/>
<rect width="6.81526" height="2.40083" rx="1.20042" transform="matrix(-1 0 0 1 84.4268 185.448)" fill="#709E77"/>
<rect width="3.94975" height="4.41443" rx="1.97488" transform="matrix(-1 0 0 1 82.9546 210.309)" fill="#709E77"/>
<rect width="9.44843" height="34.6959" rx="4.72422" transform="matrix(-1 0 0 1 96.1978 183.357)" fill="#134A1C"/>
<rect width="6.81526" height="1.93615" rx="0.968077" transform="matrix(-1 0 0 1 94.8813 186.378)" fill="#709E77"/>
<rect width="6.81526" height="2.09105" rx="1.04552" transform="matrix(-1 0 0 1 94.8813 189.476)" fill="#709E77"/>
<rect width="3.94975" height="3.94975" rx="1.97488" transform="matrix(-1 0 0 1 93.4102 211.316)" fill="#709E77"/>
<rect width="7.20249" height="27.261" rx="3.60125" transform="matrix(-1 0 0 1 112.384 190.792)" fill="#134A1C"/>
<rect width="5.18889" height="1.70382" rx="0.851908" transform="matrix(-1 0 0 1 111.377 193.116)" fill="#709E77"/>
<rect width="5.18889" height="1.62637" rx="0.813185" transform="matrix(-1 0 0 1 111.377 195.594)" fill="#709E77"/>
<rect width="3.17529" height="3.09785" rx="1.54892" transform="matrix(-1 0 0 1 110.371 212.787)" fill="#709E77"/>
<rect width="8.28674" height="30.7461" rx="4.14337" transform="matrix(-1 0 0 1 75.2876 186.997)" fill="#134A1C"/>
<rect width="5.96335" height="1.93615" rx="0.968077" transform="matrix(-1 0 0 1 74.1265 189.631)" fill="#709E77"/>
<rect width="5.96335" height="1.85871" rx="0.929354" transform="matrix(-1 0 0 1 74.1265 192.419)" fill="#709E77"/>
<rect width="3.63997" height="3.48508" rx="1.74254" transform="matrix(-1 0 0 1 72.9639 211.78)" fill="#709E77"/>
<rect width="2.09105" height="14.2501" rx="1.04552" transform="matrix(-1 0 0 1 100.845 177.239)" fill="#2E9231"/>
<rect x="57.8105" y="177" width="7.12505" height="40.6592" rx="3.56252" fill="#0F3715"/>
<rect x="29" y="178.626" width="9.60332" height="39.3426" rx="4.80166" fill="#0F3715"/>
<rect x="49.6787" y="190.398" width="7.20249" height="27.261" rx="3.60125" fill="#0F3715"/>
<rect x="39.5337" y="187.068" width="8.36418" height="30.7461" rx="4.18209" fill="#0F3715"/>
<rect x="59.5913" y="177.31" width="7.12505" height="40.6592" rx="3.56252" fill="#134A1C"/>
<rect x="60.5986" y="180.795" width="5.11145" height="2.40083" rx="1.20042" fill="#709E77"/>
<rect x="60.5986" y="184.512" width="5.11145" height="2.40083" rx="1.20042" fill="#709E77"/>
<rect x="61.6831" y="210.07" width="3.0204" height="4.64677" rx="1.5102" fill="#709E77"/>
<rect x="30.8599" y="178.936" width="9.60332" height="39.3426" rx="4.80166" fill="#134A1C"/>
<rect x="32.2529" y="182.266" width="6.81526" height="2.32338" rx="1.16169" fill="#709E77"/>
<rect x="32.2529" y="185.829" width="6.81526" height="2.40083" rx="1.20042" fill="#709E77"/>
<rect x="33.7251" y="210.689" width="3.94975" height="4.41443" rx="1.97488" fill="#709E77"/>
<rect x="51.4604" y="190.708" width="7.20249" height="27.261" rx="3.60125" fill="#134A1C"/>
<rect x="52.4673" y="193.031" width="5.18889" height="1.70382" rx="0.851908" fill="#709E77"/>
<rect x="52.4673" y="195.51" width="5.18889" height="1.62637" rx="0.813185" fill="#709E77"/>
<rect x="53.4731" y="212.703" width="3.17529" height="3.09785" rx="1.54892" fill="#709E77"/>
<rect x="41.3921" y="187.378" width="8.28674" height="30.7461" rx="4.14337" fill="#134A1C"/>
<rect x="42.5532" y="190.011" width="5.96335" height="1.93615" rx="0.968077" fill="#709E77"/>
<rect x="42.5532" y="192.799" width="5.96335" height="1.85871" rx="0.929354" fill="#709E77"/>
<rect x="43.7158" y="212.161" width="3.63997" height="3.48508" rx="1.74254" fill="#709E77"/>
<rect x="45.9619" y="186.836" width="2.09105" height="14.2501" rx="1.04552" fill="#2E9231"/>
<g filter="url(#filter1_dd_997_2455)">
<rect x="21.001" y="220" width="175.958" height="9.75821" rx="4.87911" fill="#573814"/>
</g>
<path d="M26.8201 210.113C26.8201 210.113 30.6008 211.28 31.1825 211.212C31.7641 211.143 35.5449 207.592 35.5449 208.659C35.5449 209.24 34.5283 227.466 34.8663 228.274C35.2042 229.081 39.1243 231.406 39.566 231.699C43.3153 234.187 20.2744 234.413 24.5258 231.699C25.054 231.362 29.2907 229.663 29.4523 228.274C29.6138 226.884 26.8201 210.113 26.8201 210.113Z" fill="#D6BAA9"/>
<g filter="url(#filter2_d_997_2455)">
<path d="M30.9576 210.856C31.2485 210.817 33.4985 208.432 35.5139 208.432C35.8048 208.432 31.9333 213.342 31.2705 213.279C30.2401 213.182 26.6151 210.436 26.8348 210.113C26.9489 209.945 30.376 210.933 30.9576 210.856Z" fill="#FCE6D0"/>
</g>
<path d="M31.8792 206.677C31.8792 206.677 31.1024 212.644 30.9686 212.439C30.8795 212.302 31.1547 207.267 31.1547 207.267L31.8792 206.677Z" fill="#4D3737"/>
<path d="M38.8214 231.408C39.053 231.058 40.4638 232.285 39.9851 232.539C35.7841 234.769 25.3605 233.351 24.5712 232.927C22.6334 231.886 36.1072 235.512 38.8214 231.408Z" fill="#917275"/>
<path d="M31.141 204.343C32.4336 204.343 31.4642 201.467 31.7875 201.015C31.9984 200.72 34.5986 204.917 34.5986 205.765C34.5986 206.558 31.5896 208.415 31.141 208.415C30.8181 208.415 29.551 204.343 31.141 204.343Z" fill="#FFD089"/>
<g filter="url(#filter3_d_997_2455)">
<path d="M31.392 205.557C32.4377 206.041 32.2079 204.565 32.4377 204.345C32.5876 204.201 33.2107 206.01 33.1045 206.494C33.0053 206.946 31.406 208.542 31.1656 208.49C30.9926 208.452 30.6007 205.19 31.392 205.557Z" fill="#F68046"/>
</g>
<path d="M45.0031 219.921C45.0031 219.921 48.159 220.364 48.7407 220.324C49.3224 220.283 54.7297 218.293 54.7297 218.92C54.7297 219.261 52.7652 230.36 53.1031 230.835C53.441 231.31 54.6562 231.794 55.0979 231.966C58.8472 233.428 37.8326 233.96 42.084 232.364C42.6123 232.166 44.7389 231.513 44.822 231.093C44.9051 230.673 45.0031 219.921 45.0031 219.921Z" fill="#D6BAA9"/>
<g filter="url(#filter4_d_997_2455)">
<path d="M49.7549 219.663C50.0457 219.64 52.7278 218.693 54.6343 218.79C54.9248 218.805 50.7408 221.251 50.078 221.214C49.0476 221.157 44.858 220.106 45.0777 219.916C45.1918 219.817 49.1732 219.708 49.7549 219.663Z" fill="#FCE6D0"/>
</g>
<path d="M49.7705 216.978C49.7705 216.978 50.071 220.548 49.9351 220.464C49.8445 220.408 49.2937 217.486 49.2937 217.486L49.7705 216.978Z" fill="#4D3737"/>
<path d="M55.0986 232.063C55.3303 231.857 56.3529 232.722 55.8742 232.871C51.6732 234.181 42.9213 233.335 42.132 233.086C40.1942 232.475 52.3845 234.475 55.0986 232.063Z" fill="#917275"/>
<path d="M48.7204 214.662C49.6818 214.449 49.5871 212.49 49.7533 212.102C49.8617 211.848 51.3861 214.516 51.5255 215.144C51.6558 215.732 49.7228 217.603 49.3891 217.677C49.1489 217.73 47.5378 214.925 48.7204 214.662Z" fill="#FFD089"/>
<g filter="url(#filter5_d_997_2455)">
<path d="M49.0909 215.53C49.9463 215.717 49.8461 214.629 49.9803 214.428C50.0679 214.297 50.5146 215.567 50.5155 215.943C50.5163 216.295 49.5926 217.742 49.4056 217.743C49.2711 217.743 48.4435 215.388 49.0909 215.53Z" fill="#F68046"/>
</g>
<path d="M33.03 215.916C34.5249 218.542 34.4308 216.077 34.3066 215.554C33.8062 213.445 35.2414 217.237 34.2219 217.793C32.9807 218.469 32.8756 215.645 33.03 215.916Z" fill="#C3A491"/>
<path d="M51.9801 221.764C52.9813 224.688 53.3567 222.193 53.3318 221.644C53.2312 219.43 53.9436 223.359 52.8134 223.723C51.8125 224.046 51.8767 221.462 51.9801 221.764Z" fill="#C3A491"/>
<path d="M50.8839 223.773C51.3372 225.519 51.6637 224.142 51.6731 223.828C51.7113 222.566 51.9501 224.943 51.2787 225.046C50.4613 225.171 50.8371 223.593 50.8839 223.773Z" fill="#C3A491"/>
<g filter="url(#filter6_d_997_2455)">
<rect x="20.001" y="34" width="176" height="10" rx="5" fill="#573814"/>
</g>
<g filter="url(#filter7_d_997_2455)">
<rect x="27.4424" y="103.187" width="161.243" height="9.75821" rx="2" fill="#573814"/>
</g>
<g filter="url(#filter8_d_997_2455)">
<rect x="27.4424" y="159.955" width="161.243" height="9.75821" rx="2" fill="#573814"/>
</g>
<rect width="7.35738" height="38.5682" rx="3.67869" transform="matrix(0 -1 -1 0 182.799 159.49)" fill="#0F3715"/>
<rect width="7.0476" height="33.9989" rx="3.5238" transform="matrix(0 -1 -1 0 174.977 151.668)" fill="#0F3715"/>
<rect width="6.35058" height="30.1266" rx="3.17529" transform="matrix(0 -1 -1 0 176.527 143.768)" fill="#0F3715"/>
<rect width="7.0476" height="37.5614" rx="3.5238" transform="matrix(0 -1 -1 0 181.483 158.561)" fill="#134A1C"/>
<rect width="5.034" height="2.24594" rx="1.12297" transform="matrix(0 -1 -1 0 178.308 157.631)" fill="#709E77"/>
<rect width="5.034" height="2.32338" rx="1.16169" transform="matrix(0 -1 -1 0 174.9 157.631)" fill="#709E77"/>
<rect width="2.94295" height="4.25954" rx="1.47148" transform="matrix(0 -1 -1 0 151.201 156.469)" fill="#709E77"/>
<rect width="7.0476" height="33.1469" rx="3.5238" transform="matrix(0 -1 -1 0 173.816 150.661)" fill="#134A1C"/>
<rect width="4.95655" height="1.85871" rx="0.929354" transform="matrix(0 -1 -1 0 170.873 149.654)" fill="#709E77"/>
<rect width="4.95655" height="2.0136" rx="1.0068" transform="matrix(0 -1 -1 0 167.93 149.654)" fill="#709E77"/>
<rect width="3.0204" height="3.79486" rx="1.5102" transform="matrix(0 -1 -1 0 147.097 148.57)" fill="#709E77"/>
<rect width="6.11825" height="29.3521" rx="3.05912" transform="matrix(0 -1 -1 0 175.442 142.994)" fill="#134A1C"/>
<rect width="4.33698" height="1.78126" rx="0.890631" transform="matrix(0 -1 -1 0 172.887 142.142)" fill="#709E77"/>
<rect width="4.33698" height="1.78126" rx="0.890631" transform="matrix(0 -1 -1 0 170.253 142.142)" fill="#709E77"/>
<rect width="2.71062" height="3.25274" rx="1.35531" transform="matrix(0 -1 -1 0 151.744 141.29)" fill="#709E77"/>
<rect x="32.3979" y="62.2949" width="10.6876" height="40.5818" rx="5.34378" fill="#0F3715"/>
<rect x="52.4565" y="61.1333" width="7.27994" height="41.7435" rx="3.63997" fill="#0F3715"/>
<rect x="71.353" y="62.2949" width="9.83566" height="40.4269" rx="4.91783" fill="#0F3715"/>
<rect x="60.6665" y="67.2515" width="9.68077" height="35.6252" rx="4.84038" fill="#0F3715"/>
<rect x="44.0923" y="74.8413" width="7.35738" height="28.0355" rx="3.67869" fill="#0F3715"/>
<rect x="82.1187" y="70.969" width="8.51908" height="31.598" rx="4.25954" fill="#0F3715"/>
<rect x="34.5669" y="63.6892" width="10.4552" height="39.4975" rx="5.22761" fill="#134A1C"/>
<rect x="36.0381" y="67.0967" width="7.51228" height="2.32338" rx="1.16169" fill="#709E77"/>
<rect x="36.0381" y="70.6592" width="7.51228" height="2.32338" rx="1.16169" fill="#709E77"/>
<rect x="37.5869" y="95.5195" width="4.49188" height="4.49188" rx="2.24594" fill="#709E77"/>
<rect x="54.083" y="62.5273" width="7.12505" height="40.6592" rx="3.56252" fill="#134A1C"/>
<rect x="55.0898" y="66.0125" width="5.11145" height="2.40083" rx="1.20042" fill="#709E77"/>
<rect x="55.0898" y="69.73" width="5.11145" height="2.40083" rx="1.20042" fill="#709E77"/>
<rect x="56.1748" y="95.2871" width="3.0204" height="4.64677" rx="1.5102" fill="#709E77"/>
<rect x="72.5156" y="63.6892" width="9.60332" height="39.3426" rx="4.80166" fill="#134A1C"/>
<rect x="73.9087" y="67.0193" width="6.81526" height="2.32338" rx="1.16169" fill="#709E77"/>
<rect x="73.9087" y="70.5818" width="6.81526" height="2.40083" rx="1.20042" fill="#709E77"/>
<rect x="75.3809" y="95.4421" width="3.94975" height="4.41443" rx="1.97488" fill="#709E77"/>
<rect x="62.1377" y="68.4907" width="9.44843" height="34.6959" rx="4.72422" fill="#134A1C"/>
<rect x="63.4541" y="71.511" width="6.81526" height="1.93615" rx="0.968077" fill="#709E77"/>
<rect x="63.4541" y="74.6089" width="6.81526" height="2.09105" rx="1.04552" fill="#709E77"/>
<rect x="64.9253" y="96.449" width="3.94975" height="3.94975" rx="1.97488" fill="#709E77"/>
<rect x="45.9512" y="75.9255" width="7.20249" height="27.261" rx="3.60125" fill="#134A1C"/>
<rect x="46.958" y="78.249" width="5.18889" height="1.70382" rx="0.851908" fill="#709E77"/>
<rect x="46.958" y="80.7273" width="5.18889" height="1.62637" rx="0.813185" fill="#709E77"/>
<rect x="47.9648" y="97.9202" width="3.17529" height="3.09785" rx="1.54892" fill="#709E77"/>
<rect x="83.0479" y="72.1306" width="8.28674" height="30.7461" rx="4.14337" fill="#134A1C"/>
<rect x="84.209" y="74.7639" width="5.96335" height="1.93615" rx="0.968077" fill="#709E77"/>
<rect x="84.209" y="77.552" width="5.96335" height="1.85871" rx="0.929354" fill="#709E77"/>
<rect x="85.3716" y="96.9136" width="3.63997" height="3.48508" rx="1.74254" fill="#709E77"/>
<rect x="57.4902" y="62.3723" width="2.09105" height="14.2501" rx="1.04552" fill="#2E9231"/>
<rect width="7.80255" height="30.9826" rx="3.90127" transform="matrix(0.974799 -0.223085 0.238345 0.971181 120.155 129.4)" fill="#0F3715"/>
<rect x="113.021" y="118.676" width="7.12505" height="40.6592" rx="3.56252" fill="#0F3715"/>
<rect x="84.21" y="120.302" width="9.60332" height="39.3426" rx="4.80166" fill="#0F3715"/>
<rect x="104.889" y="132.074" width="7.20249" height="27.261" rx="3.60125" fill="#0F3715"/>
<rect x="94.7437" y="128.744" width="8.36418" height="30.7461" rx="4.18209" fill="#0F3715"/>
<rect width="7.78472" height="30.9784" rx="3.89236" transform="matrix(0.974682 -0.223596 0.237804 0.971313 121.927 129.71)" fill="#134A1C"/>
<rect width="5.52464" height="1.82943" rx="0.914717" transform="matrix(0.974682 -0.223596 0.237804 0.971313 123.652 132.004)" fill="#709E77"/>
<rect width="5.52464" height="1.89042" rx="0.945208" transform="matrix(0.974682 -0.223596 0.237804 0.971313 124.319 134.729)" fill="#709E77"/>
<rect width="3.20178" height="3.47592" rx="1.60089" transform="matrix(0.974682 -0.223596 0.237804 0.971313 130.137 153.476)" fill="#709E77"/>
<rect x="114.801" y="118.986" width="7.12505" height="40.6592" rx="3.56252" fill="#134A1C"/>
<rect x="115.809" y="122.471" width="5.11145" height="2.40083" rx="1.20042" fill="#709E77"/>
<rect x="115.809" y="126.188" width="5.11145" height="2.40083" rx="1.20042" fill="#709E77"/>
<rect x="116.893" y="151.745" width="3.0204" height="4.64677" rx="1.5102" fill="#709E77"/>
<rect x="86.0698" y="120.612" width="9.60332" height="39.3426" rx="4.80166" fill="#134A1C"/>
<rect x="87.4629" y="123.942" width="6.81526" height="2.32338" rx="1.16169" fill="#709E77"/>
<rect x="87.4629" y="127.505" width="6.81526" height="2.40083" rx="1.20042" fill="#709E77"/>
<rect x="88.9351" y="152.365" width="3.94975" height="4.41443" rx="1.97488" fill="#709E77"/>
<rect x="106.67" y="132.384" width="7.20249" height="27.261" rx="3.60125" fill="#134A1C"/>
<rect x="107.677" y="134.707" width="5.18889" height="1.70382" rx="0.851908" fill="#709E77"/>
<rect x="107.677" y="137.186" width="5.18889" height="1.62637" rx="0.813185" fill="#709E77"/>
<rect x="108.683" y="154.378" width="3.17529" height="3.09785" rx="1.54892" fill="#709E77"/>
<rect x="96.6021" y="129.054" width="8.28674" height="30.7461" rx="4.14337" fill="#134A1C"/>
<rect x="97.7632" y="131.687" width="5.96335" height="1.93615" rx="0.968077" fill="#709E77"/>
<rect x="97.7632" y="134.475" width="5.96335" height="1.85871" rx="0.929354" fill="#709E77"/>
<rect x="98.9258" y="153.836" width="3.63997" height="3.48508" rx="1.74254" fill="#709E77"/>
<rect x="101.172" y="128.511" width="2.09105" height="14.2501" rx="1.04552" fill="#2E9231"/>
<rect x="104.038" y="85.916" width="11.2297" height="17.2705" rx="3" fill="#B0C8D0"/>
<path d="M153.954 94.6162C154.326 93.6661 155.242 93.041 156.263 93.041C157.295 93.041 158.219 93.6807 158.583 94.6469L159.848 98.0076C160.798 100.531 158.933 103.225 156.237 103.225C153.52 103.225 151.654 100.49 152.645 97.9599L153.954 94.6162Z" fill="#B0C8D0"/>
<path d="M170.216 100.243C170.516 99.9934 170.894 99.8564 171.284 99.8564H173.465C173.867 99.8564 174.254 100.001 174.557 100.265C175.72 101.275 175.006 103.187 173.465 103.187H171.284C169.727 103.187 169.022 101.241 170.216 100.243Z" fill="#B0C8D0"/>
<rect x="154.92" y="84.3672" width="2.55572" height="13.9403" rx="1.27786" fill="#B0C8D0"/>
<path d="M154.326 95.3628C154.636 94.5698 155.4 94.0479 156.252 94.0479C157.113 94.0479 157.884 94.582 158.187 95.3883L159.247 98.2116C160.038 100.319 158.481 102.567 156.23 102.567C153.962 102.567 152.403 100.285 153.229 98.1718L154.326 95.3628Z" fill="#D9D9D9"/>
<rect x="107.291" y="82.9731" width="4.72422" height="4.56932" rx="2.28466" fill="#B0C8D0"/>
<path d="M137.064 90.2422C137.334 88.4027 138.911 87.0391 140.77 87.0391C142.626 87.0391 144.202 88.398 144.475 90.2335L145.574 97.6262C146.009 100.555 143.74 103.187 140.779 103.187C137.823 103.187 135.555 100.563 135.983 97.6375L137.064 90.2422Z" fill="#B0C8D0"/>
<path d="M136.456 98.5463C136.72 96.8488 138.181 95.5969 139.899 95.5969H141.569C143.316 95.5969 144.793 96.89 145.023 98.6214C145.302 100.711 143.677 102.567 141.569 102.567H139.899C137.761 102.567 136.127 100.659 136.456 98.5463Z" fill="#D9D9D9"/>
<rect x="139.275" y="85.8386" width="3.0204" height="2.0136" rx="1.0068" fill="#B0C8D0"/>
<rect x="138.501" y="84.4446" width="4.64677" height="2.0136" rx="1.0068" fill="#B0C8D0"/>
<rect x="154.61" y="83.2056" width="3.25274" height="1.39403" rx="0.697015" fill="#B0C8D0"/>
<rect x="121.696" y="90.0208" width="6.0408" height="2.0136" rx="1.0068" fill="#B0C8D0"/>
<rect x="119.062" y="93.196" width="11.2297" height="9.99055" rx="3" fill="#B0C8D0"/>
<rect x="122.315" y="91.4922" width="4.72422" height="2.63317" rx="1.31658" fill="#B0C8D0"/>
<circle cx="172.5" cy="96.4488" r="5.80846" fill="#B0C8D0"/>
<rect x="104.658" y="94.5901" width="10.068" height="7.89951" rx="2" fill="#D9D9D9"/>
<rect x="105.819" y="89.2463" width="7.66717" height="9.83566" rx="3.83358" fill="#714040"/>
<rect x="119.682" y="98.7722" width="10.068" height="3.94975" rx="1.97488" fill="#D9D9D9"/>
<rect x="120.766" y="94.7449" width="7.66717" height="7.20249" rx="3.60125" fill="#714040"/>
<rect x="168.938" y="92.7314" width="6.73781" height="7.43483" rx="3.36891" fill="#714040"/>
<rect x="138.037" y="89.2463" width="5.49868" height="9.83566" rx="2.74934" fill="#714040"/>
<rect x="154.377" y="96.1389" width="3.63997" height="5.034" rx="1.81998" fill="#714040"/>
<path d="M63.0969 145.587C63.0969 154.064 56.81 158.855 48.3328 158.855C39.8555 158.855 32.3979 154.064 32.3979 145.587C32.3979 137.11 39.4002 132.384 47.8775 132.384C56.3548 132.384 63.0969 137.11 63.0969 145.587Z" fill="#B0C8D0"/>
<rect x="34.2192" y="154.888" width="27.7071" height="4.94305" rx="2.47152" fill="#B0C8D0"/>
<rect x="33.5693" y="132.384" width="29.0079" height="4.94305" rx="2.47152" fill="#B0C8D0"/>
<path d="M60.8853 146.624C60.8853 154.562 54.974 154.888 47.6821 154.888C40.3903 154.888 34.479 154.107 34.479 146.624C34.479 142.129 40.3903 143.511 47.6821 143.511C54.974 143.511 60.8853 142.129 60.8853 146.624Z" fill="#D9D9D9"/>
<path d="M76.311 151.242C76.311 156.289 72.568 159.141 67.5208 159.141C62.4737 159.141 58.0337 156.289 58.0337 151.242C58.0337 146.195 62.2026 143.381 67.2498 143.381C72.2969 143.381 76.311 146.195 76.311 151.242Z" fill="#B0C8D0"/>
<rect x="59.1172" y="156.779" width="16.496" height="2.94295" rx="1.47148" fill="#B0C8D0"/>
<rect x="58.731" y="143.381" width="17.2705" height="2.94295" rx="1.47148" fill="#B0C8D0"/>
<path d="M74.994 151.859C74.994 156.586 71.4746 156.779 67.1332 156.779C62.7919 156.779 59.2725 156.315 59.2725 151.859C59.2725 149.183 62.7919 150.006 67.1332 150.006C71.4746 150.006 74.994 149.183 74.994 151.859Z" fill="#D9D9D9"/>
<path d="M148.91 9.39754C148.91 9.39754 152.808 10.6014 153.408 10.5305C154.008 10.4597 157.907 6.79827 157.907 7.89799C157.907 8.4978 156.859 27.2923 157.207 28.1253C157.556 28.9583 161.598 31.3553 162.054 31.6576C165.92 34.2234 142.159 34.4567 146.544 31.6576C147.088 31.3098 151.457 29.5581 151.624 28.1253C151.791 26.6924 148.91 9.39754 148.91 9.39754Z" fill="#D6BAA9"/>
<g filter="url(#filter9_d_997_2455)">
<path d="M153.177 10.164C153.476 10.1241 155.797 7.66475 157.875 7.66479C158.175 7.6648 154.183 12.7273 153.499 12.663C152.437 12.563 148.698 9.73084 148.925 9.39761C149.043 9.22446 152.577 10.2439 153.177 10.164Z" fill="#FCE6D0"/>
</g>
<path d="M154.128 5.85387C154.128 5.85387 153.327 12.0078 153.189 11.7963C153.097 11.6552 153.381 6.46295 153.381 6.46295L154.128 5.85387Z" fill="#4D3737"/>
<path d="M161.288 31.3575C161.526 30.9964 162.981 32.2618 162.488 32.5239C158.155 34.8232 147.406 33.3609 146.592 32.9238C144.594 31.8506 158.489 35.5897 161.288 31.3575Z" fill="#917275"/>
<path d="M153.366 3.44772C154.699 3.44774 153.699 0.481711 154.032 0.0152941C154.25 -0.289031 156.931 4.03906 156.931 4.91395C156.931 5.73195 153.828 7.64647 153.366 7.64647C153.033 7.64647 151.726 3.4477 153.366 3.44772Z" fill="#FFD089"/>
<g filter="url(#filter10_d_997_2455)">
<path d="M153.624 4.69885C154.702 5.19867 154.465 3.67579 154.702 3.44891C154.857 3.30087 155.499 5.16638 155.39 5.66544C155.287 6.13204 153.638 7.7779 153.39 7.72354C153.212 7.68441 152.808 4.32062 153.624 4.69885Z" fill="#F68046"/>
</g>
<path d="M167.661 19.5126C167.661 19.5126 170.916 19.9693 171.516 19.9276C172.116 19.886 177.692 17.8332 177.692 18.4795C177.692 18.8321 175.666 30.2774 176.014 30.7669C176.363 31.2565 177.616 31.7556 178.071 31.9333C181.938 33.4412 160.267 33.9894 164.651 32.3443C165.196 32.1399 167.389 31.4667 167.475 31.0335C167.56 30.6003 167.661 19.5126 167.661 19.5126Z" fill="#D6BAA9"/>
<g filter="url(#filter11_d_997_2455)">
<path d="M172.56 19.2458C172.86 19.2223 175.626 18.2461 177.592 18.346C177.892 18.3613 173.577 20.8831 172.894 20.8453C171.831 20.7865 167.511 19.7022 167.737 19.5064C167.855 19.4046 171.961 19.2927 172.56 19.2458Z" fill="#FCE6D0"/>
</g>
<path d="M172.578 16.4766C172.578 16.4766 172.888 20.1588 172.748 20.0719C172.655 20.0139 172.087 17.001 172.087 17.001L172.578 16.4766Z" fill="#4D3737"/>
<path d="M178.072 32.033C178.31 31.8207 179.365 32.7121 178.871 32.8661C174.539 34.2174 165.514 33.3451 164.7 33.0882C162.702 32.4575 175.273 34.5203 178.072 32.033Z" fill="#917275"/>
<path d="M171.496 14.089C172.487 13.8691 172.39 11.8485 172.561 11.4482C172.673 11.187 174.245 13.9384 174.388 14.5861C174.523 15.1917 172.529 17.121 172.185 17.1973C171.938 17.2523 170.276 14.3595 171.496 14.089Z" fill="#FFD089"/>
<g filter="url(#filter12_d_997_2455)">
<path d="M171.877 14.9837C172.759 15.177 172.656 14.0547 172.794 13.8474C172.885 13.7122 173.345 15.0219 173.346 15.4101C173.347 15.773 172.394 17.2654 172.202 17.2658C172.063 17.2662 171.209 14.8374 171.877 14.9837Z" fill="#F68046"/>
</g>
<path d="M155.313 15.3821C156.854 18.09 156.757 15.5479 156.629 15.0083C156.113 12.8336 157.593 16.7446 156.542 17.3176C155.262 18.0152 155.154 15.1024 155.313 15.3821Z" fill="#C3A491"/>
<path d="M174.855 21.4131C175.888 24.4276 176.275 21.8551 176.249 21.2886C176.146 19.0054 176.88 23.0579 175.715 23.4332C174.683 23.7655 174.749 21.1017 174.855 21.4131Z" fill="#C3A491"/>
<path d="M173.724 23.4847C174.191 25.285 174.528 23.8642 174.538 23.5413C174.577 22.2395 174.823 24.6907 174.131 24.7969C173.288 24.9261 173.675 23.2987 173.724 23.4847Z" fill="#C3A491"/>
<rect width="7.80255" height="30.9826" rx="3.90127" transform="matrix(0.974799 -0.223085 0.238345 0.971181 172.134 186.724)" fill="#0F3715"/>
<rect x="165" y="176" width="7.12505" height="40.6592" rx="3.56252" fill="#0F3715"/>
<rect width="7.78472" height="30.9784" rx="3.89236" transform="matrix(0.974682 -0.223596 0.237804 0.971313 173.906 187.034)" fill="#134A1C"/>
<rect width="5.52464" height="1.82943" rx="0.914717" transform="matrix(0.974682 -0.223596 0.237804 0.971313 175.632 189.329)" fill="#709E77"/>
<rect width="5.52464" height="1.89042" rx="0.945208" transform="matrix(0.974682 -0.223596 0.237804 0.971313 176.298 192.053)" fill="#709E77"/>
<rect width="3.20178" height="3.47592" rx="1.60089" transform="matrix(0.974682 -0.223596 0.237804 0.971313 182.116 210.8)" fill="#709E77"/>
<rect x="166.781" y="176.31" width="7.12505" height="40.6592" rx="3.56252" fill="#134A1C"/>
<rect x="167.788" y="179.795" width="5.11145" height="2.40083" rx="1.20042" fill="#709E77"/>
<rect x="167.788" y="183.512" width="5.11145" height="2.40083" rx="1.20042" fill="#709E77"/>
<rect x="168.873" y="209.07" width="3.0204" height="4.64677" rx="1.5102" fill="#709E77"/>
<rect x="155.811" y="176" width="7.12505" height="40.6592" rx="3.56252" fill="#0F3715"/>
<rect x="127" y="177.626" width="9.60332" height="39.3426" rx="4.80166" fill="#0F3715"/>
<rect x="147.679" y="189.398" width="7.20249" height="27.261" rx="3.60125" fill="#0F3715"/>
<rect x="137.534" y="186.068" width="8.36418" height="30.7461" rx="4.18209" fill="#0F3715"/>
<rect x="157.591" y="176.31" width="7.12505" height="40.6592" rx="3.56252" fill="#134A1C"/>
<rect x="158.599" y="179.795" width="5.11145" height="2.40083" rx="1.20042" fill="#709E77"/>
<rect x="158.599" y="183.512" width="5.11145" height="2.40083" rx="1.20042" fill="#709E77"/>
<rect x="159.683" y="209.07" width="3.0204" height="4.64677" rx="1.5102" fill="#709E77"/>
<rect x="128.86" y="177.936" width="9.60332" height="39.3426" rx="4.80166" fill="#134A1C"/>
<rect x="130.253" y="181.266" width="6.81526" height="2.32338" rx="1.16169" fill="#709E77"/>
<rect x="130.253" y="184.829" width="6.81526" height="2.40083" rx="1.20042" fill="#709E77"/>
<rect x="131.725" y="209.689" width="3.94975" height="4.41443" rx="1.97488" fill="#709E77"/>
<rect x="149.46" y="189.708" width="7.20249" height="27.261" rx="3.60125" fill="#134A1C"/>
<rect x="150.467" y="192.031" width="5.18889" height="1.70382" rx="0.851908" fill="#709E77"/>
<rect x="150.467" y="194.51" width="5.18889" height="1.62637" rx="0.813185" fill="#709E77"/>
<rect x="151.473" y="211.703" width="3.17529" height="3.09785" rx="1.54892" fill="#709E77"/>
<rect x="139.392" y="186.378" width="8.28674" height="30.7461" rx="4.14337" fill="#134A1C"/>
<rect x="140.553" y="189.011" width="5.96335" height="1.93615" rx="0.968077" fill="#709E77"/>
<rect x="140.553" y="191.799" width="5.96335" height="1.85871" rx="0.929354" fill="#709E77"/>
<rect x="141.716" y="211.161" width="3.63997" height="3.48508" rx="1.74254" fill="#709E77"/>
<rect x="143.962" y="185.836" width="2.09105" height="14.2501" rx="1.04552" fill="#2E9231"/>
<path d="M37.4544 215.932C37.4544 215.932 40.745 216.948 41.2513 216.888C41.7575 216.828 45.0481 213.738 45.0481 214.666C45.0481 215.172 44.1634 231.035 44.4575 231.738C44.7516 232.441 48.1635 234.464 48.5479 234.719C51.8111 236.884 31.7574 237.081 35.4576 234.719C35.9174 234.425 39.6048 232.947 39.7454 231.738C39.886 230.528 37.4544 215.932 37.4544 215.932Z" fill="#D6BAA9"/>
<g filter="url(#filter13_d_997_2455)">
<path d="M41.0547 216.578C41.3078 216.545 43.2662 214.469 45.0203 214.469C45.2734 214.469 41.9039 218.742 41.327 218.687C40.4302 218.603 37.2751 216.213 37.4663 215.931C37.5657 215.785 40.5485 216.646 41.0547 216.578Z" fill="#FCE6D0"/>
</g>
<path d="M41.8583 212.941C41.8583 212.941 41.1822 218.135 41.0658 217.956C40.9882 217.837 41.2278 213.455 41.2278 213.455L41.8583 212.941Z" fill="#4D3737"/>
<path d="M47.9014 234.465C48.103 234.161 49.3309 235.229 48.9142 235.45C45.2579 237.39 36.1857 236.156 35.4987 235.787C33.8121 234.882 45.5391 238.037 47.9014 234.465Z" fill="#917275"/>
<path d="M41.2166 210.91C42.3416 210.91 41.4979 208.407 41.7793 208.013C41.9629 207.756 44.2259 211.409 44.2259 212.147C44.2259 212.838 41.6071 214.454 41.2166 214.454C40.9355 214.454 39.8327 210.91 41.2166 210.91Z" fill="#FFD089"/>
<g filter="url(#filter14_d_997_2455)">
<path d="M41.4326 211.966C42.3427 212.388 42.1427 211.102 42.3427 210.911C42.4732 210.786 43.0154 212.361 42.9231 212.782C42.8367 213.176 41.4447 214.565 41.2355 214.519C41.0849 214.486 40.7438 211.647 41.4326 211.966Z" fill="#F68046"/>
</g>
<path d="M42.8568 220.982C44.158 223.268 44.076 221.122 43.9679 220.667C43.5324 218.832 44.7815 222.132 43.8942 222.616C42.8139 223.205 42.7224 220.746 42.8568 220.982Z" fill="#C3A491"/>
<defs>
<filter id="filter0_d_997_2455" x="25.001" y="42" width="169" height="187" filterUnits="userSpaceOnUse" color-interpolation-filters="sRGB">
<feFlood flood-opacity="0" result="BackgroundImageFix"/>
<feColorMatrix in="SourceAlpha" type="matrix" values="0 0 0 0 0 0 0 0 0 0 0 0 0 0 0 0 0 0 127 0" result="hardAlpha"/>
<feOffset dx="2" dy="4"/>
<feGaussianBlur stdDeviation="2"/>
<feComposite in2="hardAlpha" operator="out"/>
<feColorMatrix type="matrix" values="0 0 0 0 0 0 0 0 0 0 0 0 0 0 0 0 0 0 1 0"/>
<feBlend mode="normal" in2="BackgroundImageFix" result="effect1_dropShadow_997_2455"/>
<feBlend mode="normal" in="SourceGraphic" in2="effect1_dropShadow_997_2455" result="shape"/>
</filter>
<filter id="filter1_dd_997_2455" x="17.001" y="212" width="186.958" height="25.7583" filterUnits="userSpaceOnUse" color-interpolation-filters="sRGB">
<feFlood flood-opacity="0" result="BackgroundImageFix"/>
<feColorMatrix in="SourceAlpha" type="matrix" values="0 0 0 0 0 0 0 0 0 0 0 0 0 0 0 0 0 0 127 0" result="hardAlpha"/>
<feOffset dy="4"/>
<feGaussianBlur stdDeviation="2"/>
<feComposite in2="hardAlpha" operator="out"/>
<feColorMatrix type="matrix" values="0 0 0 0 0 0 0 0 0 0 0 0 0 0 0 0 0 0 1 0"/>
<feBlend mode="normal" in2="BackgroundImageFix" result="effect1_dropShadow_997_2455"/>
<feColorMatrix in="SourceAlpha" type="matrix" values="0 0 0 0 0 0 0 0 0 0 0 0 0 0 0 0 0 0 127 0" result="hardAlpha"/>
<feOffset dx="3" dy="-4"/>
<feGaussianBlur stdDeviation="2"/>
<feComposite in2="hardAlpha" operator="out"/>
<feColorMatrix type="matrix" values="0 0 0 0 0 0 0 0 0 0 0 0 0 0 0 0 0 0 1 0"/>
<feBlend mode="normal" in2="effect1_dropShadow_997_2455" result="effect2_dropShadow_997_2455"/>
<feBlend mode="normal" in="SourceGraphic" in2="effect2_dropShadow_997_2455" result="shape"/>
</filter>
<filter id="filter2_d_997_2455" x="22.8252" y="208.432" width="16.7041" height="12.8474" filterUnits="userSpaceOnUse" color-interpolation-filters="sRGB">
<feFlood flood-opacity="0" result="BackgroundImageFix"/>
<feColorMatrix in="SourceAlpha" type="matrix" values="0 0 0 0 0 0 0 0 0 0 0 0 0 0 0 0 0 0 127 0" result="hardAlpha"/>
<feOffset dy="4"/>
<feGaussianBlur stdDeviation="2"/>
<feComposite in2="hardAlpha" operator="out"/>
<feColorMatrix type="matrix" values="0 0 0 0 0 0 0 0 0 0 0 0 0 0 0 0 0 0 0.11 0"/>
<feBlend mode="normal" in2="BackgroundImageFix" result="effect1_dropShadow_997_2455"/>
<feBlend mode="normal" in="SourceGraphic" in2="effect1_dropShadow_997_2455" result="shape"/>
</filter>
<filter id="filter3_d_997_2455" x="26.9146" y="204.336" width="10.2021" height="12.1545" filterUnits="userSpaceOnUse" color-interpolation-filters="sRGB">
<feFlood flood-opacity="0" result="BackgroundImageFix"/>
<feColorMatrix in="SourceAlpha" type="matrix" values="0 0 0 0 0 0 0 0 0 0 0 0 0 0 0 0 0 0 127 0" result="hardAlpha"/>
<feOffset dy="4"/>
<feGaussianBlur stdDeviation="2"/>
<feComposite in2="hardAlpha" operator="out"/>
<feColorMatrix type="matrix" values="0 0 0 0 0 0 0 0 0 0 0 0 0 0 0 0 0 0 0.25 0"/>
<feBlend mode="normal" in2="BackgroundImageFix" result="effect1_dropShadow_997_2455"/>
<feBlend mode="normal" in="SourceGraphic" in2="effect1_dropShadow_997_2455" result="shape"/>
</filter>
<filter id="filter4_d_997_2455" x="41.0693" y="218.783" width="17.5796" height="10.4309" filterUnits="userSpaceOnUse" color-interpolation-filters="sRGB">
<feFlood flood-opacity="0" result="BackgroundImageFix"/>
<feColorMatrix in="SourceAlpha" type="matrix" values="0 0 0 0 0 0 0 0 0 0 0 0 0 0 0 0 0 0 127 0" result="hardAlpha"/>
<feOffset dy="4"/>
<feGaussianBlur stdDeviation="2"/>
<feComposite in2="hardAlpha" operator="out"/>
<feColorMatrix type="matrix" values="0 0 0 0 0 0 0 0 0 0 0 0 0 0 0 0 0 0 0.11 0"/>
<feBlend mode="normal" in2="BackgroundImageFix" result="effect1_dropShadow_997_2455"/>
<feBlend mode="normal" in="SourceGraphic" in2="effect1_dropShadow_997_2455" result="shape"/>
</filter>
<filter id="filter5_d_997_2455" x="44.8462" y="214.418" width="9.66943" height="11.3245" filterUnits="userSpaceOnUse" color-interpolation-filters="sRGB">
<feFlood flood-opacity="0" result="BackgroundImageFix"/>
<feColorMatrix in="SourceAlpha" type="matrix" values="0 0 0 0 0 0 0 0 0 0 0 0 0 0 0 0 0 0 127 0" result="hardAlpha"/>
<feOffset dy="4"/>
<feGaussianBlur stdDeviation="2"/>
<feComposite in2="hardAlpha" operator="out"/>
<feColorMatrix type="matrix" values="0 0 0 0 0 0 0 0 0 0 0 0 0 0 0 0 0 0 0.25 0"/>
<feBlend mode="normal" in2="BackgroundImageFix" result="effect1_dropShadow_997_2455"/>
<feBlend mode="normal" in="SourceGraphic" in2="effect1_dropShadow_997_2455" result="shape"/>
</filter>
<filter id="filter6_d_997_2455" x="16.001" y="34" width="184" height="18" filterUnits="userSpaceOnUse" color-interpolation-filters="sRGB">
<feFlood flood-opacity="0" result="BackgroundImageFix"/>
<feColorMatrix in="SourceAlpha" type="matrix" values="0 0 0 0 0 0 0 0 0 0 0 0 0 0 0 0 0 0 127 0" result="hardAlpha"/>
<feOffset dy="4"/>
<feGaussianBlur stdDeviation="2"/>
<feComposite in2="hardAlpha" operator="out"/>
<feColorMatrix type="matrix" values="0 0 0 0 0 0 0 0 0 0 0 0 0 0 0 0 0 0 1 0"/>
<feBlend mode="normal" in2="BackgroundImageFix" result="effect1_dropShadow_997_2455"/>
<feBlend mode="normal" in="SourceGraphic" in2="effect1_dropShadow_997_2455" result="shape"/>
</filter>
<filter id="filter7_d_997_2455" x="23.4424" y="103.187" width="169.243" height="17.7583" filterUnits="userSpaceOnUse" color-interpolation-filters="sRGB">
<feFlood flood-opacity="0" result="BackgroundImageFix"/>
<feColorMatrix in="SourceAlpha" type="matrix" values="0 0 0 0 0 0 0 0 0 0 0 0 0 0 0 0 0 0 127 0" result="hardAlpha"/>
<feOffset dy="4"/>
<feGaussianBlur stdDeviation="2"/>
<feComposite in2="hardAlpha" operator="out"/>
<feColorMatrix type="matrix" values="0 0 0 0 0 0 0 0 0 0 0 0 0 0 0 0 0 0 1 0"/>
<feBlend mode="normal" in2="BackgroundImageFix" result="effect1_dropShadow_997_2455"/>
<feBlend mode="normal" in="SourceGraphic" in2="effect1_dropShadow_997_2455" result="shape"/>
</filter>
<filter id="filter8_d_997_2455" x="23.4424" y="159.955" width="169.243" height="17.7583" filterUnits="userSpaceOnUse" color-interpolation-filters="sRGB">
<feFlood flood-opacity="0" result="BackgroundImageFix"/>
<feColorMatrix in="SourceAlpha" type="matrix" values="0 0 0 0 0 0 0 0 0 0 0 0 0 0 0 0 0 0 127 0" result="hardAlpha"/>
<feOffset dy="4"/>
<feGaussianBlur stdDeviation="2"/>
<feComposite in2="hardAlpha" operator="out"/>
<feColorMatrix type="matrix" values="0 0 0 0 0 0 0 0 0 0 0 0 0 0 0 0 0 0 1 0"/>
<feBlend mode="normal" in2="BackgroundImageFix" result="effect1_dropShadow_997_2455"/>
<feBlend mode="normal" in="SourceGraphic" in2="effect1_dropShadow_997_2455" result="shape"/>
</filter>
<filter id="filter9_d_997_2455" x="144.915" y="7.66479" width="16.9761" height="12.9988" filterUnits="userSpaceOnUse" color-interpolation-filters="sRGB">
<feFlood flood-opacity="0" result="BackgroundImageFix"/>
<feColorMatrix in="SourceAlpha" type="matrix" values="0 0 0 0 0 0 0 0 0 0 0 0 0 0 0 0 0 0 127 0" result="hardAlpha"/>
<feOffset dy="4"/>
<feGaussianBlur stdDeviation="2"/>
<feComposite in2="hardAlpha" operator="out"/>
<feColorMatrix type="matrix" values="0 0 0 0 0 0 0 0 0 0 0 0 0 0 0 0 0 0 0.11 0"/>
<feBlend mode="normal" in2="BackgroundImageFix" result="effect1_dropShadow_997_2455"/>
<feBlend mode="normal" in="SourceGraphic" in2="effect1_dropShadow_997_2455" result="shape"/>
</filter>
<filter id="filter10_d_997_2455" x="149.131" y="3.44067" width="10.271" height="12.2842" filterUnits="userSpaceOnUse" color-interpolation-filters="sRGB">
<feFlood flood-opacity="0" result="BackgroundImageFix"/>
<feColorMatrix in="SourceAlpha" type="matrix" values="0 0 0 0 0 0 0 0 0 0 0 0 0 0 0 0 0 0 127 0" result="hardAlpha"/>
<feOffset dy="4"/>
<feGaussianBlur stdDeviation="2"/>
<feComposite in2="hardAlpha" operator="out"/>
<feColorMatrix type="matrix" values="0 0 0 0 0 0 0 0 0 0 0 0 0 0 0 0 0 0 0.25 0"/>
<feBlend mode="normal" in2="BackgroundImageFix" result="effect1_dropShadow_997_2455"/>
<feBlend mode="normal" in="SourceGraphic" in2="effect1_dropShadow_997_2455" result="shape"/>
</filter>
<filter id="filter11_d_997_2455" x="163.729" y="18.3389" width="17.8784" height="10.5068" filterUnits="userSpaceOnUse" color-interpolation-filters="sRGB">
<feFlood flood-opacity="0" result="BackgroundImageFix"/>
<feColorMatrix in="SourceAlpha" type="matrix" values="0 0 0 0 0 0 0 0 0 0 0 0 0 0 0 0 0 0 127 0" result="hardAlpha"/>
<feOffset dy="4"/>
<feGaussianBlur stdDeviation="2"/>
<feComposite in2="hardAlpha" operator="out"/>
<feColorMatrix type="matrix" values="0 0 0 0 0 0 0 0 0 0 0 0 0 0 0 0 0 0 0.11 0"/>
<feBlend mode="normal" in2="BackgroundImageFix" result="effect1_dropShadow_997_2455"/>
<feBlend mode="normal" in="SourceGraphic" in2="effect1_dropShadow_997_2455" result="shape"/>
</filter>
<filter id="filter12_d_997_2455" x="167.625" y="13.8376" width="9.72119" height="11.4282" filterUnits="userSpaceOnUse" color-interpolation-filters="sRGB">
<feFlood flood-opacity="0" result="BackgroundImageFix"/>
<feColorMatrix in="SourceAlpha" type="matrix" values="0 0 0 0 0 0 0 0 0 0 0 0 0 0 0 0 0 0 127 0" result="hardAlpha"/>
<feOffset dy="4"/>
<feGaussianBlur stdDeviation="2"/>
<feComposite in2="hardAlpha" operator="out"/>
<feColorMatrix type="matrix" values="0 0 0 0 0 0 0 0 0 0 0 0 0 0 0 0 0 0 0.25 0"/>
<feBlend mode="normal" in2="BackgroundImageFix" result="effect1_dropShadow_997_2455"/>
<feBlend mode="normal" in="SourceGraphic" in2="effect1_dropShadow_997_2455" result="shape"/>
</filter>
<filter id="filter13_d_997_2455" x="33.458" y="214.469" width="15.5757" height="12.219" filterUnits="userSpaceOnUse" color-interpolation-filters="sRGB">
<feFlood flood-opacity="0" result="BackgroundImageFix"/>
<feColorMatrix in="SourceAlpha" type="matrix" values="0 0 0 0 0 0 0 0 0 0 0 0 0 0 0 0 0 0 127 0" result="hardAlpha"/>
<feOffset dy="4"/>
<feGaussianBlur stdDeviation="2"/>
<feComposite in2="hardAlpha" operator="out"/>
<feColorMatrix type="matrix" values="0 0 0 0 0 0 0 0 0 0 0 0 0 0 0 0 0 0 0.11 0"/>
<feBlend mode="normal" in2="BackgroundImageFix" result="effect1_dropShadow_997_2455"/>
<feBlend mode="normal" in="SourceGraphic" in2="effect1_dropShadow_997_2455" result="shape"/>
</filter>
<filter id="filter14_d_997_2455" x="37.0171" y="210.904" width="9.9165" height="11.6157" filterUnits="userSpaceOnUse" color-interpolation-filters="sRGB">
<feFlood flood-opacity="0" result="BackgroundImageFix"/>
<feColorMatrix in="SourceAlpha" type="matrix" values="0 0 0 0 0 0 0 0 0 0 0 0 0 0 0 0 0 0 127 0" result="hardAlpha"/>
<feOffset dy="4"/>
<feGaussianBlur stdDeviation="2"/>
<feComposite in2="hardAlpha" operator="out"/>
<feColorMatrix type="matrix" values="0 0 0 0 0 0 0 0 0 0 0 0 0 0 0 0 0 0 0.25 0"/>
<feBlend mode="normal" in2="BackgroundImageFix" result="effect1_dropShadow_997_2455"/>
<feBlend mode="normal" in="SourceGraphic" in2="effect1_dropShadow_997_2455" result="shape"/>
</filter>
</defs>
</svg>
