<svg xmlns="http://www.w3.org/2000/svg" width="407" height="305" fill="none" viewBox="0 0 407 305"><path fill="#FEF27A" d="M108.392 222.072C110.399 230.192 104.749 238.574 95.7716 240.793C86.7945 243.011 77.8902 238.227 75.8832 230.106C73.8762 221.986 72.2285 216.201 81.2056 213.982C90.1827 211.764 86.9524 223.492 108.392 222.072Z"/><path fill="#C5263A" d="M140.985 222.072C138.978 230.192 144.628 238.574 153.605 240.793C162.582 243.011 171.487 238.227 173.494 230.106C175.501 221.986 177.148 216.201 168.171 213.982C159.194 211.764 162.425 223.492 140.985 222.072Z"/><ellipse cx="125.164" cy="191.666" fill="#FFD13B" rx="34.663" ry="27.906"/><ellipse cx="124.989" cy="232.371" fill="#FFD13B" rx="30.403" ry="27.539"/><circle cx="125.163" cy="234.406" r="10.428" fill="#F8931F"/><path fill="#FFD13B" d="M101.719 191.038C107.07 198.2 110.333 199.356 102.599 205.132C94.8647 210.908 84.2573 209.784 78.9065 202.621C73.5556 195.458 66.5424 187.035 74.2764 181.259C89.96 188.214 96.3682 183.875 101.719 191.038Z"/><path fill="#FFD13B" d="M107.63 176.219C110.9 184.54 113.742 186.517 104.757 190.046C95.7723 193.576 85.8381 189.691 82.5685 181.37C79.2988 173.049 74.7584 163.073 83.7432 159.544C97.0341 170.392 104.361 167.898 107.63 176.219Z"/><path fill="#FFD13B" d="M119.449 165.285C120.748 174.13 123.068 176.699 113.517 178.101C103.966 179.503 95.1704 173.468 93.8717 164.623C92.573 155.777 90.4115 145.033 99.9624 143.631C110.449 157.208 118.15 156.439 119.449 165.285Z"/><path fill="#FFD13B" d="M136.473 166.106C134.086 174.721 135.169 178.009 125.867 175.431C116.564 172.854 110.958 163.78 113.346 155.164C115.734 146.549 118.1 135.848 127.403 138.425C131.506 155.081 138.861 157.49 136.473 166.106Z"/><path fill="#FFD13B" d="M148.606 191.262C143.255 198.424 139.992 199.58 147.726 205.356C155.46 211.132 166.068 210.008 171.419 202.845C176.77 195.682 183.783 187.259 176.049 181.483C160.365 188.438 153.957 184.099 148.606 191.262Z"/><path fill="#FFD13B" d="M142.692 176.443C139.422 184.764 136.581 186.741 145.565 190.27C154.55 193.8 164.484 189.915 167.754 181.594C171.023 173.273 175.564 163.297 166.579 159.768C153.288 170.616 145.962 168.122 142.692 176.443Z"/><path fill="#FFD13B" d="M130.874 165.509C129.576 174.354 127.256 176.923 136.807 178.325C146.357 179.727 155.153 173.692 156.452 164.847C157.75 156.001 159.912 145.257 150.361 143.855C139.874 157.432 132.173 156.663 130.874 165.509Z"/><path fill="#FFD13B" d="M113.852 166.33C116.24 174.946 115.156 178.233 124.459 175.655C133.761 173.078 139.367 164.004 136.979 155.389C134.591 146.773 132.225 136.072 122.923 138.649C118.819 155.305 111.464 157.714 113.852 166.33Z"/><ellipse cx="112.016" cy="259.375" fill="#0BB756" rx="9.327" ry="6.169"/><ellipse cx="141.247" cy="259.669" fill="#06A7E2" rx="9.327" ry="6.169"/><path fill="#F8931F" d="M124.995 213.991L127.659 222.363H122.665L124.995 213.991Z"/><path fill="#F8931F" d="M143.888 225.223L137.339 231.079L135.295 226.522L143.888 225.223Z"/><path fill="#F8931F" d="M135.424 252.986L129.569 246.437L134.125 244.394L135.424 252.986Z"/><path fill="#F8931F" d="M107.159 244.521L113.708 238.666L115.751 243.222L107.159 244.521Z"/><path fill="#F8931F" d="M114.924 215.615L120.78 222.165L116.223 224.208L114.924 215.615Z"/><path fill="#F8931F" d="M136.454 217.099L133.793 225.472L129.717 222.588L136.454 217.099Z"/><path fill="#F8931F" d="M142.788 245.844L134.415 243.183L137.299 239.106L142.788 245.844Z"/><path fill="#F8931F" d="M114.262 251.885L116.923 243.513L120.999 246.397L114.262 251.885Z"/><path fill="#F8931F" d="M107.415 223.509L115.788 226.17L112.904 230.246L107.415 223.509Z"/><path fill="#F8931F" d="M145.724 234.24L137.352 236.903V231.91L145.724 234.24Z"/><path fill="#F8931F" d="M125.916 254.822L123.252 246.45H128.246L125.916 254.822Z"/><path fill="#F8931F" d="M104.601 234.573L112.972 231.909V236.903L104.601 234.573Z"/><g filter="url(#filter0_d_997_2447)"><path fill="#6A92F7" d="M129.642 179.548C129.642 192.487 135.048 196.733 126.044 196.733C117.04 196.733 122.445 190.137 122.445 177.198C122.445 164.26 117.04 157.664 126.043 157.664C135.047 157.664 129.642 166.61 129.642 179.548Z"/></g><g filter="url(#filter1_d_997_2447)"><circle cx="125.971" cy="197.614" r="9.033" fill="#FD4F00"/></g><ellipse cx="107.684" cy="190.123" fill="#3D1B11" rx="3.231" ry="4.186"/><ellipse cx="143.082" cy="190.123" fill="#3D1B11" rx="3.231" ry="4.186"/><ellipse cx="105.839" cy="180.735" fill="#FFA409" rx="3.598" ry="1.028" transform="rotate(-8.92273 105.839 180.735)"/><ellipse cx="3.598" cy="1.028" fill="#FFA409" rx="3.598" ry="1.028" transform="matrix(0.991553 0.129704 0.129704 -0.991553 139.851 181.367)"/><path fill="#256AEA" d="M166.591 188.374L193.864 168.451L199.83 170.717L212.304 162.219L216.798 163.164L227.18 155.893L234.463 159.198L238.26 157.97V250.409H214.086V220.289L197.815 222.932V215.095L184.721 209.997L184.256 201.688L170.387 198.1L169.613 200.271L166.591 188.374Z"/><path fill="#256AEA" d="M170.073 190.445L194.99 171.793L194.681 182.776L170.073 197.262V190.445Z"/><path fill="#256AEA" d="M184.408 202.271L212.272 191.226L212.194 200.748L184.408 210.365V202.271Z"/><path fill="#256AEA" d="M197.269 215.131L227.41 207.715V217.128L197.269 221.407V215.131Z"/><path fill="#256AEA" d="M195.415 171.793L212.406 177.419V186.515L195.259 182.671L195.415 171.793Z"/><path fill="#256AEA" d="M212.808 191.226L227.543 194.57V203.74L212.808 200.779V191.226Z"/><path fill="#256AEA" d="M212.808 177.479L221.381 172.824V182.455L212.808 186.515V177.479Z"/><path fill="#256AEA" d="M222.051 172.824L231.026 176.207V185.043L222.051 182.411V172.824Z"/><path fill="#256AEA" d="M231.293 176.186L238.259 173.265V182.593L231.293 185.043V176.186Z"/><path fill="#256AEA" d="M228.347 194.563L237.456 191.521V200.836L228.347 203.593V194.563Z"/><path fill="#256AEA" d="M227.811 207.715L235.446 208.763V217.432L227.811 217.051V207.715Z"/><path fill="#256AEA" d="M235.983 208.972L237.859 208.598V217.579L235.983 217.392V208.972Z"/><path fill="#256AEA" d="M227.811 169.283L237.724 164.064V170.686L231.255 173.854L227.811 172.51V169.283Z"/><path fill="#256AEA" d="M212.808 163.515L227.878 168.734V173.335L220.94 169.895L212.808 175.463V163.515Z"/><path fill="#256AEA" d="M202.223 170.679L212.806 164.064V175.189L202.223 170.979V170.679Z"/><path fill="#256AEA" d="M228.079 158.396L235.313 161.242V163.045L228.079 166.935V158.396Z"/><path fill="#256AEA" d="M235.717 161.252L237.726 160.31V162.194L237.031 161.723L235.717 162.665V161.252Z"/><path fill="#256AEA" d="M218.702 163.608L227.544 158.543V166.935L218.702 163.608Z"/><path fill="#202D6B" d="M215.89 162.579L227.556 155L234.917 158.462L237.591 157.472L238.127 159.959L235.778 161.082L227.948 157.994L218.552 163.515L215.89 162.579Z"/><path fill="#202D6B" d="M199.814 170.314L213.017 161.455L228.016 167.11L237.859 161.832L237.703 164.471L228.016 169.372L213.017 164.188L202.08 171.068L199.814 170.314Z"/><path fill="#202D6B" d="M166.859 188.673L194.22 168.113L212.435 174.966L221.039 169.826L231.193 173.633L237.858 170.492V172.681L231.193 175.537L221.736 172.301L212.435 176.774L194.918 171.063L169.495 190.196L166.859 188.673Z"/><path fill="#0F095B" d="M170.343 197.398L195.044 183.129L212.389 187.505L221.681 183.129L231.283 186.173L237.323 183.795V190.834L227.721 193.974L212.389 190.359L184.126 201.679L170.343 197.398Z"/><path fill="#0F095B" d="M184.408 211.05L212.229 201.385L227.65 204.542L237.725 201.672V207.796L235.787 208.274L227.495 207.03L196.962 214.782L184.408 211.05Z"/><path fill="#256AEA" d="M214.012 220.23L227.612 218.168L235.694 218.636L237.87 219.105L238.259 245.256H214.012V220.23Z"/><path fill="#223C6C" d="M170.171 197.555L174.345 195.201L179.757 199.815C179.757 199.815 178.812 201.299 178.194 202.451C177.575 203.603 205.176 226.178 205.871 229.002C206.567 231.827 207.048 243.784 207.048 243.784L198.544 243.219C198.544 243.219 200.245 231.849 199.704 230.038C199.162 228.227 170.772 202.285 169.767 200.756C168.762 199.228 170.171 197.555 170.171 197.555Z"/><path fill="#223C6C" d="M179.502 192.556L183.754 190.196L189.225 195.483C189.225 195.483 189.225 196.028 188.607 197.183C187.988 198.338 214.677 221.828 215.373 224.661C216.068 227.493 217.228 244.962 217.228 244.962L207.951 243.923C207.951 243.923 210.116 227.043 209.575 225.227C209.033 223.411 181.185 197.016 180.18 195.483C179.175 193.951 179.502 192.556 179.502 192.556Z"/><path fill="#223C6C" d="M187.781 187.407L191.968 185.043L198.954 190.067C198.954 190.067 198.954 190.684 198.251 191.994C197.549 193.303 227.962 220.566 228.752 223.776C229.543 226.986 229.956 245.845 229.956 245.845L220.498 245.373C220.498 245.373 222.691 225.834 222.076 223.776C221.461 221.718 189.818 191.805 188.676 190.067C187.534 188.33 187.781 187.407 187.781 187.407Z"/><path fill="#272323" d="M197.269 241.576H238.261V253.059H197.269V241.576Z"/><path fill="#256AEA" d="M309.259 188.324L281.986 168.432L276.02 170.694L263.546 162.21L259.052 163.152L248.669 155.893L241.386 159.193L237.59 157.967V250.262H261.764V220.188L278.034 222.828V215.003L291.128 209.912L291.593 201.616L305.462 198.034L306.237 200.202L309.259 188.324Z"/><g filter="url(#filter2_d_997_2447)"><path fill="#225ED0" d="M305.775 189.923L280.725 171.618L281.035 182.397L305.775 196.613V189.923Z"/></g><g filter="url(#filter3_d_997_2447)"><path fill="#225ED0" d="M291.508 201.42L263.175 190.158L263.253 201.227L291.039 211.102L291.508 201.42Z"/></g><g filter="url(#filter4_d_997_2447)"><path fill="#1F59C5" d="M278.448 215.064L248.307 207.568V217.082L278.448 221.407V215.064Z"/></g><path fill="#256AEA" d="M280.434 171.646L263.443 177.328V186.515L280.59 182.632L280.434 171.646Z"/><path fill="#256AEA" d="M263.041 191.226L248.305 194.53V203.593L263.041 200.666V191.226Z"/><g filter="url(#filter5_d_997_2447)"><path fill="#1F59C5" d="M263.041 177.332L254.468 172.676V182.308L263.041 186.368V177.332Z"/></g><path fill="#256AEA" d="M253.666 172.676L244.825 176.06V184.896L253.666 182.264V172.676Z"/><g filter="url(#filter6_d_997_2447)"><path fill="#2262D7" d="M244.424 176.069L238.128 172.971V182.924L244.424 184.896V176.069Z"/></g><path fill="#256AEA" d="M247.503 194.82L238.394 191.815V201.017L247.503 203.74V194.82Z"/><path fill="#256AEA" d="M247.907 207.568L240.271 208.616V217.284L247.907 216.903V207.568Z"/><path fill="#256AEA" d="M239.868 208.825L237.993 208.451V217.432L239.868 217.244V208.825Z"/><g filter="url(#filter7_d_997_2447)"><path fill="#1F5AC5" d="M247.894 168.862L237.756 163.972L237.367 169.63L244.363 172.72L247.693 171.784L247.894 168.862Z"/></g><path fill="#256AEA" d="M262.774 163.515L247.837 169.146V172.373L254.669 169.915L263.176 175.12L262.774 163.515Z"/><g filter="url(#filter8_d_997_2447)"><path fill="#1F5AC5" d="M273.626 170.317L262.641 163.79L263.177 174.227L273.626 170.578V170.317Z"/></g><path fill="#256AEA" d="M247.772 158.396L240.539 161.193V162.965L247.772 166.787V158.396Z"/><g filter="url(#filter9_d_997_2447)"><path fill="#1F59C5" d="M240.135 161.112L238.125 160.219V162.006L238.821 162.317L240.135 162.966V161.112Z"/></g><g filter="url(#filter10_d_997_2447)"><path fill="#1F59C5" d="M257.015 163.034L247.771 157.953L248.173 166.029L257.015 163.034Z"/></g><path fill="#202D6B" d="M259.827 162.579L248.231 155L240.915 158.462L237.59 157.472V160.219L240.059 161.082L247.841 157.994L257.181 163.515L259.827 162.579Z"/><path fill="#202D6B" d="M276.172 170.304L262.784 161.318L247.573 167.053L237.591 161.936L237.457 164.545L247.573 169.348L262.784 164.09L273.874 171.068L276.172 170.304Z"/><path fill="#202D6B" d="M308.857 188.399L281.494 168.113L263.277 174.875L254.673 169.803L244.518 173.56L237.523 170.588V172.785L244.518 175.438L253.975 172.245L263.277 176.659L280.796 171.024L306.222 189.901L308.857 188.399Z"/><path fill="#0F095B" d="M305.509 197.205L280.622 183.154L263.146 187.463L253.784 183.154L244.11 186.152L237.323 183.716V190.835L247.699 193.833L263.146 190.273L291.622 201.42L305.509 197.205Z"/><path fill="#0F095B" d="M291.309 211.031L263.278 201.42L247.741 204.56L237.59 201.706V207.795L239.542 208.271L247.897 207.034L278.66 214.742L291.309 211.031Z"/><g filter="url(#filter11_d_997_2447)"><path fill="#1F59C5" d="M261.702 220.094L248.177 218.021L240.14 218.492L237.976 218.963L237.589 245.256H261.702V220.094Z"/></g><path fill="#223C6C" d="M305.681 197.415L301.506 195.054L296.094 199.681C296.094 199.681 297.039 201.17 297.658 202.326C298.276 203.481 270.676 226.124 269.98 228.957C269.284 231.79 268.803 243.784 268.803 243.784L277.308 243.218C277.308 243.218 275.607 231.813 276.148 229.996C276.689 228.18 305.08 202.159 306.085 200.626C307.09 199.093 305.681 197.415 305.681 197.415Z"/><path fill="#223C6C" d="M296.347 192.556L292.08 190.196L286.589 195.483C286.589 195.483 286.589 196.028 287.209 197.183C287.83 198.338 261.047 221.828 260.349 224.661C259.65 227.493 258.487 244.962 258.487 244.962L267.796 243.923C267.796 243.923 265.624 227.043 266.167 225.227C266.71 223.411 294.657 197.016 295.666 195.483C296.674 193.951 296.347 192.556 296.347 192.556Z"/><path fill="#223C6C" d="M288.07 187.265L283.884 184.896L276.898 189.932C276.898 189.932 276.898 190.551 277.6 191.863C278.303 193.176 247.89 220.505 247.099 223.723C246.309 226.941 245.895 245.845 245.895 245.845L255.354 245.371C255.354 245.371 253.16 225.786 253.775 223.723C254.39 221.659 286.033 191.674 287.175 189.932C288.317 188.191 288.07 187.265 288.07 187.265Z"/><path fill="#223C6C" d="M197.269 241.576H278.315V253.059H197.269V241.576Z"/><ellipse cx="220.912" cy="197.666" fill="#3D1B11" rx="2.746" ry="3.55"/><ellipse cx="253.733" cy="197.399" fill="#3D1B11" rx="2.746" ry="3.55"/><rect width="165.946" height="37.715" x="107.085" y="243.002" fill="#4C2F2F" rx="7"/><g filter="url(#filter12_d_997_2447)"><rect width="196.118" height="20.115" x="92" y="228.754" fill="#4C2F2F" rx="7"/></g><path fill="#1B2A74" d="M285.34 259.32C287.107 250.065 290.918 223.031 291.061 221.892H292.371L315.778 214.378L349.629 221.892L361.215 256.902L357.836 279.081H286.654L285.34 259.32Z"/><ellipse cx="323.863" cy="200.204" fill="#FFD8BD" rx="41.857" ry="37.688"/><g filter="url(#filter13_d_997_2447)"><path fill="#B2B1B1" d="M284.546 202.205L298.996 228.681L321.745 234.039L345.689 230.099L363.781 205.041C364.777 210.478 366.683 221.621 366.349 222.692C366.014 223.764 362.388 231.229 360.617 234.827L362.408 242.313L351.839 239.319L345.689 265.007L339.539 259.018L335.12 265.874L334.643 273.911L325.627 264.298L322.701 249.72H318.939C319.715 253.896 321.184 262.375 320.85 262.879C320.515 263.384 317.048 266.399 315.356 267.844C312.824 267.456 308.007 266.738 307.458 266.727C307.441 266.742 307.426 266.747 307.415 266.741C307.396 266.731 307.412 266.727 307.458 266.727C307.887 266.368 309.982 259.942 309.982 259.412C309.982 258.971 307.554 254.5 306.34 252.32L303.892 245.701L298.996 254.684L295.95 262.879L294.338 270.129C293.383 268.316 291.436 264.329 291.293 262.879C291.15 261.43 290.318 252.872 289.92 248.774L296.548 242.313L289.084 236.876C288.447 238.609 286.91 242.644 285.859 244.913C284.809 247.183 284.546 251.322 284.546 253.108C283.272 250.797 280.784 245.922 281.023 244.913C281.262 243.905 281.56 240.763 281.68 239.319L283.65 225.214L282.277 213.946L284.546 202.205Z"/></g><g filter="url(#filter14_d_997_2447)"><path fill="#B2B1B1" d="M341.298 210.378C339.258 215.132 343.963 222.998 352.894 228.755C361.824 234.512 364.908 239.307 366.822 236.878C357.542 230.895 374.436 218.571 365.505 212.814C356.575 207.058 343.337 205.625 341.298 210.378Z"/></g><g filter="url(#filter15_d_997_2447)"><path fill="#D9D9D9" d="M342.496 208.915C338.658 213.079 341.344 222.584 349.446 231.314C357.549 240.044 359.814 247.011 362.751 245.165C354.331 236.093 371.473 226.868 363.371 218.138C355.268 209.408 346.334 204.751 342.496 208.915Z"/></g><g filter="url(#filter16_d_997_2447)"><path fill="#D9D9D9" d="M289.54 187.674L309.354 171.104L320.376 169.8L350.451 174.179L360.993 190.561L365.191 213.835L369.222 194.534L360.378 172.152L342.018 159.014H329.182H309.834L292.519 168.273L283.843 181.36L278.171 197.184L284.506 213.835L286.592 203.705L289.54 187.674Z"/></g><g filter="url(#filter17_d_997_2447)"><path fill="#A6A0A0" d="M306.576 207.378C307.878 212.909 301.985 220.165 292.207 224.186C282.429 228.208 277.879 233.387 276.345 230.356C286.506 226.177 276.929 209.873 286.707 205.851C296.485 201.83 305.273 201.847 306.576 207.378Z"/></g><g filter="url(#filter18_d_997_2447)"><path fill="#D9D9D9" d="M305.222 212.858C309.06 217.022 306.374 226.526 298.271 235.256C290.169 243.986 287.903 250.953 284.967 249.108C293.387 240.035 276.245 230.811 284.347 222.081C292.45 213.351 301.384 208.693 305.222 212.858Z"/></g><g filter="url(#filter19_d_997_2447)"><path fill="#D9D9D9" d="M323.53 211.043C323.53 216.937 333.134 221.715 344.981 221.715C356.828 221.715 373.985 209.145 374.892 205.588C362.58 205.588 355.166 200.37 343.319 200.37C331.472 200.37 323.53 205.149 323.53 211.043Z"/></g><g filter="url(#filter20_d_997_2447)"><path fill="#D9D9D9" d="M323.53 211.078C323.53 216.953 313.926 221.715 302.079 221.715C290.232 221.715 273.074 209.187 272.168 205.641C284.48 205.641 295.67 200.203 307.517 200.203C319.364 200.203 323.53 205.203 323.53 211.078Z"/></g><ellipse cx="308.438" cy="193.367" fill="#3D1B11" rx="3.419" ry="4.67"/><ellipse cx="338.286" cy="193.367" fill="#3D1B11" rx="3.419" ry="4.67"/><path fill="#D9D9D9" d="M319.527 188.472C319.527 191.295 314.262 190.395 308.8 190.395C303.338 190.395 296.265 187.563 295.847 185.86C301.523 185.86 304.175 183.361 309.637 183.361C315.099 183.361 319.527 185.649 319.527 188.472Z"/><path fill="#D9D9D9" d="M327.531 188.353C327.531 191.11 332.721 190.232 338.106 190.232C343.491 190.232 350.465 187.465 350.877 185.801C345.281 185.801 342.666 183.361 337.281 183.361C331.896 183.361 327.531 185.596 327.531 188.353Z"/><path fill="#FFD13B" d="M368.921 242.68L335.499 289.44L336.921 290.829L373.016 246.123L385.866 244.028L402.363 226.272L394.013 228.821L395.356 231.011L388.773 237.564L379.095 239.854L381.692 232.258L392.547 217.347L395.361 219.813L397.493 209.672L388.351 214.022L390.633 216.153L379.906 230.676L373.151 235.841L373.203 224.872L377.797 216.717L380.184 217.533L380.581 208.573L367.808 229.332L368.921 242.68Z"/><g filter="url(#filter21_d_997_2447)"><path fill="#FFD13B" d="M320.488 163.361L299.85 164.936L300.913 151.207L305.833 155.752L310.977 142.237L318.201 154.175L323.64 134.791L329.378 154.565L335.502 141.299L339.657 154.923L346.696 152.802L346.891 165.284L331.799 163.755L320.488 163.361Z"/></g><path fill="#5E5F82" d="M94.8655 239.977C99.8753 263.611 78.153 264.538 72.6769 263.61C67.2008 262.683 73.6737 257.727 74.2179 254.516C74.762 251.304 71.2056 238.192 76.6817 239.12C82.1578 240.048 92.7353 229.928 94.8655 239.977Z"/><ellipse cx="8.801" cy="5.162" fill="#8D8EB3" rx="8.801" ry="5.162" transform="matrix(-0.79724 -0.603662 -0.603662 0.79724 87.3223 239.357)"/><path fill="#8D8EB3" d="M78.4006 251.393C78.4006 265.415 64.4954 273.344 45.2181 273.344C25.9409 273.344 15.9434 263.894 15.9434 249.873C15.9434 235.851 25.9409 219.658 45.2181 219.658C64.4954 219.658 78.4006 237.372 78.4006 251.393Z"/><path fill="#5E5F82" d="M32.1507 176.526C35.4853 182.5 34.2891 189.175 27.2687 193.094C20.2483 197.012 11.854 195.346 8.51941 189.371C5.18483 183.397 8.64201 169.285 14.0376 166.273C19.4331 163.261 28.8161 170.552 32.1507 176.526Z"/><path fill="#ADADC7" d="M28.1327 178.891C30.2917 182.759 29.5172 187.081 24.9718 189.618C20.4264 192.155 14.9914 191.076 12.8324 187.208C10.6734 183.34 12.9118 174.202 16.4052 172.252C19.8986 170.302 25.9737 175.023 28.1327 178.891Z"/><path fill="#5E5F82" d="M62.5036 176.526C59.169 182.5 60.3652 189.175 67.3856 193.094C74.406 197.012 82.8003 195.346 86.1349 189.371C89.4695 183.397 86.0123 169.285 80.6167 166.273C75.2212 163.261 65.8382 170.552 62.5036 176.526Z"/><ellipse cx="15.964" cy="237.407" fill="#8D8EB3" rx="8.801" ry="5.162" transform="rotate(-24.7625 15.9643 237.407)"/><path fill="#ADADC7" d="M66.5197 178.891C64.3607 182.759 65.1351 187.081 69.6805 189.618C74.226 192.155 79.661 191.076 81.82 187.208C83.979 183.34 81.7406 174.202 78.2472 172.252C74.7538 170.302 68.6787 175.023 66.5197 178.891Z"/><path fill="#000" d="M83.0882 214.211C83.0882 230.722 65.6415 235.537 47.3928 235.537C29.1442 235.537 2.05615 228.305 9.05805 213.001C11.2609 196.701 27.1561 180.187 45.4048 180.187C63.6535 180.187 81.2001 197.911 83.0882 214.211Z"/><path fill="#787897" d="M83.7397 216.57C83.4136 233.806 65.5231 241.349 47.3172 241.005C29.1112 240.66 2.6192 229.753 9.90699 213.91C12.4266 196.936 28.6108 179.997 46.8167 180.342C65.0226 180.686 82.178 199.519 83.7397 216.57Z"/><path fill="#8D8EB3" d="M90.9507 210.51C90.9507 230.069 67.646 239.317 45.7637 239.317C23.8813 239.317 2.17968 227.722 2.17969 209.077C4.16556 194.702 23.8815 170.206 45.7639 170.206C67.6462 170.206 88.6866 191.201 90.9507 210.51Z"/><path fill="#8D8EB3" d="M59.1933 216.179C59.1933 227.705 58.12 237.578 44.2973 237.578C30.4746 237.578 9.13672 227.705 9.13672 216.179C9.13672 204.653 20.3423 195.31 34.165 195.31C47.9877 195.31 59.1933 204.653 59.1933 216.179Z"/><path fill="#8D8EB3" d="M81.8788 216.179C81.8788 227.705 66.0608 236.444 52.2381 236.444C38.4153 236.444 31.8223 227.705 31.8223 216.179C31.8223 204.653 43.0278 195.31 56.8505 195.31C70.6733 195.31 81.8788 204.653 81.8788 216.179Z"/><path fill="#5E5F82" d="M39.5367 209.608C39.5367 218.902 45.1334 228.433 32.2185 228.433C19.3036 228.433 8.83398 220.899 8.83398 211.605C8.83398 202.311 20.358 192.138 30.2838 192.138C40.2096 192.138 39.5367 200.314 39.5367 209.608Z"/><path fill="#5E5F82" d="M54.8807 209.137C54.8807 218.607 49.4174 228.736 62.472 228.736C75.5265 228.736 86.1094 221.058 86.1094 211.588C86.1094 202.118 77.5634 191.685 64.5089 191.685C51.4543 191.685 54.8807 199.667 54.8807 209.137Z"/><ellipse cx="29.93" cy="207.181" fill="#3D1B11" rx="3.1" ry="4.008"/><ellipse cx="63.202" cy="207.181" fill="#3D1B11" rx="3.1" ry="4.008"/><g filter="url(#filter22_d_997_2447)"><path fill="#ADADC7" d="M66.3032 218.61C66.3032 224.286 57.8398 228.887 47.3996 228.887C36.9595 228.887 28.4961 224.286 28.4961 218.61C28.4961 212.935 40.3527 211.432 47.3996 211.347C54.4465 211.262 66.3032 212.935 66.3032 218.61Z"/></g><ellipse cx="47.169" cy="212.176" fill="#43415D" rx="4.915" ry="2.344"/><ellipse cx="32.199" cy="272.134" fill="#717297" rx="9.603" ry="6.352"/><ellipse cx="62.294" cy="272.436" fill="#717297" rx="9.603" ry="6.352"/><path fill="#FAC106" d="M206.856 197.635C193.81 230.011 215.299 192.541 249.809 192.541C279.39 197.964 295 173.041 295 139.459C295 105.877 274.155 68.0527 249.809 60C302.324 127.955 269.852 251.868 206.856 197.635Z"/><g filter="url(#filter23_d_997_2447)"><path fill="#FF0FD3" d="M225.15 194.836C212.148 227.555 223.964 193.341 258.359 193.341C287.841 198.822 313 169.981 313 136.042C313 102.104 288.835 61.1381 264.57 53C316.91 121.676 287.936 249.644 225.15 194.836Z"/></g><g filter="url(#filter24_d_997_2447)"><path fill="#21FFFF" d="M198 200.38C198 246.528 210.729 192.363 260.278 192.363C302.75 199.815 342 150.661 342 104.513C342 58.3646 320.048 14.0659 285.092 3C360.492 96.3829 311.22 207.945 198 200.38Z"/></g><path fill="#EBF83C" d="M106 205.322C106 209.791 98.7244 213 94.5571 213C90.3898 213 81.0415 204.083 81.0415 196.239C77.7247 182.284 83.529 152.312 56 163.789C68.9412 125.477 89.0846 201.193 106 205.322Z"/><path fill="#EEFEEF" d="M99.517 198.424C99.517 207.311 109.624 205.921 102.394 205.921C95.164 205.921 77.0756 192.185 78.9457 172.593C73.1915 144.846 50.7501 66.4218 25 112.064C47.4517 35.8838 70.1705 190.215 99.517 198.424Z"/><path fill="#B75D56" d="M109.957 200.882C109.774 208.007 120.135 207.158 112.744 206.968C105.353 206.778 87.1435 195.29 89.459 179.63C90.0401 157.015 62.8214 93.7626 35.5563 129.682C60.0785 69.1909 80.1249 193.529 109.957 200.882Z"/><path fill="#56B75A" d="M320.18 101.146C319.997 108.271 330.358 107.423 322.967 107.233C315.575 107.043 297.366 95.5545 299.682 79.8946C300.263 57.2792 273.044 -5.97272 245.779 29.9466C270.301 -30.5445 290.348 93.7936 320.18 101.146Z"/><path fill="#ED0047" d="M181.635 176.049C181.635 184.202 169.405 182.928 178.154 182.928C186.903 182.928 210.861 173.945 208.598 155.968C215.561 130.509 256.296 155.064 265 140C232.621 141.356 217.148 168.517 181.635 176.049Z"/><path fill="#4037E9" d="M61.6351 105.887C61.6351 114.23 49.4048 112.926 58.1537 112.926C66.9026 112.926 90.8607 103.735 88.5976 85.3396C95.5608 59.2884 136.296 84.4148 145 69C112.621 70.3873 97.1475 98.18 61.6351 105.887Z"/><path fill="#D346EC" d="M166.718 199.3C166.718 208.332 158.022 206.92 164.242 206.92C170.463 206.92 179.948 208.15 178.339 188.235C190.469 170.045 232.677 168.71 222.404 136C222.404 163.87 191.969 190.955 166.718 199.3Z"/><path fill="#0FC" d="M168.834 88.9065C165.958 100.498 90.6719 96.6199 98.4319 98.5448C106.192 100.47 157.798 101.551 162.13 75.4967C183.052 55.9063 226.862 76.9024 224.459 31.7477C215.587 67.5129 202.988 86.0116 168.834 88.9065Z"/><path fill="#EEFEEF" d="M281.642 88.1912C281.642 97.3509 273.086 95.9187 279.206 95.9187C285.327 95.9187 294.658 97.1663 293.075 76.9708C305.01 58.5241 346.537 57.1702 336.429 24C336.429 52.2624 306.485 79.7294 281.642 88.1912Z"/><defs><filter id="filter0_d_997_2447" width="18.415" height="53.069" x="116.836" y="157.664" color-interpolation-filters="sRGB" filterUnits="userSpaceOnUse"><feFlood flood-opacity="0" result="BackgroundImageFix"/><feColorMatrix in="SourceAlpha" result="hardAlpha" type="matrix" values="0 0 0 0 0 0 0 0 0 0 0 0 0 0 0 0 0 0 127 0"/><feOffset dy="10"/><feGaussianBlur stdDeviation="2"/><feComposite in2="hardAlpha" operator="out"/><feColorMatrix type="matrix" values="0 0 0 0 0 0 0 0 0 0 0 0 0 0 0 0 0 0 0.5 0"/><feBlend in2="BackgroundImageFix" mode="normal" result="effect1_dropShadow_997_2447"/><feBlend in="SourceGraphic" in2="effect1_dropShadow_997_2447" mode="normal" result="shape"/></filter><filter id="filter1_d_997_2447" width="26.065" height="28.066" x="112.938" y="188.581" color-interpolation-filters="sRGB" filterUnits="userSpaceOnUse"><feFlood flood-opacity="0" result="BackgroundImageFix"/><feColorMatrix in="SourceAlpha" result="hardAlpha" type="matrix" values="0 0 0 0 0 0 0 0 0 0 0 0 0 0 0 0 0 0 127 0"/><feOffset dy="6"/><feGaussianBlur stdDeviation="2"/><feComposite in2="hardAlpha" operator="out"/><feColorMatrix type="matrix" values="0 0 0 0 0 0 0 0 0 0 0 0 0 0 0 0 0 0 0.3 0"/><feBlend in2="BackgroundImageFix" mode="normal" result="effect1_dropShadow_997_2447"/><feBlend in="SourceGraphic" in2="effect1_dropShadow_997_2447" mode="normal" result="shape"/></filter><filter id="filter2_d_997_2447" width="33.051" height="32.995" x="276.725" y="171.618" color-interpolation-filters="sRGB" filterUnits="userSpaceOnUse"><feFlood flood-opacity="0" result="BackgroundImageFix"/><feColorMatrix in="SourceAlpha" result="hardAlpha" type="matrix" values="0 0 0 0 0 0 0 0 0 0 0 0 0 0 0 0 0 0 127 0"/><feOffset dy="4"/><feGaussianBlur stdDeviation="2"/><feComposite in2="hardAlpha" operator="out"/><feColorMatrix type="matrix" values="0 0 0 0 0 0 0 0 0 0 0 0 0 0 0 0 0 0 0.3 0"/><feBlend in2="BackgroundImageFix" mode="normal" result="effect1_dropShadow_997_2447"/><feBlend in="SourceGraphic" in2="effect1_dropShadow_997_2447" mode="normal" result="shape"/></filter><filter id="filter3_d_997_2447" width="36.333" height="28.944" x="259.175" y="190.158" color-interpolation-filters="sRGB" filterUnits="userSpaceOnUse"><feFlood flood-opacity="0" result="BackgroundImageFix"/><feColorMatrix in="SourceAlpha" result="hardAlpha" type="matrix" values="0 0 0 0 0 0 0 0 0 0 0 0 0 0 0 0 0 0 127 0"/><feOffset dy="4"/><feGaussianBlur stdDeviation="2"/><feComposite in2="hardAlpha" operator="out"/><feColorMatrix type="matrix" values="0 0 0 0 0 0 0 0 0 0 0 0 0 0 0 0 0 0 0.3 0"/><feBlend in2="BackgroundImageFix" mode="normal" result="effect1_dropShadow_997_2447"/><feBlend in="SourceGraphic" in2="effect1_dropShadow_997_2447" mode="normal" result="shape"/></filter><filter id="filter4_d_997_2447" width="38.142" height="21.839" x="244.307" y="207.568" color-interpolation-filters="sRGB" filterUnits="userSpaceOnUse"><feFlood flood-opacity="0" result="BackgroundImageFix"/><feColorMatrix in="SourceAlpha" result="hardAlpha" type="matrix" values="0 0 0 0 0 0 0 0 0 0 0 0 0 0 0 0 0 0 127 0"/><feOffset dy="4"/><feGaussianBlur stdDeviation="2"/><feComposite in2="hardAlpha" operator="out"/><feColorMatrix type="matrix" values="0 0 0 0 0 0 0 0 0 0 0 0 0 0 0 0 0 0 0.3 0"/><feBlend in2="BackgroundImageFix" mode="normal" result="effect1_dropShadow_997_2447"/><feBlend in="SourceGraphic" in2="effect1_dropShadow_997_2447" mode="normal" result="shape"/></filter><filter id="filter5_d_997_2447" width="16.573" height="21.692" x="250.468" y="172.676" color-interpolation-filters="sRGB" filterUnits="userSpaceOnUse"><feFlood flood-opacity="0" result="BackgroundImageFix"/><feColorMatrix in="SourceAlpha" result="hardAlpha" type="matrix" values="0 0 0 0 0 0 0 0 0 0 0 0 0 0 0 0 0 0 127 0"/><feOffset dy="4"/><feGaussianBlur stdDeviation="2"/><feComposite in2="hardAlpha" operator="out"/><feColorMatrix type="matrix" values="0 0 0 0 0 0 0 0 0 0 0 0 0 0 0 0 0 0 0.3 0"/><feBlend in2="BackgroundImageFix" mode="normal" result="effect1_dropShadow_997_2447"/><feBlend in="SourceGraphic" in2="effect1_dropShadow_997_2447" mode="normal" result="shape"/></filter><filter id="filter6_d_997_2447" width="14.296" height="19.925" x="234.128" y="172.971" color-interpolation-filters="sRGB" filterUnits="userSpaceOnUse"><feFlood flood-opacity="0" result="BackgroundImageFix"/><feColorMatrix in="SourceAlpha" result="hardAlpha" type="matrix" values="0 0 0 0 0 0 0 0 0 0 0 0 0 0 0 0 0 0 127 0"/><feOffset dy="4"/><feGaussianBlur stdDeviation="2"/><feComposite in2="hardAlpha" operator="out"/><feColorMatrix type="matrix" values="0 0 0 0 0 0 0 0 0 0 0 0 0 0 0 0 0 0 0.3 0"/><feBlend in2="BackgroundImageFix" mode="normal" result="effect1_dropShadow_997_2447"/><feBlend in="SourceGraphic" in2="effect1_dropShadow_997_2447" mode="normal" result="shape"/></filter><filter id="filter7_d_997_2447" width="18.528" height="16.747" x="233.366" y="163.973" color-interpolation-filters="sRGB" filterUnits="userSpaceOnUse"><feFlood flood-opacity="0" result="BackgroundImageFix"/><feColorMatrix in="SourceAlpha" result="hardAlpha" type="matrix" values="0 0 0 0 0 0 0 0 0 0 0 0 0 0 0 0 0 0 127 0"/><feOffset dy="4"/><feGaussianBlur stdDeviation="2"/><feComposite in2="hardAlpha" operator="out"/><feColorMatrix type="matrix" values="0 0 0 0 0 0 0 0 0 0 0 0 0 0 0 0 0 0 0.3 0"/><feBlend in2="BackgroundImageFix" mode="normal" result="effect1_dropShadow_997_2447"/><feBlend in="SourceGraphic" in2="effect1_dropShadow_997_2447" mode="normal" result="shape"/></filter><filter id="filter8_d_997_2447" width="18.984" height="18.438" x="258.642" y="163.79" color-interpolation-filters="sRGB" filterUnits="userSpaceOnUse"><feFlood flood-opacity="0" result="BackgroundImageFix"/><feColorMatrix in="SourceAlpha" result="hardAlpha" type="matrix" values="0 0 0 0 0 0 0 0 0 0 0 0 0 0 0 0 0 0 127 0"/><feOffset dy="4"/><feGaussianBlur stdDeviation="2"/><feComposite in2="hardAlpha" operator="out"/><feColorMatrix type="matrix" values="0 0 0 0 0 0 0 0 0 0 0 0 0 0 0 0 0 0 0.3 0"/><feBlend in2="BackgroundImageFix" mode="normal" result="effect1_dropShadow_997_2447"/><feBlend in="SourceGraphic" in2="effect1_dropShadow_997_2447" mode="normal" result="shape"/></filter><filter id="filter9_d_997_2447" width="10.01" height="10.747" x="234.125" y="160.219" color-interpolation-filters="sRGB" filterUnits="userSpaceOnUse"><feFlood flood-opacity="0" result="BackgroundImageFix"/><feColorMatrix in="SourceAlpha" result="hardAlpha" type="matrix" values="0 0 0 0 0 0 0 0 0 0 0 0 0 0 0 0 0 0 127 0"/><feOffset dy="4"/><feGaussianBlur stdDeviation="2"/><feComposite in2="hardAlpha" operator="out"/><feColorMatrix type="matrix" values="0 0 0 0 0 0 0 0 0 0 0 0 0 0 0 0 0 0 0.3 0"/><feBlend in2="BackgroundImageFix" mode="normal" result="effect1_dropShadow_997_2447"/><feBlend in="SourceGraphic" in2="effect1_dropShadow_997_2447" mode="normal" result="shape"/></filter><filter id="filter10_d_997_2447" width="17.243" height="16.076" x="243.771" y="157.953" color-interpolation-filters="sRGB" filterUnits="userSpaceOnUse"><feFlood flood-opacity="0" result="BackgroundImageFix"/><feColorMatrix in="SourceAlpha" result="hardAlpha" type="matrix" values="0 0 0 0 0 0 0 0 0 0 0 0 0 0 0 0 0 0 127 0"/><feOffset dy="4"/><feGaussianBlur stdDeviation="2"/><feComposite in2="hardAlpha" operator="out"/><feColorMatrix type="matrix" values="0 0 0 0 0 0 0 0 0 0 0 0 0 0 0 0 0 0 0.3 0"/><feBlend in2="BackgroundImageFix" mode="normal" result="effect1_dropShadow_997_2447"/><feBlend in="SourceGraphic" in2="effect1_dropShadow_997_2447" mode="normal" result="shape"/></filter><filter id="filter11_d_997_2447" width="32.113" height="35.236" x="233.589" y="218.021" color-interpolation-filters="sRGB" filterUnits="userSpaceOnUse"><feFlood flood-opacity="0" result="BackgroundImageFix"/><feColorMatrix in="SourceAlpha" result="hardAlpha" type="matrix" values="0 0 0 0 0 0 0 0 0 0 0 0 0 0 0 0 0 0 127 0"/><feOffset dy="4"/><feGaussianBlur stdDeviation="2"/><feComposite in2="hardAlpha" operator="out"/><feColorMatrix type="matrix" values="0 0 0 0 0 0 0 0 0 0 0 0 0 0 0 0 0 0 0.3 0"/><feBlend in2="BackgroundImageFix" mode="normal" result="effect1_dropShadow_997_2447"/><feBlend in="SourceGraphic" in2="effect1_dropShadow_997_2447" mode="normal" result="shape"/></filter><filter id="filter12_d_997_2447" width="204.118" height="28.115" x="88" y="228.754" color-interpolation-filters="sRGB" filterUnits="userSpaceOnUse"><feFlood flood-opacity="0" result="BackgroundImageFix"/><feColorMatrix in="SourceAlpha" result="hardAlpha" type="matrix" values="0 0 0 0 0 0 0 0 0 0 0 0 0 0 0 0 0 0 127 0"/><feOffset dy="4"/><feGaussianBlur stdDeviation="2"/><feComposite in2="hardAlpha" operator="out"/><feColorMatrix type="matrix" values="0 0 0 0 0 0 0 0 0 0 0 0 0 0 0 0 0 0 0.25 0"/><feBlend in2="BackgroundImageFix" mode="normal" result="effect1_dropShadow_997_2447"/><feBlend in="SourceGraphic" in2="effect1_dropShadow_997_2447" mode="normal" result="shape"/></filter><filter id="filter13_d_997_2447" width="93.381" height="79.707" x="277.007" y="202.205" color-interpolation-filters="sRGB" filterUnits="userSpaceOnUse"><feFlood flood-opacity="0" result="BackgroundImageFix"/><feColorMatrix in="SourceAlpha" result="hardAlpha" type="matrix" values="0 0 0 0 0 0 0 0 0 0 0 0 0 0 0 0 0 0 127 0"/><feOffset dy="4"/><feGaussianBlur stdDeviation="2"/><feComposite in2="hardAlpha" operator="out"/><feColorMatrix type="matrix" values="0 0 0 0 0 0 0 0 0 0 0 0 0 0 0 0 0 0 0.25 0"/><feBlend in2="BackgroundImageFix" mode="normal" result="effect1_dropShadow_997_2447"/><feBlend in="SourceGraphic" in2="effect1_dropShadow_997_2447" mode="normal" result="shape"/></filter><filter id="filter14_d_997_2447" width="35.378" height="38.001" x="336.826" y="207.523" color-interpolation-filters="sRGB" filterUnits="userSpaceOnUse"><feFlood flood-opacity="0" result="BackgroundImageFix"/><feColorMatrix in="SourceAlpha" result="hardAlpha" type="matrix" values="0 0 0 0 0 0 0 0 0 0 0 0 0 0 0 0 0 0 127 0"/><feOffset dy="4"/><feGaussianBlur stdDeviation="2"/><feComposite in2="hardAlpha" operator="out"/><feColorMatrix type="matrix" values="0 0 0 0 0 0 0 0 0 0 0 0 0 0 0 0 0 0 0.25 0"/><feBlend in2="BackgroundImageFix" mode="normal" result="effect1_dropShadow_997_2447"/><feBlend in="SourceGraphic" in2="effect1_dropShadow_997_2447" mode="normal" result="shape"/></filter><filter id="filter15_d_997_2447" width="32.836" height="46.092" x="336.773" y="207.371" color-interpolation-filters="sRGB" filterUnits="userSpaceOnUse"><feFlood flood-opacity="0" result="BackgroundImageFix"/><feColorMatrix in="SourceAlpha" result="hardAlpha" type="matrix" values="0 0 0 0 0 0 0 0 0 0 0 0 0 0 0 0 0 0 127 0"/><feOffset dy="4"/><feGaussianBlur stdDeviation="2"/><feComposite in2="hardAlpha" operator="out"/><feColorMatrix type="matrix" values="0 0 0 0 0 0 0 0 0 0 0 0 0 0 0 0 0 0 0.25 0"/><feBlend in2="BackgroundImageFix" mode="normal" result="effect1_dropShadow_997_2447"/><feBlend in="SourceGraphic" in2="effect1_dropShadow_997_2447" mode="normal" result="shape"/></filter><filter id="filter16_d_997_2447" width="101.051" height="64.821" x="273.171" y="156.014" color-interpolation-filters="sRGB" filterUnits="userSpaceOnUse"><feFlood flood-opacity="0" result="BackgroundImageFix"/><feColorMatrix in="SourceAlpha" result="hardAlpha" type="matrix" values="0 0 0 0 0 0 0 0 0 0 0 0 0 0 0 0 0 0 127 0"/><feOffset dy="2"/><feGaussianBlur stdDeviation="2.5"/><feComposite in2="hardAlpha" operator="out"/><feColorMatrix type="matrix" values="0 0 0 0 0 0 0 0 0 0 0 0 0 0 0 0 0 0 0.25 0"/><feBlend in2="BackgroundImageFix" mode="normal" result="effect1_dropShadow_997_2447"/><feBlend in="SourceGraphic" in2="effect1_dropShadow_997_2447" mode="normal" result="shape"/></filter><filter id="filter17_d_997_2447" width="38.41" height="36.258" x="272.345" y="203.009" color-interpolation-filters="sRGB" filterUnits="userSpaceOnUse"><feFlood flood-opacity="0" result="BackgroundImageFix"/><feColorMatrix in="SourceAlpha" result="hardAlpha" type="matrix" values="0 0 0 0 0 0 0 0 0 0 0 0 0 0 0 0 0 0 127 0"/><feOffset dy="4"/><feGaussianBlur stdDeviation="2"/><feComposite in2="hardAlpha" operator="out"/><feColorMatrix type="matrix" values="0 0 0 0 0 0 0 0 0 0 0 0 0 0 0 0 0 0 0.25 0"/><feBlend in2="BackgroundImageFix" mode="normal" result="effect1_dropShadow_997_2447"/><feBlend in="SourceGraphic" in2="effect1_dropShadow_997_2447" mode="normal" result="shape"/></filter><filter id="filter18_d_997_2447" width="32.836" height="46.092" x="278.108" y="211.314" color-interpolation-filters="sRGB" filterUnits="userSpaceOnUse"><feFlood flood-opacity="0" result="BackgroundImageFix"/><feColorMatrix in="SourceAlpha" result="hardAlpha" type="matrix" values="0 0 0 0 0 0 0 0 0 0 0 0 0 0 0 0 0 0 127 0"/><feOffset dy="4"/><feGaussianBlur stdDeviation="2"/><feComposite in2="hardAlpha" operator="out"/><feColorMatrix type="matrix" values="0 0 0 0 0 0 0 0 0 0 0 0 0 0 0 0 0 0 0.25 0"/><feBlend in2="BackgroundImageFix" mode="normal" result="effect1_dropShadow_997_2447"/><feBlend in="SourceGraphic" in2="effect1_dropShadow_997_2447" mode="normal" result="shape"/></filter><filter id="filter19_d_997_2447" width="59.362" height="29.345" x="319.529" y="198.37" color-interpolation-filters="sRGB" filterUnits="userSpaceOnUse"><feFlood flood-opacity="0" result="BackgroundImageFix"/><feColorMatrix in="SourceAlpha" result="hardAlpha" type="matrix" values="0 0 0 0 0 0 0 0 0 0 0 0 0 0 0 0 0 0 127 0"/><feOffset dy="2"/><feGaussianBlur stdDeviation="2"/><feComposite in2="hardAlpha" operator="out"/><feColorMatrix type="matrix" values="0 0 0 0 0 0 0 0 0 0 0 0 0 0 0 0 0 0 0.25 0"/><feBlend in2="BackgroundImageFix" mode="normal" result="effect1_dropShadow_997_2447"/><feBlend in="SourceGraphic" in2="effect1_dropShadow_997_2447" mode="normal" result="shape"/></filter><filter id="filter20_d_997_2447" width="59.362" height="29.512" x="268.168" y="198.203" color-interpolation-filters="sRGB" filterUnits="userSpaceOnUse"><feFlood flood-opacity="0" result="BackgroundImageFix"/><feColorMatrix in="SourceAlpha" result="hardAlpha" type="matrix" values="0 0 0 0 0 0 0 0 0 0 0 0 0 0 0 0 0 0 127 0"/><feOffset dy="2"/><feGaussianBlur stdDeviation="2"/><feComposite in2="hardAlpha" operator="out"/><feColorMatrix type="matrix" values="0 0 0 0 0 0 0 0 0 0 0 0 0 0 0 0 0 0 0.25 0"/><feBlend in2="BackgroundImageFix" mode="normal" result="effect1_dropShadow_997_2447"/><feBlend in="SourceGraphic" in2="effect1_dropShadow_997_2447" mode="normal" result="shape"/></filter><filter id="filter21_d_997_2447" width="55.04" height="38.493" x="295.851" y="132.791" color-interpolation-filters="sRGB" filterUnits="userSpaceOnUse"><feFlood flood-opacity="0" result="BackgroundImageFix"/><feColorMatrix in="SourceAlpha" result="hardAlpha" type="matrix" values="0 0 0 0 0 0 0 0 0 0 0 0 0 0 0 0 0 0 127 0"/><feOffset dy="2"/><feGaussianBlur stdDeviation="2"/><feComposite in2="hardAlpha" operator="out"/><feColorMatrix type="matrix" values="0 0 0 0 0 0 0 0 0 0 0 0 0 0 0 0 0 0 0.25 0"/><feBlend in2="BackgroundImageFix" mode="normal" result="effect1_dropShadow_997_2447"/><feBlend in="SourceGraphic" in2="effect1_dropShadow_997_2447" mode="normal" result="shape"/></filter><filter id="filter22_d_997_2447" width="45.807" height="25.543" x="24.496" y="211.344" color-interpolation-filters="sRGB" filterUnits="userSpaceOnUse"><feFlood flood-opacity="0" result="BackgroundImageFix"/><feColorMatrix in="SourceAlpha" result="hardAlpha" type="matrix" values="0 0 0 0 0 0 0 0 0 0 0 0 0 0 0 0 0 0 127 0"/><feOffset dy="4"/><feGaussianBlur stdDeviation="2"/><feComposite in2="hardAlpha" operator="out"/><feColorMatrix type="matrix" values="0 0 0 0 0 0 0 0 0 0 0 0 0 0 0 0 0 0 0.25 0"/><feBlend in2="BackgroundImageFix" mode="normal" result="effect1_dropShadow_997_2447"/><feBlend in="SourceGraphic" in2="effect1_dropShadow_997_2447" mode="normal" result="shape"/></filter><filter id="filter23_d_997_2447" width="98.896" height="161.896" x="214.104" y="52.017" color-interpolation-filters="sRGB" filterUnits="userSpaceOnUse"><feFlood flood-opacity="0" result="BackgroundImageFix"/><feColorMatrix in="SourceAlpha" result="hardAlpha" type="matrix" values="0 0 0 0 0 0 0 0 0 0 0 0 0 0 0 0 0 0 127 0"/><feOffset dx="-2.948" dy="1.965"/><feGaussianBlur stdDeviation="1.474"/><feComposite in2="hardAlpha" operator="out"/><feColorMatrix type="matrix" values="0 0 0 0 0 0 0 0 0 0 0 0 0 0 0 0 0 0 0.75 0"/><feBlend in2="BackgroundImageFix" mode="normal" result="effect1_dropShadow_997_2447"/><feBlend in="SourceGraphic" in2="effect1_dropShadow_997_2447" mode="normal" result="shape"/></filter><filter id="filter24_d_997_2447" width="149.896" height="221.896" x="193.086" y=".248" color-interpolation-filters="sRGB" filterUnits="userSpaceOnUse"><feFlood flood-opacity="0" result="BackgroundImageFix"/><feColorMatrix in="SourceAlpha" result="hardAlpha" type="matrix" values="0 0 0 0 0 0 0 0 0 0 0 0 0 0 0 0 0 0 127 0"/><feOffset dx="-1.965" dy=".197"/><feGaussianBlur stdDeviation="1.474"/><feComposite in2="hardAlpha" operator="out"/><feColorMatrix type="matrix" values="0 0 0 0 0 0 0 0 0 0 0 0 0 0 0 0 0 0 0.75 0"/><feBlend in2="BackgroundImageFix" mode="normal" result="effect1_dropShadow_997_2447"/><feBlend in="SourceGraphic" in2="effect1_dropShadow_997_2447" mode="normal" result="shape"/></filter></defs></svg>