<svg xmlns="http://www.w3.org/2000/svg" width="490" height="345" fill="none" viewBox="108 39 277 269"><mask id="mask0_997_2436" width="277" height="269" x="108" y="39" maskUnits="userSpaceOnUse" style="mask-type:alpha"><ellipse cx="246.5" cy="173.5" fill="#242039" rx="138.5" ry="134.5"/></mask><g mask="url(#mask0_997_2436)"><g filter="url(#filter0_i_997_2436)"><ellipse cx="246.5" cy="173.5" fill="#242039" rx="138.5" ry="134.5"/></g><path fill="#665F84" d="M203 210.69L176 307.5H223L231.544 232.207H271L309.5 219L301 210.69L261.5 215L247.5 205L203 210.69Z"/><g filter="url(#filter1_d_997_2436)"><path fill="#161332" d="M212.5 308C210.5 311.5 195 306.5 169 286.5C118.923 262.562 77.4999 159.5 111 121C183.5 5.99998 221 46.5001 172 121C106 312 248 302.5 212.5 308Z"/></g><g filter="url(#filter2_d_997_2436)"><path fill="#161332" d="M248.54 304.15C248.54 307.15 274.462 307.588 324.539 283.65C374.617 259.712 398.89 172.902 374.539 118.15C332 22.5 248.54 8.00001 321.539 118.15C402.047 307.438 231.54 289.65 248.54 304.15Z"/></g></g><g filter="url(#filter3_d_997_2436)"><path fill="#5D4C6F" d="M199.504 120C182.165 78.8636 91.831 56.3255 74.8951 81.0795C67.0206 92.5892 21.0086 86.5804 53.4513 90.8588C99.2375 96.897 65.4985 79.9746 124.004 65C180.735 50.4796 204.013 130.696 199.504 120Z"/></g><g filter="url(#filter4_d_997_2436)"><path fill="#5A4F89" d="M295.547 165.986C312.885 207.122 399.565 248.254 416.501 223.5C424.376 211.99 544.001 267 448.001 233.5C439.503 230.534 429.552 206.011 371.047 220.985C314.316 235.506 291.038 155.289 295.547 165.986Z"/></g><g filter="url(#filter5_d_997_2436)"><path fill="#4C3D5C" d="M392.051 275.053C451.573 343.676 371.158 253.175 362.597 273.447C358.617 282.872 358.966 235.577 341.121 228.624C277.975 204.021 355.549 230.81 346.637 261.992C334.73 303.654 377.416 258.181 392.051 275.053Z"/></g><g filter="url(#filter6_d_997_2436)"><path fill="#4C3D5C" d="M336.887 82.6744C253.986 119.814 365.056 71.6417 364.273 93.6331C363.909 103.858 401.44 53.1313 420.5 54.9999C522.5 65 397.426 59.0265 382 87.5C361.36 125.598 357.27 73.543 336.887 82.6744Z"/></g><g filter="url(#filter7_d_997_2436)"><path fill="#5A4F89" d="M161.897 180.949C241.504 137.191 134.719 194.235 133.711 172.253C133.242 162.032 99.761 208.544 80.0005 214C-53.9995 251 101.5 208.5 116.541 179.808C136.659 141.431 142.325 191.707 161.897 180.949Z"/></g><g filter="url(#filter8_d_997_2436)"><path fill="#33104B" d="M165.874 109.096C192.292 97.715 128.179 138.091 107.073 123.086C98.5944 117.058 61.9509 110.429 74.7451 96.188C81.6132 88.5435 103.879 123.713 113.81 123.436C157.373 122.221 151.942 115.097 165.874 109.096Z"/></g><path fill="#33104B" d="M364.296 104.267C312.501 74.069 296.06 95.1775 387.471 101.247C412.925 102.938 396.824 158.84 402.664 151.899C410.1 143.061 406.656 114.576 400.455 112.728C373.253 104.624 372.831 109.243 364.296 104.267Z"/><g filter="url(#filter9_d_997_2436)"><path fill="#4C3D5C" d="M120.5 217.5C198.303 178.898 112 215 72.0007 285.5C68.2997 292.023 13.372 319.042 12.5003 288.5C12.0324 272.105 35.5006 287.5 71.008 273.137C79.5287 269.69 109.164 223.124 120.5 217.5Z"/></g><g filter="url(#filter10_d_997_2436)"><path fill="#231141" d="M311.773 241.878C298.509 228.072 311.763 291.902 353.468 293.574C370.223 294.246 423.186 322.181 421.268 291.092C420.238 274.402 356.879 297.562 344.601 287.319C290.742 242.385 316.597 246.899 311.773 241.878Z"/></g><g filter="url(#filter11_d_997_2436)"><path fill="#5A4F89" d="M174.76 142.217C153.509 115.189 149.761 104.27 126.5 115.189C113.904 121.102 93.3493 153.401 64.1642 137.557C34.9791 121.713 56.7157 147.338 77.3743 145.945C114.24 143.46 122.846 117.649 132.365 115.189C174.12 104.399 184.138 154.143 174.76 142.217Z"/></g><g filter="url(#filter12_d_997_2436)"><path fill="#231141" d="M176.004 182C222.504 144.5 123.094 255.122 100.564 267.48C88.365 274.173 69.8797 307.699 39.757 293.72C9.63439 279.74 32.9376 303.949 53.4679 301.261C90.1045 296.465 96.1638 277.087 106.418 267.112C137.332 237.042 172.523 184.807 176.004 182Z"/></g><g filter="url(#filter13_d_997_2436)"><path fill="#4E437E" d="M164.026 220.563C142.101 233.222 151.558 234.023 135.864 254.37C127.366 265.388 131.793 285 97.7929 296C63.7929 307 110.057 313.452 127.793 302.767C159.442 283.699 134.861 259.302 141.081 251.688C173.504 212 200.504 199.5 164.026 220.563Z"/></g><path fill="#5A4F89" d="M338.239 116.075C341.239 108.227 362.739 107.727 375.676 116.075C387.367 123.621 382.842 195.273 411.171 161.386C439.501 127.5 461.501 130 416.171 171.886C389.034 196.962 378.529 126.653 369.671 122.386C339.24 107.727 337.053 119.178 338.239 116.075Z"/><g filter="url(#filter14_d_997_2436)"><path fill="#BAB2DA" d="M171.154 207.152C169.386 204.881 156.789 207.447 133.715 230.018C121.221 242.239 101.377 262.202 43.9245 252.126C-13.5279 242.05 -14.5057 264.494 88.1778 286.715C133.716 296.569 133.052 237.293 140.676 227.557C151.104 214.24 175.661 212.941 171.154 207.152Z"/></g><g filter="url(#filter15_d_997_2436)"><path fill="#BAB2DA" d="M314.001 229C315.301 231.926 324.533 255.187 332.801 271.5C337.278 280.333 300.141 298.506 332.801 303.565C365.461 308.624 344.64 320.782 285.5 314C259.273 310.993 327.868 274.726 326.001 268.5C323.001 258.5 306.001 211 314.001 229Z"/></g><g filter="url(#filter16_d_997_2436)"><path fill="#BAB2DA" d="M54.2895 119.544C53.7105 101.048 105.028 154.296 197.055 100.825C200.959 98.5568 88.8149 168.002 112.922 136.217C119.129 128.033 54.4986 126.223 54.2895 119.544Z"/></g><g filter="url(#filter17_d_997_2436)"><path fill="#BAB2DA" d="M66.2628 303.343C48.955 289.365 107.875 313.798 139.874 267.798C160.394 227.81 158.895 234.31 144.375 266.298C143.035 269.249 100.634 331.798 109.894 304.667C112.326 297.539 74.8745 310.297 66.2628 303.343Z"/></g><g filter="url(#filter18_d_997_2436)"><path fill="#BAB2DA" d="M422.525 303.343C439.833 289.365 380.913 313.798 348.914 267.798C328.394 227.81 329.894 234.31 344.413 266.298C344.413 301 392.965 330.473 383.706 303.343C381.273 296.215 413.914 310.297 422.525 303.343Z"/></g><g filter="url(#filter19_d_997_2436)"><path fill="#BAB2DA" d="M432.312 148.003C447.689 131.926 382.676 173.566 345.052 132.039C312.414 83.5394 316.464 88.6813 341.494 136.038C357.994 169.538 395.277 178.381 381.316 159.121C377.994 154.538 424.662 156.003 432.312 148.003Z"/></g><g filter="url(#filter20_d_997_2436)"><path fill="#C6C9E2" d="M261.586 111.543C261.745 111.076 262.411 111.096 262.542 111.571L265.911 123.833C265.954 123.992 266.074 124.119 266.23 124.173L277.912 128.205C278.326 128.348 278.37 128.915 277.983 129.12L266.173 135.382C266.05 135.447 265.96 135.56 265.924 135.695L262.543 148.378C262.415 148.858 261.74 148.878 261.585 148.405L257.384 135.659C257.347 135.546 257.271 135.45 257.169 135.388L246.856 129.103C246.504 128.888 246.549 128.363 246.932 128.211L257.112 124.172C257.248 124.118 257.354 124.007 257.401 123.868L261.586 111.543Z"/></g><g filter="url(#filter21_d_997_2436)"><path fill="#C6C9E2" d="M250.218 157.5C250.379 157.038 251.038 157.058 251.171 157.529L253.249 164.903C253.293 165.062 253.414 165.188 253.57 165.241L260.882 167.701C261.3 167.842 261.344 168.416 260.952 168.619L253.515 172.464C253.391 172.528 253.299 172.641 253.262 172.776L251.172 180.421C251.042 180.897 250.374 180.917 250.216 180.449L247.61 172.74C247.572 172.627 247.495 172.531 247.392 172.47L240.884 168.603C240.525 168.39 240.57 167.857 240.959 167.706L247.335 165.24C247.472 165.187 247.579 165.077 247.627 164.938L250.218 157.5Z"/></g><g filter="url(#filter22_d_997_2436)"><path fill="#C6C9E2" d="M236.311 139.546C236.469 139.079 237.136 139.099 237.266 139.574L238.407 143.733C238.45 143.892 238.57 144.019 238.726 144.073L242.914 145.521C243.327 145.664 243.371 146.231 242.986 146.436L238.669 148.728C238.546 148.794 238.456 148.907 238.42 149.041L237.267 153.375C237.139 153.855 236.465 153.875 236.309 153.402L234.863 149.005C234.826 148.893 234.75 148.797 234.648 148.735L230.854 146.418C230.503 146.204 230.547 145.679 230.93 145.527L234.591 144.072C234.727 144.018 234.832 143.907 234.879 143.768L236.311 139.546Z"/></g><path fill="#4F4163" d="M228 217L267.5 214L251.5 218.5H242.433L228 217Z"/><path fill="#4F4163" d="M218.5 232H230L223 291V259.5L218.5 232Z"/><path fill="#4F4163" d="M276.5 230L308.5 219L305 215.5L290 221L276.5 230Z"/><path fill="#342844" d="M245.5 216.328L261 215.5L256.919 211.438L245.5 213L245.5 216.328Z"/><path fill="#342844" d="M291.164 220.472L304.488 216.031L299.422 213.616L290.054 217.141L291.164 220.472Z"/><defs><filter id="filter0_i_997_2436" width="277" height="269" x="108" y="39" color-interpolation-filters="sRGB" filterUnits="userSpaceOnUse"><feFlood flood-opacity="0" result="BackgroundImageFix"/><feBlend in="SourceGraphic" in2="BackgroundImageFix" mode="normal" result="shape"/><feColorMatrix in="SourceAlpha" result="hardAlpha" type="matrix" values="0 0 0 0 0 0 0 0 0 0 0 0 0 0 0 0 0 0 127 0"/><feMorphology in="SourceAlpha" operator="erode" radius="4" result="effect1_innerShadow_997_2436"/><feOffset/><feGaussianBlur stdDeviation="8"/><feComposite in2="hardAlpha" k2="-1" k3="1" operator="arithmetic"/><feColorMatrix type="matrix" values="0 0 0 0 0 0 0 0 0 0 0 0 0 0 0 0 0 0 0.25 0"/><feBlend in2="shape" mode="normal" result="effect1_innerShadow_997_2436"/></filter><filter id="filter1_d_997_2436" width="127.405" height="267.886" x="94.887" y="49.144" color-interpolation-filters="sRGB" filterUnits="userSpaceOnUse"><feFlood flood-opacity="0" result="BackgroundImageFix"/><feColorMatrix in="SourceAlpha" result="hardAlpha" type="matrix" values="0 0 0 0 0 0 0 0 0 0 0 0 0 0 0 0 0 0 127 0"/><feOffset dy="4"/><feGaussianBlur stdDeviation="2"/><feComposite in2="hardAlpha" operator="out"/><feColorMatrix type="matrix" values="0 0 0 0 0 0 0 0 0 0 0 0 0 0 0 0 0 0 0.25 0"/><feBlend in2="BackgroundImageFix" mode="normal" result="effect1_dropShadow_997_2436"/><feBlend in="SourceGraphic" in2="effect1_dropShadow_997_2436" mode="normal" result="shape"/></filter><filter id="filter2_d_997_2436" width="144.739" height="272.711" x="243.34" y="40.88" color-interpolation-filters="sRGB" filterUnits="userSpaceOnUse"><feFlood flood-opacity="0" result="BackgroundImageFix"/><feColorMatrix in="SourceAlpha" result="hardAlpha" type="matrix" values="0 0 0 0 0 0 0 0 0 0 0 0 0 0 0 0 0 0 127 0"/><feOffset dy="4"/><feGaussianBlur stdDeviation="2"/><feComposite in2="hardAlpha" operator="out"/><feColorMatrix type="matrix" values="0 0 0 0 0 0 0 0 0 0 0 0 0 0 0 0 0 0 0.25 0"/><feBlend in2="BackgroundImageFix" mode="normal" result="effect1_dropShadow_997_2436"/><feBlend in="SourceGraphic" in2="effect1_dropShadow_997_2436" mode="normal" result="shape"/></filter><filter id="filter3_d_997_2436" width="166.046" height="65.749" x="38.004" y="63.236" color-interpolation-filters="sRGB" filterUnits="userSpaceOnUse"><feFlood flood-opacity="0" result="BackgroundImageFix"/><feColorMatrix in="SourceAlpha" result="hardAlpha" type="matrix" values="0 0 0 0 0 0 0 0 0 0 0 0 0 0 0 0 0 0 127 0"/><feOffset dy="4"/><feGaussianBlur stdDeviation="2"/><feComposite in2="hardAlpha" operator="out"/><feColorMatrix type="matrix" values="0 0 0 0 0 0 0 0 0 0 0 0 0 0 0 0 0 0 0.25 0"/><feBlend in2="BackgroundImageFix" mode="normal" result="effect1_dropShadow_997_2436"/><feBlend in="SourceGraphic" in2="effect1_dropShadow_997_2436" mode="normal" result="shape"/></filter><filter id="filter4_d_997_2436" width="198.116" height="87.468" x="291.001" y="165" color-interpolation-filters="sRGB" filterUnits="userSpaceOnUse"><feFlood flood-opacity="0" result="BackgroundImageFix"/><feColorMatrix in="SourceAlpha" result="hardAlpha" type="matrix" values="0 0 0 0 0 0 0 0 0 0 0 0 0 0 0 0 0 0 127 0"/><feOffset dy="4"/><feGaussianBlur stdDeviation="2"/><feComposite in2="hardAlpha" operator="out"/><feColorMatrix type="matrix" values="0 0 0 0 0 0 0 0 0 0 0 0 0 0 0 0 0 0 0.25 0"/><feBlend in2="BackgroundImageFix" mode="normal" result="effect1_dropShadow_997_2436"/><feBlend in="SourceGraphic" in2="effect1_dropShadow_997_2436" mode="normal" result="shape"/></filter><filter id="filter5_d_997_2436" width="105.688" height="90.191" x="312.143" y="219.009" color-interpolation-filters="sRGB" filterUnits="userSpaceOnUse"><feFlood flood-opacity="0" result="BackgroundImageFix"/><feColorMatrix in="SourceAlpha" result="hardAlpha" type="matrix" values="0 0 0 0 0 0 0 0 0 0 0 0 0 0 0 0 0 0 127 0"/><feOffset dy="4"/><feGaussianBlur stdDeviation="2"/><feComposite in2="hardAlpha" operator="out"/><feColorMatrix type="matrix" values="0 0 0 0 0 0 0 0 0 0 0 0 0 0 0 0 0 0 0.25 0"/><feBlend in2="BackgroundImageFix" mode="normal" result="effect1_dropShadow_997_2436"/><feBlend in="SourceGraphic" in2="effect1_dropShadow_997_2436" mode="normal" result="shape"/></filter><filter id="filter6_d_997_2436" width="162.035" height="54.675" x="302.138" y="54.95" color-interpolation-filters="sRGB" filterUnits="userSpaceOnUse"><feFlood flood-opacity="0" result="BackgroundImageFix"/><feColorMatrix in="SourceAlpha" result="hardAlpha" type="matrix" values="0 0 0 0 0 0 0 0 0 0 0 0 0 0 0 0 0 0 127 0"/><feOffset dy="4"/><feGaussianBlur stdDeviation="2"/><feComposite in2="hardAlpha" operator="out"/><feColorMatrix type="matrix" values="0 0 0 0 0 0 0 0 0 0 0 0 0 0 0 0 0 0 0.25 0"/><feBlend in2="BackgroundImageFix" mode="normal" result="effect1_dropShadow_997_2436"/><feBlend in="SourceGraphic" in2="effect1_dropShadow_997_2436" mode="normal" result="shape"/></filter><filter id="filter7_d_997_2436" width="173.414" height="72.507" x="21.952" y="163.923" color-interpolation-filters="sRGB" filterUnits="userSpaceOnUse"><feFlood flood-opacity="0" result="BackgroundImageFix"/><feColorMatrix in="SourceAlpha" result="hardAlpha" type="matrix" values="0 0 0 0 0 0 0 0 0 0 0 0 0 0 0 0 0 0 127 0"/><feOffset dy="4"/><feGaussianBlur stdDeviation="2"/><feComposite in2="hardAlpha" operator="out"/><feColorMatrix type="matrix" values="0 0 0 0 0 0 0 0 0 0 0 0 0 0 0 0 0 0 0.25 0"/><feBlend in2="BackgroundImageFix" mode="normal" result="effect1_dropShadow_997_2436"/><feBlend in="SourceGraphic" in2="effect1_dropShadow_997_2436" mode="normal" result="shape"/></filter><filter id="filter8_d_997_2436" width="108.096" height="39.374" x="68.061" y="95.1" color-interpolation-filters="sRGB" filterUnits="userSpaceOnUse"><feFlood flood-opacity="0" result="BackgroundImageFix"/><feColorMatrix in="SourceAlpha" result="hardAlpha" type="matrix" values="0 0 0 0 0 0 0 0 0 0 0 0 0 0 0 0 0 0 127 0"/><feOffset dy="4"/><feGaussianBlur stdDeviation="2"/><feComposite in2="hardAlpha" operator="out"/><feColorMatrix type="matrix" values="0 0 0 0 0 0 0 0 0 0 0 0 0 0 0 0 0 0 0.25 0"/><feBlend in2="BackgroundImageFix" mode="normal" result="effect1_dropShadow_997_2436"/><feBlend in="SourceGraphic" in2="effect1_dropShadow_997_2436" mode="normal" result="shape"/></filter><filter id="filter9_d_997_2436" width="147.424" height="109.003" x="8.493" y="201.76" color-interpolation-filters="sRGB" filterUnits="userSpaceOnUse"><feFlood flood-opacity="0" result="BackgroundImageFix"/><feColorMatrix in="SourceAlpha" result="hardAlpha" type="matrix" values="0 0 0 0 0 0 0 0 0 0 0 0 0 0 0 0 0 0 127 0"/><feOffset dy="4"/><feGaussianBlur stdDeviation="2"/><feComposite in2="hardAlpha" operator="out"/><feColorMatrix type="matrix" values="0 0 0 0 0 0 0 0 0 0 0 0 0 0 0 0 0 0 0.25 0"/><feBlend in2="BackgroundImageFix" mode="normal" result="effect1_dropShadow_997_2436"/><feBlend in="SourceGraphic" in2="effect1_dropShadow_997_2436" mode="normal" result="shape"/></filter><filter id="filter10_d_997_2436" width="122.491" height="73.823" x="302.827" y="239.924" color-interpolation-filters="sRGB" filterUnits="userSpaceOnUse"><feFlood flood-opacity="0" result="BackgroundImageFix"/><feColorMatrix in="SourceAlpha" result="hardAlpha" type="matrix" values="0 0 0 0 0 0 0 0 0 0 0 0 0 0 0 0 0 0 127 0"/><feOffset dy="4"/><feGaussianBlur stdDeviation="2"/><feComposite in2="hardAlpha" operator="out"/><feColorMatrix type="matrix" values="0 0 0 0 0 0 0 0 0 0 0 0 0 0 0 0 0 0 0.25 0"/><feBlend in2="BackgroundImageFix" mode="normal" result="effect1_dropShadow_997_2436"/><feBlend in="SourceGraphic" in2="effect1_dropShadow_997_2436" mode="normal" result="shape"/></filter><filter id="filter11_d_997_2436" width="136" height="43" x="46.004" y="111" color-interpolation-filters="sRGB" filterUnits="userSpaceOnUse"><feFlood flood-opacity="0" result="BackgroundImageFix"/><feColorMatrix in="SourceAlpha" result="hardAlpha" type="matrix" values="0 0 0 0 0 0 0 0 0 0 0 0 0 0 0 0 0 0 127 0"/><feOffset dy="4"/><feGaussianBlur stdDeviation="2"/><feComposite in2="hardAlpha" operator="out"/><feColorMatrix type="matrix" values="0 0 0 0 0 0 0 0 0 0 0 0 0 0 0 0 0 0 0.25 0"/><feBlend in2="BackgroundImageFix" mode="normal" result="effect1_dropShadow_997_2436"/><feBlend in="SourceGraphic" in2="effect1_dropShadow_997_2436" mode="normal" result="shape"/></filter><filter id="filter12_d_997_2436" width="170.892" height="135.193" x="21.35" y="174.279" color-interpolation-filters="sRGB" filterUnits="userSpaceOnUse"><feFlood flood-opacity="0" result="BackgroundImageFix"/><feColorMatrix in="SourceAlpha" result="hardAlpha" type="matrix" values="0 0 0 0 0 0 0 0 0 0 0 0 0 0 0 0 0 0 127 0"/><feOffset dy="4"/><feGaussianBlur stdDeviation="2"/><feComposite in2="hardAlpha" operator="out"/><feColorMatrix type="matrix" values="0 0 0 0 0 0 0 0 0 0 0 0 0 0 0 0 0 0 0.25 0"/><feBlend in2="BackgroundImageFix" mode="normal" result="effect1_dropShadow_997_2436"/><feBlend in="SourceGraphic" in2="effect1_dropShadow_997_2436" mode="normal" result="shape"/></filter><filter id="filter13_d_997_2436" width="103.864" height="105.788" x="81.637" y="210.443" color-interpolation-filters="sRGB" filterUnits="userSpaceOnUse"><feFlood flood-opacity="0" result="BackgroundImageFix"/><feColorMatrix in="SourceAlpha" result="hardAlpha" type="matrix" values="0 0 0 0 0 0 0 0 0 0 0 0 0 0 0 0 0 0 127 0"/><feOffset dy="4"/><feGaussianBlur stdDeviation="2"/><feComposite in2="hardAlpha" operator="out"/><feColorMatrix type="matrix" values="0 0 0 0 0 0 0 0 0 0 0 0 0 0 0 0 0 0 0.25 0"/><feBlend in2="BackgroundImageFix" mode="normal" result="effect1_dropShadow_997_2436"/><feBlend in="SourceGraphic" in2="effect1_dropShadow_997_2436" mode="normal" result="shape"/></filter><filter id="filter14_d_997_2436" width="174.812" height="89.332" x=".889" y="206.485" color-interpolation-filters="sRGB" filterUnits="userSpaceOnUse"><feFlood flood-opacity="0" result="BackgroundImageFix"/><feColorMatrix in="SourceAlpha" result="hardAlpha" type="matrix" values="0 0 0 0 0 0 0 0 0 0 0 0 0 0 0 0 0 0 127 0"/><feOffset dy="4"/><feGaussianBlur stdDeviation="2"/><feComposite in2="hardAlpha" operator="out"/><feColorMatrix type="matrix" values="0 0 0 0 0 0 0 0 0 0 0 0 0 0 0 0 0 0 0.25 0"/><feBlend in2="BackgroundImageFix" mode="normal" result="effect1_dropShadow_997_2436"/><feBlend in="SourceGraphic" in2="effect1_dropShadow_997_2436" mode="normal" result="shape"/></filter><filter id="filter15_d_997_2436" width="76.706" height="99.041" x="275.517" y="224.967" color-interpolation-filters="sRGB" filterUnits="userSpaceOnUse"><feFlood flood-opacity="0" result="BackgroundImageFix"/><feColorMatrix in="SourceAlpha" result="hardAlpha" type="matrix" values="0 0 0 0 0 0 0 0 0 0 0 0 0 0 0 0 0 0 127 0"/><feOffset dy="4"/><feGaussianBlur stdDeviation="2"/><feComposite in2="hardAlpha" operator="out"/><feColorMatrix type="matrix" values="0 0 0 0 0 0 0 0 0 0 0 0 0 0 0 0 0 0 0.25 0"/><feBlend in2="BackgroundImageFix" mode="normal" result="effect1_dropShadow_997_2436"/><feBlend in="SourceGraphic" in2="effect1_dropShadow_997_2436" mode="normal" result="shape"/></filter><filter id="filter16_d_997_2436" width="150.871" height="51.79" x="50.284" y="100.77" color-interpolation-filters="sRGB" filterUnits="userSpaceOnUse"><feFlood flood-opacity="0" result="BackgroundImageFix"/><feColorMatrix in="SourceAlpha" result="hardAlpha" type="matrix" values="0 0 0 0 0 0 0 0 0 0 0 0 0 0 0 0 0 0 127 0"/><feOffset dy="4"/><feGaussianBlur stdDeviation="2"/><feComposite in2="hardAlpha" operator="out"/><feColorMatrix type="matrix" values="0 0 0 0 0 0 0 0 0 0 0 0 0 0 0 0 0 0 0.25 0"/><feBlend in2="BackgroundImageFix" mode="normal" result="effect1_dropShadow_997_2436"/><feBlend in="SourceGraphic" in2="effect1_dropShadow_997_2436" mode="normal" result="shape"/></filter><filter id="filter17_d_997_2436" width="100.146" height="79.448" x="59.144" y="240.025" color-interpolation-filters="sRGB" filterUnits="userSpaceOnUse"><feFlood flood-opacity="0" result="BackgroundImageFix"/><feColorMatrix in="SourceAlpha" result="hardAlpha" type="matrix" values="0 0 0 0 0 0 0 0 0 0 0 0 0 0 0 0 0 0 127 0"/><feOffset dy="4"/><feGaussianBlur stdDeviation="2"/><feComposite in2="hardAlpha" operator="out"/><feColorMatrix type="matrix" values="0 0 0 0 0 0 0 0 0 0 0 0 0 0 0 0 0 0 0.25 0"/><feBlend in2="BackgroundImageFix" mode="normal" result="effect1_dropShadow_997_2436"/><feBlend in="SourceGraphic" in2="effect1_dropShadow_997_2436" mode="normal" result="shape"/></filter><filter id="filter18_d_997_2436" width="100.146" height="81.927" x="329.499" y="240.025" color-interpolation-filters="sRGB" filterUnits="userSpaceOnUse"><feFlood flood-opacity="0" result="BackgroundImageFix"/><feColorMatrix in="SourceAlpha" result="hardAlpha" type="matrix" values="0 0 0 0 0 0 0 0 0 0 0 0 0 0 0 0 0 0 127 0"/><feOffset dy="4"/><feGaussianBlur stdDeviation="2"/><feComposite in2="hardAlpha" operator="out"/><feColorMatrix type="matrix" values="0 0 0 0 0 0 0 0 0 0 0 0 0 0 0 0 0 0 0.25 0"/><feBlend in2="BackgroundImageFix" mode="normal" result="effect1_dropShadow_997_2436"/><feBlend in="SourceGraphic" in2="effect1_dropShadow_997_2436" mode="normal" result="shape"/></filter><filter id="filter19_d_997_2436" width="120.976" height="79.153" x="317.647" y="98.011" color-interpolation-filters="sRGB" filterUnits="userSpaceOnUse"><feFlood flood-opacity="0" result="BackgroundImageFix"/><feColorMatrix in="SourceAlpha" result="hardAlpha" type="matrix" values="0 0 0 0 0 0 0 0 0 0 0 0 0 0 0 0 0 0 127 0"/><feOffset dy="4"/><feGaussianBlur stdDeviation="2"/><feComposite in2="hardAlpha" operator="out"/><feColorMatrix type="matrix" values="0 0 0 0 0 0 0 0 0 0 0 0 0 0 0 0 0 0 0.25 0"/><feBlend in2="BackgroundImageFix" mode="normal" result="effect1_dropShadow_997_2436"/><feBlend in="SourceGraphic" in2="effect1_dropShadow_997_2436" mode="normal" result="shape"/></filter><filter id="filter20_d_997_2436" width="39.633" height="45.545" x="242.616" y="111.204" color-interpolation-filters="sRGB" filterUnits="userSpaceOnUse"><feFlood flood-opacity="0" result="BackgroundImageFix"/><feColorMatrix in="SourceAlpha" result="hardAlpha" type="matrix" values="0 0 0 0 0 0 0 0 0 0 0 0 0 0 0 0 0 0 127 0"/><feOffset dy="4"/><feGaussianBlur stdDeviation="2"/><feComposite in2="hardAlpha" operator="out"/><feColorMatrix type="matrix" values="0 0 0 0 0 0 0 0 0 0 0 0 0 0 0 0 0 0 0.25 0"/><feBlend in2="BackgroundImageFix" mode="normal" result="effect1_dropShadow_997_2436"/><feBlend in="SourceGraphic" in2="effect1_dropShadow_997_2436" mode="normal" result="shape"/></filter><filter id="filter21_d_997_2436" width="28.583" height="31.624" x="236.64" y="157.165" color-interpolation-filters="sRGB" filterUnits="userSpaceOnUse"><feFlood flood-opacity="0" result="BackgroundImageFix"/><feColorMatrix in="SourceAlpha" result="hardAlpha" type="matrix" values="0 0 0 0 0 0 0 0 0 0 0 0 0 0 0 0 0 0 127 0"/><feOffset dy="4"/><feGaussianBlur stdDeviation="2"/><feComposite in2="hardAlpha" operator="out"/><feColorMatrix type="matrix" values="0 0 0 0 0 0 0 0 0 0 0 0 0 0 0 0 0 0 0.25 0"/><feBlend in2="BackgroundImageFix" mode="normal" result="effect1_dropShadow_997_2436"/><feBlend in="SourceGraphic" in2="effect1_dropShadow_997_2436" mode="normal" result="shape"/></filter><filter id="filter22_d_997_2436" width="20.636" height="22.54" x="226.615" y="139.206" color-interpolation-filters="sRGB" filterUnits="userSpaceOnUse"><feFlood flood-opacity="0" result="BackgroundImageFix"/><feColorMatrix in="SourceAlpha" result="hardAlpha" type="matrix" values="0 0 0 0 0 0 0 0 0 0 0 0 0 0 0 0 0 0 127 0"/><feOffset dy="4"/><feGaussianBlur stdDeviation="2"/><feComposite in2="hardAlpha" operator="out"/><feColorMatrix type="matrix" values="0 0 0 0 0 0 0 0 0 0 0 0 0 0 0 0 0 0 0.25 0"/><feBlend in2="BackgroundImageFix" mode="normal" result="effect1_dropShadow_997_2436"/><feBlend in="SourceGraphic" in2="effect1_dropShadow_997_2436" mode="normal" result="shape"/></filter></defs></svg>