<svg width="371" height="293" viewBox="38 4 277 277" fill="none" xmlns="http://www.w3.org/2000/svg">
<circle cx="176.5" cy="142.5" r="138.5" fill="url(#paint0_linear_997_2448)"/>
<g filter="url(#filter0_d_997_2448)">
<path d="M263.55 51.8997C306.715 19.1699 313.33 130.591 284.436 148C212.726 93.6824 231.524 142.225 231.524 94.727C104.092 94.727 92.1359 23 139.623 23C351.218 170.98 204.719 60.9526 263.55 51.8997Z" fill="#BFBFBF"/>
</g>
<path d="M323 103.522C323 150.97 309.259 179 261.821 179C214.383 179 292.423 174.275 292.423 126.826C165.123 126.826 37.7028 35 85.1405 35C256.233 132.391 252.383 -5.34774 323 103.522Z" fill="white"/>
<g filter="url(#filter1_d_997_2448)">
<path d="M310 115.729C310 144.276 294.723 159.593 265.904 177C194.379 122.692 297.928 170.182 297.928 122.692C170.824 122.692 44.8322 28 92.1968 28C303.245 175.956 286.983 53.0654 310 115.729Z" fill="#E3DEDE"/>
</g>
<path d="M94 212.5H285L358 242H6L94 212.5Z" fill="#434329"/>
<path d="M96 221H253.5L332.5 238H27L96 221Z" fill="#8D8D59"/>
<rect x="29" y="131.679" width="52.1959" height="80.2737" rx="17" fill="#B0C8D0"/>
<rect x="44.1191" y="118" width="21.9583" height="21.2383" rx="6" fill="#B0C8D0"/>
<g filter="url(#filter2_d_997_2448)">
<rect x="53" y="119" width="6.83946" height="12.239" fill="#2B7793"/>
</g>
<g filter="url(#filter3_d_997_2448)">
<rect x="48" y="119" width="2.87977" height="12.239" fill="#F5FBFD"/>
</g>
<path d="M120.645 147.118C121.867 138.769 129.028 132.579 137.466 132.579H138.17C146.594 132.579 153.747 138.747 154.986 147.079L161.09 188.133C162.617 198.404 154.659 207.633 144.274 207.633H131.461C121.092 207.633 113.139 198.431 114.64 188.172L120.645 147.118Z" fill="#B0C8D0"/>
<g filter="url(#filter4_d_997_2448)">
<rect x="148" y="139.321" width="2.18116" height="39.5969" rx="1.09058" transform="rotate(-8.47064 148 139.321)" fill="#67A0B4"/>
</g>
<path d="M117.761 186.065C118.988 178.174 125.782 172.356 133.767 172.356H141.528C149.647 172.356 156.512 178.366 157.585 186.414C158.879 196.124 151.325 204.753 141.528 204.753H133.767C123.828 204.753 116.233 195.885 117.761 186.065Z" fill="#105288"/>
<path d="M154.103 176.078C155.832 171.662 160.091 168.756 164.833 168.756C169.632 168.756 173.928 171.729 175.619 176.22L181.974 193.103C186.159 204.22 177.942 216.092 166.064 216.092H163.347C151.372 216.092 143.151 204.043 147.517 192.893L154.103 176.078Z" fill="#B0C8D0"/>
<path d="M161.214 201.953C162.668 200.694 164.528 200 166.452 200H176.175C178.153 200 180.062 200.733 181.531 202.058C186.975 206.964 183.504 216 176.175 216H166.452C159.046 216 155.616 206.803 161.214 201.953Z" fill="#B0C8D0"/>
<path d="M149.214 201.953C150.668 200.694 152.528 200 154.452 200H164.175C166.153 200 168.062 200.733 169.531 202.058C174.975 206.964 171.504 216 164.175 216H154.452C147.046 216 143.616 206.803 149.214 201.953Z" fill="#B0C8D0"/>
<g filter="url(#filter5_d_997_2448)">
<rect x="170.673" y="174.663" width="1.19584" height="33.7499" rx="0.597918" transform="rotate(-20.0569 170.673 174.663)" fill="#67A0B4"/>
</g>
<rect x="158.59" y="128.439" width="11.8791" height="64.7949" rx="5" fill="#B0C8D0"/>
<g filter="url(#filter6_d_997_2448)">
<rect x="162.202" y="129.879" width="4.67963" height="38.517" rx="2" fill="#2B7793"/>
</g>
<g filter="url(#filter7_d_997_2448)">
<rect x="168.322" y="129.879" width="0.719944" height="38.517" rx="0.359972" fill="white"/>
</g>
<path d="M155.833 179.548C157.273 175.862 160.826 173.436 164.783 173.436C168.786 173.436 172.37 175.918 173.778 179.666L178.706 192.789C182.383 202.582 175.144 213.033 164.684 213.033C154.138 213.033 146.895 202.426 150.732 192.604L155.833 179.548Z" fill="#4F572A"/>
<rect x="157.149" y="123.04" width="15.1188" height="6.47949" rx="3.23975" fill="#B0C8D0"/>
<rect x="156.07" y="183.155" width="16.9187" height="23.3982" rx="5" fill="#D9C48A"/>
<g filter="url(#filter8_d_997_2448)">
<rect x="128" y="136" width="4.67963" height="40.6768" rx="2" fill="#2B7793"/>
</g>
<rect x="125.112" y="142.838" width="25.558" height="45.7164" rx="11" fill="url(#paint1_linear_997_2448)"/>
<rect x="130.872" y="126.999" width="14.0389" height="9.35927" rx="4.67963" fill="#B0C8D0"/>
<rect x="127.272" y="120.52" width="21.5983" height="9.35927" rx="4.67963" fill="#B0C8D0"/>
<g filter="url(#filter9_d_997_2448)">
<rect x="137.364" y="122.32" width="7.91938" height="6.11952" rx="2" fill="#2B7793"/>
</g>
<g filter="url(#filter10_d_997_2448)">
<rect x="75" y="138" width="1" height="65" rx="0.5" fill="white"/>
</g>
<rect x="31.8799" y="171.996" width="46.7963" height="36.7171" rx="11" fill="#163C14"/>
<rect x="86.9551" y="156.877" width="28.0778" height="9.35927" rx="4.67963" fill="#B0C8D0"/>
<rect x="74.7168" y="171.636" width="52.1959" height="46.4364" rx="17" fill="#B0C8D0"/>
<g filter="url(#filter11_d_997_2448)">
<rect x="85" y="175" width="4.67963" height="40.3168" rx="2.33982" fill="#67A0B4"/>
</g>
<g filter="url(#filter12_d_997_2448)">
<rect x="83" y="175" width="0.719944" height="40.3168" rx="0.359972" fill="white"/>
</g>
<g filter="url(#filter13_d_997_2448)">
<rect x="113.606" y="175.235" width="4.67963" height="39.5969" fill="#67A0B4"/>
</g>
<g filter="url(#filter14_d_997_2448)">
<rect x="119" y="175" width="0.719944" height="39.2369" rx="0.359972" fill="white"/>
</g>
<rect x="89.835" y="163.716" width="21.9583" height="12.239" rx="6" fill="#B0C8D0"/>
<rect x="77.5967" y="197.554" width="46.7963" height="18.3586" rx="9.17928" fill="#761313"/>
<rect x="82.6357" y="178.835" width="35.6372" height="33.4774" rx="11" fill="url(#paint2_linear_997_2448)"/>
<g filter="url(#filter15_d_997_2448)">
<rect x="39" y="134" width="8.27935" height="74.5142" rx="4.13968" fill="#67A0B4"/>
</g>
<g filter="url(#filter16_d_997_2448)">
<rect x="36" y="136" width="1" height="70" rx="0.5" fill="white"/>
</g>
<g filter="url(#filter17_d_997_2448)">
<rect x="64.6494" y="134.199" width="8.27935" height="74.5142" rx="4.13968" fill="#2B7691"/>
</g>
<g filter="url(#filter18_d_997_2448)">
<rect x="37.2793" y="147.158" width="35.6372" height="45.7164" rx="11" fill="url(#paint3_linear_997_2448)"/>
</g>
<g filter="url(#filter19_d_997_2448)">
<rect x="146" y="122" width="1" height="6" rx="0.5" fill="white"/>
</g>
<rect x="198" y="140" width="14" height="17" rx="6" fill="#B0C8D0"/>
<g filter="url(#filter20_d_997_2448)">
<rect x="201" y="141" width="7" height="39" rx="2" fill="#2B7793"/>
</g>
<g filter="url(#filter21_d_997_2448)">
<rect x="209" y="142" width="1" height="10" rx="0.5" fill="white"/>
</g>
<circle cx="206" cy="178" r="27" fill="#B0C8D0"/>
<path d="M325.988 189.095C325.988 212.554 308.591 225.812 285.132 225.812C261.672 225.812 241.035 212.554 241.035 189.095C241.035 165.635 260.413 152.557 283.872 152.557C307.331 152.557 325.988 165.635 325.988 189.095Z" fill="#B0C8D0"/>
<rect x="246.075" y="214.833" width="76.674" height="13.6789" rx="6.83946" fill="#B0C8D0"/>
<rect x="244.275" y="152.557" width="80.2737" height="13.6789" rx="6.83946" fill="#B0C8D0"/>
<g filter="url(#filter22_d_997_2448)">
<rect x="319.29" y="154.113" width="0.719944" height="10.4392" rx="0.359972" fill="white"/>
</g>
<path d="M233 178.969C229.671 194.91 221.533 201 210.806 201C222.356 192.756 224.756 198.492 229.671 180.76C231.706 152.281 190.138 153.002 205.358 153.002C220.578 153.002 230.411 161.595 233 178.969Z" fill="#67A0B4"/>
<path d="M230 178.969C227.208 194.91 220.382 201 211.385 201C221.073 192.756 223.085 198.492 227.208 180.76C228.915 152.281 194.051 153.002 206.817 153.002C219.582 153.002 227.828 161.595 230 178.969Z" fill="white"/>
<g filter="url(#filter23_d_997_2448)">
<rect x="312" y="154" width="5" height="11" rx="2" fill="#2B7793"/>
</g>
<g filter="url(#filter24_d_997_2448)">
<rect x="92" y="159" width="5" height="12" fill="#2B7793"/>
</g>
<g filter="url(#filter25_d_997_2448)">
<rect x="98" y="159" width="1" height="12" rx="0.5" fill="white"/>
</g>
<rect x="189" y="161" width="32" height="34" rx="8" fill="#D9C48A"/>
<path d="M242.027 190.528C242.561 201.676 251.105 213 261.43 213C250.313 204.727 249.962 210.12 245.232 192.326C243.273 163.747 278.036 165.008 263.388 165.008C248.739 165.008 241.494 179.38 242.027 190.528Z" fill="#67A0B4"/>
<path d="M244.002 190.968C244.189 202.606 254.064 213 263.477 213C253.342 204.756 252.267 209.054 246.924 192.759C241.58 176.464 281.612 165 268.257 165C254.902 165 243.816 179.33 244.002 190.968Z" fill="white"/>
<path d="M228 178.712C228 191.021 217.926 201 205.5 201C193.074 201 183 191.021 183 178.712C183 166.403 191.274 177.82 203.7 177.82C216.126 177.82 228 166.403 228 178.712Z" fill="#4A0B59"/>
<path d="M316.527 209.624C324.084 200.697 326.924 186.447 320.074 180.466C321.874 192.885 322.611 194.021 315.585 206.412C308.559 218.803 277.262 210.959 284.977 216.463C295.261 219.598 308.971 218.552 316.527 209.624Z" fill="white"/>
<path d="M191.214 195.953C192.668 194.694 194.528 194 196.452 194H206.175C208.153 194 210.062 194.733 211.531 196.058C216.975 200.964 213.504 210 206.175 210H196.452C189.046 210 185.616 200.803 191.214 195.953Z" fill="#B0C8D0"/>
<path d="M203.214 195.953C204.668 194.694 206.528 194 208.452 194H218.175C220.153 194 222.062 194.733 223.531 196.058C228.975 200.964 225.504 210 218.175 210H208.452C201.046 210 197.616 200.803 203.214 195.953Z" fill="#B0C8D0"/>
<g filter="url(#filter26_d_997_2448)">
<rect x="250" y="217" width="12" height="10" rx="2" fill="#2B7793"/>
</g>
<g filter="url(#filter27_d_997_2448)">
<rect x="262" y="217" width="1" height="10" rx="0.5" fill="white"/>
</g>
<defs>
<filter id="filter0_d_997_2448" x="110" y="23" width="196" height="133" filterUnits="userSpaceOnUse" color-interpolation-filters="sRGB">
<feFlood flood-opacity="0" result="BackgroundImageFix"/>
<feColorMatrix in="SourceAlpha" type="matrix" values="0 0 0 0 0 0 0 0 0 0 0 0 0 0 0 0 0 0 127 0" result="hardAlpha"/>
<feOffset dy="4"/>
<feGaussianBlur stdDeviation="2"/>
<feComposite in2="hardAlpha" operator="out"/>
<feColorMatrix type="matrix" values="0 0 0 0 0 0 0 0 0 0 0 0 0 0 0 0 0 0 0.25 0"/>
<feBlend mode="normal" in2="BackgroundImageFix" result="effect1_dropShadow_997_2448"/>
<feBlend mode="normal" in="SourceGraphic" in2="effect1_dropShadow_997_2448" result="shape"/>
</filter>
<filter id="filter1_d_997_2448" x="78" y="28" width="236" height="157" filterUnits="userSpaceOnUse" color-interpolation-filters="sRGB">
<feFlood flood-opacity="0" result="BackgroundImageFix"/>
<feColorMatrix in="SourceAlpha" type="matrix" values="0 0 0 0 0 0 0 0 0 0 0 0 0 0 0 0 0 0 127 0" result="hardAlpha"/>
<feOffset dy="4"/>
<feGaussianBlur stdDeviation="2"/>
<feComposite in2="hardAlpha" operator="out"/>
<feColorMatrix type="matrix" values="0 0 0 0 0 0 0 0 0 0 0 0 0 0 0 0 0 0 0.25 0"/>
<feBlend mode="normal" in2="BackgroundImageFix" result="effect1_dropShadow_997_2448"/>
<feBlend mode="normal" in="SourceGraphic" in2="effect1_dropShadow_997_2448" result="shape"/>
</filter>
<filter id="filter2_d_997_2448" x="49" y="119" width="14.8398" height="20.239" filterUnits="userSpaceOnUse" color-interpolation-filters="sRGB">
<feFlood flood-opacity="0" result="BackgroundImageFix"/>
<feColorMatrix in="SourceAlpha" type="matrix" values="0 0 0 0 0 0 0 0 0 0 0 0 0 0 0 0 0 0 127 0" result="hardAlpha"/>
<feOffset dy="4"/>
<feGaussianBlur stdDeviation="2"/>
<feComposite in2="hardAlpha" operator="out"/>
<feColorMatrix type="matrix" values="0 0 0 0 0 0 0 0 0 0 0 0 0 0 0 0 0 0 0.25 0"/>
<feBlend mode="normal" in2="BackgroundImageFix" result="effect1_dropShadow_997_2448"/>
<feBlend mode="normal" in="SourceGraphic" in2="effect1_dropShadow_997_2448" result="shape"/>
</filter>
<filter id="filter3_d_997_2448" x="44" y="119" width="10.8799" height="20.239" filterUnits="userSpaceOnUse" color-interpolation-filters="sRGB">
<feFlood flood-opacity="0" result="BackgroundImageFix"/>
<feColorMatrix in="SourceAlpha" type="matrix" values="0 0 0 0 0 0 0 0 0 0 0 0 0 0 0 0 0 0 127 0" result="hardAlpha"/>
<feOffset dy="4"/>
<feGaussianBlur stdDeviation="2"/>
<feComposite in2="hardAlpha" operator="out"/>
<feColorMatrix type="matrix" values="0 0 0 0 0 0 0 0 0 0 0 0 0 0 0 0 0 0 0.25 0"/>
<feBlend mode="normal" in2="BackgroundImageFix" result="effect1_dropShadow_997_2448"/>
<feBlend mode="normal" in="SourceGraphic" in2="effect1_dropShadow_997_2448" result="shape"/>
</filter>
<filter id="filter4_d_997_2448" x="144.148" y="139.149" width="15.6934" height="47.1891" filterUnits="userSpaceOnUse" color-interpolation-filters="sRGB">
<feFlood flood-opacity="0" result="BackgroundImageFix"/>
<feColorMatrix in="SourceAlpha" type="matrix" values="0 0 0 0 0 0 0 0 0 0 0 0 0 0 0 0 0 0 127 0" result="hardAlpha"/>
<feOffset dy="4"/>
<feGaussianBlur stdDeviation="2"/>
<feComposite in2="hardAlpha" operator="out"/>
<feColorMatrix type="matrix" values="0 0 0 0 0 0 0 0 0 0 0 0 0 0 0 0 0 0 0.25 0"/>
<feBlend mode="normal" in2="BackgroundImageFix" result="effect1_dropShadow_997_2448"/>
<feBlend mode="normal" in="SourceGraphic" in2="effect1_dropShadow_997_2448" result="shape"/>
</filter>
<filter id="filter5_d_997_2448" x="166.842" y="174.421" width="20.3604" height="39.7759" filterUnits="userSpaceOnUse" color-interpolation-filters="sRGB">
<feFlood flood-opacity="0" result="BackgroundImageFix"/>
<feColorMatrix in="SourceAlpha" type="matrix" values="0 0 0 0 0 0 0 0 0 0 0 0 0 0 0 0 0 0 127 0" result="hardAlpha"/>
<feOffset dy="4"/>
<feGaussianBlur stdDeviation="2"/>
<feComposite in2="hardAlpha" operator="out"/>
<feColorMatrix type="matrix" values="0 0 0 0 0 0 0 0 0 0 0 0 0 0 0 0 0 0 0.25 0"/>
<feBlend mode="normal" in2="BackgroundImageFix" result="effect1_dropShadow_997_2448"/>
<feBlend mode="normal" in="SourceGraphic" in2="effect1_dropShadow_997_2448" result="shape"/>
</filter>
<filter id="filter6_d_997_2448" x="158.202" y="129.879" width="12.6797" height="46.517" filterUnits="userSpaceOnUse" color-interpolation-filters="sRGB">
<feFlood flood-opacity="0" result="BackgroundImageFix"/>
<feColorMatrix in="SourceAlpha" type="matrix" values="0 0 0 0 0 0 0 0 0 0 0 0 0 0 0 0 0 0 127 0" result="hardAlpha"/>
<feOffset dy="4"/>
<feGaussianBlur stdDeviation="2"/>
<feComposite in2="hardAlpha" operator="out"/>
<feColorMatrix type="matrix" values="0 0 0 0 0 0 0 0 0 0 0 0 0 0 0 0 0 0 0.25 0"/>
<feBlend mode="normal" in2="BackgroundImageFix" result="effect1_dropShadow_997_2448"/>
<feBlend mode="normal" in="SourceGraphic" in2="effect1_dropShadow_997_2448" result="shape"/>
</filter>
<filter id="filter7_d_997_2448" x="164.322" y="129.879" width="8.71973" height="46.517" filterUnits="userSpaceOnUse" color-interpolation-filters="sRGB">
<feFlood flood-opacity="0" result="BackgroundImageFix"/>
<feColorMatrix in="SourceAlpha" type="matrix" values="0 0 0 0 0 0 0 0 0 0 0 0 0 0 0 0 0 0 127 0" result="hardAlpha"/>
<feOffset dy="4"/>
<feGaussianBlur stdDeviation="2"/>
<feComposite in2="hardAlpha" operator="out"/>
<feColorMatrix type="matrix" values="0 0 0 0 0 0 0 0 0 0 0 0 0 0 0 0 0 0 0.25 0"/>
<feBlend mode="normal" in2="BackgroundImageFix" result="effect1_dropShadow_997_2448"/>
<feBlend mode="normal" in="SourceGraphic" in2="effect1_dropShadow_997_2448" result="shape"/>
</filter>
<filter id="filter8_d_997_2448" x="124" y="136" width="12.6797" height="48.6768" filterUnits="userSpaceOnUse" color-interpolation-filters="sRGB">
<feFlood flood-opacity="0" result="BackgroundImageFix"/>
<feColorMatrix in="SourceAlpha" type="matrix" values="0 0 0 0 0 0 0 0 0 0 0 0 0 0 0 0 0 0 127 0" result="hardAlpha"/>
<feOffset dy="4"/>
<feGaussianBlur stdDeviation="2"/>
<feComposite in2="hardAlpha" operator="out"/>
<feColorMatrix type="matrix" values="0 0 0 0 0 0 0 0 0 0 0 0 0 0 0 0 0 0 0.25 0"/>
<feBlend mode="normal" in2="BackgroundImageFix" result="effect1_dropShadow_997_2448"/>
<feBlend mode="normal" in="SourceGraphic" in2="effect1_dropShadow_997_2448" result="shape"/>
</filter>
<filter id="filter9_d_997_2448" x="133.364" y="122.32" width="15.9189" height="14.1195" filterUnits="userSpaceOnUse" color-interpolation-filters="sRGB">
<feFlood flood-opacity="0" result="BackgroundImageFix"/>
<feColorMatrix in="SourceAlpha" type="matrix" values="0 0 0 0 0 0 0 0 0 0 0 0 0 0 0 0 0 0 127 0" result="hardAlpha"/>
<feOffset dy="4"/>
<feGaussianBlur stdDeviation="2"/>
<feComposite in2="hardAlpha" operator="out"/>
<feColorMatrix type="matrix" values="0 0 0 0 0 0 0 0 0 0 0 0 0 0 0 0 0 0 0.25 0"/>
<feBlend mode="normal" in2="BackgroundImageFix" result="effect1_dropShadow_997_2448"/>
<feBlend mode="normal" in="SourceGraphic" in2="effect1_dropShadow_997_2448" result="shape"/>
</filter>
<filter id="filter10_d_997_2448" x="71" y="138" width="9" height="73" filterUnits="userSpaceOnUse" color-interpolation-filters="sRGB">
<feFlood flood-opacity="0" result="BackgroundImageFix"/>
<feColorMatrix in="SourceAlpha" type="matrix" values="0 0 0 0 0 0 0 0 0 0 0 0 0 0 0 0 0 0 127 0" result="hardAlpha"/>
<feOffset dy="4"/>
<feGaussianBlur stdDeviation="2"/>
<feComposite in2="hardAlpha" operator="out"/>
<feColorMatrix type="matrix" values="0 0 0 0 0 0 0 0 0 0 0 0 0 0 0 0 0 0 0.25 0"/>
<feBlend mode="normal" in2="BackgroundImageFix" result="effect1_dropShadow_997_2448"/>
<feBlend mode="normal" in="SourceGraphic" in2="effect1_dropShadow_997_2448" result="shape"/>
</filter>
<filter id="filter11_d_997_2448" x="81" y="175" width="12.6797" height="48.3169" filterUnits="userSpaceOnUse" color-interpolation-filters="sRGB">
<feFlood flood-opacity="0" result="BackgroundImageFix"/>
<feColorMatrix in="SourceAlpha" type="matrix" values="0 0 0 0 0 0 0 0 0 0 0 0 0 0 0 0 0 0 127 0" result="hardAlpha"/>
<feOffset dy="4"/>
<feGaussianBlur stdDeviation="2"/>
<feComposite in2="hardAlpha" operator="out"/>
<feColorMatrix type="matrix" values="0 0 0 0 0 0 0 0 0 0 0 0 0 0 0 0 0 0 0.25 0"/>
<feBlend mode="normal" in2="BackgroundImageFix" result="effect1_dropShadow_997_2448"/>
<feBlend mode="normal" in="SourceGraphic" in2="effect1_dropShadow_997_2448" result="shape"/>
</filter>
<filter id="filter12_d_997_2448" x="79" y="175" width="8.71973" height="48.3169" filterUnits="userSpaceOnUse" color-interpolation-filters="sRGB">
<feFlood flood-opacity="0" result="BackgroundImageFix"/>
<feColorMatrix in="SourceAlpha" type="matrix" values="0 0 0 0 0 0 0 0 0 0 0 0 0 0 0 0 0 0 127 0" result="hardAlpha"/>
<feOffset dy="4"/>
<feGaussianBlur stdDeviation="2"/>
<feComposite in2="hardAlpha" operator="out"/>
<feColorMatrix type="matrix" values="0 0 0 0 0 0 0 0 0 0 0 0 0 0 0 0 0 0 0.25 0"/>
<feBlend mode="normal" in2="BackgroundImageFix" result="effect1_dropShadow_997_2448"/>
<feBlend mode="normal" in="SourceGraphic" in2="effect1_dropShadow_997_2448" result="shape"/>
</filter>
<filter id="filter13_d_997_2448" x="109.606" y="175.235" width="12.6797" height="47.5969" filterUnits="userSpaceOnUse" color-interpolation-filters="sRGB">
<feFlood flood-opacity="0" result="BackgroundImageFix"/>
<feColorMatrix in="SourceAlpha" type="matrix" values="0 0 0 0 0 0 0 0 0 0 0 0 0 0 0 0 0 0 127 0" result="hardAlpha"/>
<feOffset dy="4"/>
<feGaussianBlur stdDeviation="2"/>
<feComposite in2="hardAlpha" operator="out"/>
<feColorMatrix type="matrix" values="0 0 0 0 0 0 0 0 0 0 0 0 0 0 0 0 0 0 0.25 0"/>
<feBlend mode="normal" in2="BackgroundImageFix" result="effect1_dropShadow_997_2448"/>
<feBlend mode="normal" in="SourceGraphic" in2="effect1_dropShadow_997_2448" result="shape"/>
</filter>
<filter id="filter14_d_997_2448" x="115" y="175" width="8.71973" height="47.2369" filterUnits="userSpaceOnUse" color-interpolation-filters="sRGB">
<feFlood flood-opacity="0" result="BackgroundImageFix"/>
<feColorMatrix in="SourceAlpha" type="matrix" values="0 0 0 0 0 0 0 0 0 0 0 0 0 0 0 0 0 0 127 0" result="hardAlpha"/>
<feOffset dy="4"/>
<feGaussianBlur stdDeviation="2"/>
<feComposite in2="hardAlpha" operator="out"/>
<feColorMatrix type="matrix" values="0 0 0 0 0 0 0 0 0 0 0 0 0 0 0 0 0 0 0.25 0"/>
<feBlend mode="normal" in2="BackgroundImageFix" result="effect1_dropShadow_997_2448"/>
<feBlend mode="normal" in="SourceGraphic" in2="effect1_dropShadow_997_2448" result="shape"/>
</filter>
<filter id="filter15_d_997_2448" x="35" y="134" width="16.2793" height="82.5142" filterUnits="userSpaceOnUse" color-interpolation-filters="sRGB">
<feFlood flood-opacity="0" result="BackgroundImageFix"/>
<feColorMatrix in="SourceAlpha" type="matrix" values="0 0 0 0 0 0 0 0 0 0 0 0 0 0 0 0 0 0 127 0" result="hardAlpha"/>
<feOffset dy="4"/>
<feGaussianBlur stdDeviation="2"/>
<feComposite in2="hardAlpha" operator="out"/>
<feColorMatrix type="matrix" values="0 0 0 0 0 0 0 0 0 0 0 0 0 0 0 0 0 0 0.25 0"/>
<feBlend mode="normal" in2="BackgroundImageFix" result="effect1_dropShadow_997_2448"/>
<feBlend mode="normal" in="SourceGraphic" in2="effect1_dropShadow_997_2448" result="shape"/>
</filter>
<filter id="filter16_d_997_2448" x="32" y="136" width="9" height="78" filterUnits="userSpaceOnUse" color-interpolation-filters="sRGB">
<feFlood flood-opacity="0" result="BackgroundImageFix"/>
<feColorMatrix in="SourceAlpha" type="matrix" values="0 0 0 0 0 0 0 0 0 0 0 0 0 0 0 0 0 0 127 0" result="hardAlpha"/>
<feOffset dy="4"/>
<feGaussianBlur stdDeviation="2"/>
<feComposite in2="hardAlpha" operator="out"/>
<feColorMatrix type="matrix" values="0 0 0 0 0 0 0 0 0 0 0 0 0 0 0 0 0 0 0.25 0"/>
<feBlend mode="normal" in2="BackgroundImageFix" result="effect1_dropShadow_997_2448"/>
<feBlend mode="normal" in="SourceGraphic" in2="effect1_dropShadow_997_2448" result="shape"/>
</filter>
<filter id="filter17_d_997_2448" x="60.6494" y="134.199" width="16.2793" height="82.5142" filterUnits="userSpaceOnUse" color-interpolation-filters="sRGB">
<feFlood flood-opacity="0" result="BackgroundImageFix"/>
<feColorMatrix in="SourceAlpha" type="matrix" values="0 0 0 0 0 0 0 0 0 0 0 0 0 0 0 0 0 0 127 0" result="hardAlpha"/>
<feOffset dy="4"/>
<feGaussianBlur stdDeviation="2"/>
<feComposite in2="hardAlpha" operator="out"/>
<feColorMatrix type="matrix" values="0 0 0 0 0 0 0 0 0 0 0 0 0 0 0 0 0 0 0.25 0"/>
<feBlend mode="normal" in2="BackgroundImageFix" result="effect1_dropShadow_997_2448"/>
<feBlend mode="normal" in="SourceGraphic" in2="effect1_dropShadow_997_2448" result="shape"/>
</filter>
<filter id="filter18_d_997_2448" x="33.2793" y="147.158" width="43.6367" height="53.7164" filterUnits="userSpaceOnUse" color-interpolation-filters="sRGB">
<feFlood flood-opacity="0" result="BackgroundImageFix"/>
<feColorMatrix in="SourceAlpha" type="matrix" values="0 0 0 0 0 0 0 0 0 0 0 0 0 0 0 0 0 0 127 0" result="hardAlpha"/>
<feOffset dy="4"/>
<feGaussianBlur stdDeviation="2"/>
<feComposite in2="hardAlpha" operator="out"/>
<feColorMatrix type="matrix" values="0 0 0 0 0 0 0 0 0 0 0 0 0 0 0 0 0 0 0.25 0"/>
<feBlend mode="normal" in2="BackgroundImageFix" result="effect1_dropShadow_997_2448"/>
<feBlend mode="normal" in="SourceGraphic" in2="effect1_dropShadow_997_2448" result="shape"/>
</filter>
<filter id="filter19_d_997_2448" x="142" y="122" width="9" height="14" filterUnits="userSpaceOnUse" color-interpolation-filters="sRGB">
<feFlood flood-opacity="0" result="BackgroundImageFix"/>
<feColorMatrix in="SourceAlpha" type="matrix" values="0 0 0 0 0 0 0 0 0 0 0 0 0 0 0 0 0 0 127 0" result="hardAlpha"/>
<feOffset dy="4"/>
<feGaussianBlur stdDeviation="2"/>
<feComposite in2="hardAlpha" operator="out"/>
<feColorMatrix type="matrix" values="0 0 0 0 0 0 0 0 0 0 0 0 0 0 0 0 0 0 0.25 0"/>
<feBlend mode="normal" in2="BackgroundImageFix" result="effect1_dropShadow_997_2448"/>
<feBlend mode="normal" in="SourceGraphic" in2="effect1_dropShadow_997_2448" result="shape"/>
</filter>
<filter id="filter20_d_997_2448" x="197" y="141" width="15" height="47" filterUnits="userSpaceOnUse" color-interpolation-filters="sRGB">
<feFlood flood-opacity="0" result="BackgroundImageFix"/>
<feColorMatrix in="SourceAlpha" type="matrix" values="0 0 0 0 0 0 0 0 0 0 0 0 0 0 0 0 0 0 127 0" result="hardAlpha"/>
<feOffset dy="4"/>
<feGaussianBlur stdDeviation="2"/>
<feComposite in2="hardAlpha" operator="out"/>
<feColorMatrix type="matrix" values="0 0 0 0 0 0 0 0 0 0 0 0 0 0 0 0 0 0 0.25 0"/>
<feBlend mode="normal" in2="BackgroundImageFix" result="effect1_dropShadow_997_2448"/>
<feBlend mode="normal" in="SourceGraphic" in2="effect1_dropShadow_997_2448" result="shape"/>
</filter>
<filter id="filter21_d_997_2448" x="205" y="142" width="9" height="18" filterUnits="userSpaceOnUse" color-interpolation-filters="sRGB">
<feFlood flood-opacity="0" result="BackgroundImageFix"/>
<feColorMatrix in="SourceAlpha" type="matrix" values="0 0 0 0 0 0 0 0 0 0 0 0 0 0 0 0 0 0 127 0" result="hardAlpha"/>
<feOffset dy="4"/>
<feGaussianBlur stdDeviation="2"/>
<feComposite in2="hardAlpha" operator="out"/>
<feColorMatrix type="matrix" values="0 0 0 0 0 0 0 0 0 0 0 0 0 0 0 0 0 0 0.25 0"/>
<feBlend mode="normal" in2="BackgroundImageFix" result="effect1_dropShadow_997_2448"/>
<feBlend mode="normal" in="SourceGraphic" in2="effect1_dropShadow_997_2448" result="shape"/>
</filter>
<filter id="filter22_d_997_2448" x="315.29" y="154.113" width="8.71973" height="18.4392" filterUnits="userSpaceOnUse" color-interpolation-filters="sRGB">
<feFlood flood-opacity="0" result="BackgroundImageFix"/>
<feColorMatrix in="SourceAlpha" type="matrix" values="0 0 0 0 0 0 0 0 0 0 0 0 0 0 0 0 0 0 127 0" result="hardAlpha"/>
<feOffset dy="4"/>
<feGaussianBlur stdDeviation="2"/>
<feComposite in2="hardAlpha" operator="out"/>
<feColorMatrix type="matrix" values="0 0 0 0 0 0 0 0 0 0 0 0 0 0 0 0 0 0 0.25 0"/>
<feBlend mode="normal" in2="BackgroundImageFix" result="effect1_dropShadow_997_2448"/>
<feBlend mode="normal" in="SourceGraphic" in2="effect1_dropShadow_997_2448" result="shape"/>
</filter>
<filter id="filter23_d_997_2448" x="308" y="154" width="13" height="19" filterUnits="userSpaceOnUse" color-interpolation-filters="sRGB">
<feFlood flood-opacity="0" result="BackgroundImageFix"/>
<feColorMatrix in="SourceAlpha" type="matrix" values="0 0 0 0 0 0 0 0 0 0 0 0 0 0 0 0 0 0 127 0" result="hardAlpha"/>
<feOffset dy="4"/>
<feGaussianBlur stdDeviation="2"/>
<feComposite in2="hardAlpha" operator="out"/>
<feColorMatrix type="matrix" values="0 0 0 0 0 0 0 0 0 0 0 0 0 0 0 0 0 0 0.25 0"/>
<feBlend mode="normal" in2="BackgroundImageFix" result="effect1_dropShadow_997_2448"/>
<feBlend mode="normal" in="SourceGraphic" in2="effect1_dropShadow_997_2448" result="shape"/>
</filter>
<filter id="filter24_d_997_2448" x="88" y="159" width="13" height="20" filterUnits="userSpaceOnUse" color-interpolation-filters="sRGB">
<feFlood flood-opacity="0" result="BackgroundImageFix"/>
<feColorMatrix in="SourceAlpha" type="matrix" values="0 0 0 0 0 0 0 0 0 0 0 0 0 0 0 0 0 0 127 0" result="hardAlpha"/>
<feOffset dy="4"/>
<feGaussianBlur stdDeviation="2"/>
<feComposite in2="hardAlpha" operator="out"/>
<feColorMatrix type="matrix" values="0 0 0 0 0 0 0 0 0 0 0 0 0 0 0 0 0 0 0.25 0"/>
<feBlend mode="normal" in2="BackgroundImageFix" result="effect1_dropShadow_997_2448"/>
<feBlend mode="normal" in="SourceGraphic" in2="effect1_dropShadow_997_2448" result="shape"/>
</filter>
<filter id="filter25_d_997_2448" x="94" y="159" width="9" height="20" filterUnits="userSpaceOnUse" color-interpolation-filters="sRGB">
<feFlood flood-opacity="0" result="BackgroundImageFix"/>
<feColorMatrix in="SourceAlpha" type="matrix" values="0 0 0 0 0 0 0 0 0 0 0 0 0 0 0 0 0 0 127 0" result="hardAlpha"/>
<feOffset dy="4"/>
<feGaussianBlur stdDeviation="2"/>
<feComposite in2="hardAlpha" operator="out"/>
<feColorMatrix type="matrix" values="0 0 0 0 0 0 0 0 0 0 0 0 0 0 0 0 0 0 0.25 0"/>
<feBlend mode="normal" in2="BackgroundImageFix" result="effect1_dropShadow_997_2448"/>
<feBlend mode="normal" in="SourceGraphic" in2="effect1_dropShadow_997_2448" result="shape"/>
</filter>
<filter id="filter26_d_997_2448" x="246" y="217" width="20" height="18" filterUnits="userSpaceOnUse" color-interpolation-filters="sRGB">
<feFlood flood-opacity="0" result="BackgroundImageFix"/>
<feColorMatrix in="SourceAlpha" type="matrix" values="0 0 0 0 0 0 0 0 0 0 0 0 0 0 0 0 0 0 127 0" result="hardAlpha"/>
<feOffset dy="4"/>
<feGaussianBlur stdDeviation="2"/>
<feComposite in2="hardAlpha" operator="out"/>
<feColorMatrix type="matrix" values="0 0 0 0 0 0 0 0 0 0 0 0 0 0 0 0 0 0 0.25 0"/>
<feBlend mode="normal" in2="BackgroundImageFix" result="effect1_dropShadow_997_2448"/>
<feBlend mode="normal" in="SourceGraphic" in2="effect1_dropShadow_997_2448" result="shape"/>
</filter>
<filter id="filter27_d_997_2448" x="258" y="217" width="9" height="18" filterUnits="userSpaceOnUse" color-interpolation-filters="sRGB">
<feFlood flood-opacity="0" result="BackgroundImageFix"/>
<feColorMatrix in="SourceAlpha" type="matrix" values="0 0 0 0 0 0 0 0 0 0 0 0 0 0 0 0 0 0 127 0" result="hardAlpha"/>
<feOffset dy="4"/>
<feGaussianBlur stdDeviation="2"/>
<feComposite in2="hardAlpha" operator="out"/>
<feColorMatrix type="matrix" values="0 0 0 0 0 0 0 0 0 0 0 0 0 0 0 0 0 0 0.25 0"/>
<feBlend mode="normal" in2="BackgroundImageFix" result="effect1_dropShadow_997_2448"/>
<feBlend mode="normal" in="SourceGraphic" in2="effect1_dropShadow_997_2448" result="shape"/>
</filter>
<linearGradient id="paint0_linear_997_2448" x1="177" y1="186.5" x2="177" y2="188" gradientUnits="userSpaceOnUse">
<stop stop-color="#1A2A48"/>
<stop offset="1" stop-color="#41310F"/>
</linearGradient>
<linearGradient id="paint1_linear_997_2448" x1="137.891" y1="142.838" x2="149.603" y2="243.27" gradientUnits="userSpaceOnUse">
<stop stop-color="#D9C48A"/>
<stop offset="1" stop-color="#736849"/>
</linearGradient>
<linearGradient id="paint2_linear_997_2448" x1="98.3072" y1="190.714" x2="44.8514" y2="264.329" gradientUnits="userSpaceOnUse">
<stop stop-color="#D9C48A"/>
<stop offset="1" stop-color="#736849"/>
</linearGradient>
<linearGradient id="paint3_linear_997_2448" x1="55.0979" y1="147.158" x2="54.9306" y2="242.01" gradientUnits="userSpaceOnUse">
<stop stop-color="#D9C48A"/>
<stop offset="1" stop-color="#736849"/>
</linearGradient>
</defs>
</svg>
