<svg xmlns="http://www.w3.org/2000/svg" width="313" height="238" fill="none" viewBox="0 0 313 238"><path fill="#0073CC" d="M79.9474 194.698L19.3421 208.204L0 232L213.408 230.071L219.855 221.71L263.053 186.98L294 143.89L288.842 105.302L263.053 71.8588L228.237 68L192.776 98.2275L209.539 124.596C208.465 120.737 207.734 111.476 213.408 105.302C219.082 99.1278 228.237 106.374 235.329 105.302V121.38L209.539 154.18L146.355 181.192L79.9474 194.698Z"/><path fill="#004A82" d="M29.3158 212.706L76.3816 184.408L167.934 186.98L238.855 170.259L251.75 124.596L243.368 111.09C236.276 112.162 232.408 108.503 232.408 116.878C232.408 119.427 211.111 127.654 211.752 131.56L211.776 131.671C211.766 131.634 211.758 131.597 211.752 131.56L204.684 99.5137L247.237 68L282.053 71.8588L307.842 105.302L313 143.89L282.053 186.98L238.855 221.71L232.408 230.071L19 232L29.3158 212.706Z"/><path stroke="#FFF5F5" d="M52.0175 190.471L93.1601 167.694L173.191 169.765L235.186 156.306L246.458 119.553L239.132 108.682C232.932 109.545 229.55 106.6 229.55 113.341C229.55 115.412 210.576 122.141 211.515 125.247L205.316 99.3647L242.513 74L272.947 77.1059L295.491 104.024L300 135.082L272.947 169.765L235.186 197.718L229.55 204.447L43 206L52.0175 190.471Z"/><ellipse cx="114.126" cy="193.922" fill="#FFC423" rx="97.249" ry="23.185" transform="rotate(-12.3738 114.126 193.922)"/><ellipse cx="112.426" cy="191.887" fill="#685B38" rx="97.249" ry="9.234" transform="rotate(-12.3738 112.426 191.887)"/><path fill="#6FB2E5" d="M123.519 195.471L73.0485 216.824L59 233L262.737 229.777L284.013 195.471L304 147.922L300.776 105.529L280.789 71.8672L243.191 68L214.574 98.4118L228.102 124.941C227.235 121.059 226.645 111.741 231.224 105.529C235.803 99.3176 248.394 95.6078 254.118 94.5294L267.126 124.941L243.191 176.926L180.233 195.471H123.519Z"/><path stroke="#FFF5F5" d="M134.143 208.979L98.7857 216.083L84 229L242.143 225.125L245.357 216.083L276.992 189.262L300 147.519L296.165 110.136L276.992 77.7382L251.109 74L219.474 104.529L225.429 114.042C224.62 112.75 239.571 95.9583 239.571 95.9583C239.571 95.9583 253.585 89.8926 258.857 88.8542L276.992 115.744L264.643 173.458L204.214 201.875L134.143 208.979Z"/><g filter="url(#filter0_d_997_2454)"><path fill="#1B2A74" d="M66.7228 190.12C66.1158 179.373 62.8461 148.353 62.6888 147.051L64.1411 146.688L88.0013 131.87L127.604 130.815L150.151 166.407L152.553 191.926L73.6568 211.658L66.7228 190.12Z"/><ellipse cx="93.031" cy="113.919" fill="#FFD8BD" rx="47.822" ry="43.058" transform="rotate(-14.0418 93.0312 113.919)"/><g filter="url(#filter1_d_997_2454)"><path fill="#B2B1B1" d="M50.0084 127.036L73.3636 152.376L100.064 152.009L125.51 141.004L138.617 108.216C141.227 113.966 146.429 125.787 146.356 127.068C146.282 128.348 144.332 137.627 143.366 142.107L147.427 149.907L134.883 149.518L135.187 179.695L126.71 174.762L123.713 183.585L125.412 192.626L112.754 184.47L105.47 169.124L101.3 170.167C103.318 174.581 107.297 183.571 107.066 184.223C106.835 184.874 103.828 189.177 102.353 191.248C99.439 191.52 93.901 192.06 93.2902 192.2C93.275 192.221 93.2601 192.23 93.2455 192.226C93.2222 192.221 93.2386 192.212 93.2902 192.2C93.6651 191.682 94.2068 183.98 94.0599 183.392C93.9375 182.903 90.0069 178.621 88.0569 176.541L83.5086 169.884L80.5719 181.198L79.4684 191.125L79.6911 199.607C78.1299 197.863 74.8671 193.983 74.3063 192.416C73.7456 190.849 70.4512 181.594 68.8742 177.163L74.4291 168.164L64.6493 164.207C64.4239 166.305 63.8392 171.202 63.3035 174.009C62.7678 176.816 63.6242 181.477 64.1193 183.456C62.0667 181.248 57.9577 176.534 57.9429 175.35C57.928 174.166 57.3881 170.601 57.12 168.967L55.394 152.787L50.7483 140.678L50.0084 127.036Z"/></g><g filter="url(#filter2_d_997_2454)"><path fill="#B2B1B1" d="M115.176 120.363C114.233 126.198 121.629 133.612 133.123 137.517C144.617 141.422 149.364 145.882 150.813 142.659C138.868 138.601 154.177 120.258 142.682 116.353C131.188 112.448 116.119 114.529 115.176 120.363Z"/></g><g filter="url(#filter3_d_997_2454)"><path fill="#D9D9D9" d="M116.099 118.408C113 124.088 118.611 133.877 130.012 141.307C141.412 148.737 145.855 155.831 148.598 152.972C136.75 145.25 153.193 130.275 141.793 122.845C130.392 115.415 119.199 112.728 116.099 118.408Z"/></g><g filter="url(#filter4_d_997_2454)"><path fill="#D9D9D9" d="M51.518 109.545L68.886 85.6877L80.7404 81.1871L115.289 77.7039L131.514 92.9386L142.619 117.571L141.736 95.0609L125.729 72.7051L101.738 63.233L87.5102 66.7913L66.0662 72.1545L49.4419 87.2171L43.4527 104.127L41.5528 123.239L53.1896 139.938L52.6944 128.132L51.518 109.545Z"/></g><g filter="url(#filter5_d_997_2454)"><path fill="#A6A0A0" d="M75.8589 126.663C78.8354 132.432 74.3151 142.108 64.5922 149.276C54.8694 156.444 51.2624 163.446 48.722 160.512C58.8262 153.063 43.6913 137.646 53.4142 130.478C63.1371 123.311 72.8823 120.893 75.8589 126.663Z"/></g><g filter="url(#filter6_d_997_2454)"><path fill="#D9D9D9" d="M75.8793 133.111C81.2877 136.663 80.9455 147.941 74.3849 159.863C67.8243 171.786 67.2444 180.135 63.4782 178.904C70.2961 166.514 48.7388 161.043 55.2995 149.12C61.8601 137.198 70.4709 129.559 75.8793 133.111Z"/></g><g filter="url(#filter7_d_997_2454)"><path fill="#D9D9D9" d="M95.6673 126.025C97.3012 132.559 109.271 135.192 122.402 131.908C135.533 128.624 151.065 109.936 151.083 105.742C137.437 109.154 127.774 105.426 114.643 108.71C101.512 111.995 94.0333 119.492 95.6673 126.025Z"/></g><g filter="url(#filter8_d_997_2454)"><path fill="#D9D9D9" d="M96.8519 131.056C96.6295 137.765 85.4826 142.84 71.9546 142.391C58.4266 141.943 39.3092 126.987 38.4085 122.903C52.467 123.369 65.4507 117.584 78.9787 118.033C92.5067 118.481 97.0743 124.347 96.8519 131.056Z"/></g><ellipse cx="74.04" cy="110.617" fill="#3D1B11" rx="3.906" ry="5.335" transform="rotate(-14.0418 74.0404 110.617)"/><ellipse cx="107.125" cy="102.342" fill="#3D1B11" rx="3.906" ry="5.335" transform="rotate(-14.0418 107.125 102.342)"/><path fill="#D9D9D9" d="M79.3723 97.6633C80.5011 100.684 74.5069 101.827 68.6612 104.011C62.8156 106.195 54.113 105.993 52.9845 104.337C59.0594 102.067 60.8984 98.3321 66.744 96.148C72.5897 93.9639 78.2436 94.6423 79.3723 97.6633Z"/><path fill="#D9D9D9" d="M95.4169 91.2896C95.8559 94.4088 101.589 92.5887 107.681 91.7312C113.773 90.8738 121.223 86.6338 121.424 84.6856C115.092 85.5767 111.746 83.2318 105.653 84.0892C99.561 84.9466 94.978 88.1703 95.4169 91.2896Z"/><path fill="#FFD13B" d="M155.589 129.274L145.547 194.169L147.713 194.854L161.537 130.68L173.569 121.933L181.264 95.3321L174.058 102.228L176.554 103.772L173.209 113.843L164.514 121.158L163.256 112.073L166.66 91.2774L170.798 92.3458L167.757 80.9038L160.669 90.0431L164.093 91.0432L160.62 111.378L156.386 120.122L150.797 108.905L151.288 98.2223L154.143 97.8268L149.939 88.4824L147.587 116.23L155.589 129.274Z"/><g filter="url(#filter9_d_997_2454)"><path fill="#FFD13B" d="M73.475 62.9242L54.2481 76.6905L47.1517 62.6492L54.6507 64.1742L51.6689 47.9233L65.7992 55.3058L59.6275 33.1472L76.948 49.0643L75.0711 32.4763L87.2013 43.3241L92.8216 37.0815L100.407 49.1601L84.7582 56.6074L73.475 62.9242Z"/></g></g><defs><filter id="filter0_d_997_2454" width="150.856" height="187.182" x="34.408" y="32.476" color-interpolation-filters="sRGB" filterUnits="userSpaceOnUse"><feFlood flood-opacity="0" result="BackgroundImageFix"/><feColorMatrix in="SourceAlpha" result="hardAlpha" type="matrix" values="0 0 0 0 0 0 0 0 0 0 0 0 0 0 0 0 0 0 127 0"/><feOffset dy="4"/><feGaussianBlur stdDeviation="2"/><feComposite in2="hardAlpha" operator="out"/><feColorMatrix type="matrix" values="0 0 0 0 0 0 0 0 0 0 0 0 0 0 0 0 0 0 0.25 0"/><feBlend in2="BackgroundImageFix" mode="normal" result="effect1_dropShadow_997_2454"/><feBlend in="SourceGraphic" in2="effect1_dropShadow_997_2454" mode="normal" result="shape"/></filter><filter id="filter1_d_997_2454" width="105.418" height="99.391" x="46.009" y="108.216" color-interpolation-filters="sRGB" filterUnits="userSpaceOnUse"><feFlood flood-opacity="0" result="BackgroundImageFix"/><feColorMatrix in="SourceAlpha" result="hardAlpha" type="matrix" values="0 0 0 0 0 0 0 0 0 0 0 0 0 0 0 0 0 0 127 0"/><feOffset dy="4"/><feGaussianBlur stdDeviation="2"/><feComposite in2="hardAlpha" operator="out"/><feColorMatrix type="matrix" values="0 0 0 0 0 0 0 0 0 0 0 0 0 0 0 0 0 0 0.25 0"/><feBlend in2="BackgroundImageFix" mode="normal" result="effect1_dropShadow_997_2454"/><feBlend in="SourceGraphic" in2="effect1_dropShadow_997_2454" mode="normal" result="shape"/></filter><filter id="filter2_d_997_2454" width="43.717" height="37.409" x="111.096" y="114.357" color-interpolation-filters="sRGB" filterUnits="userSpaceOnUse"><feFlood flood-opacity="0" result="BackgroundImageFix"/><feColorMatrix in="SourceAlpha" result="hardAlpha" type="matrix" values="0 0 0 0 0 0 0 0 0 0 0 0 0 0 0 0 0 0 127 0"/><feOffset dy="4"/><feGaussianBlur stdDeviation="2"/><feComposite in2="hardAlpha" operator="out"/><feColorMatrix type="matrix" values="0 0 0 0 0 0 0 0 0 0 0 0 0 0 0 0 0 0 0.25 0"/><feBlend in2="BackgroundImageFix" mode="normal" result="effect1_dropShadow_997_2454"/><feBlend in="SourceGraphic" in2="effect1_dropShadow_997_2454" mode="normal" result="shape"/></filter><filter id="filter3_d_997_2454" width="41.343" height="46.264" x="111.255" y="115.356" color-interpolation-filters="sRGB" filterUnits="userSpaceOnUse"><feFlood flood-opacity="0" result="BackgroundImageFix"/><feColorMatrix in="SourceAlpha" result="hardAlpha" type="matrix" values="0 0 0 0 0 0 0 0 0 0 0 0 0 0 0 0 0 0 127 0"/><feOffset dy="4"/><feGaussianBlur stdDeviation="2"/><feComposite in2="hardAlpha" operator="out"/><feColorMatrix type="matrix" values="0 0 0 0 0 0 0 0 0 0 0 0 0 0 0 0 0 0 0.25 0"/><feBlend in2="BackgroundImageFix" mode="normal" result="effect1_dropShadow_997_2454"/><feBlend in="SourceGraphic" in2="effect1_dropShadow_997_2454" mode="normal" result="shape"/></filter><filter id="filter4_d_997_2454" width="111.065" height="86.705" x="36.553" y="60.233" color-interpolation-filters="sRGB" filterUnits="userSpaceOnUse"><feFlood flood-opacity="0" result="BackgroundImageFix"/><feColorMatrix in="SourceAlpha" result="hardAlpha" type="matrix" values="0 0 0 0 0 0 0 0 0 0 0 0 0 0 0 0 0 0 127 0"/><feOffset dy="2"/><feGaussianBlur stdDeviation="2.5"/><feComposite in2="hardAlpha" operator="out"/><feColorMatrix type="matrix" values="0 0 0 0 0 0 0 0 0 0 0 0 0 0 0 0 0 0 0.25 0"/><feBlend in2="BackgroundImageFix" mode="normal" result="effect1_dropShadow_997_2454"/><feBlend in="SourceGraphic" in2="effect1_dropShadow_997_2454" mode="normal" result="shape"/></filter><filter id="filter5_d_997_2454" width="36.042" height="45.754" x="44.722" y="123.443" color-interpolation-filters="sRGB" filterUnits="userSpaceOnUse"><feFlood flood-opacity="0" result="BackgroundImageFix"/><feColorMatrix in="SourceAlpha" result="hardAlpha" type="matrix" values="0 0 0 0 0 0 0 0 0 0 0 0 0 0 0 0 0 0 127 0"/><feOffset dy="4"/><feGaussianBlur stdDeviation="2"/><feComposite in2="hardAlpha" operator="out"/><feColorMatrix type="matrix" values="0 0 0 0 0 0 0 0 0 0 0 0 0 0 0 0 0 0 0.25 0"/><feBlend in2="BackgroundImageFix" mode="normal" result="effect1_dropShadow_997_2454"/><feBlend in="SourceGraphic" in2="effect1_dropShadow_997_2454" mode="normal" result="shape"/></filter><filter id="filter6_d_997_2454" width="33.605" height="54.789" x="50.041" y="132.235" color-interpolation-filters="sRGB" filterUnits="userSpaceOnUse"><feFlood flood-opacity="0" result="BackgroundImageFix"/><feColorMatrix in="SourceAlpha" result="hardAlpha" type="matrix" values="0 0 0 0 0 0 0 0 0 0 0 0 0 0 0 0 0 0 127 0"/><feOffset dy="4"/><feGaussianBlur stdDeviation="2"/><feComposite in2="hardAlpha" operator="out"/><feColorMatrix type="matrix" values="0 0 0 0 0 0 0 0 0 0 0 0 0 0 0 0 0 0 0.25 0"/><feBlend in2="BackgroundImageFix" mode="normal" result="effect1_dropShadow_997_2454"/><feBlend in="SourceGraphic" in2="effect1_dropShadow_997_2454" mode="normal" result="shape"/></filter><filter id="filter7_d_997_2454" width="63.638" height="35.58" x="91.445" y="103.742" color-interpolation-filters="sRGB" filterUnits="userSpaceOnUse"><feFlood flood-opacity="0" result="BackgroundImageFix"/><feColorMatrix in="SourceAlpha" result="hardAlpha" type="matrix" values="0 0 0 0 0 0 0 0 0 0 0 0 0 0 0 0 0 0 127 0"/><feOffset dy="2"/><feGaussianBlur stdDeviation="2"/><feComposite in2="hardAlpha" operator="out"/><feColorMatrix type="matrix" values="0 0 0 0 0 0 0 0 0 0 0 0 0 0 0 0 0 0 0.25 0"/><feBlend in2="BackgroundImageFix" mode="normal" result="effect1_dropShadow_997_2454"/><feBlend in="SourceGraphic" in2="effect1_dropShadow_997_2454" mode="normal" result="shape"/></filter><filter id="filter8_d_997_2454" width="66.451" height="32.411" x="34.408" y="116.008" color-interpolation-filters="sRGB" filterUnits="userSpaceOnUse"><feFlood flood-opacity="0" result="BackgroundImageFix"/><feColorMatrix in="SourceAlpha" result="hardAlpha" type="matrix" values="0 0 0 0 0 0 0 0 0 0 0 0 0 0 0 0 0 0 127 0"/><feOffset dy="2"/><feGaussianBlur stdDeviation="2"/><feComposite in2="hardAlpha" operator="out"/><feColorMatrix type="matrix" values="0 0 0 0 0 0 0 0 0 0 0 0 0 0 0 0 0 0 0.25 0"/><feBlend in2="BackgroundImageFix" mode="normal" result="effect1_dropShadow_997_2454"/><feBlend in="SourceGraphic" in2="effect1_dropShadow_997_2454" mode="normal" result="shape"/></filter><filter id="filter9_d_997_2454" width="61.256" height="52.214" x="43.151" y="30.476" color-interpolation-filters="sRGB" filterUnits="userSpaceOnUse"><feFlood flood-opacity="0" result="BackgroundImageFix"/><feColorMatrix in="SourceAlpha" result="hardAlpha" type="matrix" values="0 0 0 0 0 0 0 0 0 0 0 0 0 0 0 0 0 0 127 0"/><feOffset dy="2"/><feGaussianBlur stdDeviation="2"/><feComposite in2="hardAlpha" operator="out"/><feColorMatrix type="matrix" values="0 0 0 0 0 0 0 0 0 0 0 0 0 0 0 0 0 0 0.25 0"/><feBlend in2="BackgroundImageFix" mode="normal" result="effect1_dropShadow_997_2454"/><feBlend in="SourceGraphic" in2="effect1_dropShadow_997_2454" mode="normal" result="shape"/></filter></defs></svg>