<svg xmlns="http://www.w3.org/2000/svg" width="342" height="239" fill="none" viewBox="0 0 342 239"><g filter="url(#filter0_d_997_2457)"><path fill="#A4C4FF" d="M309.934 147.953C333.583 129.886 337.207 191.39 321.377 201C282.089 171.017 292.388 197.812 292.388 171.593C222.572 171.593 216.021 132 242.038 132C357.965 213.685 277.703 152.95 309.934 147.953Z"/></g><g filter="url(#filter1_d_997_2457)"><path fill="#A4C3FE" d="M245.934 92.9527C269.583 74.8858 273.207 136.39 257.377 146C218.089 116.017 228.388 142.812 228.388 116.593C158.572 116.593 152.021 77.0001 178.038 77.0001C219.5 56.5002 213.703 97.9499 245.934 92.9527Z"/></g><g filter="url(#filter2_d_997_2457)"><path fill="#fff" d="M238.934 98.6858C262.583 80.619 266.207 142.123 250.377 151.733C211.089 121.75 221.388 148.545 221.388 122.327C151.572 122.327 145.021 82.7332 171.038 82.7332C212.5 62.2333 206.703 103.683 238.934 98.6858Z"/></g><path fill="#fff" d="M342 176.592C342 202.623 334.464 218 308.45 218C282.436 218 325.232 215.408 325.232 189.377C255.422 189.377 185.547 139 211.561 139C305.386 192.43 303.274 116.865 342 176.592Z"/><g filter="url(#filter3_d_997_2457)"><path fill="#D4F7FF" d="M336 186.28C336 201.991 327.49 210.421 311.438 220C271.597 190.112 329.276 216.248 329.276 190.112C258.477 190.112 188.297 138 214.68 138C332.238 219.425 323.179 151.794 336 186.28Z"/></g><g filter="url(#filter4_d_997_2457)"><path fill="#A4C3FE" d="M107.934 45.9526C131.583 27.8858 135.207 89.39 119.377 99C80.0891 69.0167 90.3883 95.8122 90.3883 69.5933C20.5715 69.5933 14.0212 30 40.0381 30C155.965 111.685 75.7026 50.9499 107.934 45.9526Z"/></g><path fill="#fff" d="M140 74.5918C140 100.623 132.464 116 106.45 116C80.436 116 123.232 113.408 123.232 87.3768C53.4221 87.3768 -16.4533 37 9.56093 37C103.386 90.43 101.274 14.8648 140 74.5918Z"/><g filter="url(#filter5_d_997_2457)"><path fill="#D4F7FF" d="M138.144 66.2808C141.325 81.6658 134.698 91.6439 120.917 104.275C75.8505 83.0712 137.626 96.9888 132.335 71.3945C63.0021 85.7273 -16.2744 48.9017 9.56219 43.5606C141.17 99.501 118.607 35.1044 138.144 66.2808Z"/></g><g filter="url(#filter6_d_997_2457)"><path fill="#A4C3FE" d="M137.377 96.0001C161.026 77.9332 153.207 152.39 137.377 162C98.0887 132.017 108.388 158.812 108.388 132.593C38.5711 132.593 33.4818 87.5001 59.4987 87.5001C140.499 79 105.145 100.997 137.377 96.0001Z"/></g><path fill="#fff" d="M158 137.592C158 163.622 150.464 179 124.45 179C98.436 179 141.232 176.407 141.232 150.377C71.4221 150.377 1.54672 99.9999 27.5609 99.9999C96 99.9999 119.274 77.8647 158 137.592Z"/><g filter="url(#filter7_d_997_2457)"><path fill="#D4F7FF" d="M162 156.28C162 171.991 153.49 180.421 137.438 190C97.5969 160.112 155.276 186.248 155.276 160.112C84.4768 160.112 14.2969 108 40.6798 108C107 110.5 149.179 121.794 162 156.28Z"/></g><g filter="url(#filter8_d_997_2457)"><path fill="#B4B4B4" d="M256 152.203C256 198.834 218.273 226.147 170.5 226.147C122.727 226.147 99 193.065 99 146.434C99 99.8029 130.727 65.1475 178.5 65.1475C222 99.2354 246.5 105.004 256 152.203Z"/></g><path fill="#fff" d="M331 80.5918C331 106.623 323.464 122 297.45 122C271.436 122 314.232 119.408 314.232 93.3768C244.422 93.3768 174.547 43 200.561 43C294.386 96.43 292.274 20.8648 331 80.5918Z"/><g filter="url(#filter9_d_997_2457)"><path fill="#CFCFCF" d="M136.361 212.647C136.361 231.977 106.935 230.647 86.5 230.647C66.0655 230.647 44 231.977 44 212.647C44 193.317 81.5655 171.147 102 171.147C122.435 171.147 136.361 193.317 136.361 212.647Z"/></g><g filter="url(#filter10_d_997_2457)"><path fill="#CFCFCF" d="M93.6257 180.391C70.6257 180.391 66.8382 159.903 66.1257 146.391C65.4131 132.879 98.8825 84.3166 111.567 83.6477C140.123 87.1843 110.855 128.131 111.568 141.644C112.28 155.156 106.311 179.722 93.6257 180.391Z"/></g><g filter="url(#filter11_d_997_2457)"><path fill="#CFCFCF" d="M266.5 201.147C266.5 220.477 246.435 228.147 226 228.147C205.565 228.147 189 220.477 189 201.147C189 181.817 205.565 166.147 226 166.147C246.435 166.147 266.5 181.817 266.5 201.147Z"/></g><g filter="url(#filter12_d_997_2457)"><path fill="#CFCFCF" d="M237.887 188.048C250.25 190.968 263.083 177.077 266.193 163.908C269.303 150.739 247.671 123.571 235.308 120.652C222.946 117.732 226.765 143.776 223.655 156.945C220.545 170.113 225.525 185.129 237.887 188.048Z"/></g><ellipse cx="133.5" cy="18.648" fill="#BCBCBC" rx="20.5" ry="15.5"/><ellipse cx="229.5" cy="34.148" fill="#BCBCBC" rx="15.5" ry="12"/><g filter="url(#filter13_d_997_2457)"><path fill="#CFCFCF" d="M236.319 63.4481C232.829 82.612 202.737 93.1829 169.106 87.0588C135.476 80.9347 111.042 60.4347 114.532 41.2708C118.021 22.1069 153.906 5.80153 187.537 11.9256C221.167 18.0497 239.808 44.2842 236.319 63.4481Z"/></g><defs><filter id="filter0_d_997_2457" width="111" height="77" x="224" y="132" color-interpolation-filters="sRGB" filterUnits="userSpaceOnUse"><feFlood flood-opacity="0" result="BackgroundImageFix"/><feColorMatrix in="SourceAlpha" result="hardAlpha" type="matrix" values="0 0 0 0 0 0 0 0 0 0 0 0 0 0 0 0 0 0 127 0"/><feOffset dy="4"/><feGaussianBlur stdDeviation="2"/><feComposite in2="hardAlpha" operator="out"/><feColorMatrix type="matrix" values="0 0 0 0 0 0 0 0 0 0 0 0 0 0 0 0 0 0 0.25 0"/><feBlend in2="BackgroundImageFix" mode="normal" result="effect1_dropShadow_997_2457"/><feBlend in="SourceGraphic" in2="effect1_dropShadow_997_2457" mode="normal" result="shape"/></filter><filter id="filter1_d_997_2457" width="111" height="82.733" x="160" y="71.267" color-interpolation-filters="sRGB" filterUnits="userSpaceOnUse"><feFlood flood-opacity="0" result="BackgroundImageFix"/><feColorMatrix in="SourceAlpha" result="hardAlpha" type="matrix" values="0 0 0 0 0 0 0 0 0 0 0 0 0 0 0 0 0 0 127 0"/><feOffset dy="4"/><feGaussianBlur stdDeviation="2"/><feComposite in2="hardAlpha" operator="out"/><feColorMatrix type="matrix" values="0 0 0 0 0 0 0 0 0 0 0 0 0 0 0 0 0 0 0.25 0"/><feBlend in2="BackgroundImageFix" mode="normal" result="effect1_dropShadow_997_2457"/><feBlend in="SourceGraphic" in2="effect1_dropShadow_997_2457" mode="normal" result="shape"/></filter><filter id="filter2_d_997_2457" width="111" height="82.733" x="153" y="77" color-interpolation-filters="sRGB" filterUnits="userSpaceOnUse"><feFlood flood-opacity="0" result="BackgroundImageFix"/><feColorMatrix in="SourceAlpha" result="hardAlpha" type="matrix" values="0 0 0 0 0 0 0 0 0 0 0 0 0 0 0 0 0 0 127 0"/><feOffset dy="4"/><feGaussianBlur stdDeviation="2"/><feComposite in2="hardAlpha" operator="out"/><feColorMatrix type="matrix" values="0 0 0 0 0 0 0 0 0 0 0 0 0 0 0 0 0 0 0.25 0"/><feBlend in2="BackgroundImageFix" mode="normal" result="effect1_dropShadow_997_2457"/><feBlend in="SourceGraphic" in2="effect1_dropShadow_997_2457" mode="normal" result="shape"/></filter><filter id="filter3_d_997_2457" width="135" height="90" x="205" y="138" color-interpolation-filters="sRGB" filterUnits="userSpaceOnUse"><feFlood flood-opacity="0" result="BackgroundImageFix"/><feColorMatrix in="SourceAlpha" result="hardAlpha" type="matrix" values="0 0 0 0 0 0 0 0 0 0 0 0 0 0 0 0 0 0 127 0"/><feOffset dy="4"/><feGaussianBlur stdDeviation="2"/><feComposite in2="hardAlpha" operator="out"/><feColorMatrix type="matrix" values="0 0 0 0 0 0 0 0 0 0 0 0 0 0 0 0 0 0 0.25 0"/><feBlend in2="BackgroundImageFix" mode="normal" result="effect1_dropShadow_997_2457"/><feBlend in="SourceGraphic" in2="effect1_dropShadow_997_2457" mode="normal" result="shape"/></filter><filter id="filter4_d_997_2457" width="111" height="77" x="22" y="30" color-interpolation-filters="sRGB" filterUnits="userSpaceOnUse"><feFlood flood-opacity="0" result="BackgroundImageFix"/><feColorMatrix in="SourceAlpha" result="hardAlpha" type="matrix" values="0 0 0 0 0 0 0 0 0 0 0 0 0 0 0 0 0 0 127 0"/><feOffset dy="4"/><feGaussianBlur stdDeviation="2"/><feComposite in2="hardAlpha" operator="out"/><feColorMatrix type="matrix" values="0 0 0 0 0 0 0 0 0 0 0 0 0 0 0 0 0 0 0.25 0"/><feBlend in2="BackgroundImageFix" mode="normal" result="effect1_dropShadow_997_2457"/><feBlend in="SourceGraphic" in2="effect1_dropShadow_997_2457" mode="normal" result="shape"/></filter><filter id="filter5_d_997_2457" width="142.369" height="68.714" x=".561" y="43.56" color-interpolation-filters="sRGB" filterUnits="userSpaceOnUse"><feFlood flood-opacity="0" result="BackgroundImageFix"/><feColorMatrix in="SourceAlpha" result="hardAlpha" type="matrix" values="0 0 0 0 0 0 0 0 0 0 0 0 0 0 0 0 0 0 127 0"/><feOffset dy="4"/><feGaussianBlur stdDeviation="2"/><feComposite in2="hardAlpha" operator="out"/><feColorMatrix type="matrix" values="0 0 0 0 0 0 0 0 0 0 0 0 0 0 0 0 0 0 0.25 0"/><feBlend in2="BackgroundImageFix" mode="normal" result="effect1_dropShadow_997_2457"/><feBlend in="SourceGraphic" in2="effect1_dropShadow_997_2457" mode="normal" result="shape"/></filter><filter id="filter6_d_997_2457" width="115.271" height="84.475" x="41.054" y="85.525" color-interpolation-filters="sRGB" filterUnits="userSpaceOnUse"><feFlood flood-opacity="0" result="BackgroundImageFix"/><feColorMatrix in="SourceAlpha" result="hardAlpha" type="matrix" values="0 0 0 0 0 0 0 0 0 0 0 0 0 0 0 0 0 0 127 0"/><feOffset dy="4"/><feGaussianBlur stdDeviation="2"/><feComposite in2="hardAlpha" operator="out"/><feColorMatrix type="matrix" values="0 0 0 0 0 0 0 0 0 0 0 0 0 0 0 0 0 0 0.25 0"/><feBlend in2="BackgroundImageFix" mode="normal" result="effect1_dropShadow_997_2457"/><feBlend in="SourceGraphic" in2="effect1_dropShadow_997_2457" mode="normal" result="shape"/></filter><filter id="filter7_d_997_2457" width="135" height="90" x="31" y="108" color-interpolation-filters="sRGB" filterUnits="userSpaceOnUse"><feFlood flood-opacity="0" result="BackgroundImageFix"/><feColorMatrix in="SourceAlpha" result="hardAlpha" type="matrix" values="0 0 0 0 0 0 0 0 0 0 0 0 0 0 0 0 0 0 127 0"/><feOffset dy="4"/><feGaussianBlur stdDeviation="2"/><feComposite in2="hardAlpha" operator="out"/><feColorMatrix type="matrix" values="0 0 0 0 0 0 0 0 0 0 0 0 0 0 0 0 0 0 0.25 0"/><feBlend in2="BackgroundImageFix" mode="normal" result="effect1_dropShadow_997_2457"/><feBlend in="SourceGraphic" in2="effect1_dropShadow_997_2457" mode="normal" result="shape"/></filter><filter id="filter8_d_997_2457" width="165" height="169" x="95" y="65.147" color-interpolation-filters="sRGB" filterUnits="userSpaceOnUse"><feFlood flood-opacity="0" result="BackgroundImageFix"/><feColorMatrix in="SourceAlpha" result="hardAlpha" type="matrix" values="0 0 0 0 0 0 0 0 0 0 0 0 0 0 0 0 0 0 127 0"/><feOffset dy="4"/><feGaussianBlur stdDeviation="2"/><feComposite in2="hardAlpha" operator="out"/><feColorMatrix type="matrix" values="0 0 0 0 0 0 0 0 0 0 0 0 0 0 0 0 0 0 1 0"/><feBlend in2="BackgroundImageFix" mode="normal" result="effect1_dropShadow_997_2457"/><feBlend in="SourceGraphic" in2="effect1_dropShadow_997_2457" mode="normal" result="shape"/></filter><filter id="filter9_d_997_2457" width="100.361" height="67.519" x="40" y="171.147" color-interpolation-filters="sRGB" filterUnits="userSpaceOnUse"><feFlood flood-opacity="0" result="BackgroundImageFix"/><feColorMatrix in="SourceAlpha" result="hardAlpha" type="matrix" values="0 0 0 0 0 0 0 0 0 0 0 0 0 0 0 0 0 0 127 0"/><feOffset dy="4"/><feGaussianBlur stdDeviation="2"/><feComposite in2="hardAlpha" operator="out"/><feColorMatrix type="matrix" values="0 0 0 0 0 0 0 0 0 0 0 0 0 0 0 0 0 0 1 0"/><feBlend in2="BackgroundImageFix" mode="normal" result="effect1_dropShadow_997_2457"/><feBlend in="SourceGraphic" in2="effect1_dropShadow_997_2457" mode="normal" result="shape"/></filter><filter id="filter10_d_997_2457" width="65.988" height="104.743" x="62.114" y="83.648" color-interpolation-filters="sRGB" filterUnits="userSpaceOnUse"><feFlood flood-opacity="0" result="BackgroundImageFix"/><feColorMatrix in="SourceAlpha" result="hardAlpha" type="matrix" values="0 0 0 0 0 0 0 0 0 0 0 0 0 0 0 0 0 0 127 0"/><feOffset dy="4"/><feGaussianBlur stdDeviation="2"/><feComposite in2="hardAlpha" operator="out"/><feColorMatrix type="matrix" values="0 0 0 0 0 0 0 0 0 0 0 0 0 0 0 0 0 0 1 0"/><feBlend in2="BackgroundImageFix" mode="normal" result="effect1_dropShadow_997_2457"/><feBlend in="SourceGraphic" in2="effect1_dropShadow_997_2457" mode="normal" result="shape"/></filter><filter id="filter11_d_997_2457" width="85.5" height="70" x="185" y="166.147" color-interpolation-filters="sRGB" filterUnits="userSpaceOnUse"><feFlood flood-opacity="0" result="BackgroundImageFix"/><feColorMatrix in="SourceAlpha" result="hardAlpha" type="matrix" values="0 0 0 0 0 0 0 0 0 0 0 0 0 0 0 0 0 0 127 0"/><feOffset dy="4"/><feGaussianBlur stdDeviation="2"/><feComposite in2="hardAlpha" operator="out"/><feColorMatrix type="matrix" values="0 0 0 0 0 0 0 0 0 0 0 0 0 0 0 0 0 0 1 0"/><feBlend in2="BackgroundImageFix" mode="normal" result="effect1_dropShadow_997_2457"/><feBlend in="SourceGraphic" in2="effect1_dropShadow_997_2457" mode="normal" result="shape"/></filter><filter id="filter12_d_997_2457" width="51.742" height="76.016" x="218.753" y="120.425" color-interpolation-filters="sRGB" filterUnits="userSpaceOnUse"><feFlood flood-opacity="0" result="BackgroundImageFix"/><feColorMatrix in="SourceAlpha" result="hardAlpha" type="matrix" values="0 0 0 0 0 0 0 0 0 0 0 0 0 0 0 0 0 0 127 0"/><feOffset dy="4"/><feGaussianBlur stdDeviation="2"/><feComposite in2="hardAlpha" operator="out"/><feColorMatrix type="matrix" values="0 0 0 0 0 0 0 0 0 0 0 0 0 0 0 0 0 0 1 0"/><feBlend in2="BackgroundImageFix" mode="normal" result="effect1_dropShadow_997_2457"/><feBlend in="SourceGraphic" in2="effect1_dropShadow_997_2457" mode="normal" result="shape"/></filter><filter id="filter13_d_997_2457" width="130.536" height="86.181" x="110.199" y="10.617" color-interpolation-filters="sRGB" filterUnits="userSpaceOnUse"><feFlood flood-opacity="0" result="BackgroundImageFix"/><feColorMatrix in="SourceAlpha" result="hardAlpha" type="matrix" values="0 0 0 0 0 0 0 0 0 0 0 0 0 0 0 0 0 0 127 0"/><feOffset dy="4"/><feGaussianBlur stdDeviation="2"/><feComposite in2="hardAlpha" operator="out"/><feColorMatrix type="matrix" values="0 0 0 0 0 0 0 0 0 0 0 0 0 0 0 0 0 0 1 0"/><feBlend in2="BackgroundImageFix" mode="normal" result="effect1_dropShadow_997_2457"/><feBlend in="SourceGraphic" in2="effect1_dropShadow_997_2457" mode="normal" result="shape"/></filter></defs></svg>