<svg xmlns="http://www.w3.org/2000/svg" width="308" height="290" fill="none" viewBox="4 0 284 285"><ellipse cx="146" cy="142.5" fill="#022603" rx="142" ry="142.5"/><g filter="url(#filter0_d_997_2439)"><path fill="#D9D9D9" d="M298.833 90.7609L301.777 79.1922L286.898 91.0469L298.833 90.7609Z"/></g><g filter="url(#filter1_d_997_2439)"><path fill="#1C5093" d="M235.857 24.3295L235.152 14.2021L226.163 27.3432L235.857 24.3295Z"/></g><g filter="url(#filter2_d_997_2439)"><path fill="#3C6D86" d="M228.731 55.0647L224.629 49.1465L222.349 58.3992L228.731 55.0647Z"/></g><g filter="url(#filter3_d_997_2439)"><path fill="#1C5093" d="M287.255 26.196L284.644 17.0074L278.073 28.8303L287.255 26.196Z"/></g><g filter="url(#filter4_d_997_2439)"><path fill="#D9D9D9" d="M222.34 76.3125L224.557 68.9006L214.672 75.2884L222.34 76.3125Z"/></g><g filter="url(#filter5_d_997_2439)"><path fill="#1C5093" d="M263.34 83.312L265.557 75.9001L255.672 82.2879L263.34 83.312Z"/></g><g filter="url(#filter6_d_997_2439)"><path fill="#3C6D86" d="M296.991 67.7628L297.267 60.0313L289.312 68.7058L296.991 67.7628Z"/></g><g filter="url(#filter7_d_997_2439)"><path fill="#D9D9D9" d="M245.905 109.965L239.77 103.307L237.58 113.524L245.905 109.965Z"/></g><g filter="url(#filter8_d_997_2439)"><path fill="#D9D9D9" d="M258.278 43.7111L249.595 41.1482L252.963 51.0401L258.278 43.7111Z"/></g><g filter="url(#filter9_d_997_2439)"><path fill="#A8987B" d="M149.899 232.428L126.694 282H166.4L205.589 269.735L182.901 224.762L156.087 190.011L163.306 171.102L187.026 162.414L236.529 145.55L285 127.663V108.243L279.328 97L267.468 113.354L216.418 131.751L166.4 145.55L133.398 140.95L45.221 131.751L7.06262 119.997L5 145.55L35.4236 151.171L133.398 171.102L124.116 192.055L149.899 232.428Z"/></g><g filter="url(#filter10_d_997_2439)"><rect width="7" height="109" x="152" y="26" fill="#55330D"/></g><g filter="url(#filter11_d_997_2439)"><path fill="#55330D" d="M136.026 47.1285L177.456 30.6639L181.954 43.2628L138.599 55.8753L132.425 53.8172L136.026 47.1285Z"/></g><g filter="url(#filter12_d_997_2439)"><path fill="#55330D" d="M136.793 49.4781L178.486 33.751L180.752 40.099L137.847 53.9716L132.342 53.7891L136.793 49.4781Z"/></g><g filter="url(#filter13_d_997_2439)"><path fill="#55330D" d="M134.812 64.6221L178.73 71.8253L183.876 76.9705L178.73 82.1156L133.452 77.9302L134.812 64.6221Z"/></g><g filter="url(#filter14_d_997_2439)"><path fill="#55330D" d="M134.707 69.7672L178.817 75.0863L184.29 77.0256L179.547 78.235L134.301 73.7428L134.707 69.7672Z"/></g><path fill="#393D39" d="M137.787 125.428L166.487 124L167 136H126L137.787 125.428Z"/><g filter="url(#filter15_d_997_2439)"><path fill="#393D39" d="M152.822 127.393L168.258 122.248L179.062 124.821L185.751 130.995L188.838 136.654L146.784 138.522L152.822 127.393Z"/></g><ellipse cx="4.46" cy="2.615" fill="#8D8EB3" rx="4.46" ry="2.615" transform="matrix(-0.79724 -0.603662 -0.603662 0.79724 171.344 151.662)"/><ellipse cx="143.413" cy="168.27" fill="#717297" rx="4.866" ry="3.218"/><ellipse cx="158.662" cy="168.423" fill="#717297" rx="4.866" ry="3.218"/><g filter="url(#filter16_d_997_2439)"><path fill="#8D8EB3" d="M166.822 157.761C166.822 164.865 159.776 168.883 150.009 168.883C140.241 168.883 135.175 164.095 135.175 156.99C135.175 149.885 140.241 141.68 150.009 141.68C159.776 141.68 166.822 150.656 166.822 157.761Z"/></g><g filter="url(#filter17_d_997_2439)"><path fill="#5E5F82" d="M166.074 157.514C163.282 169.433 153.119 165.181 150.807 163.576C148.495 161.971 151.794 159.808 151.794 159.808C152.735 158.452 154.627 153.058 156.939 154.663C159.251 156.267 167.261 152.446 166.074 157.514Z"/></g><path fill="#5E5F82" d="M143.389 119.825C145.078 122.852 144.472 126.234 140.915 128.22C137.358 130.205 133.104 129.361 131.415 126.334C129.725 123.307 131.477 116.156 134.211 114.63C136.945 113.104 141.699 116.798 143.389 119.825Z"/><path fill="#ADADC7" d="M141.352 121.023C142.446 122.983 142.054 125.173 139.751 126.458C137.448 127.744 134.694 127.197 133.6 125.237C132.506 123.277 133.64 118.647 135.41 117.659C137.18 116.671 140.258 119.063 141.352 121.023Z"/><path fill="#5E5F82" d="M158.767 119.825C157.077 122.852 157.683 126.234 161.24 128.22C164.798 130.205 169.051 129.361 170.741 126.334C172.43 123.307 170.679 116.156 167.945 114.63C165.211 113.104 160.456 116.798 158.767 119.825Z"/><ellipse cx="135.185" cy="150.674" fill="#8D8EB3" rx="4.46" ry="2.615" transform="rotate(-24.7625 135.185 150.674)"/><path fill="#ADADC7" d="M160.804 121.023C159.71 122.983 160.102 125.173 162.405 126.458C164.709 127.744 167.463 127.197 168.557 125.237C169.651 123.277 168.516 118.647 166.746 117.659C164.976 116.671 161.898 119.063 160.804 121.023Z"/><path fill="#000" d="M169.199 138.92C169.199 147.286 160.358 149.726 151.112 149.726C141.865 149.726 128.139 146.061 131.687 138.307C132.803 130.048 140.857 121.68 150.104 121.68C159.351 121.68 168.242 130.661 169.199 138.92Z"/><path fill="#787897" d="M169.528 140.116C169.362 148.849 160.297 152.671 151.072 152.497C141.847 152.322 128.423 146.795 132.116 138.767C133.393 130.167 141.593 121.584 150.818 121.758C160.043 121.933 168.736 131.476 169.528 140.116Z"/><g filter="url(#filter18_d_997_2439)"><path fill="#8D8EB3" d="M173.183 137.045C173.183 146.955 161.374 151.642 150.286 151.642C139.199 151.642 128.202 145.766 128.202 136.319C129.208 129.035 139.199 116.622 150.287 116.622C161.375 116.622 172.036 127.261 173.183 137.045Z"/></g><g filter="url(#filter19_d_997_2439)"><path fill="#5E5F82" d="M158.896 119.825C157.206 122.852 157.812 126.234 161.369 128.22C164.927 130.205 169.18 129.361 170.87 126.334C172.559 123.307 170.808 116.155 168.074 114.629C165.34 113.104 160.585 116.798 158.896 119.825Z"/></g><path fill="#8D8EB3" d="M157.091 139.917C157.091 145.758 156.547 150.76 149.543 150.76C142.539 150.76 131.727 145.758 131.727 139.917C131.727 134.077 137.404 129.343 144.409 129.343C151.413 129.343 157.091 134.077 157.091 139.917Z"/><g filter="url(#filter20_d_997_2439)"><path fill="#5E5F82" d="M143.389 119.825C145.078 122.852 144.472 126.234 140.915 128.22C137.358 130.205 133.104 129.361 131.415 126.334C129.725 123.307 131.477 116.156 134.211 114.63C136.945 113.104 141.699 116.798 143.389 119.825Z"/></g><g filter="url(#filter21_d_997_2439)"><path fill="#1B3316" d="M139 227.072C126.742 256.454 111.285 258 69.5368 258C35.3155 230.68 35.3148 226.041 15.9064 194.082C3.64843 158 8.37945 158 50.1279 158C91.8764 158 100.182 190.474 139 227.072Z"/></g><g filter="url(#filter22_d_997_2439)"><path fill="#1B3316" d="M171 192.792C183.319 222.255 212.576 230.526 240.806 223.806C275.196 196.41 265.444 207.265 276.222 184.521C288.54 148.338 289.055 138 256.718 138C214.629 138 210.009 156.092 171 192.792Z"/></g><g filter="url(#filter23_d_997_2439)"><path fill="#D9D9D9" d="M9.22415 100.039L5.14978 88.818L21.1281 99.1432L9.22415 100.039Z"/></g><g filter="url(#filter24_d_997_2439)"><path fill="#397633" d="M73.1894 31.3295L73.8953 21.2021L82.8838 34.3432L73.1894 31.3295Z"/></g><g filter="url(#filter25_d_997_2439)"><path fill="#397633" d="M80.3162 62.0645L84.4176 56.1463L86.698 65.399L80.3162 62.0645Z"/></g><g filter="url(#filter26_d_997_2439)"><path fill="#609842" d="M21.7941 33.1955L24.4051 24.0069L30.976 35.8298L21.7941 33.1955Z"/></g><g filter="url(#filter27_d_997_2439)"><path fill="#D9D9D9" d="M86.7068 83.312L84.4899 75.9001L94.3751 82.2879L86.7068 83.312Z"/></g><g filter="url(#filter28_d_997_2439)"><path fill="#3D9843" d="M45.7068 92.312L43.4899 84.9001L53.3751 91.2879L45.7068 92.312Z"/></g><g filter="url(#filter29_d_997_2439)"><path fill="#3D9843" d="M10.7068 95.312L8.48989 87.9001L18.3751 94.2879L10.7068 95.312Z"/></g><g filter="url(#filter30_d_997_2439)"><path fill="#D9D9D9" d="M60.2648 115.965L66.3994 109.307L68.5896 119.524L60.2648 115.965Z"/></g><g filter="url(#filter31_d_997_2439)"><path fill="#D9D9D9" d="M51.9444 55.7111L60.6278 53.1482L57.26 63.0401L51.9444 55.7111Z"/></g><defs><filter id="filter0_d_997_2439" width="22.879" height="19.855" x="282.898" y="79.192" color-interpolation-filters="sRGB" filterUnits="userSpaceOnUse"><feFlood flood-opacity="0" result="BackgroundImageFix"/><feColorMatrix in="SourceAlpha" result="hardAlpha" type="matrix" values="0 0 0 0 0 0 0 0 0 0 0 0 0 0 0 0 0 0 127 0"/><feOffset dy="4"/><feGaussianBlur stdDeviation="2"/><feComposite in2="hardAlpha" operator="out"/><feColorMatrix type="matrix" values="0 0 0 0 0 0 0 0 0 0 0 0 0 0 0 0 0 0 0.25 0"/><feBlend in2="BackgroundImageFix" mode="normal" result="effect1_dropShadow_997_2439"/><feBlend in="SourceGraphic" in2="effect1_dropShadow_997_2439" mode="normal" result="shape"/></filter><filter id="filter1_d_997_2439" width="17.694" height="21.141" x="222.163" y="14.202" color-interpolation-filters="sRGB" filterUnits="userSpaceOnUse"><feFlood flood-opacity="0" result="BackgroundImageFix"/><feColorMatrix in="SourceAlpha" result="hardAlpha" type="matrix" values="0 0 0 0 0 0 0 0 0 0 0 0 0 0 0 0 0 0 127 0"/><feOffset dy="4"/><feGaussianBlur stdDeviation="2"/><feComposite in2="hardAlpha" operator="out"/><feColorMatrix type="matrix" values="0 0 0 0 0 0 0 0 0 0 0 0 0 0 0 0 0 0 0.25 0"/><feBlend in2="BackgroundImageFix" mode="normal" result="effect1_dropShadow_997_2439"/><feBlend in="SourceGraphic" in2="effect1_dropShadow_997_2439" mode="normal" result="shape"/></filter><filter id="filter2_d_997_2439" width="14.382" height="17.253" x="218.349" y="49.147" color-interpolation-filters="sRGB" filterUnits="userSpaceOnUse"><feFlood flood-opacity="0" result="BackgroundImageFix"/><feColorMatrix in="SourceAlpha" result="hardAlpha" type="matrix" values="0 0 0 0 0 0 0 0 0 0 0 0 0 0 0 0 0 0 127 0"/><feOffset dy="4"/><feGaussianBlur stdDeviation="2"/><feComposite in2="hardAlpha" operator="out"/><feColorMatrix type="matrix" values="0 0 0 0 0 0 0 0 0 0 0 0 0 0 0 0 0 0 0.25 0"/><feBlend in2="BackgroundImageFix" mode="normal" result="effect1_dropShadow_997_2439"/><feBlend in="SourceGraphic" in2="effect1_dropShadow_997_2439" mode="normal" result="shape"/></filter><filter id="filter3_d_997_2439" width="17.182" height="19.823" x="274.073" y="17.007" color-interpolation-filters="sRGB" filterUnits="userSpaceOnUse"><feFlood flood-opacity="0" result="BackgroundImageFix"/><feColorMatrix in="SourceAlpha" result="hardAlpha" type="matrix" values="0 0 0 0 0 0 0 0 0 0 0 0 0 0 0 0 0 0 127 0"/><feOffset dy="4"/><feGaussianBlur stdDeviation="2"/><feComposite in2="hardAlpha" operator="out"/><feColorMatrix type="matrix" values="0 0 0 0 0 0 0 0 0 0 0 0 0 0 0 0 0 0 0.25 0"/><feBlend in2="BackgroundImageFix" mode="normal" result="effect1_dropShadow_997_2439"/><feBlend in="SourceGraphic" in2="effect1_dropShadow_997_2439" mode="normal" result="shape"/></filter><filter id="filter4_d_997_2439" width="17.885" height="15.412" x="210.672" y="68.901" color-interpolation-filters="sRGB" filterUnits="userSpaceOnUse"><feFlood flood-opacity="0" result="BackgroundImageFix"/><feColorMatrix in="SourceAlpha" result="hardAlpha" type="matrix" values="0 0 0 0 0 0 0 0 0 0 0 0 0 0 0 0 0 0 127 0"/><feOffset dy="4"/><feGaussianBlur stdDeviation="2"/><feComposite in2="hardAlpha" operator="out"/><feColorMatrix type="matrix" values="0 0 0 0 0 0 0 0 0 0 0 0 0 0 0 0 0 0 0.25 0"/><feBlend in2="BackgroundImageFix" mode="normal" result="effect1_dropShadow_997_2439"/><feBlend in="SourceGraphic" in2="effect1_dropShadow_997_2439" mode="normal" result="shape"/></filter><filter id="filter5_d_997_2439" width="17.885" height="15.412" x="251.672" y="75.9" color-interpolation-filters="sRGB" filterUnits="userSpaceOnUse"><feFlood flood-opacity="0" result="BackgroundImageFix"/><feColorMatrix in="SourceAlpha" result="hardAlpha" type="matrix" values="0 0 0 0 0 0 0 0 0 0 0 0 0 0 0 0 0 0 127 0"/><feOffset dy="4"/><feGaussianBlur stdDeviation="2"/><feComposite in2="hardAlpha" operator="out"/><feColorMatrix type="matrix" values="0 0 0 0 0 0 0 0 0 0 0 0 0 0 0 0 0 0 0.25 0"/><feBlend in2="BackgroundImageFix" mode="normal" result="effect1_dropShadow_997_2439"/><feBlend in="SourceGraphic" in2="effect1_dropShadow_997_2439" mode="normal" result="shape"/></filter><filter id="filter6_d_997_2439" width="15.954" height="16.674" x="285.312" y="60.031" color-interpolation-filters="sRGB" filterUnits="userSpaceOnUse"><feFlood flood-opacity="0" result="BackgroundImageFix"/><feColorMatrix in="SourceAlpha" result="hardAlpha" type="matrix" values="0 0 0 0 0 0 0 0 0 0 0 0 0 0 0 0 0 0 127 0"/><feOffset dy="4"/><feGaussianBlur stdDeviation="2"/><feComposite in2="hardAlpha" operator="out"/><feColorMatrix type="matrix" values="0 0 0 0 0 0 0 0 0 0 0 0 0 0 0 0 0 0 0.25 0"/><feBlend in2="BackgroundImageFix" mode="normal" result="effect1_dropShadow_997_2439"/><feBlend in="SourceGraphic" in2="effect1_dropShadow_997_2439" mode="normal" result="shape"/></filter><filter id="filter7_d_997_2439" width="16.325" height="18.217" x="233.58" y="103.307" color-interpolation-filters="sRGB" filterUnits="userSpaceOnUse"><feFlood flood-opacity="0" result="BackgroundImageFix"/><feColorMatrix in="SourceAlpha" result="hardAlpha" type="matrix" values="0 0 0 0 0 0 0 0 0 0 0 0 0 0 0 0 0 0 127 0"/><feOffset dy="4"/><feGaussianBlur stdDeviation="2"/><feComposite in2="hardAlpha" operator="out"/><feColorMatrix type="matrix" values="0 0 0 0 0 0 0 0 0 0 0 0 0 0 0 0 0 0 0.25 0"/><feBlend in2="BackgroundImageFix" mode="normal" result="effect1_dropShadow_997_2439"/><feBlend in="SourceGraphic" in2="effect1_dropShadow_997_2439" mode="normal" result="shape"/></filter><filter id="filter8_d_997_2439" width="16.684" height="17.892" x="245.595" y="41.148" color-interpolation-filters="sRGB" filterUnits="userSpaceOnUse"><feFlood flood-opacity="0" result="BackgroundImageFix"/><feColorMatrix in="SourceAlpha" result="hardAlpha" type="matrix" values="0 0 0 0 0 0 0 0 0 0 0 0 0 0 0 0 0 0 127 0"/><feOffset dy="4"/><feGaussianBlur stdDeviation="2"/><feComposite in2="hardAlpha" operator="out"/><feColorMatrix type="matrix" values="0 0 0 0 0 0 0 0 0 0 0 0 0 0 0 0 0 0 0.25 0"/><feBlend in2="BackgroundImageFix" mode="normal" result="effect1_dropShadow_997_2439"/><feBlend in="SourceGraphic" in2="effect1_dropShadow_997_2439" mode="normal" result="shape"/></filter><filter id="filter9_d_997_2439" width="288" height="193" x="1" y="97" color-interpolation-filters="sRGB" filterUnits="userSpaceOnUse"><feFlood flood-opacity="0" result="BackgroundImageFix"/><feColorMatrix in="SourceAlpha" result="hardAlpha" type="matrix" values="0 0 0 0 0 0 0 0 0 0 0 0 0 0 0 0 0 0 127 0"/><feOffset dy="4"/><feGaussianBlur stdDeviation="2"/><feComposite in2="hardAlpha" operator="out"/><feColorMatrix type="matrix" values="0 0 0 0 0 0 0 0 0 0 0 0 0 0 0 0 0 0 0.25 0"/><feBlend in2="BackgroundImageFix" mode="normal" result="effect1_dropShadow_997_2439"/><feBlend in="SourceGraphic" in2="effect1_dropShadow_997_2439" mode="normal" result="shape"/></filter><filter id="filter10_d_997_2439" width="15" height="117" x="148" y="26" color-interpolation-filters="sRGB" filterUnits="userSpaceOnUse"><feFlood flood-opacity="0" result="BackgroundImageFix"/><feColorMatrix in="SourceAlpha" result="hardAlpha" type="matrix" values="0 0 0 0 0 0 0 0 0 0 0 0 0 0 0 0 0 0 127 0"/><feOffset dy="4"/><feGaussianBlur stdDeviation="2"/><feComposite in2="hardAlpha" operator="out"/><feColorMatrix type="matrix" values="0 0 0 0 0 0 0 0 0 0 0 0 0 0 0 0 0 0 0.25 0"/><feBlend in2="BackgroundImageFix" mode="normal" result="effect1_dropShadow_997_2439"/><feBlend in="SourceGraphic" in2="effect1_dropShadow_997_2439" mode="normal" result="shape"/></filter><filter id="filter11_d_997_2439" width="57.528" height="33.211" x="128.425" y="30.664" color-interpolation-filters="sRGB" filterUnits="userSpaceOnUse"><feFlood flood-opacity="0" result="BackgroundImageFix"/><feColorMatrix in="SourceAlpha" result="hardAlpha" type="matrix" values="0 0 0 0 0 0 0 0 0 0 0 0 0 0 0 0 0 0 127 0"/><feOffset dy="4"/><feGaussianBlur stdDeviation="2"/><feComposite in2="hardAlpha" operator="out"/><feColorMatrix type="matrix" values="0 0 0 0 0 0 0 0 0 0 0 0 0 0 0 0 0 0 0.25 0"/><feBlend in2="BackgroundImageFix" mode="normal" result="effect1_dropShadow_997_2439"/><feBlend in="SourceGraphic" in2="effect1_dropShadow_997_2439" mode="normal" result="shape"/></filter><filter id="filter12_d_997_2439" width="56.41" height="28.221" x="128.342" y="33.751" color-interpolation-filters="sRGB" filterUnits="userSpaceOnUse"><feFlood flood-opacity="0" result="BackgroundImageFix"/><feColorMatrix in="SourceAlpha" result="hardAlpha" type="matrix" values="0 0 0 0 0 0 0 0 0 0 0 0 0 0 0 0 0 0 127 0"/><feOffset dy="4"/><feGaussianBlur stdDeviation="2"/><feComposite in2="hardAlpha" operator="out"/><feColorMatrix type="matrix" values="0 0 0 0 0 0 0 0 0 0 0 0 0 0 0 0 0 0 0.25 0"/><feBlend in2="BackgroundImageFix" mode="normal" result="effect1_dropShadow_997_2439"/><feBlend in="SourceGraphic" in2="effect1_dropShadow_997_2439" mode="normal" result="shape"/></filter><filter id="filter13_d_997_2439" width="58.424" height="25.494" x="129.452" y="64.622" color-interpolation-filters="sRGB" filterUnits="userSpaceOnUse"><feFlood flood-opacity="0" result="BackgroundImageFix"/><feColorMatrix in="SourceAlpha" result="hardAlpha" type="matrix" values="0 0 0 0 0 0 0 0 0 0 0 0 0 0 0 0 0 0 127 0"/><feOffset dy="4"/><feGaussianBlur stdDeviation="2"/><feComposite in2="hardAlpha" operator="out"/><feColorMatrix type="matrix" values="0 0 0 0 0 0 0 0 0 0 0 0 0 0 0 0 0 0 0.25 0"/><feBlend in2="BackgroundImageFix" mode="normal" result="effect1_dropShadow_997_2439"/><feBlend in="SourceGraphic" in2="effect1_dropShadow_997_2439" mode="normal" result="shape"/></filter><filter id="filter14_d_997_2439" width="57.989" height="16.468" x="130.301" y="69.767" color-interpolation-filters="sRGB" filterUnits="userSpaceOnUse"><feFlood flood-opacity="0" result="BackgroundImageFix"/><feColorMatrix in="SourceAlpha" result="hardAlpha" type="matrix" values="0 0 0 0 0 0 0 0 0 0 0 0 0 0 0 0 0 0 127 0"/><feOffset dy="4"/><feGaussianBlur stdDeviation="2"/><feComposite in2="hardAlpha" operator="out"/><feColorMatrix type="matrix" values="0 0 0 0 0 0 0 0 0 0 0 0 0 0 0 0 0 0 0.25 0"/><feBlend in2="BackgroundImageFix" mode="normal" result="effect1_dropShadow_997_2439"/><feBlend in="SourceGraphic" in2="effect1_dropShadow_997_2439" mode="normal" result="shape"/></filter><filter id="filter15_d_997_2439" width="50.054" height="24.274" x="142.784" y="122.248" color-interpolation-filters="sRGB" filterUnits="userSpaceOnUse"><feFlood flood-opacity="0" result="BackgroundImageFix"/><feColorMatrix in="SourceAlpha" result="hardAlpha" type="matrix" values="0 0 0 0 0 0 0 0 0 0 0 0 0 0 0 0 0 0 127 0"/><feOffset dy="4"/><feGaussianBlur stdDeviation="2"/><feComposite in2="hardAlpha" operator="out"/><feColorMatrix type="matrix" values="0 0 0 0 0 0 0 0 0 0 0 0 0 0 0 0 0 0 0.25 0"/><feBlend in2="BackgroundImageFix" mode="normal" result="effect1_dropShadow_997_2439"/><feBlend in="SourceGraphic" in2="effect1_dropShadow_997_2439" mode="normal" result="shape"/></filter><filter id="filter16_d_997_2439" width="39.648" height="35.203" x="131.175" y="141.68" color-interpolation-filters="sRGB" filterUnits="userSpaceOnUse"><feFlood flood-opacity="0" result="BackgroundImageFix"/><feColorMatrix in="SourceAlpha" result="hardAlpha" type="matrix" values="0 0 0 0 0 0 0 0 0 0 0 0 0 0 0 0 0 0 127 0"/><feOffset dy="4"/><feGaussianBlur stdDeviation="2"/><feComposite in2="hardAlpha" operator="out"/><feColorMatrix type="matrix" values="0 0 0 0 0 0 0 0 0 0 0 0 0 0 0 0 0 0 0.5 0"/><feBlend in2="BackgroundImageFix" mode="normal" result="effect1_dropShadow_997_2439"/><feBlend in="SourceGraphic" in2="effect1_dropShadow_997_2439" mode="normal" result="shape"/></filter><filter id="filter17_d_997_2439" width="20.208" height="15.273" x="147.985" y="154.367" color-interpolation-filters="sRGB" filterUnits="userSpaceOnUse"><feFlood flood-opacity="0" result="BackgroundImageFix"/><feColorMatrix in="SourceAlpha" result="hardAlpha" type="matrix" values="0 0 0 0 0 0 0 0 0 0 0 0 0 0 0 0 0 0 127 0"/><feOffset dy="2"/><feGaussianBlur stdDeviation="1"/><feComposite in2="hardAlpha" operator="out"/><feColorMatrix type="matrix" values="0 0 0 0 0 0 0 0 0 0 0 0 0 0 0 0 0 0 0.5 0"/><feBlend in2="BackgroundImageFix" mode="normal" result="effect1_dropShadow_997_2439"/><feBlend in="SourceGraphic" in2="effect1_dropShadow_997_2439" mode="normal" result="shape"/></filter><filter id="filter18_d_997_2439" width="48.98" height="39.019" x="126.202" y="116.622" color-interpolation-filters="sRGB" filterUnits="userSpaceOnUse"><feFlood flood-opacity="0" result="BackgroundImageFix"/><feColorMatrix in="SourceAlpha" result="hardAlpha" type="matrix" values="0 0 0 0 0 0 0 0 0 0 0 0 0 0 0 0 0 0 127 0"/><feOffset dy="2"/><feGaussianBlur stdDeviation="1"/><feComposite in2="hardAlpha" operator="out"/><feColorMatrix type="matrix" values="0 0 0 0 0 0 0 0 0 0 0 0 0 0 0 0 0 0 0.5 0"/><feBlend in2="BackgroundImageFix" mode="normal" result="effect1_dropShadow_997_2439"/><feBlend in="SourceGraphic" in2="effect1_dropShadow_997_2439" mode="normal" result="shape"/></filter><filter id="filter19_d_997_2439" width="17.541" height="19.02" x="155.993" y="114.274" color-interpolation-filters="sRGB" filterUnits="userSpaceOnUse"><feFlood flood-opacity="0" result="BackgroundImageFix"/><feColorMatrix in="SourceAlpha" result="hardAlpha" type="matrix" values="0 0 0 0 0 0 0 0 0 0 0 0 0 0 0 0 0 0 127 0"/><feOffset dy="2"/><feGaussianBlur stdDeviation="1"/><feComposite in2="hardAlpha" operator="out"/><feColorMatrix type="matrix" values="0 0 0 0 0 0 0 0 0 0 0 0 0 0 0 0 0 0 0.5 0"/><feBlend in2="BackgroundImageFix" mode="normal" result="effect1_dropShadow_997_2439"/><feBlend in="SourceGraphic" in2="effect1_dropShadow_997_2439" mode="normal" result="shape"/></filter><filter id="filter20_d_997_2439" width="17.541" height="19.02" x="128.75" y="114.274" color-interpolation-filters="sRGB" filterUnits="userSpaceOnUse"><feFlood flood-opacity="0" result="BackgroundImageFix"/><feColorMatrix in="SourceAlpha" result="hardAlpha" type="matrix" values="0 0 0 0 0 0 0 0 0 0 0 0 0 0 0 0 0 0 127 0"/><feOffset dy="2"/><feGaussianBlur stdDeviation="1"/><feComposite in2="hardAlpha" operator="out"/><feColorMatrix type="matrix" values="0 0 0 0 0 0 0 0 0 0 0 0 0 0 0 0 0 0 0.5 0"/><feBlend in2="BackgroundImageFix" mode="normal" result="effect1_dropShadow_997_2439"/><feBlend in="SourceGraphic" in2="effect1_dropShadow_997_2439" mode="normal" result="shape"/></filter><filter id="filter21_d_997_2439" width="137" height="108" x="6" y="158" color-interpolation-filters="sRGB" filterUnits="userSpaceOnUse"><feFlood flood-opacity="0" result="BackgroundImageFix"/><feColorMatrix in="SourceAlpha" result="hardAlpha" type="matrix" values="0 0 0 0 0 0 0 0 0 0 0 0 0 0 0 0 0 0 127 0"/><feOffset dy="4"/><feGaussianBlur stdDeviation="2"/><feComposite in2="hardAlpha" operator="out"/><feColorMatrix type="matrix" values="0 0 0 0 0 0 0 0 0 0 0 0 0 0 0 0 0 0 0.25 0"/><feBlend in2="BackgroundImageFix" mode="normal" result="effect1_dropShadow_997_2439"/><feBlend in="SourceGraphic" in2="effect1_dropShadow_997_2439" mode="normal" result="shape"/></filter><filter id="filter22_d_997_2439" width="121" height="96" x="167" y="138" color-interpolation-filters="sRGB" filterUnits="userSpaceOnUse"><feFlood flood-opacity="0" result="BackgroundImageFix"/><feColorMatrix in="SourceAlpha" result="hardAlpha" type="matrix" values="0 0 0 0 0 0 0 0 0 0 0 0 0 0 0 0 0 0 127 0"/><feOffset dy="4"/><feGaussianBlur stdDeviation="2"/><feComposite in2="hardAlpha" operator="out"/><feColorMatrix type="matrix" values="0 0 0 0 0 0 0 0 0 0 0 0 0 0 0 0 0 0 0.25 0"/><feBlend in2="BackgroundImageFix" mode="normal" result="effect1_dropShadow_997_2439"/><feBlend in="SourceGraphic" in2="effect1_dropShadow_997_2439" mode="normal" result="shape"/></filter><filter id="filter23_d_997_2439" width="23.979" height="19.221" x="1.149" y="88.818" color-interpolation-filters="sRGB" filterUnits="userSpaceOnUse"><feFlood flood-opacity="0" result="BackgroundImageFix"/><feColorMatrix in="SourceAlpha" result="hardAlpha" type="matrix" values="0 0 0 0 0 0 0 0 0 0 0 0 0 0 0 0 0 0 127 0"/><feOffset dy="4"/><feGaussianBlur stdDeviation="2"/><feComposite in2="hardAlpha" operator="out"/><feColorMatrix type="matrix" values="0 0 0 0 0 0 0 0 0 0 0 0 0 0 0 0 0 0 0.25 0"/><feBlend in2="BackgroundImageFix" mode="normal" result="effect1_dropShadow_997_2439"/><feBlend in="SourceGraphic" in2="effect1_dropShadow_997_2439" mode="normal" result="shape"/></filter><filter id="filter24_d_997_2439" width="17.694" height="21.141" x="69.189" y="21.202" color-interpolation-filters="sRGB" filterUnits="userSpaceOnUse"><feFlood flood-opacity="0" result="BackgroundImageFix"/><feColorMatrix in="SourceAlpha" result="hardAlpha" type="matrix" values="0 0 0 0 0 0 0 0 0 0 0 0 0 0 0 0 0 0 127 0"/><feOffset dy="4"/><feGaussianBlur stdDeviation="2"/><feComposite in2="hardAlpha" operator="out"/><feColorMatrix type="matrix" values="0 0 0 0 0 0 0 0 0 0 0 0 0 0 0 0 0 0 0.25 0"/><feBlend in2="BackgroundImageFix" mode="normal" result="effect1_dropShadow_997_2439"/><feBlend in="SourceGraphic" in2="effect1_dropShadow_997_2439" mode="normal" result="shape"/></filter><filter id="filter25_d_997_2439" width="14.382" height="17.253" x="76.316" y="56.146" color-interpolation-filters="sRGB" filterUnits="userSpaceOnUse"><feFlood flood-opacity="0" result="BackgroundImageFix"/><feColorMatrix in="SourceAlpha" result="hardAlpha" type="matrix" values="0 0 0 0 0 0 0 0 0 0 0 0 0 0 0 0 0 0 127 0"/><feOffset dy="4"/><feGaussianBlur stdDeviation="2"/><feComposite in2="hardAlpha" operator="out"/><feColorMatrix type="matrix" values="0 0 0 0 0 0 0 0 0 0 0 0 0 0 0 0 0 0 0.25 0"/><feBlend in2="BackgroundImageFix" mode="normal" result="effect1_dropShadow_997_2439"/><feBlend in="SourceGraphic" in2="effect1_dropShadow_997_2439" mode="normal" result="shape"/></filter><filter id="filter26_d_997_2439" width="17.182" height="19.823" x="17.794" y="24.007" color-interpolation-filters="sRGB" filterUnits="userSpaceOnUse"><feFlood flood-opacity="0" result="BackgroundImageFix"/><feColorMatrix in="SourceAlpha" result="hardAlpha" type="matrix" values="0 0 0 0 0 0 0 0 0 0 0 0 0 0 0 0 0 0 127 0"/><feOffset dy="4"/><feGaussianBlur stdDeviation="2"/><feComposite in2="hardAlpha" operator="out"/><feColorMatrix type="matrix" values="0 0 0 0 0 0 0 0 0 0 0 0 0 0 0 0 0 0 0.25 0"/><feBlend in2="BackgroundImageFix" mode="normal" result="effect1_dropShadow_997_2439"/><feBlend in="SourceGraphic" in2="effect1_dropShadow_997_2439" mode="normal" result="shape"/></filter><filter id="filter27_d_997_2439" width="17.885" height="15.412" x="80.49" y="75.9" color-interpolation-filters="sRGB" filterUnits="userSpaceOnUse"><feFlood flood-opacity="0" result="BackgroundImageFix"/><feColorMatrix in="SourceAlpha" result="hardAlpha" type="matrix" values="0 0 0 0 0 0 0 0 0 0 0 0 0 0 0 0 0 0 127 0"/><feOffset dy="4"/><feGaussianBlur stdDeviation="2"/><feComposite in2="hardAlpha" operator="out"/><feColorMatrix type="matrix" values="0 0 0 0 0 0 0 0 0 0 0 0 0 0 0 0 0 0 0.25 0"/><feBlend in2="BackgroundImageFix" mode="normal" result="effect1_dropShadow_997_2439"/><feBlend in="SourceGraphic" in2="effect1_dropShadow_997_2439" mode="normal" result="shape"/></filter><filter id="filter28_d_997_2439" width="17.885" height="15.412" x="39.49" y="84.9" color-interpolation-filters="sRGB" filterUnits="userSpaceOnUse"><feFlood flood-opacity="0" result="BackgroundImageFix"/><feColorMatrix in="SourceAlpha" result="hardAlpha" type="matrix" values="0 0 0 0 0 0 0 0 0 0 0 0 0 0 0 0 0 0 127 0"/><feOffset dy="4"/><feGaussianBlur stdDeviation="2"/><feComposite in2="hardAlpha" operator="out"/><feColorMatrix type="matrix" values="0 0 0 0 0 0 0 0 0 0 0 0 0 0 0 0 0 0 0.25 0"/><feBlend in2="BackgroundImageFix" mode="normal" result="effect1_dropShadow_997_2439"/><feBlend in="SourceGraphic" in2="effect1_dropShadow_997_2439" mode="normal" result="shape"/></filter><filter id="filter29_d_997_2439" width="17.885" height="15.412" x="4.49" y="87.9" color-interpolation-filters="sRGB" filterUnits="userSpaceOnUse"><feFlood flood-opacity="0" result="BackgroundImageFix"/><feColorMatrix in="SourceAlpha" result="hardAlpha" type="matrix" values="0 0 0 0 0 0 0 0 0 0 0 0 0 0 0 0 0 0 127 0"/><feOffset dy="4"/><feGaussianBlur stdDeviation="2"/><feComposite in2="hardAlpha" operator="out"/><feColorMatrix type="matrix" values="0 0 0 0 0 0 0 0 0 0 0 0 0 0 0 0 0 0 0.25 0"/><feBlend in2="BackgroundImageFix" mode="normal" result="effect1_dropShadow_997_2439"/><feBlend in="SourceGraphic" in2="effect1_dropShadow_997_2439" mode="normal" result="shape"/></filter><filter id="filter30_d_997_2439" width="16.325" height="18.217" x="56.265" y="109.307" color-interpolation-filters="sRGB" filterUnits="userSpaceOnUse"><feFlood flood-opacity="0" result="BackgroundImageFix"/><feColorMatrix in="SourceAlpha" result="hardAlpha" type="matrix" values="0 0 0 0 0 0 0 0 0 0 0 0 0 0 0 0 0 0 127 0"/><feOffset dy="4"/><feGaussianBlur stdDeviation="2"/><feComposite in2="hardAlpha" operator="out"/><feColorMatrix type="matrix" values="0 0 0 0 0 0 0 0 0 0 0 0 0 0 0 0 0 0 0.25 0"/><feBlend in2="BackgroundImageFix" mode="normal" result="effect1_dropShadow_997_2439"/><feBlend in="SourceGraphic" in2="effect1_dropShadow_997_2439" mode="normal" result="shape"/></filter><filter id="filter31_d_997_2439" width="16.684" height="17.892" x="47.944" y="53.148" color-interpolation-filters="sRGB" filterUnits="userSpaceOnUse"><feFlood flood-opacity="0" result="BackgroundImageFix"/><feColorMatrix in="SourceAlpha" result="hardAlpha" type="matrix" values="0 0 0 0 0 0 0 0 0 0 0 0 0 0 0 0 0 0 127 0"/><feOffset dy="4"/><feGaussianBlur stdDeviation="2"/><feComposite in2="hardAlpha" operator="out"/><feColorMatrix type="matrix" values="0 0 0 0 0 0 0 0 0 0 0 0 0 0 0 0 0 0 0.25 0"/><feBlend in2="BackgroundImageFix" mode="normal" result="effect1_dropShadow_997_2439"/><feBlend in="SourceGraphic" in2="effect1_dropShadow_997_2439" mode="normal" result="shape"/></filter></defs></svg>