<svg xmlns="http://www.w3.org/2000/svg" width="322" height="198" fill="none" viewBox="0 0 322 198"><rect width="270" height="32" x="27" y="166" fill="#6D1A0F"/><rect width="5" height="33" x="27" y="133" fill="#D9D9D9"/><path fill="#256AEA" d="M65 75.9901L102.582 48.536L110.804 51.6587L127.993 39.9485L134.186 41.2496L148.493 31.2308L158.529 35.7848L163.761 34.0933V161.475H130.449V119.969L108.028 123.612V112.812L89.9838 105.786L89.3432 94.3362L70.2316 89.3918L69.164 92.3844L65 75.9901Z"/><path fill="#256AEA" d="M69.7998 78.844L104.135 53.141L103.71 68.2757L69.7998 88.2379V78.844Z"/><path fill="#256AEA" d="M89.5527 95.1407L127.949 79.9202L127.842 93.0413L89.5527 106.294V95.1407Z"/><path fill="#256AEA" d="M107.273 112.862L148.808 102.642V115.613L107.273 121.509V112.862Z"/><path fill="#256AEA" d="M104.72 53.141L128.134 60.8941V73.4282L104.505 68.1303L104.72 53.141Z"/><path fill="#256AEA" d="M128.687 79.9202L148.992 84.5274V97.1643L128.687 93.0837V79.9202Z"/><path fill="#256AEA" d="M128.687 60.9768L140.501 54.5612V67.8332L128.687 73.4283V60.9768Z"/><path fill="#256AEA" d="M141.425 54.5612L153.793 59.2241V71.3996L141.425 67.7728V54.5612Z"/><path fill="#256AEA" d="M154.162 59.1948L163.761 55.1698V68.0238L154.162 71.3996V59.1948Z"/><path fill="#256AEA" d="M150.101 84.5176L162.653 80.3259V93.1628L150.101 96.9615V84.5176Z"/><path fill="#256AEA" d="M149.362 102.642L159.884 104.086V116.032L149.362 115.506V102.642Z"/><path fill="#256AEA" d="M160.623 104.375L163.207 103.859V116.234L160.623 115.977V104.375Z"/><path fill="#256AEA" d="M149.362 49.6822L163.023 42.4906V51.615L154.109 55.9812L149.362 54.1289V49.6822Z"/><path fill="#256AEA" d="M128.687 41.7336L149.454 48.9253V55.2652L139.894 50.5256L128.687 58.1987V41.7336Z"/><path fill="#256AEA" d="M114.104 51.6054L128.687 42.4906V57.8201L114.104 52.0198V51.6054Z"/><path fill="#256AEA" d="M149.731 34.6797L159.7 38.6019V41.086L149.731 46.4463V34.6797Z"/><path fill="#256AEA" d="M160.253 38.6154L163.022 37.317V39.9138L162.063 39.2646L160.253 40.563V38.6154Z"/><path fill="#256AEA" d="M136.81 41.8621L148.993 34.8826V46.4463L136.81 41.8621Z"/><path fill="#202D6B" d="M132.934 40.4443L149.011 30L159.153 34.7708L162.839 33.4066L163.577 36.8339L160.34 38.3812L149.55 34.1261L136.602 41.7337L132.934 40.4443Z"/><path fill="#202D6B" d="M110.781 51.1036L128.974 38.8949L149.643 46.6877L163.207 39.4144L162.992 43.051L149.643 49.8048L128.974 42.6614L113.903 52.1426L110.781 51.1036Z"/><path fill="#202D6B" d="M65.3691 76.4014L103.073 48.0692L128.173 57.5133L140.029 50.4302L154.021 55.6769L163.207 51.3484V54.3653L154.021 58.3003L140.99 53.8406L128.173 60.0055L104.034 52.1354L69.0007 78.5001L65.3691 76.4014Z"/><path fill="#0F095B" d="M70.1689 88.4252L104.208 68.7622L128.11 74.7922L140.914 68.7622L154.146 72.957L162.469 69.6798V79.3802L149.237 83.7061L128.11 78.7248L89.1624 94.3241L70.1689 88.4252Z"/><path fill="#0F095B" d="M89.5527 107.237L127.89 93.9185L149.141 98.2701L163.023 94.3141V102.754L160.354 103.413L148.927 101.699L106.852 112.38L89.5527 107.237Z"/><path fill="#256AEA" d="M130.349 119.888L149.09 117.046L160.227 117.692L163.226 118.338L163.761 154.374H130.349V119.888Z"/><path fill="#223C6C" d="M69.9316 88.6414L75.6846 85.3978L83.1421 91.7553C83.1421 91.7553 81.84 93.8008 80.9877 95.3881C80.1354 96.9755 118.169 128.084 119.128 131.976C120.087 135.868 120.749 152.346 120.749 152.346L109.03 151.567C109.03 151.567 111.374 135.899 110.628 133.403C109.883 130.908 70.7603 95.1591 69.3753 93.0527C67.9903 90.9464 69.9316 88.6414 69.9316 88.6414Z"/><path fill="#720000" d="M59.6016 97.7502L69.3423 80.2826L84.3326 90.3594L76.0914 105.138L59.6016 97.7502Z"/><g filter="url(#filter0_dd_997_2451)"><ellipse cx="64.908" cy="89.26" fill="#720000" rx="11" ry="7.5" transform="rotate(-60.854 64.9078 89.2599)"/></g><g filter="url(#filter1_dd_997_2451)"><ellipse cx="74.197" cy="82.869" fill="#720000" rx="3.741" ry="2.503" transform="rotate(-115.726 74.197 82.8687)"/></g><path fill="#223C6C" d="M82.7924 81.7531L88.6516 78.5001L96.1917 85.7867C96.1917 85.7867 96.1917 86.5369 95.3394 88.1289C94.4872 89.7208 131.264 122.09 132.223 125.993C133.182 129.897 134.78 153.969 134.78 153.969L121.996 152.537C121.996 152.537 124.979 129.277 124.233 126.774C123.487 124.271 85.1124 87.8992 83.7275 85.7867C82.3426 83.6743 82.7924 81.7531 82.7924 81.7531Z"/><path fill="#223C6C" d="M94.1989 74.6572L99.968 71.3995L109.595 78.3233C109.595 78.3233 109.595 79.1735 108.627 80.9777C107.658 82.7818 149.568 120.35 150.657 124.774C151.747 129.198 152.317 155.186 152.317 155.186L139.283 154.534C139.283 154.534 142.305 127.611 141.458 124.774C140.61 121.938 97.0061 80.7174 95.4325 78.3233C93.8589 75.9293 94.1989 74.6572 94.1989 74.6572Z"/><path fill="#272323" d="M107.273 149.303H163.761V165.127H107.273V149.303Z"/><path fill="#256AEA" d="M261.599 75.9204L224.016 48.509L215.795 51.6269L198.605 39.9349L192.413 41.234L178.106 31.2308L168.07 35.7777L162.838 34.0889V161.272H196.15V119.83L218.571 123.468V112.685L236.615 105.67L237.255 94.2379L256.367 89.3012L257.435 92.2892L261.599 75.9204Z"/><g filter="url(#filter2_d_997_2451)"><path fill="#225ED0" d="M256.799 78.1244L222.279 52.8995L222.706 67.7527L256.799 87.3436V78.1244Z"/></g><g filter="url(#filter3_d_997_2451)"><path fill="#225ED0" d="M237.14 93.9675L198.097 78.4487L198.205 93.702L236.494 107.31L237.14 93.9675Z"/></g><g filter="url(#filter4_d_997_2451)"><path fill="#1F59C5" d="M219.141 112.769L177.606 102.439V115.55L219.141 121.509V112.769Z"/></g><path fill="#256AEA" d="M221.879 52.9381L198.465 60.7687V73.4282L222.094 68.0773L221.879 52.9381Z"/><path fill="#256AEA" d="M197.912 79.9202L177.606 84.4732V96.9615L197.912 92.9288V79.9202Z"/><g filter="url(#filter5_d_997_2451)"><path fill="#1F59C5" d="M197.912 60.774L186.098 54.3583V67.6303L197.912 73.2254V60.774Z"/></g><path fill="#256AEA" d="M184.99 54.3583L172.807 59.0212V71.1967L184.99 67.57V54.3583Z"/><g filter="url(#filter6_d_997_2451)"><path fill="#2262D7" d="M172.252 59.0339L163.576 54.764V68.4795L172.252 71.1967V59.0339Z"/></g><path fill="#256AEA" d="M176.498 84.8722L163.945 80.7317V93.412L176.498 97.1644V84.8722Z"/><path fill="#256AEA" d="M177.052 102.439L166.53 103.883V115.829L177.052 115.304V102.439Z"/><path fill="#256AEA" d="M165.976 104.172L163.391 103.656V116.031L165.976 115.774V104.172Z"/><g filter="url(#filter7_d_997_2451)"><path fill="#1F5AC5" d="M177.039 49.1026L163.068 42.3643L162.531 50.1597L172.172 54.4183L176.762 53.1286L177.039 49.1026Z"/></g><path fill="#256AEA" d="M197.543 41.7336L176.96 49.493V53.9405L186.374 50.5529L198.097 57.7255L197.543 41.7336Z"/><g filter="url(#filter8_d_997_2451)"><path fill="#1F5AC5" d="M212.496 51.1068L197.359 42.1122L198.097 56.4954L212.496 51.4661V51.1068Z"/></g><path fill="#256AEA" d="M176.868 34.6797L166.9 38.5343V40.9755L176.868 46.2434V34.6797Z"/><g filter="url(#filter9_d_997_2451)"><path fill="#1F59C5" d="M166.346 38.4229L163.577 37.1917V39.6541L164.535 40.0833L166.346 40.9767V38.4229Z"/></g><g filter="url(#filter10_d_997_2451)"><path fill="#1F59C5" d="M189.604 41.0713L176.867 34.069L177.421 45.1977L189.604 41.0713Z"/></g><path fill="#202D6B" d="M193.481 40.4443L177.501 30L167.42 34.7708L162.838 33.4066V37.1916L166.24 38.3812L176.965 34.1261L189.835 41.7337L193.481 40.4443Z"/><path fill="#202D6B" d="M216.003 51.0887L197.554 38.7056L176.593 46.6097L162.838 39.5572L162.654 43.153L176.593 49.7713L197.554 42.5259L212.837 52.1425L216.003 51.0887Z"/><path fill="#202D6B" d="M261.045 76.0237L223.338 48.0692L198.235 57.3874L186.378 50.3988L172.384 55.5755L162.746 51.4802V54.5083L172.384 58.1639L185.416 53.7636L198.235 59.8463L222.376 52.0812L257.413 78.0944L261.045 76.0237Z"/><path fill="#0F095B" d="M256.43 88.1588L222.135 68.7968L198.053 74.7344L185.153 68.7968L171.822 72.9273L162.469 69.5712V79.3813L176.767 83.5119L198.053 78.6069L237.293 93.9674L256.43 88.1588Z"/><path fill="#0F095B" d="M236.862 107.211L198.236 93.9675L176.825 98.2947L162.838 94.3609V102.753L165.528 103.409L177.04 101.704L219.432 112.325L236.862 107.211Z"/><g filter="url(#filter11_d_997_2451)"><path fill="#1F59C5" d="M196.065 119.7L177.428 116.843L166.352 117.492L163.37 118.142L162.838 154.374H196.065V119.7Z"/></g><path fill="#223C6C" d="M256.667 88.4483L250.914 85.1948L243.457 91.5715C243.457 91.5715 244.759 93.6232 245.611 95.2154C246.463 96.8076 208.43 128.01 207.471 131.914C206.512 135.818 205.849 152.346 205.849 152.346L217.568 151.565C217.568 151.565 215.224 135.849 215.97 133.346C216.716 130.842 255.838 94.9857 257.223 92.8729C258.608 90.7602 256.667 88.4483 256.667 88.4483Z"/><path fill="#223C6C" d="M243.808 81.7531L237.928 78.5001L230.361 85.7867C230.361 85.7867 230.361 86.5369 231.216 88.1289C232.072 89.7208 195.164 122.09 194.202 125.993C193.24 129.897 191.636 153.969 191.636 153.969L204.465 152.537C204.465 152.537 201.472 129.277 202.22 126.774C202.969 124.271 241.48 87.8992 242.87 85.7867C244.259 83.6743 243.808 81.7531 243.808 81.7531Z"/><path fill="#223C6C" d="M232.401 74.4622L226.632 71.1967L217.004 78.1372C217.004 78.1372 217.004 78.9895 217.973 80.798C218.941 82.6065 177.032 120.266 175.942 124.701C174.853 129.135 174.283 155.186 174.283 155.186L187.317 154.533C187.317 154.533 184.295 127.544 185.142 124.701C185.989 121.857 229.593 80.537 231.167 78.1372C232.741 75.7374 232.401 74.4622 232.401 74.4622Z"/><path fill="#223C6C" d="M107.273 149.303H218.956V165.127H107.273V149.303Z"/><rect width="265" height="1" x="32" y="158" fill="#534141"/><rect width="265" height="1" x="32" y="147" fill="#534141"/><rect width="265" height="1" x="32" y="134" fill="#534141"/><rect width="5" height="33" x="116" y="133" fill="#D9D9D9"/><ellipse cx="139.856" cy="88.795" fill="#3D1B11" rx="3.784" ry="4.892"/><ellipse cx="185.082" cy="88.426" fill="#3D1B11" rx="3.784" ry="4.892"/><path fill="#720000" d="M262.461 100.75L252.72 83.2826L237.73 93.3594L245.971 108.138L262.461 100.75Z"/><g filter="url(#filter12_dd_997_2451)"><ellipse cx="11" cy="7.5" fill="#720000" rx="11" ry="7.5" transform="matrix(-0.487037 -0.873381 -0.873381 0.487037 269.062 98.2144)"/></g><g filter="url(#filter13_dd_997_2451)"><ellipse cx="3.741" cy="2.503" fill="#720000" rx="3.741" ry="2.503" transform="matrix(0.434076 -0.900876 -0.900876 -0.434076 248.496 90.3257)"/></g><rect width="5" height="33" x="207" y="133" fill="#D9D9D9"/><rect width="5" height="33" x="292" y="133" fill="#D9D9D9"/><g filter="url(#filter14_d_997_2451)"><path fill="#C6C9E2" d="M17.1575 5.24357C17.3339 4.81506 17.9478 4.83626 18.0942 5.27591L20.8697 13.6104C20.9219 13.7672 21.0482 13.8881 21.2071 13.9333L30.6613 16.6253C31.1123 16.7537 31.1544 17.3763 30.7248 17.5643L21.1593 21.7485C21.0282 21.8059 20.9279 21.9167 20.8839 22.0529L18.0955 30.6815C17.9515 31.127 17.329 31.148 17.1554 30.7132L13.6808 22.0148C13.6354 21.9013 13.5502 21.8084 13.441 21.7535L5.08334 17.5512C4.68468 17.3507 4.72834 16.7681 5.15243 16.6293L13.3913 13.9327C13.5304 13.8872 13.6425 13.7831 13.6982 13.6478L17.1575 5.24357Z"/></g><g filter="url(#filter15_d_997_2451)"><path fill="#C6C9E2" d="M270.157 31.2436C270.334 30.8151 270.948 30.8363 271.094 31.2759L273.87 39.6104C273.922 39.7672 274.048 39.8881 274.207 39.9333L283.661 42.6253C284.112 42.7537 284.154 43.3763 283.725 43.5643L274.159 47.7485C274.028 47.8059 273.928 47.9167 273.884 48.0529L271.095 56.6815C270.951 57.127 270.329 57.148 270.155 56.7132L266.681 48.0148C266.635 47.9013 266.55 47.8084 266.441 47.7535L258.083 43.5512C257.685 43.3507 257.728 42.7681 258.152 42.6293L266.391 39.9327C266.53 39.8872 266.642 39.7831 266.698 39.6478L270.157 31.2436Z"/></g><g filter="url(#filter16_d_997_2451)"><path fill="#C6C9E2" d="M35.7834 61.327C35.9546 60.8866 36.5846 60.9074 36.7264 61.3581L38.2136 66.0869C38.2632 66.2447 38.3878 66.3678 38.5462 66.4156L43.7407 67.9816C44.1809 68.1144 44.2237 68.7208 43.8065 68.9141L38.4958 71.3738C38.3667 71.4336 38.2692 71.5455 38.2277 71.6815L36.7275 76.5969C36.5882 77.0532 35.9499 77.0738 35.7814 76.6274L33.9014 71.6441C33.8585 71.5304 33.7758 71.4363 33.6686 71.3792L29.0116 68.8998C28.6263 68.6947 28.6704 68.129 29.0828 67.986L33.6164 66.4149C33.755 66.3669 33.8655 66.2604 33.9187 66.1237L35.7834 61.327Z"/></g><g filter="url(#filter17_d_997_2451)"><path fill="#C6C9E2" d="M75.7834 15.327C75.9546 14.8866 76.5846 14.9074 76.7264 15.3581L78.2136 20.0869C78.2632 20.2447 78.3878 20.3678 78.5462 20.4156L83.7407 21.9816C84.1809 22.1144 84.2237 22.7208 83.8065 22.9141L78.4958 25.3738C78.3667 25.4336 78.2692 25.5455 78.2277 25.6815L76.7275 30.5969C76.5882 31.0532 75.9499 31.0738 75.7814 30.6274L73.9014 25.6441C73.8585 25.5304 73.7758 25.4363 73.6686 25.3792L69.0116 22.8998C68.6263 22.6947 68.6704 22.129 69.0828 21.986L73.6164 20.4149C73.755 20.3669 73.8655 20.2604 73.9187 20.1237L75.7834 15.327Z"/></g><g filter="url(#filter18_d_997_2451)"><path fill="#C6C9E2" d="M243.783 1.32697C243.955 0.886619 244.585 0.907438 244.726 1.35813L246.214 6.08686C246.263 6.24473 246.388 6.3678 246.546 6.41557L251.741 7.98164C252.181 8.11436 252.224 8.72082 251.807 8.91406L246.496 11.3738C246.367 11.4336 246.269 11.5455 246.228 11.6815L244.727 16.5969C244.588 17.0532 243.95 17.0738 243.781 16.6274L241.901 11.6441C241.859 11.5304 241.776 11.4363 241.669 11.3792L237.012 8.89983C236.626 8.69471 236.67 8.12897 237.083 7.98605L241.616 6.41494C241.755 6.3669 241.866 6.26041 241.919 6.12367L243.783 1.32697Z"/></g><g filter="url(#filter19_d_997_2451)"><path fill="#C6C9E2" d="M308.783 57.327C308.955 56.8866 309.585 56.9074 309.726 57.3581L311.214 62.0869C311.263 62.2447 311.388 62.3678 311.546 62.4156L316.741 63.9816C317.181 64.1144 317.224 64.7208 316.807 64.9141L311.496 67.3738C311.367 67.4336 311.269 67.5455 311.228 67.6815L309.727 72.5969C309.588 73.0532 308.95 73.0738 308.781 72.6274L306.901 67.6441C306.859 67.5304 306.776 67.4363 306.669 67.3792L302.012 64.8998C301.626 64.6947 301.67 64.129 302.083 63.986L306.616 62.4149C306.755 62.3669 306.866 62.2604 306.919 62.1237L308.783 57.327Z"/></g><defs><filter id="filter0_dd_997_2451" width="24.925" height="28.562" x="52.445" y="78.979" color-interpolation-filters="sRGB" filterUnits="userSpaceOnUse"><feFlood flood-opacity="0" result="BackgroundImageFix"/><feColorMatrix in="SourceAlpha" result="hardAlpha" type="matrix" values="0 0 0 0 0 0 0 0 0 0 0 0 0 0 0 0 0 0 127 0"/><feOffset dy="4"/><feGaussianBlur stdDeviation="2"/><feComposite in2="hardAlpha" operator="out"/><feColorMatrix type="matrix" values="0 0 0 0 0 0 0 0 0 0 0 0 0 0 0 0 0 0 0.25 0"/><feBlend in2="BackgroundImageFix" mode="normal" result="effect1_dropShadow_997_2451"/><feColorMatrix in="SourceAlpha" result="hardAlpha" type="matrix" values="0 0 0 0 0 0 0 0 0 0 0 0 0 0 0 0 0 0 127 0"/><feOffset dy="4"/><feGaussianBlur stdDeviation="2"/><feComposite in2="hardAlpha" operator="out"/><feColorMatrix type="matrix" values="0 0 0 0 0 0 0 0 0 0 0 0 0 0 0 0 0 0 0.25 0"/><feBlend in2="effect1_dropShadow_997_2451" mode="normal" result="effect2_dropShadow_997_2451"/><feBlend in="SourceGraphic" in2="effect2_dropShadow_997_2451" mode="normal" result="shape"/></filter><filter id="filter1_dd_997_2451" width="13.558" height="15.085" x="67.418" y="79.326" color-interpolation-filters="sRGB" filterUnits="userSpaceOnUse"><feFlood flood-opacity="0" result="BackgroundImageFix"/><feColorMatrix in="SourceAlpha" result="hardAlpha" type="matrix" values="0 0 0 0 0 0 0 0 0 0 0 0 0 0 0 0 0 0 127 0"/><feOffset dy="4"/><feGaussianBlur stdDeviation="2"/><feComposite in2="hardAlpha" operator="out"/><feColorMatrix type="matrix" values="0 0 0 0 0 0 0 0 0 0 0 0 0 0 0 0 0 0 0.25 0"/><feBlend in2="BackgroundImageFix" mode="normal" result="effect1_dropShadow_997_2451"/><feColorMatrix in="SourceAlpha" result="hardAlpha" type="matrix" values="0 0 0 0 0 0 0 0 0 0 0 0 0 0 0 0 0 0 127 0"/><feOffset dy="4"/><feGaussianBlur stdDeviation="2"/><feComposite in2="hardAlpha" operator="out"/><feColorMatrix type="matrix" values="0 0 0 0 0 0 0 0 0 0 0 0 0 0 0 0 0 0 0.25 0"/><feBlend in2="effect1_dropShadow_997_2451" mode="normal" result="effect2_dropShadow_997_2451"/><feBlend in="SourceGraphic" in2="effect2_dropShadow_997_2451" mode="normal" result="shape"/></filter><filter id="filter2_d_997_2451" width="42.52" height="42.444" x="218.278" y="52.9" color-interpolation-filters="sRGB" filterUnits="userSpaceOnUse"><feFlood flood-opacity="0" result="BackgroundImageFix"/><feColorMatrix in="SourceAlpha" result="hardAlpha" type="matrix" values="0 0 0 0 0 0 0 0 0 0 0 0 0 0 0 0 0 0 127 0"/><feOffset dy="4"/><feGaussianBlur stdDeviation="2"/><feComposite in2="hardAlpha" operator="out"/><feColorMatrix type="matrix" values="0 0 0 0 0 0 0 0 0 0 0 0 0 0 0 0 0 0 0.3 0"/><feBlend in2="BackgroundImageFix" mode="normal" result="effect1_dropShadow_997_2451"/><feBlend in="SourceGraphic" in2="effect1_dropShadow_997_2451" mode="normal" result="shape"/></filter><filter id="filter3_d_997_2451" width="47.043" height="36.861" x="194.097" y="78.449" color-interpolation-filters="sRGB" filterUnits="userSpaceOnUse"><feFlood flood-opacity="0" result="BackgroundImageFix"/><feColorMatrix in="SourceAlpha" result="hardAlpha" type="matrix" values="0 0 0 0 0 0 0 0 0 0 0 0 0 0 0 0 0 0 127 0"/><feOffset dy="4"/><feGaussianBlur stdDeviation="2"/><feComposite in2="hardAlpha" operator="out"/><feColorMatrix type="matrix" values="0 0 0 0 0 0 0 0 0 0 0 0 0 0 0 0 0 0 0.3 0"/><feBlend in2="BackgroundImageFix" mode="normal" result="effect1_dropShadow_997_2451"/><feBlend in="SourceGraphic" in2="effect1_dropShadow_997_2451" mode="normal" result="shape"/></filter><filter id="filter4_d_997_2451" width="49.535" height="27.07" x="173.605" y="102.439" color-interpolation-filters="sRGB" filterUnits="userSpaceOnUse"><feFlood flood-opacity="0" result="BackgroundImageFix"/><feColorMatrix in="SourceAlpha" result="hardAlpha" type="matrix" values="0 0 0 0 0 0 0 0 0 0 0 0 0 0 0 0 0 0 127 0"/><feOffset dy="4"/><feGaussianBlur stdDeviation="2"/><feComposite in2="hardAlpha" operator="out"/><feColorMatrix type="matrix" values="0 0 0 0 0 0 0 0 0 0 0 0 0 0 0 0 0 0 0.3 0"/><feBlend in2="BackgroundImageFix" mode="normal" result="effect1_dropShadow_997_2451"/><feBlend in="SourceGraphic" in2="effect1_dropShadow_997_2451" mode="normal" result="shape"/></filter><filter id="filter5_d_997_2451" width="19.814" height="26.867" x="182.098" y="54.358" color-interpolation-filters="sRGB" filterUnits="userSpaceOnUse"><feFlood flood-opacity="0" result="BackgroundImageFix"/><feColorMatrix in="SourceAlpha" result="hardAlpha" type="matrix" values="0 0 0 0 0 0 0 0 0 0 0 0 0 0 0 0 0 0 127 0"/><feOffset dy="4"/><feGaussianBlur stdDeviation="2"/><feComposite in2="hardAlpha" operator="out"/><feColorMatrix type="matrix" values="0 0 0 0 0 0 0 0 0 0 0 0 0 0 0 0 0 0 0.3 0"/><feBlend in2="BackgroundImageFix" mode="normal" result="effect1_dropShadow_997_2451"/><feBlend in="SourceGraphic" in2="effect1_dropShadow_997_2451" mode="normal" result="shape"/></filter><filter id="filter6_d_997_2451" width="16.676" height="24.433" x="159.576" y="54.764" color-interpolation-filters="sRGB" filterUnits="userSpaceOnUse"><feFlood flood-opacity="0" result="BackgroundImageFix"/><feColorMatrix in="SourceAlpha" result="hardAlpha" type="matrix" values="0 0 0 0 0 0 0 0 0 0 0 0 0 0 0 0 0 0 127 0"/><feOffset dy="4"/><feGaussianBlur stdDeviation="2"/><feComposite in2="hardAlpha" operator="out"/><feColorMatrix type="matrix" values="0 0 0 0 0 0 0 0 0 0 0 0 0 0 0 0 0 0 0.3 0"/><feBlend in2="BackgroundImageFix" mode="normal" result="effect1_dropShadow_997_2451"/><feBlend in="SourceGraphic" in2="effect1_dropShadow_997_2451" mode="normal" result="shape"/></filter><filter id="filter7_d_997_2451" width="22.508" height="20.054" x="158.531" y="42.364" color-interpolation-filters="sRGB" filterUnits="userSpaceOnUse"><feFlood flood-opacity="0" result="BackgroundImageFix"/><feColorMatrix in="SourceAlpha" result="hardAlpha" type="matrix" values="0 0 0 0 0 0 0 0 0 0 0 0 0 0 0 0 0 0 127 0"/><feOffset dy="4"/><feGaussianBlur stdDeviation="2"/><feComposite in2="hardAlpha" operator="out"/><feColorMatrix type="matrix" values="0 0 0 0 0 0 0 0 0 0 0 0 0 0 0 0 0 0 0.3 0"/><feBlend in2="BackgroundImageFix" mode="normal" result="effect1_dropShadow_997_2451"/><feBlend in="SourceGraphic" in2="effect1_dropShadow_997_2451" mode="normal" result="shape"/></filter><filter id="filter8_d_997_2451" width="23.137" height="22.383" x="193.359" y="42.112" color-interpolation-filters="sRGB" filterUnits="userSpaceOnUse"><feFlood flood-opacity="0" result="BackgroundImageFix"/><feColorMatrix in="SourceAlpha" result="hardAlpha" type="matrix" values="0 0 0 0 0 0 0 0 0 0 0 0 0 0 0 0 0 0 127 0"/><feOffset dy="4"/><feGaussianBlur stdDeviation="2"/><feComposite in2="hardAlpha" operator="out"/><feColorMatrix type="matrix" values="0 0 0 0 0 0 0 0 0 0 0 0 0 0 0 0 0 0 0.3 0"/><feBlend in2="BackgroundImageFix" mode="normal" result="effect1_dropShadow_997_2451"/><feBlend in="SourceGraphic" in2="effect1_dropShadow_997_2451" mode="normal" result="shape"/></filter><filter id="filter9_d_997_2451" width="10.769" height="11.785" x="159.577" y="37.192" color-interpolation-filters="sRGB" filterUnits="userSpaceOnUse"><feFlood flood-opacity="0" result="BackgroundImageFix"/><feColorMatrix in="SourceAlpha" result="hardAlpha" type="matrix" values="0 0 0 0 0 0 0 0 0 0 0 0 0 0 0 0 0 0 127 0"/><feOffset dy="4"/><feGaussianBlur stdDeviation="2"/><feComposite in2="hardAlpha" operator="out"/><feColorMatrix type="matrix" values="0 0 0 0 0 0 0 0 0 0 0 0 0 0 0 0 0 0 0.3 0"/><feBlend in2="BackgroundImageFix" mode="normal" result="effect1_dropShadow_997_2451"/><feBlend in="SourceGraphic" in2="effect1_dropShadow_997_2451" mode="normal" result="shape"/></filter><filter id="filter10_d_997_2451" width="20.737" height="19.129" x="172.867" y="34.069" color-interpolation-filters="sRGB" filterUnits="userSpaceOnUse"><feFlood flood-opacity="0" result="BackgroundImageFix"/><feColorMatrix in="SourceAlpha" result="hardAlpha" type="matrix" values="0 0 0 0 0 0 0 0 0 0 0 0 0 0 0 0 0 0 127 0"/><feOffset dy="4"/><feGaussianBlur stdDeviation="2"/><feComposite in2="hardAlpha" operator="out"/><feColorMatrix type="matrix" values="0 0 0 0 0 0 0 0 0 0 0 0 0 0 0 0 0 0 0.3 0"/><feBlend in2="BackgroundImageFix" mode="normal" result="effect1_dropShadow_997_2451"/><feBlend in="SourceGraphic" in2="effect1_dropShadow_997_2451" mode="normal" result="shape"/></filter><filter id="filter11_d_997_2451" width="41.227" height="45.531" x="158.838" y="116.843" color-interpolation-filters="sRGB" filterUnits="userSpaceOnUse"><feFlood flood-opacity="0" result="BackgroundImageFix"/><feColorMatrix in="SourceAlpha" result="hardAlpha" type="matrix" values="0 0 0 0 0 0 0 0 0 0 0 0 0 0 0 0 0 0 127 0"/><feOffset dy="4"/><feGaussianBlur stdDeviation="2"/><feComposite in2="hardAlpha" operator="out"/><feColorMatrix type="matrix" values="0 0 0 0 0 0 0 0 0 0 0 0 0 0 0 0 0 0 0.3 0"/><feBlend in2="BackgroundImageFix" mode="normal" result="effect1_dropShadow_997_2451"/><feBlend in="SourceGraphic" in2="effect1_dropShadow_997_2451" mode="normal" result="shape"/></filter><filter id="filter12_dd_997_2451" width="24.925" height="28.562" x="244.692" y="81.979" color-interpolation-filters="sRGB" filterUnits="userSpaceOnUse"><feFlood flood-opacity="0" result="BackgroundImageFix"/><feColorMatrix in="SourceAlpha" result="hardAlpha" type="matrix" values="0 0 0 0 0 0 0 0 0 0 0 0 0 0 0 0 0 0 127 0"/><feOffset dy="4"/><feGaussianBlur stdDeviation="2"/><feComposite in2="hardAlpha" operator="out"/><feColorMatrix type="matrix" values="0 0 0 0 0 0 0 0 0 0 0 0 0 0 0 0 0 0 0.25 0"/><feBlend in2="BackgroundImageFix" mode="normal" result="effect1_dropShadow_997_2451"/><feColorMatrix in="SourceAlpha" result="hardAlpha" type="matrix" values="0 0 0 0 0 0 0 0 0 0 0 0 0 0 0 0 0 0 127 0"/><feOffset dy="4"/><feGaussianBlur stdDeviation="2"/><feComposite in2="hardAlpha" operator="out"/><feColorMatrix type="matrix" values="0 0 0 0 0 0 0 0 0 0 0 0 0 0 0 0 0 0 0.25 0"/><feBlend in2="effect1_dropShadow_997_2451" mode="normal" result="effect2_dropShadow_997_2451"/><feBlend in="SourceGraphic" in2="effect2_dropShadow_997_2451" mode="normal" result="shape"/></filter><filter id="filter13_dd_997_2451" width="13.558" height="15.085" x="241.087" y="82.326" color-interpolation-filters="sRGB" filterUnits="userSpaceOnUse"><feFlood flood-opacity="0" result="BackgroundImageFix"/><feColorMatrix in="SourceAlpha" result="hardAlpha" type="matrix" values="0 0 0 0 0 0 0 0 0 0 0 0 0 0 0 0 0 0 127 0"/><feOffset dy="4"/><feGaussianBlur stdDeviation="2"/><feComposite in2="hardAlpha" operator="out"/><feColorMatrix type="matrix" values="0 0 0 0 0 0 0 0 0 0 0 0 0 0 0 0 0 0 0.25 0"/><feBlend in2="BackgroundImageFix" mode="normal" result="effect1_dropShadow_997_2451"/><feColorMatrix in="SourceAlpha" result="hardAlpha" type="matrix" values="0 0 0 0 0 0 0 0 0 0 0 0 0 0 0 0 0 0 127 0"/><feOffset dy="4"/><feGaussianBlur stdDeviation="2"/><feComposite in2="hardAlpha" operator="out"/><feColorMatrix type="matrix" values="0 0 0 0 0 0 0 0 0 0 0 0 0 0 0 0 0 0 0.25 0"/><feBlend in2="effect1_dropShadow_997_2451" mode="normal" result="effect2_dropShadow_997_2451"/><feBlend in="SourceGraphic" in2="effect2_dropShadow_997_2451" mode="normal" result="shape"/></filter><filter id="filter14_d_997_2451" width="34.217" height="34.094" x=".808" y="4.934" color-interpolation-filters="sRGB" filterUnits="userSpaceOnUse"><feFlood flood-opacity="0" result="BackgroundImageFix"/><feColorMatrix in="SourceAlpha" result="hardAlpha" type="matrix" values="0 0 0 0 0 0 0 0 0 0 0 0 0 0 0 0 0 0 127 0"/><feOffset dy="4"/><feGaussianBlur stdDeviation="2"/><feComposite in2="hardAlpha" operator="out"/><feColorMatrix type="matrix" values="0 0 0 0 0 0 0 0 0 0 0 0 0 0 0 0 0 0 0.25 0"/><feBlend in2="BackgroundImageFix" mode="normal" result="effect1_dropShadow_997_2451"/><feBlend in="SourceGraphic" in2="effect1_dropShadow_997_2451" mode="normal" result="shape"/></filter><filter id="filter15_d_997_2451" width="34.217" height="34.094" x="253.808" y="30.934" color-interpolation-filters="sRGB" filterUnits="userSpaceOnUse"><feFlood flood-opacity="0" result="BackgroundImageFix"/><feColorMatrix in="SourceAlpha" result="hardAlpha" type="matrix" values="0 0 0 0 0 0 0 0 0 0 0 0 0 0 0 0 0 0 127 0"/><feOffset dy="4"/><feGaussianBlur stdDeviation="2"/><feComposite in2="hardAlpha" operator="out"/><feColorMatrix type="matrix" values="0 0 0 0 0 0 0 0 0 0 0 0 0 0 0 0 0 0 0.25 0"/><feBlend in2="BackgroundImageFix" mode="normal" result="effect1_dropShadow_997_2451"/><feBlend in="SourceGraphic" in2="effect1_dropShadow_997_2451" mode="normal" result="shape"/></filter><filter id="filter16_d_997_2451" width="23.351" height="23.943" x="24.746" y="61.008" color-interpolation-filters="sRGB" filterUnits="userSpaceOnUse"><feFlood flood-opacity="0" result="BackgroundImageFix"/><feColorMatrix in="SourceAlpha" result="hardAlpha" type="matrix" values="0 0 0 0 0 0 0 0 0 0 0 0 0 0 0 0 0 0 127 0"/><feOffset dy="4"/><feGaussianBlur stdDeviation="2"/><feComposite in2="hardAlpha" operator="out"/><feColorMatrix type="matrix" values="0 0 0 0 0 0 0 0 0 0 0 0 0 0 0 0 0 0 0.25 0"/><feBlend in2="BackgroundImageFix" mode="normal" result="effect1_dropShadow_997_2451"/><feBlend in="SourceGraphic" in2="effect1_dropShadow_997_2451" mode="normal" result="shape"/></filter><filter id="filter17_d_997_2451" width="23.351" height="23.943" x="64.746" y="15.008" color-interpolation-filters="sRGB" filterUnits="userSpaceOnUse"><feFlood flood-opacity="0" result="BackgroundImageFix"/><feColorMatrix in="SourceAlpha" result="hardAlpha" type="matrix" values="0 0 0 0 0 0 0 0 0 0 0 0 0 0 0 0 0 0 127 0"/><feOffset dy="4"/><feGaussianBlur stdDeviation="2"/><feComposite in2="hardAlpha" operator="out"/><feColorMatrix type="matrix" values="0 0 0 0 0 0 0 0 0 0 0 0 0 0 0 0 0 0 0.25 0"/><feBlend in2="BackgroundImageFix" mode="normal" result="effect1_dropShadow_997_2451"/><feBlend in="SourceGraphic" in2="effect1_dropShadow_997_2451" mode="normal" result="shape"/></filter><filter id="filter18_d_997_2451" width="23.351" height="23.943" x="232.746" y="1.008" color-interpolation-filters="sRGB" filterUnits="userSpaceOnUse"><feFlood flood-opacity="0" result="BackgroundImageFix"/><feColorMatrix in="SourceAlpha" result="hardAlpha" type="matrix" values="0 0 0 0 0 0 0 0 0 0 0 0 0 0 0 0 0 0 127 0"/><feOffset dy="4"/><feGaussianBlur stdDeviation="2"/><feComposite in2="hardAlpha" operator="out"/><feColorMatrix type="matrix" values="0 0 0 0 0 0 0 0 0 0 0 0 0 0 0 0 0 0 0.25 0"/><feBlend in2="BackgroundImageFix" mode="normal" result="effect1_dropShadow_997_2451"/><feBlend in="SourceGraphic" in2="effect1_dropShadow_997_2451" mode="normal" result="shape"/></filter><filter id="filter19_d_997_2451" width="23.351" height="23.943" x="297.746" y="57.008" color-interpolation-filters="sRGB" filterUnits="userSpaceOnUse"><feFlood flood-opacity="0" result="BackgroundImageFix"/><feColorMatrix in="SourceAlpha" result="hardAlpha" type="matrix" values="0 0 0 0 0 0 0 0 0 0 0 0 0 0 0 0 0 0 127 0"/><feOffset dy="4"/><feGaussianBlur stdDeviation="2"/><feComposite in2="hardAlpha" operator="out"/><feColorMatrix type="matrix" values="0 0 0 0 0 0 0 0 0 0 0 0 0 0 0 0 0 0 0.25 0"/><feBlend in2="BackgroundImageFix" mode="normal" result="effect1_dropShadow_997_2451"/><feBlend in="SourceGraphic" in2="effect1_dropShadow_997_2451" mode="normal" result="shape"/></filter></defs></svg>