<svg xmlns="http://www.w3.org/2000/svg" width="371" height="293" fill="none" viewBox="38 4 277 277"><circle cx="176.5" cy="142.5" r="138.5" fill="url(#paint0_linear_997_2448)"/><g filter="url(#filter0_d_997_2448)"><path fill="#BFBFBF" d="M263.55 51.8997C306.715 19.1699 313.33 130.591 284.436 148C212.726 93.6824 231.524 142.225 231.524 94.727C104.092 94.727 92.1359 23 139.623 23C351.218 170.98 204.719 60.9526 263.55 51.8997Z"/></g><path fill="#fff" d="M323 103.522C323 150.97 309.259 179 261.821 179C214.383 179 292.423 174.275 292.423 126.826C165.123 126.826 37.7028 35 85.1405 35C256.233 132.391 252.383 -5.34774 323 103.522Z"/><g filter="url(#filter1_d_997_2448)"><path fill="#E3DEDE" d="M310 115.729C310 144.276 294.723 159.593 265.904 177C194.379 122.692 297.928 170.182 297.928 122.692C170.824 122.692 44.8322 28 92.1968 28C303.245 175.956 286.983 53.0654 310 115.729Z"/></g><path fill="#434329" d="M94 212.5H285L358 242H6L94 212.5Z"/><path fill="#8D8D59" d="M96 221H253.5L332.5 238H27L96 221Z"/><rect width="52.196" height="80.274" x="29" y="131.679" fill="#B0C8D0" rx="17"/><rect width="21.958" height="21.238" x="44.119" y="118" fill="#B0C8D0" rx="6"/><g filter="url(#filter2_d_997_2448)"><rect width="6.839" height="12.239" x="53" y="119" fill="#2B7793"/></g><g filter="url(#filter3_d_997_2448)"><rect width="2.88" height="12.239" x="48" y="119" fill="#F5FBFD"/></g><path fill="#B0C8D0" d="M120.645 147.118C121.867 138.769 129.028 132.579 137.466 132.579H138.17C146.594 132.579 153.747 138.747 154.986 147.079L161.09 188.133C162.617 198.404 154.659 207.633 144.274 207.633H131.461C121.092 207.633 113.139 198.431 114.64 188.172L120.645 147.118Z"/><g filter="url(#filter4_d_997_2448)"><rect width="2.181" height="39.597" x="148" y="139.321" fill="#67A0B4" rx="1.091" transform="rotate(-8.47064 148 139.321)"/></g><path fill="#105288" d="M117.761 186.065C118.988 178.174 125.782 172.356 133.767 172.356H141.528C149.647 172.356 156.512 178.366 157.585 186.414C158.879 196.124 151.325 204.753 141.528 204.753H133.767C123.828 204.753 116.233 195.885 117.761 186.065Z"/><path fill="#B0C8D0" d="M154.103 176.078C155.832 171.662 160.091 168.756 164.833 168.756C169.632 168.756 173.928 171.729 175.619 176.22L181.974 193.103C186.159 204.22 177.942 216.092 166.064 216.092H163.347C151.372 216.092 143.151 204.043 147.517 192.893L154.103 176.078Z"/><path fill="#B0C8D0" d="M161.214 201.953C162.668 200.694 164.528 200 166.452 200H176.175C178.153 200 180.062 200.733 181.531 202.058C186.975 206.964 183.504 216 176.175 216H166.452C159.046 216 155.616 206.803 161.214 201.953Z"/><path fill="#B0C8D0" d="M149.214 201.953C150.668 200.694 152.528 200 154.452 200H164.175C166.153 200 168.062 200.733 169.531 202.058C174.975 206.964 171.504 216 164.175 216H154.452C147.046 216 143.616 206.803 149.214 201.953Z"/><g filter="url(#filter5_d_997_2448)"><rect width="1.196" height="33.75" x="170.673" y="174.663" fill="#67A0B4" rx=".598" transform="rotate(-20.0569 170.673 174.663)"/></g><rect width="11.879" height="64.795" x="158.59" y="128.439" fill="#B0C8D0" rx="5"/><g filter="url(#filter6_d_997_2448)"><rect width="4.68" height="38.517" x="162.202" y="129.879" fill="#2B7793" rx="2"/></g><g filter="url(#filter7_d_997_2448)"><rect width=".72" height="38.517" x="168.322" y="129.879" fill="#fff" rx=".36"/></g><path fill="#4F572A" d="M155.833 179.548C157.273 175.862 160.826 173.436 164.783 173.436C168.786 173.436 172.37 175.918 173.778 179.666L178.706 192.789C182.383 202.582 175.144 213.033 164.684 213.033C154.138 213.033 146.895 202.426 150.732 192.604L155.833 179.548Z"/><rect width="15.119" height="6.479" x="157.149" y="123.04" fill="#B0C8D0" rx="3.24"/><rect width="16.919" height="23.398" x="156.07" y="183.155" fill="#D9C48A" rx="5"/><g filter="url(#filter8_d_997_2448)"><rect width="4.68" height="40.677" x="128" y="136" fill="#2B7793" rx="2"/></g><rect width="25.558" height="45.716" x="125.112" y="142.838" fill="url(#paint1_linear_997_2448)" rx="11"/><rect width="14.039" height="9.359" x="130.872" y="126.999" fill="#B0C8D0" rx="4.68"/><rect width="21.598" height="9.359" x="127.272" y="120.52" fill="#B0C8D0" rx="4.68"/><g filter="url(#filter9_d_997_2448)"><rect width="7.919" height="6.12" x="137.364" y="122.32" fill="#2B7793" rx="2"/></g><g filter="url(#filter10_d_997_2448)"><rect width="1" height="65" x="75" y="138" fill="#fff" rx=".5"/></g><rect width="46.796" height="36.717" x="31.88" y="171.996" fill="#163C14" rx="11"/><rect width="28.078" height="9.359" x="86.955" y="156.877" fill="#B0C8D0" rx="4.68"/><rect width="52.196" height="46.436" x="74.717" y="171.636" fill="#B0C8D0" rx="17"/><g filter="url(#filter11_d_997_2448)"><rect width="4.68" height="40.317" x="85" y="175" fill="#67A0B4" rx="2.34"/></g><g filter="url(#filter12_d_997_2448)"><rect width=".72" height="40.317" x="83" y="175" fill="#fff" rx=".36"/></g><g filter="url(#filter13_d_997_2448)"><rect width="4.68" height="39.597" x="113.606" y="175.235" fill="#67A0B4"/></g><g filter="url(#filter14_d_997_2448)"><rect width=".72" height="39.237" x="119" y="175" fill="#fff" rx=".36"/></g><rect width="21.958" height="12.239" x="89.835" y="163.716" fill="#B0C8D0" rx="6"/><rect width="46.796" height="18.359" x="77.597" y="197.554" fill="#761313" rx="9.179"/><rect width="35.637" height="33.477" x="82.636" y="178.835" fill="url(#paint2_linear_997_2448)" rx="11"/><g filter="url(#filter15_d_997_2448)"><rect width="8.279" height="74.514" x="39" y="134" fill="#67A0B4" rx="4.14"/></g><g filter="url(#filter16_d_997_2448)"><rect width="1" height="70" x="36" y="136" fill="#fff" rx=".5"/></g><g filter="url(#filter17_d_997_2448)"><rect width="8.279" height="74.514" x="64.649" y="134.199" fill="#2B7691" rx="4.14"/></g><g filter="url(#filter18_d_997_2448)"><rect width="35.637" height="45.716" x="37.279" y="147.158" fill="url(#paint3_linear_997_2448)" rx="11"/></g><g filter="url(#filter19_d_997_2448)"><rect width="1" height="6" x="146" y="122" fill="#fff" rx=".5"/></g><rect width="14" height="17" x="198" y="140" fill="#B0C8D0" rx="6"/><g filter="url(#filter20_d_997_2448)"><rect width="7" height="39" x="201" y="141" fill="#2B7793" rx="2"/></g><g filter="url(#filter21_d_997_2448)"><rect width="1" height="10" x="209" y="142" fill="#fff" rx=".5"/></g><circle cx="206" cy="178" r="27" fill="#B0C8D0"/><path fill="#B0C8D0" d="M325.988 189.095C325.988 212.554 308.591 225.812 285.132 225.812C261.672 225.812 241.035 212.554 241.035 189.095C241.035 165.635 260.413 152.557 283.872 152.557C307.331 152.557 325.988 165.635 325.988 189.095Z"/><rect width="76.674" height="13.679" x="246.075" y="214.833" fill="#B0C8D0" rx="6.839"/><rect width="80.274" height="13.679" x="244.275" y="152.557" fill="#B0C8D0" rx="6.839"/><g filter="url(#filter22_d_997_2448)"><rect width=".72" height="10.439" x="319.29" y="154.113" fill="#fff" rx=".36"/></g><path fill="#67A0B4" d="M233 178.969C229.671 194.91 221.533 201 210.806 201C222.356 192.756 224.756 198.492 229.671 180.76C231.706 152.281 190.138 153.002 205.358 153.002C220.578 153.002 230.411 161.595 233 178.969Z"/><path fill="#fff" d="M230 178.969C227.208 194.91 220.382 201 211.385 201C221.073 192.756 223.085 198.492 227.208 180.76C228.915 152.281 194.051 153.002 206.817 153.002C219.582 153.002 227.828 161.595 230 178.969Z"/><g filter="url(#filter23_d_997_2448)"><rect width="5" height="11" x="312" y="154" fill="#2B7793" rx="2"/></g><g filter="url(#filter24_d_997_2448)"><rect width="5" height="12" x="92" y="159" fill="#2B7793"/></g><g filter="url(#filter25_d_997_2448)"><rect width="1" height="12" x="98" y="159" fill="#fff" rx=".5"/></g><rect width="32" height="34" x="189" y="161" fill="#D9C48A" rx="8"/><path fill="#67A0B4" d="M242.027 190.528C242.561 201.676 251.105 213 261.43 213C250.313 204.727 249.962 210.12 245.232 192.326C243.273 163.747 278.036 165.008 263.388 165.008C248.739 165.008 241.494 179.38 242.027 190.528Z"/><path fill="#fff" d="M244.002 190.968C244.189 202.606 254.064 213 263.477 213C253.342 204.756 252.267 209.054 246.924 192.759C241.58 176.464 281.612 165 268.257 165C254.902 165 243.816 179.33 244.002 190.968Z"/><path fill="#4A0B59" d="M228 178.712C228 191.021 217.926 201 205.5 201C193.074 201 183 191.021 183 178.712C183 166.403 191.274 177.82 203.7 177.82C216.126 177.82 228 166.403 228 178.712Z"/><path fill="#fff" d="M316.527 209.624C324.084 200.697 326.924 186.447 320.074 180.466C321.874 192.885 322.611 194.021 315.585 206.412C308.559 218.803 277.262 210.959 284.977 216.463C295.261 219.598 308.971 218.552 316.527 209.624Z"/><path fill="#B0C8D0" d="M191.214 195.953C192.668 194.694 194.528 194 196.452 194H206.175C208.153 194 210.062 194.733 211.531 196.058C216.975 200.964 213.504 210 206.175 210H196.452C189.046 210 185.616 200.803 191.214 195.953Z"/><path fill="#B0C8D0" d="M203.214 195.953C204.668 194.694 206.528 194 208.452 194H218.175C220.153 194 222.062 194.733 223.531 196.058C228.975 200.964 225.504 210 218.175 210H208.452C201.046 210 197.616 200.803 203.214 195.953Z"/><g filter="url(#filter26_d_997_2448)"><rect width="12" height="10" x="250" y="217" fill="#2B7793" rx="2"/></g><g filter="url(#filter27_d_997_2448)"><rect width="1" height="10" x="262" y="217" fill="#fff" rx=".5"/></g><defs><filter id="filter0_d_997_2448" width="196" height="133" x="110" y="23" color-interpolation-filters="sRGB" filterUnits="userSpaceOnUse"><feFlood flood-opacity="0" result="BackgroundImageFix"/><feColorMatrix in="SourceAlpha" result="hardAlpha" type="matrix" values="0 0 0 0 0 0 0 0 0 0 0 0 0 0 0 0 0 0 127 0"/><feOffset dy="4"/><feGaussianBlur stdDeviation="2"/><feComposite in2="hardAlpha" operator="out"/><feColorMatrix type="matrix" values="0 0 0 0 0 0 0 0 0 0 0 0 0 0 0 0 0 0 0.25 0"/><feBlend in2="BackgroundImageFix" mode="normal" result="effect1_dropShadow_997_2448"/><feBlend in="SourceGraphic" in2="effect1_dropShadow_997_2448" mode="normal" result="shape"/></filter><filter id="filter1_d_997_2448" width="236" height="157" x="78" y="28" color-interpolation-filters="sRGB" filterUnits="userSpaceOnUse"><feFlood flood-opacity="0" result="BackgroundImageFix"/><feColorMatrix in="SourceAlpha" result="hardAlpha" type="matrix" values="0 0 0 0 0 0 0 0 0 0 0 0 0 0 0 0 0 0 127 0"/><feOffset dy="4"/><feGaussianBlur stdDeviation="2"/><feComposite in2="hardAlpha" operator="out"/><feColorMatrix type="matrix" values="0 0 0 0 0 0 0 0 0 0 0 0 0 0 0 0 0 0 0.25 0"/><feBlend in2="BackgroundImageFix" mode="normal" result="effect1_dropShadow_997_2448"/><feBlend in="SourceGraphic" in2="effect1_dropShadow_997_2448" mode="normal" result="shape"/></filter><filter id="filter2_d_997_2448" width="14.84" height="20.239" x="49" y="119" color-interpolation-filters="sRGB" filterUnits="userSpaceOnUse"><feFlood flood-opacity="0" result="BackgroundImageFix"/><feColorMatrix in="SourceAlpha" result="hardAlpha" type="matrix" values="0 0 0 0 0 0 0 0 0 0 0 0 0 0 0 0 0 0 127 0"/><feOffset dy="4"/><feGaussianBlur stdDeviation="2"/><feComposite in2="hardAlpha" operator="out"/><feColorMatrix type="matrix" values="0 0 0 0 0 0 0 0 0 0 0 0 0 0 0 0 0 0 0.25 0"/><feBlend in2="BackgroundImageFix" mode="normal" result="effect1_dropShadow_997_2448"/><feBlend in="SourceGraphic" in2="effect1_dropShadow_997_2448" mode="normal" result="shape"/></filter><filter id="filter3_d_997_2448" width="10.88" height="20.239" x="44" y="119" color-interpolation-filters="sRGB" filterUnits="userSpaceOnUse"><feFlood flood-opacity="0" result="BackgroundImageFix"/><feColorMatrix in="SourceAlpha" result="hardAlpha" type="matrix" values="0 0 0 0 0 0 0 0 0 0 0 0 0 0 0 0 0 0 127 0"/><feOffset dy="4"/><feGaussianBlur stdDeviation="2"/><feComposite in2="hardAlpha" operator="out"/><feColorMatrix type="matrix" values="0 0 0 0 0 0 0 0 0 0 0 0 0 0 0 0 0 0 0.25 0"/><feBlend in2="BackgroundImageFix" mode="normal" result="effect1_dropShadow_997_2448"/><feBlend in="SourceGraphic" in2="effect1_dropShadow_997_2448" mode="normal" result="shape"/></filter><filter id="filter4_d_997_2448" width="15.693" height="47.189" x="144.148" y="139.149" color-interpolation-filters="sRGB" filterUnits="userSpaceOnUse"><feFlood flood-opacity="0" result="BackgroundImageFix"/><feColorMatrix in="SourceAlpha" result="hardAlpha" type="matrix" values="0 0 0 0 0 0 0 0 0 0 0 0 0 0 0 0 0 0 127 0"/><feOffset dy="4"/><feGaussianBlur stdDeviation="2"/><feComposite in2="hardAlpha" operator="out"/><feColorMatrix type="matrix" values="0 0 0 0 0 0 0 0 0 0 0 0 0 0 0 0 0 0 0.25 0"/><feBlend in2="BackgroundImageFix" mode="normal" result="effect1_dropShadow_997_2448"/><feBlend in="SourceGraphic" in2="effect1_dropShadow_997_2448" mode="normal" result="shape"/></filter><filter id="filter5_d_997_2448" width="20.36" height="39.776" x="166.842" y="174.421" color-interpolation-filters="sRGB" filterUnits="userSpaceOnUse"><feFlood flood-opacity="0" result="BackgroundImageFix"/><feColorMatrix in="SourceAlpha" result="hardAlpha" type="matrix" values="0 0 0 0 0 0 0 0 0 0 0 0 0 0 0 0 0 0 127 0"/><feOffset dy="4"/><feGaussianBlur stdDeviation="2"/><feComposite in2="hardAlpha" operator="out"/><feColorMatrix type="matrix" values="0 0 0 0 0 0 0 0 0 0 0 0 0 0 0 0 0 0 0.25 0"/><feBlend in2="BackgroundImageFix" mode="normal" result="effect1_dropShadow_997_2448"/><feBlend in="SourceGraphic" in2="effect1_dropShadow_997_2448" mode="normal" result="shape"/></filter><filter id="filter6_d_997_2448" width="12.68" height="46.517" x="158.202" y="129.879" color-interpolation-filters="sRGB" filterUnits="userSpaceOnUse"><feFlood flood-opacity="0" result="BackgroundImageFix"/><feColorMatrix in="SourceAlpha" result="hardAlpha" type="matrix" values="0 0 0 0 0 0 0 0 0 0 0 0 0 0 0 0 0 0 127 0"/><feOffset dy="4"/><feGaussianBlur stdDeviation="2"/><feComposite in2="hardAlpha" operator="out"/><feColorMatrix type="matrix" values="0 0 0 0 0 0 0 0 0 0 0 0 0 0 0 0 0 0 0.25 0"/><feBlend in2="BackgroundImageFix" mode="normal" result="effect1_dropShadow_997_2448"/><feBlend in="SourceGraphic" in2="effect1_dropShadow_997_2448" mode="normal" result="shape"/></filter><filter id="filter7_d_997_2448" width="8.72" height="46.517" x="164.322" y="129.879" color-interpolation-filters="sRGB" filterUnits="userSpaceOnUse"><feFlood flood-opacity="0" result="BackgroundImageFix"/><feColorMatrix in="SourceAlpha" result="hardAlpha" type="matrix" values="0 0 0 0 0 0 0 0 0 0 0 0 0 0 0 0 0 0 127 0"/><feOffset dy="4"/><feGaussianBlur stdDeviation="2"/><feComposite in2="hardAlpha" operator="out"/><feColorMatrix type="matrix" values="0 0 0 0 0 0 0 0 0 0 0 0 0 0 0 0 0 0 0.25 0"/><feBlend in2="BackgroundImageFix" mode="normal" result="effect1_dropShadow_997_2448"/><feBlend in="SourceGraphic" in2="effect1_dropShadow_997_2448" mode="normal" result="shape"/></filter><filter id="filter8_d_997_2448" width="12.68" height="48.677" x="124" y="136" color-interpolation-filters="sRGB" filterUnits="userSpaceOnUse"><feFlood flood-opacity="0" result="BackgroundImageFix"/><feColorMatrix in="SourceAlpha" result="hardAlpha" type="matrix" values="0 0 0 0 0 0 0 0 0 0 0 0 0 0 0 0 0 0 127 0"/><feOffset dy="4"/><feGaussianBlur stdDeviation="2"/><feComposite in2="hardAlpha" operator="out"/><feColorMatrix type="matrix" values="0 0 0 0 0 0 0 0 0 0 0 0 0 0 0 0 0 0 0.25 0"/><feBlend in2="BackgroundImageFix" mode="normal" result="effect1_dropShadow_997_2448"/><feBlend in="SourceGraphic" in2="effect1_dropShadow_997_2448" mode="normal" result="shape"/></filter><filter id="filter9_d_997_2448" width="15.919" height="14.12" x="133.364" y="122.32" color-interpolation-filters="sRGB" filterUnits="userSpaceOnUse"><feFlood flood-opacity="0" result="BackgroundImageFix"/><feColorMatrix in="SourceAlpha" result="hardAlpha" type="matrix" values="0 0 0 0 0 0 0 0 0 0 0 0 0 0 0 0 0 0 127 0"/><feOffset dy="4"/><feGaussianBlur stdDeviation="2"/><feComposite in2="hardAlpha" operator="out"/><feColorMatrix type="matrix" values="0 0 0 0 0 0 0 0 0 0 0 0 0 0 0 0 0 0 0.25 0"/><feBlend in2="BackgroundImageFix" mode="normal" result="effect1_dropShadow_997_2448"/><feBlend in="SourceGraphic" in2="effect1_dropShadow_997_2448" mode="normal" result="shape"/></filter><filter id="filter10_d_997_2448" width="9" height="73" x="71" y="138" color-interpolation-filters="sRGB" filterUnits="userSpaceOnUse"><feFlood flood-opacity="0" result="BackgroundImageFix"/><feColorMatrix in="SourceAlpha" result="hardAlpha" type="matrix" values="0 0 0 0 0 0 0 0 0 0 0 0 0 0 0 0 0 0 127 0"/><feOffset dy="4"/><feGaussianBlur stdDeviation="2"/><feComposite in2="hardAlpha" operator="out"/><feColorMatrix type="matrix" values="0 0 0 0 0 0 0 0 0 0 0 0 0 0 0 0 0 0 0.25 0"/><feBlend in2="BackgroundImageFix" mode="normal" result="effect1_dropShadow_997_2448"/><feBlend in="SourceGraphic" in2="effect1_dropShadow_997_2448" mode="normal" result="shape"/></filter><filter id="filter11_d_997_2448" width="12.68" height="48.317" x="81" y="175" color-interpolation-filters="sRGB" filterUnits="userSpaceOnUse"><feFlood flood-opacity="0" result="BackgroundImageFix"/><feColorMatrix in="SourceAlpha" result="hardAlpha" type="matrix" values="0 0 0 0 0 0 0 0 0 0 0 0 0 0 0 0 0 0 127 0"/><feOffset dy="4"/><feGaussianBlur stdDeviation="2"/><feComposite in2="hardAlpha" operator="out"/><feColorMatrix type="matrix" values="0 0 0 0 0 0 0 0 0 0 0 0 0 0 0 0 0 0 0.25 0"/><feBlend in2="BackgroundImageFix" mode="normal" result="effect1_dropShadow_997_2448"/><feBlend in="SourceGraphic" in2="effect1_dropShadow_997_2448" mode="normal" result="shape"/></filter><filter id="filter12_d_997_2448" width="8.72" height="48.317" x="79" y="175" color-interpolation-filters="sRGB" filterUnits="userSpaceOnUse"><feFlood flood-opacity="0" result="BackgroundImageFix"/><feColorMatrix in="SourceAlpha" result="hardAlpha" type="matrix" values="0 0 0 0 0 0 0 0 0 0 0 0 0 0 0 0 0 0 127 0"/><feOffset dy="4"/><feGaussianBlur stdDeviation="2"/><feComposite in2="hardAlpha" operator="out"/><feColorMatrix type="matrix" values="0 0 0 0 0 0 0 0 0 0 0 0 0 0 0 0 0 0 0.25 0"/><feBlend in2="BackgroundImageFix" mode="normal" result="effect1_dropShadow_997_2448"/><feBlend in="SourceGraphic" in2="effect1_dropShadow_997_2448" mode="normal" result="shape"/></filter><filter id="filter13_d_997_2448" width="12.68" height="47.597" x="109.606" y="175.235" color-interpolation-filters="sRGB" filterUnits="userSpaceOnUse"><feFlood flood-opacity="0" result="BackgroundImageFix"/><feColorMatrix in="SourceAlpha" result="hardAlpha" type="matrix" values="0 0 0 0 0 0 0 0 0 0 0 0 0 0 0 0 0 0 127 0"/><feOffset dy="4"/><feGaussianBlur stdDeviation="2"/><feComposite in2="hardAlpha" operator="out"/><feColorMatrix type="matrix" values="0 0 0 0 0 0 0 0 0 0 0 0 0 0 0 0 0 0 0.25 0"/><feBlend in2="BackgroundImageFix" mode="normal" result="effect1_dropShadow_997_2448"/><feBlend in="SourceGraphic" in2="effect1_dropShadow_997_2448" mode="normal" result="shape"/></filter><filter id="filter14_d_997_2448" width="8.72" height="47.237" x="115" y="175" color-interpolation-filters="sRGB" filterUnits="userSpaceOnUse"><feFlood flood-opacity="0" result="BackgroundImageFix"/><feColorMatrix in="SourceAlpha" result="hardAlpha" type="matrix" values="0 0 0 0 0 0 0 0 0 0 0 0 0 0 0 0 0 0 127 0"/><feOffset dy="4"/><feGaussianBlur stdDeviation="2"/><feComposite in2="hardAlpha" operator="out"/><feColorMatrix type="matrix" values="0 0 0 0 0 0 0 0 0 0 0 0 0 0 0 0 0 0 0.25 0"/><feBlend in2="BackgroundImageFix" mode="normal" result="effect1_dropShadow_997_2448"/><feBlend in="SourceGraphic" in2="effect1_dropShadow_997_2448" mode="normal" result="shape"/></filter><filter id="filter15_d_997_2448" width="16.279" height="82.514" x="35" y="134" color-interpolation-filters="sRGB" filterUnits="userSpaceOnUse"><feFlood flood-opacity="0" result="BackgroundImageFix"/><feColorMatrix in="SourceAlpha" result="hardAlpha" type="matrix" values="0 0 0 0 0 0 0 0 0 0 0 0 0 0 0 0 0 0 127 0"/><feOffset dy="4"/><feGaussianBlur stdDeviation="2"/><feComposite in2="hardAlpha" operator="out"/><feColorMatrix type="matrix" values="0 0 0 0 0 0 0 0 0 0 0 0 0 0 0 0 0 0 0.25 0"/><feBlend in2="BackgroundImageFix" mode="normal" result="effect1_dropShadow_997_2448"/><feBlend in="SourceGraphic" in2="effect1_dropShadow_997_2448" mode="normal" result="shape"/></filter><filter id="filter16_d_997_2448" width="9" height="78" x="32" y="136" color-interpolation-filters="sRGB" filterUnits="userSpaceOnUse"><feFlood flood-opacity="0" result="BackgroundImageFix"/><feColorMatrix in="SourceAlpha" result="hardAlpha" type="matrix" values="0 0 0 0 0 0 0 0 0 0 0 0 0 0 0 0 0 0 127 0"/><feOffset dy="4"/><feGaussianBlur stdDeviation="2"/><feComposite in2="hardAlpha" operator="out"/><feColorMatrix type="matrix" values="0 0 0 0 0 0 0 0 0 0 0 0 0 0 0 0 0 0 0.25 0"/><feBlend in2="BackgroundImageFix" mode="normal" result="effect1_dropShadow_997_2448"/><feBlend in="SourceGraphic" in2="effect1_dropShadow_997_2448" mode="normal" result="shape"/></filter><filter id="filter17_d_997_2448" width="16.279" height="82.514" x="60.649" y="134.199" color-interpolation-filters="sRGB" filterUnits="userSpaceOnUse"><feFlood flood-opacity="0" result="BackgroundImageFix"/><feColorMatrix in="SourceAlpha" result="hardAlpha" type="matrix" values="0 0 0 0 0 0 0 0 0 0 0 0 0 0 0 0 0 0 127 0"/><feOffset dy="4"/><feGaussianBlur stdDeviation="2"/><feComposite in2="hardAlpha" operator="out"/><feColorMatrix type="matrix" values="0 0 0 0 0 0 0 0 0 0 0 0 0 0 0 0 0 0 0.25 0"/><feBlend in2="BackgroundImageFix" mode="normal" result="effect1_dropShadow_997_2448"/><feBlend in="SourceGraphic" in2="effect1_dropShadow_997_2448" mode="normal" result="shape"/></filter><filter id="filter18_d_997_2448" width="43.637" height="53.716" x="33.279" y="147.158" color-interpolation-filters="sRGB" filterUnits="userSpaceOnUse"><feFlood flood-opacity="0" result="BackgroundImageFix"/><feColorMatrix in="SourceAlpha" result="hardAlpha" type="matrix" values="0 0 0 0 0 0 0 0 0 0 0 0 0 0 0 0 0 0 127 0"/><feOffset dy="4"/><feGaussianBlur stdDeviation="2"/><feComposite in2="hardAlpha" operator="out"/><feColorMatrix type="matrix" values="0 0 0 0 0 0 0 0 0 0 0 0 0 0 0 0 0 0 0.25 0"/><feBlend in2="BackgroundImageFix" mode="normal" result="effect1_dropShadow_997_2448"/><feBlend in="SourceGraphic" in2="effect1_dropShadow_997_2448" mode="normal" result="shape"/></filter><filter id="filter19_d_997_2448" width="9" height="14" x="142" y="122" color-interpolation-filters="sRGB" filterUnits="userSpaceOnUse"><feFlood flood-opacity="0" result="BackgroundImageFix"/><feColorMatrix in="SourceAlpha" result="hardAlpha" type="matrix" values="0 0 0 0 0 0 0 0 0 0 0 0 0 0 0 0 0 0 127 0"/><feOffset dy="4"/><feGaussianBlur stdDeviation="2"/><feComposite in2="hardAlpha" operator="out"/><feColorMatrix type="matrix" values="0 0 0 0 0 0 0 0 0 0 0 0 0 0 0 0 0 0 0.25 0"/><feBlend in2="BackgroundImageFix" mode="normal" result="effect1_dropShadow_997_2448"/><feBlend in="SourceGraphic" in2="effect1_dropShadow_997_2448" mode="normal" result="shape"/></filter><filter id="filter20_d_997_2448" width="15" height="47" x="197" y="141" color-interpolation-filters="sRGB" filterUnits="userSpaceOnUse"><feFlood flood-opacity="0" result="BackgroundImageFix"/><feColorMatrix in="SourceAlpha" result="hardAlpha" type="matrix" values="0 0 0 0 0 0 0 0 0 0 0 0 0 0 0 0 0 0 127 0"/><feOffset dy="4"/><feGaussianBlur stdDeviation="2"/><feComposite in2="hardAlpha" operator="out"/><feColorMatrix type="matrix" values="0 0 0 0 0 0 0 0 0 0 0 0 0 0 0 0 0 0 0.25 0"/><feBlend in2="BackgroundImageFix" mode="normal" result="effect1_dropShadow_997_2448"/><feBlend in="SourceGraphic" in2="effect1_dropShadow_997_2448" mode="normal" result="shape"/></filter><filter id="filter21_d_997_2448" width="9" height="18" x="205" y="142" color-interpolation-filters="sRGB" filterUnits="userSpaceOnUse"><feFlood flood-opacity="0" result="BackgroundImageFix"/><feColorMatrix in="SourceAlpha" result="hardAlpha" type="matrix" values="0 0 0 0 0 0 0 0 0 0 0 0 0 0 0 0 0 0 127 0"/><feOffset dy="4"/><feGaussianBlur stdDeviation="2"/><feComposite in2="hardAlpha" operator="out"/><feColorMatrix type="matrix" values="0 0 0 0 0 0 0 0 0 0 0 0 0 0 0 0 0 0 0.25 0"/><feBlend in2="BackgroundImageFix" mode="normal" result="effect1_dropShadow_997_2448"/><feBlend in="SourceGraphic" in2="effect1_dropShadow_997_2448" mode="normal" result="shape"/></filter><filter id="filter22_d_997_2448" width="8.72" height="18.439" x="315.29" y="154.113" color-interpolation-filters="sRGB" filterUnits="userSpaceOnUse"><feFlood flood-opacity="0" result="BackgroundImageFix"/><feColorMatrix in="SourceAlpha" result="hardAlpha" type="matrix" values="0 0 0 0 0 0 0 0 0 0 0 0 0 0 0 0 0 0 127 0"/><feOffset dy="4"/><feGaussianBlur stdDeviation="2"/><feComposite in2="hardAlpha" operator="out"/><feColorMatrix type="matrix" values="0 0 0 0 0 0 0 0 0 0 0 0 0 0 0 0 0 0 0.25 0"/><feBlend in2="BackgroundImageFix" mode="normal" result="effect1_dropShadow_997_2448"/><feBlend in="SourceGraphic" in2="effect1_dropShadow_997_2448" mode="normal" result="shape"/></filter><filter id="filter23_d_997_2448" width="13" height="19" x="308" y="154" color-interpolation-filters="sRGB" filterUnits="userSpaceOnUse"><feFlood flood-opacity="0" result="BackgroundImageFix"/><feColorMatrix in="SourceAlpha" result="hardAlpha" type="matrix" values="0 0 0 0 0 0 0 0 0 0 0 0 0 0 0 0 0 0 127 0"/><feOffset dy="4"/><feGaussianBlur stdDeviation="2"/><feComposite in2="hardAlpha" operator="out"/><feColorMatrix type="matrix" values="0 0 0 0 0 0 0 0 0 0 0 0 0 0 0 0 0 0 0.25 0"/><feBlend in2="BackgroundImageFix" mode="normal" result="effect1_dropShadow_997_2448"/><feBlend in="SourceGraphic" in2="effect1_dropShadow_997_2448" mode="normal" result="shape"/></filter><filter id="filter24_d_997_2448" width="13" height="20" x="88" y="159" color-interpolation-filters="sRGB" filterUnits="userSpaceOnUse"><feFlood flood-opacity="0" result="BackgroundImageFix"/><feColorMatrix in="SourceAlpha" result="hardAlpha" type="matrix" values="0 0 0 0 0 0 0 0 0 0 0 0 0 0 0 0 0 0 127 0"/><feOffset dy="4"/><feGaussianBlur stdDeviation="2"/><feComposite in2="hardAlpha" operator="out"/><feColorMatrix type="matrix" values="0 0 0 0 0 0 0 0 0 0 0 0 0 0 0 0 0 0 0.25 0"/><feBlend in2="BackgroundImageFix" mode="normal" result="effect1_dropShadow_997_2448"/><feBlend in="SourceGraphic" in2="effect1_dropShadow_997_2448" mode="normal" result="shape"/></filter><filter id="filter25_d_997_2448" width="9" height="20" x="94" y="159" color-interpolation-filters="sRGB" filterUnits="userSpaceOnUse"><feFlood flood-opacity="0" result="BackgroundImageFix"/><feColorMatrix in="SourceAlpha" result="hardAlpha" type="matrix" values="0 0 0 0 0 0 0 0 0 0 0 0 0 0 0 0 0 0 127 0"/><feOffset dy="4"/><feGaussianBlur stdDeviation="2"/><feComposite in2="hardAlpha" operator="out"/><feColorMatrix type="matrix" values="0 0 0 0 0 0 0 0 0 0 0 0 0 0 0 0 0 0 0.25 0"/><feBlend in2="BackgroundImageFix" mode="normal" result="effect1_dropShadow_997_2448"/><feBlend in="SourceGraphic" in2="effect1_dropShadow_997_2448" mode="normal" result="shape"/></filter><filter id="filter26_d_997_2448" width="20" height="18" x="246" y="217" color-interpolation-filters="sRGB" filterUnits="userSpaceOnUse"><feFlood flood-opacity="0" result="BackgroundImageFix"/><feColorMatrix in="SourceAlpha" result="hardAlpha" type="matrix" values="0 0 0 0 0 0 0 0 0 0 0 0 0 0 0 0 0 0 127 0"/><feOffset dy="4"/><feGaussianBlur stdDeviation="2"/><feComposite in2="hardAlpha" operator="out"/><feColorMatrix type="matrix" values="0 0 0 0 0 0 0 0 0 0 0 0 0 0 0 0 0 0 0.25 0"/><feBlend in2="BackgroundImageFix" mode="normal" result="effect1_dropShadow_997_2448"/><feBlend in="SourceGraphic" in2="effect1_dropShadow_997_2448" mode="normal" result="shape"/></filter><filter id="filter27_d_997_2448" width="9" height="18" x="258" y="217" color-interpolation-filters="sRGB" filterUnits="userSpaceOnUse"><feFlood flood-opacity="0" result="BackgroundImageFix"/><feColorMatrix in="SourceAlpha" result="hardAlpha" type="matrix" values="0 0 0 0 0 0 0 0 0 0 0 0 0 0 0 0 0 0 127 0"/><feOffset dy="4"/><feGaussianBlur stdDeviation="2"/><feComposite in2="hardAlpha" operator="out"/><feColorMatrix type="matrix" values="0 0 0 0 0 0 0 0 0 0 0 0 0 0 0 0 0 0 0.25 0"/><feBlend in2="BackgroundImageFix" mode="normal" result="effect1_dropShadow_997_2448"/><feBlend in="SourceGraphic" in2="effect1_dropShadow_997_2448" mode="normal" result="shape"/></filter><linearGradient id="paint0_linear_997_2448" x1="177" x2="177" y1="186.5" y2="188" gradientUnits="userSpaceOnUse"><stop stop-color="#1A2A48"/><stop offset="1" stop-color="#41310F"/></linearGradient><linearGradient id="paint1_linear_997_2448" x1="137.891" x2="149.603" y1="142.838" y2="243.27" gradientUnits="userSpaceOnUse"><stop stop-color="#D9C48A"/><stop offset="1" stop-color="#736849"/></linearGradient><linearGradient id="paint2_linear_997_2448" x1="98.307" x2="44.851" y1="190.714" y2="264.329" gradientUnits="userSpaceOnUse"><stop stop-color="#D9C48A"/><stop offset="1" stop-color="#736849"/></linearGradient><linearGradient id="paint3_linear_997_2448" x1="55.098" x2="54.931" y1="147.158" y2="242.01" gradientUnits="userSpaceOnUse"><stop stop-color="#D9C48A"/><stop offset="1" stop-color="#736849"/></linearGradient></defs></svg>