<svg viewBox="0 0 931 839" fill="none" xmlns="http://www.w3.org/2000/svg">
<g clip-path="url(#clip0_396_1418)">
<rect y="521.678" width="931" height="316.54" fill="#201606"/>
<ellipse cx="479.315" cy="694.364" rx="384.413" ry="100.608" fill="#771F1F"/>
<ellipse cx="479.015" cy="694.664" rx="344.47" ry="90.0968" fill="#8E1515"/>
<path d="M118.577 632.925C124.106 610.932 135.278 566.269 135.725 563.562H139.826L213.078 545.704L348.958 563.562L362.937 629.542L368.902 666.761L380.458 699.469H121.932L118.577 632.925Z" fill="#1B2A74"/>
<ellipse cx="247.115" cy="519.276" rx="124.334" ry="88.8955" fill="#FFD8BD"/>
<g filter="url(#filter0_d_396_1418)">
<path d="M126.027 524.681L171.161 587.444L242.219 600.146L317.008 590.806L373.518 531.406C376.627 544.295 382.583 570.707 381.538 573.248C380.494 575.788 369.167 593.484 363.634 602.014L369.229 619.76L336.217 612.661L317.008 673.556L297.798 659.36L283.996 675.611L282.504 694.664L254.342 671.875L245.203 637.318H233.453C235.878 647.218 240.466 667.317 239.422 668.513C238.377 669.708 227.547 676.856 222.263 680.281C214.353 679.362 199.307 677.66 197.594 677.635C197.54 677.669 197.494 677.68 197.458 677.666C197.4 677.642 197.449 677.633 197.594 677.635C198.932 676.782 205.478 661.55 205.478 660.294C205.478 659.248 197.893 648.65 194.101 643.482L186.454 627.792L171.161 649.086L161.649 668.513L156.614 685.698C153.63 681.402 147.549 671.95 147.102 668.513C146.654 665.076 144.056 644.79 142.812 635.077L163.514 619.76L140.201 606.871C138.212 610.98 133.412 620.544 130.13 625.924C126.847 631.303 126.027 641.116 126.027 645.35C122.048 639.871 114.277 628.315 115.023 625.924C115.769 623.533 116.702 616.086 117.075 612.661L123.229 579.225L118.94 552.514L126.027 524.681Z" fill="#B2B1B1"/>
</g>
<g filter="url(#filter1_d_396_1418)">
<path d="M373.201 521.678L327.927 584.558L256.648 597.284L181.627 587.927L124.941 528.415C121.823 541.328 115.849 567.79 116.897 570.335C117.944 572.88 129.306 590.609 134.857 599.155L129.244 616.934L162.358 609.822L188.175 648.748L202.581 640.701L219.792 669.334L215.49 677.568L240.372 661.474L248.042 632.279L265.441 634.525C263.009 644.444 258.407 664.58 259.454 665.778C260.502 666.976 271.365 674.137 276.666 677.568C284.601 676.648 299.693 674.942 301.411 674.917C301.466 674.951 301.512 674.962 301.548 674.948C301.606 674.925 301.557 674.915 301.411 674.917C300.07 674.062 293.503 658.803 293.503 657.544C293.503 656.496 301.111 645.878 304.915 640.701L306.852 632.279L315.088 638.268L321.075 654.175L323.133 685.054C326.126 680.749 344.381 662.671 344.83 659.228C345.279 655.784 343.583 638.081 344.83 628.349L342.772 623.109L350.629 616.747C352.625 620.864 357.626 622.96 360.919 628.349C364.212 633.739 367.658 640.576 367.658 644.818C371.649 639.328 382.929 629.061 382.181 626.665C381.433 624.27 382.556 604.27 382.181 600.839L376.007 576.324L380.31 549.562L373.201 521.678Z" fill="#D9D9D9"/>
</g>
<g filter="url(#filter2_d_396_1418)">
<path d="M298.386 538.092C291.906 550.414 305.116 569.889 331.036 583.521C356.957 597.154 365.65 609 371.544 602.606C344.607 588.439 395.785 555.182 369.864 541.549C343.944 527.917 304.866 525.771 298.386 538.092Z" fill="#B2B1B1"/>
</g>
<g filter="url(#filter3_d_396_1418)">
<path d="M292.456 539.387C282.629 549.248 289.506 571.754 310.251 592.427C330.996 613.1 336.797 629.597 344.315 625.227C322.756 603.744 366.647 581.901 345.902 561.228C325.156 540.556 302.283 529.526 292.456 539.387Z" fill="#D9D9D9"/>
</g>
<g filter="url(#filter4_d_396_1418)">
<path d="M244.112 549.308C244.112 563.24 267.922 574.535 297.293 574.535C326.665 574.535 369.201 544.823 371.448 536.414C340.925 536.414 322.545 524.081 293.174 524.081C263.802 524.081 244.112 535.375 244.112 549.308Z" fill="#D9D9D9"/>
</g>
<g filter="url(#filter5_d_396_1418)">
<path d="M195.254 538.319C201.734 550.64 188.524 570.116 162.603 583.748C136.682 597.38 126.272 611.432 120.378 605.038C147.316 590.872 111.822 557.052 137.743 543.42C163.664 529.788 188.773 525.997 195.254 538.319Z" fill="#A6A0A0"/>
</g>
<g filter="url(#filter6_d_396_1418)">
<path d="M197.024 548.723C206.851 558.585 199.974 581.091 179.229 601.763C158.484 622.436 152.683 638.934 145.165 634.563C166.724 613.08 122.833 591.237 143.578 570.565C164.323 549.892 187.197 538.862 197.024 548.723Z" fill="#D9D9D9"/>
</g>
<g filter="url(#filter7_d_396_1418)">
<path d="M244.112 549.288C244.112 563.231 220.414 574.535 191.181 574.535C161.948 574.535 119.612 544.8 117.376 536.384C147.755 536.384 175.367 523.48 204.6 523.48C233.833 523.48 244.112 535.345 244.112 549.288Z" fill="#D9D9D9"/>
</g>
<g filter="url(#filter8_d_396_1418)">
<path d="M138.583 491.841L204.81 449.316L233.913 443.883L324.391 453.999L364.127 491.841L372.149 536.426L376.253 491.841L372.149 455.685L340.249 433.767L299.02 418.968H260.403L202.198 422.152L145.486 441.261L121.607 465.614L113.772 507.202L116.383 552.912L124.778 529.495L138.583 491.841Z" fill="#D9D9D9"/>
</g>
<g filter="url(#filter9_d_396_1418)">
<path d="M231.862 453.294L146.206 459.211L148.638 423.706L169.771 434.986L189.221 399.666L221.015 429.809L240.839 379.325L267.583 429.809L291.147 395.043L310.41 429.809L339.399 423.706L342.017 455.882L278.991 453.294H231.862Z" fill="#FFD13B"/>
</g>
<g filter="url(#filter10_d_396_1418)">
<ellipse cx="203.568" cy="502.457" rx="8.70936" ry="10.8116" fill="#3D1B11"/>
</g>
<g filter="url(#filter11_d_396_1418)">
<path d="M237.505 486.202C237.505 496.132 218.007 492.969 197.78 492.969C177.552 492.969 151.358 483.005 149.81 477.011C170.831 477.011 180.652 468.221 200.879 468.221C221.107 468.221 237.505 476.271 237.505 486.202Z" fill="#D9D9D9"/>
</g>
<g filter="url(#filter12_d_396_1418)">
<ellipse cx="286.157" cy="502.457" rx="8.40903" ry="10.8116" fill="#3D1B11"/>
</g>
<g filter="url(#filter13_d_396_1418)">
<path d="M256.124 485.773C256.124 495.468 275.355 492.379 295.305 492.379C315.255 492.379 341.091 482.653 342.617 476.802C321.885 476.802 312.198 468.221 292.248 468.221C272.298 468.221 256.124 476.079 256.124 485.773Z" fill="#D9D9D9"/>
</g>
<path d="M375.792 609.368L334.865 740.087L339.319 742.115L388.167 613.957L416.648 599.382L441.123 546.82L423.569 558.961L428.479 562.85L418.284 582.626L397.405 595.206L397.405 576.145L410.92 534.31L419.503 537.689L416.371 513.269L398.403 530.061L405.469 533.096L391.943 573.963L380.234 590.755L371.552 566.073L375.792 544.223H382.051L375.792 523.789L362.468 580.235L375.792 609.368Z" fill="#FFD13B"/>
<path d="M149.236 838.346H-2.56866V126.914L13.0937 466.065L44.7196 529.316V641.965L119.417 698.891L149.236 838.346Z" fill="#40454B"/>
</g>
<defs>
<filter id="filter0_d_396_1418" x="112.57" y="524.681" width="271.492" height="174.788" filterUnits="userSpaceOnUse" color-interpolation-filters="sRGB">
<feFlood flood-opacity="0" result="BackgroundImageFix"/>
<feColorMatrix in="SourceAlpha" type="matrix" values="0 0 0 0 0 0 0 0 0 0 0 0 0 0 0 0 0 0 127 0" result="hardAlpha"/>
<feOffset dy="2.40258"/>
<feGaussianBlur stdDeviation="1.20129"/>
<feComposite in2="hardAlpha" operator="out"/>
<feColorMatrix type="matrix" values="0 0 0 0 0 0 0 0 0 0 0 0 0 0 0 0 0 0 0.25 0"/>
<feBlend mode="normal" in2="BackgroundImageFix" result="effect1_dropShadow_396_1418"/>
<feBlend mode="normal" in="SourceGraphic" in2="effect1_dropShadow_396_1418" result="shape"/>
</filter>
<filter id="filter1_d_396_1418" x="114.372" y="521.678" width="270.29" height="168.181" filterUnits="userSpaceOnUse" color-interpolation-filters="sRGB">
<feFlood flood-opacity="0" result="BackgroundImageFix"/>
<feColorMatrix in="SourceAlpha" type="matrix" values="0 0 0 0 0 0 0 0 0 0 0 0 0 0 0 0 0 0 127 0" result="hardAlpha"/>
<feOffset dy="2.40258"/>
<feGaussianBlur stdDeviation="1.20129"/>
<feComposite in2="hardAlpha" operator="out"/>
<feColorMatrix type="matrix" values="0 0 0 0 0 0 0 0 0 0 0 0 0 0 0 0 0 0 0.25 0"/>
<feBlend mode="normal" in2="BackgroundImageFix" result="effect1_dropShadow_396_1418"/>
<feBlend mode="normal" in="SourceGraphic" in2="effect1_dropShadow_396_1418" result="shape"/>
</filter>
<filter id="filter2_d_396_1418" x="294.351" y="529.975" width="85.4856" height="79.2184" filterUnits="userSpaceOnUse" color-interpolation-filters="sRGB">
<feFlood flood-opacity="0" result="BackgroundImageFix"/>
<feColorMatrix in="SourceAlpha" type="matrix" values="0 0 0 0 0 0 0 0 0 0 0 0 0 0 0 0 0 0 127 0" result="hardAlpha"/>
<feOffset dy="2.40258"/>
<feGaussianBlur stdDeviation="1.20129"/>
<feComposite in2="hardAlpha" operator="out"/>
<feColorMatrix type="matrix" values="0 0 0 0 0 0 0 0 0 0 0 0 0 0 0 0 0 0 0.25 0"/>
<feBlend mode="normal" in2="BackgroundImageFix" result="effect1_dropShadow_396_1418"/>
<feBlend mode="normal" in="SourceGraphic" in2="effect1_dropShadow_396_1418" result="shape"/>
</filter>
<filter id="filter3_d_396_1418" x="285.642" y="535.732" width="68.3936" height="95.0072" filterUnits="userSpaceOnUse" color-interpolation-filters="sRGB">
<feFlood flood-opacity="0" result="BackgroundImageFix"/>
<feColorMatrix in="SourceAlpha" type="matrix" values="0 0 0 0 0 0 0 0 0 0 0 0 0 0 0 0 0 0 127 0" result="hardAlpha"/>
<feOffset dy="2.40258"/>
<feGaussianBlur stdDeviation="1.20129"/>
<feComposite in2="hardAlpha" operator="out"/>
<feColorMatrix type="matrix" values="0 0 0 0 0 0 0 0 0 0 0 0 0 0 0 0 0 0 0.25 0"/>
<feBlend mode="normal" in2="BackgroundImageFix" result="effect1_dropShadow_396_1418"/>
<feBlend mode="normal" in="SourceGraphic" in2="effect1_dropShadow_396_1418" result="shape"/>
</filter>
<filter id="filter4_d_396_1418" x="241.709" y="524.081" width="132.142" height="58.8633" filterUnits="userSpaceOnUse" color-interpolation-filters="sRGB">
<feFlood flood-opacity="0" result="BackgroundImageFix"/>
<feColorMatrix in="SourceAlpha" type="matrix" values="0 0 0 0 0 0 0 0 0 0 0 0 0 0 0 0 0 0 127 0" result="hardAlpha"/>
<feOffset dy="6.00645"/>
<feGaussianBlur stdDeviation="1.20129"/>
<feComposite in2="hardAlpha" operator="out"/>
<feColorMatrix type="matrix" values="0 0 0 0 0 0 0 0 0 0 0 0 0 0 0 0 0 0 0.25 0"/>
<feBlend mode="normal" in2="BackgroundImageFix" result="effect1_dropShadow_396_1418"/>
<feBlend mode="normal" in="SourceGraphic" in2="effect1_dropShadow_396_1418" result="shape"/>
</filter>
<filter id="filter5_d_396_1418" x="117.976" y="530.855" width="81.3125" height="80.5795" filterUnits="userSpaceOnUse" color-interpolation-filters="sRGB">
<feFlood flood-opacity="0" result="BackgroundImageFix"/>
<feColorMatrix in="SourceAlpha" type="matrix" values="0 0 0 0 0 0 0 0 0 0 0 0 0 0 0 0 0 0 127 0" result="hardAlpha"/>
<feOffset dy="2.40258"/>
<feGaussianBlur stdDeviation="1.20129"/>
<feComposite in2="hardAlpha" operator="out"/>
<feColorMatrix type="matrix" values="0 0 0 0 0 0 0 0 0 0 0 0 0 0 0 0 0 0 0.25 0"/>
<feBlend mode="normal" in2="BackgroundImageFix" result="effect1_dropShadow_396_1418"/>
<feBlend mode="normal" in="SourceGraphic" in2="effect1_dropShadow_396_1418" result="shape"/>
</filter>
<filter id="filter6_d_396_1418" x="135.444" y="545.068" width="68.3936" height="95.0072" filterUnits="userSpaceOnUse" color-interpolation-filters="sRGB">
<feFlood flood-opacity="0" result="BackgroundImageFix"/>
<feColorMatrix in="SourceAlpha" type="matrix" values="0 0 0 0 0 0 0 0 0 0 0 0 0 0 0 0 0 0 127 0" result="hardAlpha"/>
<feOffset dy="2.40258"/>
<feGaussianBlur stdDeviation="1.20129"/>
<feComposite in2="hardAlpha" operator="out"/>
<feColorMatrix type="matrix" values="0 0 0 0 0 0 0 0 0 0 0 0 0 0 0 0 0 0 0.25 0"/>
<feBlend mode="normal" in2="BackgroundImageFix" result="effect1_dropShadow_396_1418"/>
<feBlend mode="normal" in="SourceGraphic" in2="effect1_dropShadow_396_1418" result="shape"/>
</filter>
<filter id="filter7_d_396_1418" x="114.973" y="523.48" width="131.541" height="59.4639" filterUnits="userSpaceOnUse" color-interpolation-filters="sRGB">
<feFlood flood-opacity="0" result="BackgroundImageFix"/>
<feColorMatrix in="SourceAlpha" type="matrix" values="0 0 0 0 0 0 0 0 0 0 0 0 0 0 0 0 0 0 127 0" result="hardAlpha"/>
<feOffset dy="6.00645"/>
<feGaussianBlur stdDeviation="1.20129"/>
<feComposite in2="hardAlpha" operator="out"/>
<feColorMatrix type="matrix" values="0 0 0 0 0 0 0 0 0 0 0 0 0 0 0 0 0 0 0.25 0"/>
<feBlend mode="normal" in2="BackgroundImageFix" result="effect1_dropShadow_396_1418"/>
<feBlend mode="normal" in="SourceGraphic" in2="effect1_dropShadow_396_1418" result="shape"/>
</filter>
<filter id="filter8_d_396_1418" x="111.369" y="418.968" width="267.287" height="142.353" filterUnits="userSpaceOnUse" color-interpolation-filters="sRGB">
<feFlood flood-opacity="0" result="BackgroundImageFix"/>
<feColorMatrix in="SourceAlpha" type="matrix" values="0 0 0 0 0 0 0 0 0 0 0 0 0 0 0 0 0 0 127 0" result="hardAlpha"/>
<feOffset dy="6.00645"/>
<feGaussianBlur stdDeviation="1.20129"/>
<feComposite in2="hardAlpha" operator="out"/>
<feColorMatrix type="matrix" values="0 0 0 0 0 0 0 0 0 0 0 0 0 0 0 0 0 0 0.25 0"/>
<feBlend mode="normal" in2="BackgroundImageFix" result="effect1_dropShadow_396_1418"/>
<feBlend mode="normal" in="SourceGraphic" in2="effect1_dropShadow_396_1418" result="shape"/>
</filter>
<filter id="filter9_d_396_1418" x="143.804" y="379.325" width="200.615" height="88.2948" filterUnits="userSpaceOnUse" color-interpolation-filters="sRGB">
<feFlood flood-opacity="0" result="BackgroundImageFix"/>
<feColorMatrix in="SourceAlpha" type="matrix" values="0 0 0 0 0 0 0 0 0 0 0 0 0 0 0 0 0 0 127 0" result="hardAlpha"/>
<feOffset dy="6.00645"/>
<feGaussianBlur stdDeviation="1.20129"/>
<feComposite in2="hardAlpha" operator="out"/>
<feColorMatrix type="matrix" values="0 0 0 0 0 0 0 0 0 0 0 0 0 0 0 0 0 0 0.25 0"/>
<feBlend mode="normal" in2="BackgroundImageFix" result="effect1_dropShadow_396_1418"/>
<feBlend mode="normal" in="SourceGraphic" in2="effect1_dropShadow_396_1418" result="shape"/>
</filter>
<filter id="filter10_d_396_1418" x="192.456" y="491.646" width="22.2239" height="30.0323" filterUnits="userSpaceOnUse" color-interpolation-filters="sRGB">
<feFlood flood-opacity="0" result="BackgroundImageFix"/>
<feColorMatrix in="SourceAlpha" type="matrix" values="0 0 0 0 0 0 0 0 0 0 0 0 0 0 0 0 0 0 127 0" result="hardAlpha"/>
<feOffset dy="6.00645"/>
<feGaussianBlur stdDeviation="1.20129"/>
<feComposite in2="hardAlpha" operator="out"/>
<feColorMatrix type="matrix" values="0 0 0 0 0 0 0 0 0 0 0 0 0 0 0 0 0 0 0.5 0"/>
<feBlend mode="normal" in2="BackgroundImageFix" result="effect1_dropShadow_396_1418"/>
<feBlend mode="normal" in="SourceGraphic" in2="effect1_dropShadow_396_1418" result="shape"/>
</filter>
<filter id="filter11_d_396_1418" x="147.408" y="468.221" width="92.4994" height="33.6361" filterUnits="userSpaceOnUse" color-interpolation-filters="sRGB">
<feFlood flood-opacity="0" result="BackgroundImageFix"/>
<feColorMatrix in="SourceAlpha" type="matrix" values="0 0 0 0 0 0 0 0 0 0 0 0 0 0 0 0 0 0 127 0" result="hardAlpha"/>
<feOffset dy="6.00645"/>
<feGaussianBlur stdDeviation="1.20129"/>
<feComposite in2="hardAlpha" operator="out"/>
<feColorMatrix type="matrix" values="0 0 0 0 0 0 0 0 0 0 0 0 0 0 0 0 0 0 0.25 0"/>
<feBlend mode="normal" in2="BackgroundImageFix" result="effect1_dropShadow_396_1418"/>
<feBlend mode="normal" in="SourceGraphic" in2="effect1_dropShadow_396_1418" result="shape"/>
</filter>
<filter id="filter12_d_396_1418" x="275.345" y="491.646" width="21.6232" height="30.0323" filterUnits="userSpaceOnUse" color-interpolation-filters="sRGB">
<feFlood flood-opacity="0" result="BackgroundImageFix"/>
<feColorMatrix in="SourceAlpha" type="matrix" values="0 0 0 0 0 0 0 0 0 0 0 0 0 0 0 0 0 0 127 0" result="hardAlpha"/>
<feOffset dy="6.00645"/>
<feGaussianBlur stdDeviation="1.20129"/>
<feComposite in2="hardAlpha" operator="out"/>
<feColorMatrix type="matrix" values="0 0 0 0 0 0 0 0 0 0 0 0 0 0 0 0 0 0 0.5 0"/>
<feBlend mode="normal" in2="BackgroundImageFix" result="effect1_dropShadow_396_1418"/>
<feBlend mode="normal" in="SourceGraphic" in2="effect1_dropShadow_396_1418" result="shape"/>
</filter>
<filter id="filter13_d_396_1418" x="253.722" y="468.221" width="91.2981" height="33.0355" filterUnits="userSpaceOnUse" color-interpolation-filters="sRGB">
<feFlood flood-opacity="0" result="BackgroundImageFix"/>
<feColorMatrix in="SourceAlpha" type="matrix" values="0 0 0 0 0 0 0 0 0 0 0 0 0 0 0 0 0 0 127 0" result="hardAlpha"/>
<feOffset dy="6.00645"/>
<feGaussianBlur stdDeviation="1.20129"/>
<feComposite in2="hardAlpha" operator="out"/>
<feColorMatrix type="matrix" values="0 0 0 0 0 0 0 0 0 0 0 0 0 0 0 0 0 0 0.25 0"/>
<feBlend mode="normal" in2="BackgroundImageFix" result="effect1_dropShadow_396_1418"/>
<feBlend mode="normal" in="SourceGraphic" in2="effect1_dropShadow_396_1418" result="shape"/>
</filter>
<clipPath id="clip0_396_1418">
<rect width="931" height="837.299" fill="white" transform="translate(0 0.918701)"/>
</clipPath>
</defs>
</svg>
