<svg width="351" height="419" viewBox="0 0 351 419" fill="none" xmlns="http://www.w3.org/2000/svg">
<rect x="6.29144" y="14.7188" width="338" height="385" rx="10.8173" fill="#573814"/>
<g filter="url(#filter0_d_581_2159)">
<rect x="2.42438" y="1.71875" width="346.154" height="19.1969" rx="2.89477" fill="#573814"/>
</g>
<rect x="0.291382" y="385.809" width="346.154" height="19.1969" rx="2.89477" fill="#573814"/>
<rect x="17.2914" y="26.7188" width="317" height="360" rx="10.8173" fill="#2F1C07"/>
<g filter="url(#filter1_d_581_2159)">
<rect x="16.8983" y="145.696" width="317.206" height="19.1969" rx="2.89477" fill="#573814"/>
</g>
<g filter="url(#filter2_d_581_2159)">
<rect x="16.8983" y="257.373" width="317.206" height="19.1969" rx="2.89477" fill="#573814"/>
</g>
<rect width="14.4739" height="75.8735" rx="3.35184" transform="matrix(0 -1 -1 0 322.525 256.459)" fill="#0F3715"/>
<rect width="13.8644" height="66.8845" rx="3.35184" transform="matrix(0 -1 -1 0 307.137 241.071)" fill="#0F3715"/>
<rect width="12.4932" height="59.2667" rx="3.35184" transform="matrix(0 -1 -1 0 310.184 225.531)" fill="#0F3715"/>
<rect width="13.8644" height="73.8929" rx="3.35184" transform="matrix(0 -1 -1 0 319.935 254.631)" fill="#134A1C"/>
<rect width="9.90317" height="4.41834" rx="2.20917" transform="matrix(0 -1 -1 0 313.689 252.802)" fill="#709E77"/>
<rect width="9.90317" height="4.57069" rx="2.28535" transform="matrix(0 -1 -1 0 306.985 252.802)" fill="#709E77"/>
<rect width="5.78955" height="8.37961" rx="2.89477" transform="matrix(0 -1 -1 0 260.364 250.517)" fill="#709E77"/>
<rect width="13.8644" height="65.2086" rx="3.35184" transform="matrix(0 -1 -1 0 304.852 239.09)" fill="#134A1C"/>
<rect width="9.75081" height="3.65656" rx="1.82828" transform="matrix(0 -1 -1 0 299.062 237.11)" fill="#709E77"/>
<rect width="9.75081" height="3.96127" rx="1.98063" transform="matrix(0 -1 -1 0 293.273 237.11)" fill="#709E77"/>
<rect width="5.9419" height="7.46547" rx="2.97095" transform="matrix(0 -1 -1 0 252.289 234.977)" fill="#709E77"/>
<rect width="12.0362" height="57.7431" rx="3.35184" transform="matrix(0 -1 -1 0 308.051 224.007)" fill="#134A1C"/>
<rect width="8.53196" height="3.5042" rx="1.7521" transform="matrix(0 -1 -1 0 303.024 222.331)" fill="#709E77"/>
<rect width="8.53196" height="3.5042" rx="1.7521" transform="matrix(0 -1 -1 0 297.844 222.331)" fill="#709E77"/>
<rect width="5.33248" height="6.39897" rx="2.66624" transform="matrix(0 -1 -1 0 261.43 220.655)" fill="#709E77"/>
<rect x="26.649" y="65.2515" width="21.0252" height="79.8348" rx="3.35184" fill="#0F3715"/>
<rect x="66.1094" y="62.9661" width="14.3215" height="82.1201" rx="3.35184" fill="#0F3715"/>
<rect x="103.284" y="65.2515" width="19.3493" height="79.5301" rx="3.35184" fill="#0F3715"/>
<rect x="82.2592" y="75.0022" width="19.0446" height="70.084" rx="3.35184" fill="#0F3715"/>
<rect x="49.6549" y="89.9333" width="14.4739" height="55.153" rx="3.35184" fill="#0F3715"/>
<rect x="124.462" y="82.3152" width="16.7592" height="62.1614" rx="3.35184" fill="#0F3715"/>
<rect x="30.915" y="67.9937" width="20.5681" height="77.7018" rx="3.35184" fill="#134A1C"/>
<rect x="33.8099" y="74.6973" width="14.7786" height="4.57069" rx="2.28535" fill="#709E77"/>
<rect x="33.8099" y="81.7058" width="14.7786" height="4.57069" rx="2.28535" fill="#709E77"/>
<rect x="36.8569" y="130.612" width="8.83668" height="8.83668" rx="3.35184" fill="#709E77"/>
<rect x="69.3089" y="65.7083" width="14.0168" height="79.9872" rx="3.35184" fill="#134A1C"/>
<rect x="71.2896" y="72.5645" width="10.0555" height="4.72305" rx="2.36153" fill="#709E77"/>
<rect x="71.2896" y="79.8774" width="10.0555" height="4.72305" rx="2.36153" fill="#709E77"/>
<rect x="73.4225" y="130.155" width="5.9419" height="9.14139" rx="2.97095" fill="#709E77"/>
<rect x="105.57" y="67.9937" width="18.8922" height="77.3971" rx="3.35184" fill="#134A1C"/>
<rect x="108.312" y="74.5452" width="13.4074" height="4.57069" rx="2.28535" fill="#709E77"/>
<rect x="108.312" y="81.5535" width="13.4074" height="4.72305" rx="2.36153" fill="#709E77"/>
<rect x="111.207" y="130.46" width="7.77018" height="8.68432" rx="3.35184" fill="#709E77"/>
<rect x="85.1539" y="77.4397" width="18.5875" height="68.2557" rx="3.35184" fill="#134A1C"/>
<rect x="87.744" y="83.3818" width="13.4074" height="3.80891" rx="1.90446" fill="#709E77"/>
<rect x="87.744" y="89.4761" width="13.4074" height="4.11362" rx="2.05681" fill="#709E77"/>
<rect x="90.6388" y="132.44" width="7.77018" height="7.77018" rx="3.35184" fill="#709E77"/>
<rect x="53.3114" y="92.0659" width="14.1692" height="53.6295" rx="3.35184" fill="#134A1C"/>
<rect x="55.2921" y="96.6367" width="10.2079" height="3.35184" rx="1.67592" fill="#709E77"/>
<rect x="55.2921" y="101.512" width="10.2079" height="3.19949" rx="1.59974" fill="#709E77"/>
<rect x="57.2727" y="135.335" width="6.24662" height="6.09426" rx="3.04713" fill="#709E77"/>
<rect x="126.29" y="84.6006" width="16.3021" height="60.4855" rx="3.35184" fill="#134A1C"/>
<rect x="128.576" y="89.7808" width="11.7314" height="3.80891" rx="1.90446" fill="#709E77"/>
<rect x="128.576" y="95.2654" width="11.7314" height="3.65656" rx="1.82828" fill="#709E77"/>
<rect x="130.861" y="133.355" width="7.16075" height="6.85604" rx="3.35184" fill="#709E77"/>
<rect x="76.0126" y="65.4036" width="4.11362" height="28.0336" rx="0.457069" fill="#2E9231"/>
<rect width="15.3496" height="60.9508" rx="3.35184" transform="matrix(0.974799 -0.223085 0.238345 0.971181 199.286 197.264)" fill="#0F3715"/>
<rect x="185.252" y="176.167" width="14.0168" height="79.9872" rx="3.35184" fill="#0F3715"/>
<rect x="128.576" y="179.366" width="18.8922" height="77.3971" rx="3.35184" fill="#0F3715"/>
<rect x="169.255" y="202.524" width="14.1692" height="53.6295" rx="3.35184" fill="#0F3715"/>
<rect x="149.296" y="195.973" width="16.4545" height="60.4855" rx="3.35184" fill="#0F3715"/>
<rect width="15.3146" height="60.9425" rx="3.35184" transform="matrix(0.974682 -0.223596 0.237804 0.971313 202.773 197.874)" fill="#134A1C"/>
<rect width="10.8684" height="3.59897" rx="1.79948" transform="matrix(0.974682 -0.223596 0.237804 0.971313 206.167 202.387)" fill="#709E77"/>
<rect width="10.8684" height="3.71893" rx="1.85947" transform="matrix(0.974682 -0.223596 0.237804 0.971313 207.479 207.748)" fill="#709E77"/>
<rect width="6.29873" height="6.83804" rx="3.14936" transform="matrix(0.974682 -0.223596 0.237804 0.971313 218.923 244.627)" fill="#709E77"/>
<rect x="188.756" y="176.776" width="14.0168" height="79.9872" rx="3.35184" fill="#134A1C"/>
<rect x="190.737" y="183.632" width="10.0555" height="4.72305" rx="2.36153" fill="#709E77"/>
<rect x="190.737" y="190.945" width="10.0555" height="4.72305" rx="2.36153" fill="#709E77"/>
<rect x="192.87" y="241.223" width="5.9419" height="9.14139" rx="2.97095" fill="#709E77"/>
<rect x="132.232" y="179.976" width="18.8922" height="77.3971" rx="3.35184" fill="#134A1C"/>
<rect x="134.974" y="186.527" width="13.4074" height="4.57069" rx="2.28535" fill="#709E77"/>
<rect x="134.974" y="193.536" width="13.4074" height="4.72305" rx="2.36153" fill="#709E77"/>
<rect x="137.869" y="242.442" width="7.77018" height="8.68432" rx="3.35184" fill="#709E77"/>
<rect x="172.759" y="203.134" width="14.1692" height="53.6295" rx="3.35184" fill="#134A1C"/>
<rect x="174.74" y="207.705" width="10.2079" height="3.35184" rx="1.67592" fill="#709E77"/>
<rect x="174.74" y="212.58" width="10.2079" height="3.19949" rx="1.59974" fill="#709E77"/>
<rect x="176.72" y="246.403" width="6.24662" height="6.09426" rx="3.04713" fill="#709E77"/>
<rect x="152.953" y="196.583" width="16.3021" height="60.4855" rx="3.35184" fill="#134A1C"/>
<rect x="155.238" y="201.763" width="11.7314" height="3.80891" rx="1.90446" fill="#709E77"/>
<rect x="155.238" y="207.248" width="11.7314" height="3.65656" rx="1.82828" fill="#709E77"/>
<rect x="157.523" y="245.337" width="7.16075" height="6.85604" rx="3.35184" fill="#709E77"/>
<rect x="161.942" y="195.516" width="4.11362" height="28.0336" rx="0.457069" fill="#2E9231"/>
<rect width="22.0917" height="33.9755" rx="2.59006" transform="matrix(-1 0 0 1 284.401 347.509)" fill="#B0C8D0"/>
<path d="M185.633 363.171C185.244 362.178 184.287 361.525 183.221 361.525H180.077C178.999 361.525 178.033 362.193 177.653 363.203L172.062 378.058C171.424 379.751 172.676 381.56 174.486 381.56H189.039C190.863 381.56 192.116 379.724 191.451 378.025L185.633 363.171Z" fill="#B0C8D0"/>
<path d="M154.019 375.535C153.554 375.146 152.966 374.933 152.359 374.933H147.563C146.938 374.933 146.335 375.158 145.864 375.567L144.286 376.939C142.477 378.51 143.588 381.484 145.984 381.484H154.002C156.423 381.484 157.52 378.458 155.662 376.906L154.019 375.535Z" fill="#B0C8D0"/>
<rect width="5.02776" height="27.4242" rx="0.761782" transform="matrix(-1 0 0 1 184.303 344.461)" fill="#B0C8D0"/>
<path d="M185.103 365.153C184.715 364.16 183.757 363.506 182.69 363.506H180.659C179.58 363.506 178.614 364.175 178.234 365.185L173.886 376.764C173.25 378.458 174.502 380.265 176.311 380.265H187.214C189.038 380.265 190.29 378.431 189.627 376.732L185.103 365.153Z" fill="#D9D9D9"/>
<rect width="9.29374" height="8.98903" rx="0.914139" transform="matrix(-1 0 0 1 278.002 341.719)" fill="#B0C8D0"/>
<path d="M218.831 351.933C218.645 350.661 217.554 349.718 216.268 349.718H208.019C206.735 349.718 205.646 350.658 205.457 351.927L201.504 378.513C201.271 380.078 202.484 381.484 204.066 381.484H220.157C221.737 381.484 222.949 380.082 222.72 378.519L218.831 351.933Z" fill="#B0C8D0"/>
<path d="M220.067 368.745C219.871 367.483 218.784 366.553 217.508 366.553H206.834C205.536 366.553 204.438 367.514 204.267 368.801L203.129 377.333C202.922 378.885 204.13 380.265 205.696 380.265H218.835C220.424 380.265 221.638 378.847 221.394 377.277L220.067 368.745Z" fill="#D9D9D9"/>
<rect width="5.9419" height="3.96127" rx="0.914139" transform="matrix(-1 0 0 1 215.079 347.356)" fill="#B0C8D0"/>
<rect width="9.14139" height="3.96127" rx="0.914139" transform="matrix(-1 0 0 1 216.603 344.614)" fill="#B0C8D0"/>
<rect width="6.39897" height="2.74242" rx="0.914139" transform="matrix(-1 0 0 1 184.912 342.176)" fill="#B0C8D0"/>
<rect width="11.8838" height="3.96127" rx="0.914139" transform="matrix(-1 0 0 1 249.664 355.583)" fill="#B0C8D0"/>
<rect width="22.0917" height="19.654" rx="2.59006" transform="matrix(-1 0 0 1 254.844 361.83)" fill="#B0C8D0"/>
<rect width="9.29374" height="5.18012" rx="0.914139" transform="matrix(-1 0 0 1 248.445 358.478)" fill="#B0C8D0"/>
<circle cx="11.4267" cy="11.4267" r="11.4267" transform="matrix(-1 0 0 1 161.145 356.802)" fill="#B0C8D0"/>
<rect width="19.8063" height="15.5404" rx="1.67592" transform="matrix(-1 0 0 1 283.182 364.572)" fill="#D9D9D9"/>
<rect width="15.0833" height="19.3493" rx="1.67592" transform="matrix(-1 0 0 1 280.897 354.06)" fill="#714040"/>
<rect width="19.8063" height="7.77018" rx="1.67592" transform="matrix(-1 0 0 1 253.625 372.8)" fill="#D9D9D9"/>
<rect width="15.0833" height="14.1692" rx="1.67592" transform="matrix(-1 0 0 1 251.492 364.877)" fill="#714040"/>
<rect width="13.255" height="14.6262" rx="1.21885" transform="matrix(-1 0 0 1 156.727 360.916)" fill="#714040"/>
<rect width="10.8173" height="19.3493" rx="1.67592" transform="matrix(-1 0 0 1 217.517 354.06)" fill="#714040"/>
<rect width="7.16075" height="9.90317" rx="0.761782" transform="matrix(-1 0 0 1 185.369 367.619)" fill="#714040"/>
<path d="M91.6841 390.693C91.6841 407.37 79.3163 416.795 62.6393 416.795C45.9624 416.795 31.2914 407.37 31.2914 390.693C31.2914 374.016 45.0667 364.719 61.7437 364.719C78.4206 364.719 91.6841 374.016 91.6841 390.693Z" fill="#B0C8D0"/>
<rect x="34.874" y="408.99" width="54.5069" height="9.72424" rx="2.55901" fill="#B0C8D0"/>
<rect x="33.5945" y="364.719" width="57.066" height="9.72424" rx="2.55901" fill="#B0C8D0"/>
<path d="M87.3335 392.733C87.3335 408.35 75.7046 408.99 61.3596 408.99C47.0146 408.99 35.3856 407.454 35.3856 392.733C35.3856 383.89 47.0146 386.608 61.3596 386.608C75.7046 386.608 87.3335 383.89 87.3335 392.733Z" fill="#D9D9D9"/>
<path d="M134.248 368.183C134.248 378.112 126.884 383.723 116.955 383.723C107.026 383.723 98.2915 378.112 98.2915 368.183C98.2915 358.254 106.493 352.719 116.422 352.719C126.351 352.719 134.248 358.254 134.248 368.183Z" fill="#B0C8D0"/>
<rect x="100.425" y="379.077" width="32.4519" height="5.78955" rx="1.52356" fill="#B0C8D0"/>
<rect x="99.6627" y="352.719" width="33.9755" height="5.78955" rx="1.52356" fill="#B0C8D0"/>
<path d="M131.658 369.398C131.658 378.696 124.734 379.077 116.193 379.077C107.653 379.077 100.729 378.162 100.729 369.398C100.729 364.133 107.653 365.751 116.193 365.751C124.734 365.751 131.658 364.133 131.658 369.398Z" fill="#D9D9D9"/>
<path d="M172.292 88.3288L196.489 70.6527L201.782 72.6633L212.849 65.1238L216.836 65.9615L226.047 59.511L232.509 62.443L235.878 61.354V143.367H214.43V116.644L199.994 118.99V112.036L188.377 107.513L187.965 100.141L175.66 96.9573L174.972 98.8841L172.292 88.3288Z" fill="#256AEA"/>
<path d="M175.382 90.1665L197.488 73.6179L197.215 83.3623L175.382 96.2147V90.1665Z" fill="#256AEA"/>
<path d="M188.099 100.659L212.82 90.8594L212.751 99.3073L188.099 107.84V100.659Z" fill="#256AEA"/>
<path d="M199.509 112.068L226.25 105.489V113.84L199.509 117.636V112.068Z" fill="#256AEA"/>
<path d="M197.864 73.6179L212.939 78.6097V86.6797L197.726 83.2686L197.864 73.6179Z" fill="#256AEA"/>
<path d="M213.296 90.8594L226.369 93.8257V101.962L213.296 99.3346V90.8594Z" fill="#256AEA"/>
<path d="M213.296 78.6629L220.902 74.5322V83.0773L213.296 86.6796V78.6629Z" fill="#256AEA"/>
<path d="M221.496 74.5322L229.46 77.5344V85.3735L221.496 83.0384V74.5322Z" fill="#256AEA"/>
<path d="M229.697 77.5155L235.877 74.9241V83.2L229.697 85.3735V77.5155Z" fill="#256AEA"/>
<path d="M227.083 93.8193L235.164 91.1206V99.3855L227.083 101.831V93.8193Z" fill="#256AEA"/>
<path d="M226.607 105.489L233.382 106.418V114.109L226.607 113.771V105.489Z" fill="#256AEA"/>
<path d="M233.857 106.604L235.521 106.272V114.24L233.857 114.074V106.604Z" fill="#256AEA"/>
<path d="M226.607 71.391L235.402 66.7607V72.6354L229.663 75.4465L226.607 74.2539V71.391Z" fill="#256AEA"/>
<path d="M213.296 66.2734L226.666 70.9037V74.9856L220.511 71.9341L213.296 76.8743V66.2734Z" fill="#256AEA"/>
<path d="M203.906 72.6292L213.296 66.7607V76.6305L203.906 72.896V72.6292Z" fill="#256AEA"/>
<path d="M226.845 61.7317L233.263 64.257V65.8563L226.845 69.3075V61.7317Z" fill="#256AEA"/>
<path d="M233.619 64.2659L235.402 63.4299V65.1018L234.785 64.6839L233.619 65.5198V64.2659Z" fill="#256AEA"/>
<path d="M218.525 66.356L226.369 61.8623V69.3075L218.525 66.356Z" fill="#256AEA"/>
<path d="M216.029 65.4432L226.38 58.7188L232.91 61.7904L235.283 60.912L235.759 63.1187L233.675 64.1149L226.728 61.3753L218.391 66.2734L216.029 65.4432Z" fill="#202D6B"/>
<path d="M201.767 72.306L213.48 64.4456L226.788 69.4629L235.521 64.78L235.382 67.1215L226.788 71.4698L213.48 66.8706L203.777 72.975L201.767 72.306Z" fill="#202D6B"/>
<path d="M172.529 88.5939L196.804 70.3525L212.965 76.433L220.598 71.8727L229.607 75.2507L235.521 72.4638V74.4062L229.607 76.9397L221.217 74.0684L212.965 78.0376L197.423 72.9705L174.867 89.9452L172.529 88.5939Z" fill="#202D6B"/>
<path d="M175.619 96.3354L197.535 83.6755L212.924 87.5579L221.168 83.6755L229.687 86.3763L235.046 84.2663V90.5119L226.527 93.297L212.924 90.0899L187.848 100.133L175.619 96.3354Z" fill="#0F095B"/>
<path d="M188.099 108.447L212.782 99.8721L226.464 102.674L235.402 100.127V105.56L233.683 105.985L226.327 104.881L199.237 111.758L188.099 108.447Z" fill="#0F095B"/>
<path d="M214.365 116.592L226.431 114.762L233.602 115.178L235.533 115.594L235.878 138.796H214.365V116.592Z" fill="#256AEA"/>
<g filter="url(#filter3_d_581_2159)">
<path d="M175.467 96.4743L179.171 94.386L183.972 98.4792C183.972 98.4792 183.134 99.7961 182.585 100.818C182.036 101.84 206.524 121.869 207.141 124.375C207.758 126.881 208.185 137.49 208.185 137.49L200.64 136.989C200.64 136.989 202.149 126.9 201.669 125.294C201.189 123.687 176 100.671 175.108 99.3145C174.217 97.9584 175.467 96.4743 175.467 96.4743Z" fill="#223C6C"/>
</g>
<g filter="url(#filter4_d_581_2159)">
<path d="M183.746 92.0395L187.519 89.9451L192.373 94.6365C192.373 94.6365 192.373 95.1195 191.824 96.1444C191.276 97.1694 214.954 118.01 215.572 120.523C216.189 123.036 217.218 138.535 217.218 138.535L208.987 137.613C208.987 137.613 210.907 122.637 210.427 121.026C209.947 119.414 185.24 95.9965 184.348 94.6365C183.457 93.2764 183.746 92.0395 183.746 92.0395Z" fill="#223C6C"/>
</g>
<g filter="url(#filter5_d_581_2159)">
<path d="M191.09 87.4707L194.804 85.3733L201.003 89.8311C201.003 89.8311 201.003 90.3785 200.379 91.5401C199.756 92.7017 226.739 116.89 227.44 119.738C228.142 122.586 228.509 139.318 228.509 139.318L220.117 138.899C220.117 138.899 222.063 121.564 221.517 119.738C220.972 117.912 192.898 91.3725 191.884 89.8311C190.871 88.2898 191.09 87.4707 191.09 87.4707Z" fill="#223C6C"/>
</g>
<path d="M199.509 135.531H235.878V145.719H199.509V135.531Z" fill="#272323"/>
<path d="M298.869 88.2839L274.672 70.6354L269.379 72.6428L258.312 65.115L254.325 65.9514L245.113 59.511L238.652 62.4385L235.283 61.3511V143.237H256.731V116.555L271.166 118.897V111.955L282.784 107.438L283.196 100.077L295.501 96.899L296.188 98.8228L298.869 88.2839Z" fill="#256AEA"/>
<g filter="url(#filter6_d_581_2159)">
<path d="M295.779 89.7034L273.554 73.4626L273.829 83.0257L295.779 95.6391V89.7034Z" fill="#225ED0"/>
</g>
<g filter="url(#filter7_d_581_2159)">
<path d="M283.121 99.9037L257.984 89.9121L258.054 99.7328L282.705 108.494L283.121 99.9037Z" fill="#225ED0"/>
</g>
<g filter="url(#filter8_d_581_2159)">
<path d="M271.533 112.009L244.792 105.358V113.799L271.533 117.636V112.009Z" fill="#1F59C5"/>
</g>
<path d="M273.297 73.4873L258.222 78.529V86.6797L273.435 83.2345L273.297 73.4873Z" fill="#256AEA"/>
<path d="M257.865 90.8594L244.792 93.7908V101.831L257.865 99.2348V90.8594Z" fill="#256AEA"/>
<g filter="url(#filter9_d_581_2159)">
<path d="M257.865 78.5323L250.259 74.4016V82.9467L257.865 86.549V78.5323Z" fill="#1F59C5"/>
</g>
<path d="M249.546 74.4016L241.701 77.4038V85.2429L249.546 82.9078V74.4016Z" fill="#256AEA"/>
<g filter="url(#filter10_d_581_2159)">
<path d="M241.345 77.412L235.759 74.6628V83.4934L241.345 85.2429V77.412Z" fill="#2262D7"/>
</g>
<path d="M244.078 94.0477L235.996 91.3818V99.5459L244.078 101.962V94.0477Z" fill="#256AEA"/>
<path d="M244.435 105.358L237.66 106.288V113.979L244.435 113.641V105.358Z" fill="#256AEA"/>
<path d="M237.304 106.474L235.64 106.142V114.109L237.304 113.943V106.474Z" fill="#256AEA"/>
<g filter="url(#filter11_d_581_2159)">
<path d="M244.426 71.0177L235.431 66.6793L235.086 71.6984L241.293 74.4402L244.248 73.6098L244.426 71.0177Z" fill="#1F5AC5"/>
</g>
<path d="M257.628 66.2734L244.376 71.2692V74.1327L250.437 71.9516L257.984 76.5697L257.628 66.2734Z" fill="#256AEA"/>
<g filter="url(#filter12_d_581_2159)">
<path d="M267.255 72.3082L257.509 66.5171L257.984 75.7776L267.255 72.5395V72.3082Z" fill="#1F5AC5"/>
</g>
<path d="M244.316 61.7317L237.898 64.2134V65.7852L244.316 69.1769V61.7317Z" fill="#256AEA"/>
<g filter="url(#filter13_d_581_2159)">
<path d="M237.542 64.1416L235.759 63.3489V64.9343L236.376 65.2106L237.542 65.7859V64.1416Z" fill="#1F59C5"/>
</g>
<g filter="url(#filter14_d_581_2159)">
<path d="M252.517 65.8468L244.316 61.3384L244.673 68.5035L252.517 65.8468Z" fill="#1F59C5"/>
</g>
<path d="M255.013 65.4432L244.724 58.7188L238.233 61.7904L235.283 60.912V63.349L237.474 64.1149L244.379 61.3753L252.665 66.2734L255.013 65.4432Z" fill="#202D6B"/>
<path d="M269.513 72.2965L257.634 64.3237L244.139 69.4127L235.283 64.872L235.164 67.1872L244.139 71.4483L257.634 66.7834L267.475 72.975L269.513 72.2965Z" fill="#202D6B"/>
<path d="M298.513 88.3507L274.235 70.3525L258.073 76.3519L250.439 71.8524L241.43 75.1854L235.224 72.5487V74.4982L241.43 76.8519L249.82 74.0188L258.073 77.9351L273.616 72.9356L296.174 89.6839L298.513 88.3507Z" fill="#202D6B"/>
<path d="M295.542 96.1638L273.461 83.6978L257.957 87.5207L249.65 83.6978L241.068 86.3572L235.046 84.1964V90.5125L244.252 93.172L257.957 90.0139L283.221 99.9036L295.542 96.1638Z" fill="#0F095B"/>
<path d="M282.943 108.43L258.074 99.9036L244.289 102.69L235.283 100.157V105.56L237.015 105.982L244.427 104.885L271.721 111.723L282.943 108.43Z" fill="#0F095B"/>
<g filter="url(#filter15_d_581_2159)">
<path d="M256.677 116.471L244.677 114.632L237.546 115.05L235.626 115.468L235.283 138.796H256.677V116.471Z" fill="#1F59C5"/>
</g>
<g filter="url(#filter16_d_581_2159)">
<path d="M295.694 96.3501L291.99 94.2554L287.189 98.361C287.189 98.361 288.027 99.6819 288.576 100.707C289.125 101.732 264.637 121.821 264.02 124.335C263.403 126.849 262.976 137.49 262.976 137.49L270.521 136.987C270.521 136.987 269.012 126.868 269.492 125.257C269.972 123.645 295.161 100.559 296.053 99.1988C296.944 97.8386 295.694 96.3501 295.694 96.3501Z" fill="#223C6C"/>
</g>
<g filter="url(#filter17_d_581_2159)">
<path d="M287.414 92.0395L283.629 89.9451L278.757 94.6365C278.757 94.6365 278.757 95.1195 279.307 96.1444C279.858 97.1694 256.096 118.01 255.476 120.523C254.857 123.036 253.824 138.535 253.824 138.535L262.084 137.613C262.084 137.613 260.157 122.637 260.639 121.026C261.12 119.414 285.915 95.9965 286.81 94.6365C287.705 93.2764 287.414 92.0395 287.414 92.0395Z" fill="#223C6C"/>
</g>
<g filter="url(#filter18_d_581_2159)">
<path d="M280.071 87.3454L276.356 85.2429L270.158 89.7115C270.158 89.7115 270.158 90.2602 270.782 91.4246C271.405 92.589 244.422 116.836 243.721 119.691C243.019 122.546 242.652 139.319 242.652 139.319L251.044 138.898C251.044 138.898 249.098 121.521 249.644 119.691C250.189 117.86 278.263 91.2566 279.277 89.7115C280.29 88.1664 280.071 87.3454 280.071 87.3454Z" fill="#223C6C"/>
</g>
<path d="M199.509 135.531H271.414V145.719H199.509V135.531Z" fill="#223C6C"/>
<g filter="url(#filter19_d_581_2159)">
<ellipse cx="220.486" cy="96.5734" rx="2.43647" ry="3.14959" fill="#3D1B11"/>
</g>
<g filter="url(#filter20_d_581_2159)">
<ellipse cx="249.605" cy="96.3354" rx="2.43647" ry="3.14959" fill="#3D1B11"/>
</g>
<defs>
<filter id="filter0_d_581_2159" x="0.424377" y="0.71875" width="350.154" height="23.197" filterUnits="userSpaceOnUse" color-interpolation-filters="sRGB">
<feFlood flood-opacity="0" result="BackgroundImageFix"/>
<feColorMatrix in="SourceAlpha" type="matrix" values="0 0 0 0 0 0 0 0 0 0 0 0 0 0 0 0 0 0 127 0" result="hardAlpha"/>
<feOffset dy="1"/>
<feGaussianBlur stdDeviation="1"/>
<feComposite in2="hardAlpha" operator="out"/>
<feColorMatrix type="matrix" values="0 0 0 0 0 0 0 0 0 0 0 0 0 0 0 0 0 0 0.25 0"/>
<feBlend mode="normal" in2="BackgroundImageFix" result="effect1_dropShadow_581_2159"/>
<feBlend mode="normal" in="SourceGraphic" in2="effect1_dropShadow_581_2159" result="shape"/>
</filter>
<filter id="filter1_d_581_2159" x="16.2889" y="145.696" width="318.425" height="20.4159" filterUnits="userSpaceOnUse" color-interpolation-filters="sRGB">
<feFlood flood-opacity="0" result="BackgroundImageFix"/>
<feColorMatrix in="SourceAlpha" type="matrix" values="0 0 0 0 0 0 0 0 0 0 0 0 0 0 0 0 0 0 127 0" result="hardAlpha"/>
<feOffset dy="0.609426"/>
<feGaussianBlur stdDeviation="0.304713"/>
<feComposite in2="hardAlpha" operator="out"/>
<feColorMatrix type="matrix" values="0 0 0 0 0 0 0 0 0 0 0 0 0 0 0 0 0 0 1 0"/>
<feBlend mode="normal" in2="BackgroundImageFix" result="effect1_dropShadow_581_2159"/>
<feBlend mode="normal" in="SourceGraphic" in2="effect1_dropShadow_581_2159" result="shape"/>
</filter>
<filter id="filter2_d_581_2159" x="16.2889" y="257.373" width="318.425" height="20.4159" filterUnits="userSpaceOnUse" color-interpolation-filters="sRGB">
<feFlood flood-opacity="0" result="BackgroundImageFix"/>
<feColorMatrix in="SourceAlpha" type="matrix" values="0 0 0 0 0 0 0 0 0 0 0 0 0 0 0 0 0 0 127 0" result="hardAlpha"/>
<feOffset dy="0.609426"/>
<feGaussianBlur stdDeviation="0.304713"/>
<feComposite in2="hardAlpha" operator="out"/>
<feColorMatrix type="matrix" values="0 0 0 0 0 0 0 0 0 0 0 0 0 0 0 0 0 0 1 0"/>
<feBlend mode="normal" in2="BackgroundImageFix" result="effect1_dropShadow_581_2159"/>
<feBlend mode="normal" in="SourceGraphic" in2="effect1_dropShadow_581_2159" result="shape"/>
</filter>
<filter id="filter3_d_581_2159" x="170.787" y="94.386" width="41.3976" height="57.1038" filterUnits="userSpaceOnUse" color-interpolation-filters="sRGB">
<feFlood flood-opacity="0" result="BackgroundImageFix"/>
<feColorMatrix in="SourceAlpha" type="matrix" values="0 0 0 0 0 0 0 0 0 0 0 0 0 0 0 0 0 0 127 0" result="hardAlpha"/>
<feOffset dy="10"/>
<feGaussianBlur stdDeviation="2"/>
<feComposite in2="hardAlpha" operator="out"/>
<feColorMatrix type="matrix" values="0 0 0 0 0 0 0 0 0 0 0 0 0 0 0 0 0 0 0.38 0"/>
<feBlend mode="normal" in2="BackgroundImageFix" result="effect1_dropShadow_581_2159"/>
<feBlend mode="normal" in="SourceGraphic" in2="effect1_dropShadow_581_2159" result="shape"/>
</filter>
<filter id="filter4_d_581_2159" x="179.701" y="89.9451" width="41.5164" height="62.5896" filterUnits="userSpaceOnUse" color-interpolation-filters="sRGB">
<feFlood flood-opacity="0" result="BackgroundImageFix"/>
<feColorMatrix in="SourceAlpha" type="matrix" values="0 0 0 0 0 0 0 0 0 0 0 0 0 0 0 0 0 0 127 0" result="hardAlpha"/>
<feOffset dy="10"/>
<feGaussianBlur stdDeviation="2"/>
<feComposite in2="hardAlpha" operator="out"/>
<feColorMatrix type="matrix" values="0 0 0 0 0 0 0 0 0 0 0 0 0 0 0 0 0 0 0.38 0"/>
<feBlend mode="normal" in2="BackgroundImageFix" result="effect1_dropShadow_581_2159"/>
<feBlend mode="normal" in="SourceGraphic" in2="effect1_dropShadow_581_2159" result="shape"/>
</filter>
<filter id="filter5_d_581_2159" x="187.07" y="85.3733" width="45.4385" height="67.9451" filterUnits="userSpaceOnUse" color-interpolation-filters="sRGB">
<feFlood flood-opacity="0" result="BackgroundImageFix"/>
<feColorMatrix in="SourceAlpha" type="matrix" values="0 0 0 0 0 0 0 0 0 0 0 0 0 0 0 0 0 0 127 0" result="hardAlpha"/>
<feOffset dy="10"/>
<feGaussianBlur stdDeviation="2"/>
<feComposite in2="hardAlpha" operator="out"/>
<feColorMatrix type="matrix" values="0 0 0 0 0 0 0 0 0 0 0 0 0 0 0 0 0 0 0.38 0"/>
<feBlend mode="normal" in2="BackgroundImageFix" result="effect1_dropShadow_581_2159"/>
<feBlend mode="normal" in="SourceGraphic" in2="effect1_dropShadow_581_2159" result="shape"/>
</filter>
<filter id="filter6_d_581_2159" x="269.554" y="73.4626" width="30.2255" height="30.1765" filterUnits="userSpaceOnUse" color-interpolation-filters="sRGB">
<feFlood flood-opacity="0" result="BackgroundImageFix"/>
<feColorMatrix in="SourceAlpha" type="matrix" values="0 0 0 0 0 0 0 0 0 0 0 0 0 0 0 0 0 0 127 0" result="hardAlpha"/>
<feOffset dy="4"/>
<feGaussianBlur stdDeviation="2"/>
<feComposite in2="hardAlpha" operator="out"/>
<feColorMatrix type="matrix" values="0 0 0 0 0 0 0 0 0 0 0 0 0 0 0 0 0 0 0.3 0"/>
<feBlend mode="normal" in2="BackgroundImageFix" result="effect1_dropShadow_581_2159"/>
<feBlend mode="normal" in="SourceGraphic" in2="effect1_dropShadow_581_2159" result="shape"/>
</filter>
<filter id="filter7_d_581_2159" x="253.984" y="89.9121" width="33.1373" height="26.582" filterUnits="userSpaceOnUse" color-interpolation-filters="sRGB">
<feFlood flood-opacity="0" result="BackgroundImageFix"/>
<feColorMatrix in="SourceAlpha" type="matrix" values="0 0 0 0 0 0 0 0 0 0 0 0 0 0 0 0 0 0 127 0" result="hardAlpha"/>
<feOffset dy="4"/>
<feGaussianBlur stdDeviation="2"/>
<feComposite in2="hardAlpha" operator="out"/>
<feColorMatrix type="matrix" values="0 0 0 0 0 0 0 0 0 0 0 0 0 0 0 0 0 0 0.3 0"/>
<feBlend mode="normal" in2="BackgroundImageFix" result="effect1_dropShadow_581_2159"/>
<feBlend mode="normal" in="SourceGraphic" in2="effect1_dropShadow_581_2159" result="shape"/>
</filter>
<filter id="filter8_d_581_2159" x="240.792" y="105.358" width="34.7418" height="20.2781" filterUnits="userSpaceOnUse" color-interpolation-filters="sRGB">
<feFlood flood-opacity="0" result="BackgroundImageFix"/>
<feColorMatrix in="SourceAlpha" type="matrix" values="0 0 0 0 0 0 0 0 0 0 0 0 0 0 0 0 0 0 127 0" result="hardAlpha"/>
<feOffset dy="4"/>
<feGaussianBlur stdDeviation="2"/>
<feComposite in2="hardAlpha" operator="out"/>
<feColorMatrix type="matrix" values="0 0 0 0 0 0 0 0 0 0 0 0 0 0 0 0 0 0 0.3 0"/>
<feBlend mode="normal" in2="BackgroundImageFix" result="effect1_dropShadow_581_2159"/>
<feBlend mode="normal" in="SourceGraphic" in2="effect1_dropShadow_581_2159" result="shape"/>
</filter>
<filter id="filter9_d_581_2159" x="246.259" y="74.4016" width="15.6066" height="20.1475" filterUnits="userSpaceOnUse" color-interpolation-filters="sRGB">
<feFlood flood-opacity="0" result="BackgroundImageFix"/>
<feColorMatrix in="SourceAlpha" type="matrix" values="0 0 0 0 0 0 0 0 0 0 0 0 0 0 0 0 0 0 127 0" result="hardAlpha"/>
<feOffset dy="4"/>
<feGaussianBlur stdDeviation="2"/>
<feComposite in2="hardAlpha" operator="out"/>
<feColorMatrix type="matrix" values="0 0 0 0 0 0 0 0 0 0 0 0 0 0 0 0 0 0 0.3 0"/>
<feBlend mode="normal" in2="BackgroundImageFix" result="effect1_dropShadow_581_2159"/>
<feBlend mode="normal" in="SourceGraphic" in2="effect1_dropShadow_581_2159" result="shape"/>
</filter>
<filter id="filter10_d_581_2159" x="231.759" y="74.6628" width="13.5861" height="18.5801" filterUnits="userSpaceOnUse" color-interpolation-filters="sRGB">
<feFlood flood-opacity="0" result="BackgroundImageFix"/>
<feColorMatrix in="SourceAlpha" type="matrix" values="0 0 0 0 0 0 0 0 0 0 0 0 0 0 0 0 0 0 127 0" result="hardAlpha"/>
<feOffset dy="4"/>
<feGaussianBlur stdDeviation="2"/>
<feComposite in2="hardAlpha" operator="out"/>
<feColorMatrix type="matrix" values="0 0 0 0 0 0 0 0 0 0 0 0 0 0 0 0 0 0 0.3 0"/>
<feBlend mode="normal" in2="BackgroundImageFix" result="effect1_dropShadow_581_2159"/>
<feBlend mode="normal" in="SourceGraphic" in2="effect1_dropShadow_581_2159" result="shape"/>
</filter>
<filter id="filter11_d_581_2159" x="231.086" y="66.6792" width="17.3403" height="15.761" filterUnits="userSpaceOnUse" color-interpolation-filters="sRGB">
<feFlood flood-opacity="0" result="BackgroundImageFix"/>
<feColorMatrix in="SourceAlpha" type="matrix" values="0 0 0 0 0 0 0 0 0 0 0 0 0 0 0 0 0 0 127 0" result="hardAlpha"/>
<feOffset dy="4"/>
<feGaussianBlur stdDeviation="2"/>
<feComposite in2="hardAlpha" operator="out"/>
<feColorMatrix type="matrix" values="0 0 0 0 0 0 0 0 0 0 0 0 0 0 0 0 0 0 0.3 0"/>
<feBlend mode="normal" in2="BackgroundImageFix" result="effect1_dropShadow_581_2159"/>
<feBlend mode="normal" in="SourceGraphic" in2="effect1_dropShadow_581_2159" result="shape"/>
</filter>
<filter id="filter12_d_581_2159" x="253.509" y="66.5171" width="17.7458" height="17.2605" filterUnits="userSpaceOnUse" color-interpolation-filters="sRGB">
<feFlood flood-opacity="0" result="BackgroundImageFix"/>
<feColorMatrix in="SourceAlpha" type="matrix" values="0 0 0 0 0 0 0 0 0 0 0 0 0 0 0 0 0 0 127 0" result="hardAlpha"/>
<feOffset dy="4"/>
<feGaussianBlur stdDeviation="2"/>
<feComposite in2="hardAlpha" operator="out"/>
<feColorMatrix type="matrix" values="0 0 0 0 0 0 0 0 0 0 0 0 0 0 0 0 0 0 0.3 0"/>
<feBlend mode="normal" in2="BackgroundImageFix" result="effect1_dropShadow_581_2159"/>
<feBlend mode="normal" in="SourceGraphic" in2="effect1_dropShadow_581_2159" result="shape"/>
</filter>
<filter id="filter13_d_581_2159" x="231.759" y="63.3489" width="9.78284" height="10.437" filterUnits="userSpaceOnUse" color-interpolation-filters="sRGB">
<feFlood flood-opacity="0" result="BackgroundImageFix"/>
<feColorMatrix in="SourceAlpha" type="matrix" values="0 0 0 0 0 0 0 0 0 0 0 0 0 0 0 0 0 0 127 0" result="hardAlpha"/>
<feOffset dy="4"/>
<feGaussianBlur stdDeviation="2"/>
<feComposite in2="hardAlpha" operator="out"/>
<feColorMatrix type="matrix" values="0 0 0 0 0 0 0 0 0 0 0 0 0 0 0 0 0 0 0.3 0"/>
<feBlend mode="normal" in2="BackgroundImageFix" result="effect1_dropShadow_581_2159"/>
<feBlend mode="normal" in="SourceGraphic" in2="effect1_dropShadow_581_2159" result="shape"/>
</filter>
<filter id="filter14_d_581_2159" x="240.316" y="61.3384" width="16.2008" height="15.165" filterUnits="userSpaceOnUse" color-interpolation-filters="sRGB">
<feFlood flood-opacity="0" result="BackgroundImageFix"/>
<feColorMatrix in="SourceAlpha" type="matrix" values="0 0 0 0 0 0 0 0 0 0 0 0 0 0 0 0 0 0 127 0" result="hardAlpha"/>
<feOffset dy="4"/>
<feGaussianBlur stdDeviation="2"/>
<feComposite in2="hardAlpha" operator="out"/>
<feColorMatrix type="matrix" values="0 0 0 0 0 0 0 0 0 0 0 0 0 0 0 0 0 0 0.3 0"/>
<feBlend mode="normal" in2="BackgroundImageFix" result="effect1_dropShadow_581_2159"/>
<feBlend mode="normal" in="SourceGraphic" in2="effect1_dropShadow_581_2159" result="shape"/>
</filter>
<filter id="filter15_d_581_2159" x="231.283" y="114.632" width="29.3934" height="32.1643" filterUnits="userSpaceOnUse" color-interpolation-filters="sRGB">
<feFlood flood-opacity="0" result="BackgroundImageFix"/>
<feColorMatrix in="SourceAlpha" type="matrix" values="0 0 0 0 0 0 0 0 0 0 0 0 0 0 0 0 0 0 127 0" result="hardAlpha"/>
<feOffset dy="4"/>
<feGaussianBlur stdDeviation="2"/>
<feComposite in2="hardAlpha" operator="out"/>
<feColorMatrix type="matrix" values="0 0 0 0 0 0 0 0 0 0 0 0 0 0 0 0 0 0 0.3 0"/>
<feBlend mode="normal" in2="BackgroundImageFix" result="effect1_dropShadow_581_2159"/>
<feBlend mode="normal" in="SourceGraphic" in2="effect1_dropShadow_581_2159" result="shape"/>
</filter>
<filter id="filter16_d_581_2159" x="258.976" y="94.2554" width="41.3976" height="57.2344" filterUnits="userSpaceOnUse" color-interpolation-filters="sRGB">
<feFlood flood-opacity="0" result="BackgroundImageFix"/>
<feColorMatrix in="SourceAlpha" type="matrix" values="0 0 0 0 0 0 0 0 0 0 0 0 0 0 0 0 0 0 127 0" result="hardAlpha"/>
<feOffset dy="10"/>
<feGaussianBlur stdDeviation="2"/>
<feComposite in2="hardAlpha" operator="out"/>
<feColorMatrix type="matrix" values="0 0 0 0 0 0 0 0 0 0 0 0 0 0 0 0 0 0 0.38 0"/>
<feBlend mode="normal" in2="BackgroundImageFix" result="effect1_dropShadow_581_2159"/>
<feBlend mode="normal" in="SourceGraphic" in2="effect1_dropShadow_581_2159" result="shape"/>
</filter>
<filter id="filter17_d_581_2159" x="249.824" y="89.9451" width="41.6353" height="62.5896" filterUnits="userSpaceOnUse" color-interpolation-filters="sRGB">
<feFlood flood-opacity="0" result="BackgroundImageFix"/>
<feColorMatrix in="SourceAlpha" type="matrix" values="0 0 0 0 0 0 0 0 0 0 0 0 0 0 0 0 0 0 127 0" result="hardAlpha"/>
<feOffset dy="10"/>
<feGaussianBlur stdDeviation="2"/>
<feComposite in2="hardAlpha" operator="out"/>
<feColorMatrix type="matrix" values="0 0 0 0 0 0 0 0 0 0 0 0 0 0 0 0 0 0 0.38 0"/>
<feBlend mode="normal" in2="BackgroundImageFix" result="effect1_dropShadow_581_2159"/>
<feBlend mode="normal" in="SourceGraphic" in2="effect1_dropShadow_581_2159" result="shape"/>
</filter>
<filter id="filter18_d_581_2159" x="238.652" y="85.2429" width="45.4385" height="68.0757" filterUnits="userSpaceOnUse" color-interpolation-filters="sRGB">
<feFlood flood-opacity="0" result="BackgroundImageFix"/>
<feColorMatrix in="SourceAlpha" type="matrix" values="0 0 0 0 0 0 0 0 0 0 0 0 0 0 0 0 0 0 127 0" result="hardAlpha"/>
<feOffset dy="10"/>
<feGaussianBlur stdDeviation="2"/>
<feComposite in2="hardAlpha" operator="out"/>
<feColorMatrix type="matrix" values="0 0 0 0 0 0 0 0 0 0 0 0 0 0 0 0 0 0 0.38 0"/>
<feBlend mode="normal" in2="BackgroundImageFix" result="effect1_dropShadow_581_2159"/>
<feBlend mode="normal" in="SourceGraphic" in2="effect1_dropShadow_581_2159" result="shape"/>
</filter>
<filter id="filter19_d_581_2159" x="218.05" y="93.4238" width="4.87292" height="6.29907" filterUnits="userSpaceOnUse" color-interpolation-filters="sRGB">
<feFlood flood-opacity="0" result="BackgroundImageFix"/>
<feColorMatrix in="SourceAlpha" type="matrix" values="0 0 0 0 0 0 0 0 0 0 0 0 0 0 0 0 0 0 127 0" result="hardAlpha"/>
<feOffset/>
<feComposite in2="hardAlpha" operator="out"/>
<feColorMatrix type="matrix" values="0 0 0 0 0 0 0 0 0 0 0 0 0 0 0 0 0 0 0.5 0"/>
<feBlend mode="normal" in2="BackgroundImageFix" result="effect1_dropShadow_581_2159"/>
<feBlend mode="normal" in="SourceGraphic" in2="effect1_dropShadow_581_2159" result="shape"/>
</filter>
<filter id="filter20_d_581_2159" x="243.168" y="93.1858" width="12.8729" height="20.2991" filterUnits="userSpaceOnUse" color-interpolation-filters="sRGB">
<feFlood flood-opacity="0" result="BackgroundImageFix"/>
<feColorMatrix in="SourceAlpha" type="matrix" values="0 0 0 0 0 0 0 0 0 0 0 0 0 0 0 0 0 0 127 0" result="hardAlpha"/>
<feOffset dy="10"/>
<feGaussianBlur stdDeviation="2"/>
<feComposite in2="hardAlpha" operator="out"/>
<feColorMatrix type="matrix" values="0 0 0 0 0 0 0 0 0 0 0 0 0 0 0 0 0 0 0.5 0"/>
<feBlend mode="normal" in2="BackgroundImageFix" result="effect1_dropShadow_581_2159"/>
<feBlend mode="normal" in="SourceGraphic" in2="effect1_dropShadow_581_2159" result="shape"/>
</filter>
</defs>
</svg>
