<svg width="250" height="161" viewBox="0 0 250 161" fill="none" xmlns="http://www.w3.org/2000/svg">
<g filter="url(#filter0_d_359_1288)">
<path d="M189.131 27.3515C231.66 -6.20137 240.413 105.072 211.86 123.033C139.119 70.1027 158.846 118.275 157.934 70.786C30.525 73.2337 17.1936 1.74955 64.672 0.837436C279.07 144.726 130.485 37.5327 189.131 27.3515Z" fill="#BFBFBF"/>
</g>
<g filter="url(#filter1_d_359_1288)">
<path d="M236.799 90.2768C237.347 118.818 222.367 134.427 193.888 152.384C121.332 99.459 225.775 144.951 224.863 97.47C97.7826 99.9114 -30.0052 7.65726 17.3506 6.7475C231.202 150.622 212.582 28.067 236.799 90.2768Z" fill="#E3DEDE"/>
</g>
<path d="M249.562 77.8223C250.473 125.262 237.273 153.551 189.844 154.462C142.415 155.373 220.349 149.149 219.438 101.71C92.1613 104.155 -36.9988 14.793 10.4301 13.8819C183.361 107.969 176.867 -29.6707 249.562 77.8223Z" fill="white"/>
<defs>
<filter id="filter0_d_359_1288" x="35.4265" y="0.837402" width="197.027" height="130.196" filterUnits="userSpaceOnUse" color-interpolation-filters="sRGB">
<feFlood flood-opacity="0" result="BackgroundImageFix"/>
<feColorMatrix in="SourceAlpha" type="matrix" values="0 0 0 0 0 0 0 0 0 0 0 0 0 0 0 0 0 0 127 0" result="hardAlpha"/>
<feOffset dy="4"/>
<feGaussianBlur stdDeviation="2"/>
<feComposite in2="hardAlpha" operator="out"/>
<feColorMatrix type="matrix" values="0 0 0 0 0 0 0 0 0 0 0 0 0 0 0 0 0 0 0.25 0"/>
<feBlend mode="normal" in2="BackgroundImageFix" result="effect1_dropShadow_359_1288"/>
<feBlend mode="normal" in="SourceGraphic" in2="effect1_dropShadow_359_1288" result="shape"/>
</filter>
<filter id="filter1_d_359_1288" x="3.26154" y="6.74756" width="237.552" height="153.636" filterUnits="userSpaceOnUse" color-interpolation-filters="sRGB">
<feFlood flood-opacity="0" result="BackgroundImageFix"/>
<feColorMatrix in="SourceAlpha" type="matrix" values="0 0 0 0 0 0 0 0 0 0 0 0 0 0 0 0 0 0 127 0" result="hardAlpha"/>
<feOffset dy="4"/>
<feGaussianBlur stdDeviation="2"/>
<feComposite in2="hardAlpha" operator="out"/>
<feColorMatrix type="matrix" values="0 0 0 0 0 0 0 0 0 0 0 0 0 0 0 0 0 0 0.25 0"/>
<feBlend mode="normal" in2="BackgroundImageFix" result="effect1_dropShadow_359_1288"/>
<feBlend mode="normal" in="SourceGraphic" in2="effect1_dropShadow_359_1288" result="shape"/>
</filter>
</defs>
</svg>
