<svg viewBox="0 0 618 661" fill="none" xmlns="http://www.w3.org/2000/svg">
<path d="M280.17 345.126C276.434 370.907 249.8 388.529 220.683 384.486C191.565 380.443 170.99 356.266 174.726 330.485C178.463 304.704 180.481 286.086 209.599 290.129C238.717 294.172 215.242 324.273 280.17 345.126Z" fill="#FEF27A"/>
<path d="M376.312 383.064C360.736 404.173 367.435 434.948 391.276 451.802C415.117 468.656 447.071 465.207 462.648 444.098C478.224 422.989 489.963 408.206 466.122 391.352C442.281 374.498 437.862 412.118 376.312 383.064Z" fill="#C5263A"/>
<ellipse cx="109.753" cy="87.225" rx="109.753" ry="87.225" transform="matrix(0.9302 0.367053 -0.38084 0.924641 296.861 155.998)" fill="#FFD13B"/>
<ellipse cx="96.3818" cy="85.8536" rx="96.3818" ry="85.8536" transform="matrix(0.9302 0.367053 -0.38084 0.924641 260.201 280.109)" fill="#FFD13B"/>
<g filter="url(#filter0_d_367_4517)">
<ellipse cx="32.8701" cy="32.3665" rx="32.8701" ry="32.3665" transform="matrix(0.9302 0.367053 -0.38084 0.924641 296.716 358.203)" fill="#F8931F"/>
</g>
<path d="M297.389 247.76C304.654 274.668 312.904 281.803 283.223 289.477C253.542 297.15 223.591 281.558 216.326 254.65C209.06 227.743 198.39 195.262 228.07 187.589C266.062 225.921 290.123 220.852 297.389 247.76Z" fill="#FFD13B"/>
<path d="M332.449 211.86C332.198 239.69 338.23 248.703 307.532 248.435C276.833 248.168 252.15 225.39 252.401 197.56C252.652 169.731 251.121 135.647 281.82 135.915C308.124 182.702 332.699 184.031 332.449 211.86Z" fill="#FFD13B"/>
<path d="M380.311 194.046C373.623 221.095 377.412 231.212 347.573 224.143C317.734 217.074 298.967 189.415 305.654 162.366C312.342 135.316 318.743 101.78 348.582 108.849C363.369 160.252 386.998 166.996 380.311 194.046Z" fill="#FFD13B"/>
<path d="M429.549 216.231C412.261 238.326 411.548 249.078 387.174 230.809C362.799 212.541 357.054 179.819 374.342 157.724C391.631 135.629 411.335 107.488 435.71 125.757C428.008 178.621 446.837 194.136 429.549 216.231Z" fill="#FFD13B"/>
<path d="M435.423 302.98C411.122 317.432 400.123 316.972 416.067 342.649C432.012 368.326 464.637 377.426 488.937 362.974C513.238 348.522 543.94 332.368 527.996 306.69C473.465 308.513 459.723 288.528 435.423 302.98Z" fill="#FFD13B"/>
<path d="M435.604 253.317C416.065 273.535 405.332 275.933 427.637 296.58C449.942 317.228 483.863 317.575 503.403 297.357C522.942 277.138 548.196 253.623 525.891 232.976C473.789 248.825 455.143 233.099 435.604 253.317Z" fill="#FFD13B"/>
<path d="M413.747 207.992C399.398 232.018 389.5 236.734 416.004 251.898C442.509 267.062 475.628 259.877 489.977 235.851C504.326 211.825 523.479 183.32 496.974 168.156C449.897 195.148 428.096 183.965 413.747 207.992Z" fill="#FFD13B"/>
<path d="M362.556 190.548C359.354 218.202 352.249 226.431 382.754 229.817C413.258 233.203 440.583 213.531 443.785 185.878C446.987 158.224 452.732 124.575 422.228 121.188C390.317 164.5 365.759 162.895 362.556 190.548Z" fill="#FFD13B"/>
<ellipse cx="29.5274" cy="19.2005" rx="29.5274" ry="19.2005" transform="matrix(0.9302 0.367053 -0.38084 0.924641 226.276 428.296)" fill="#0BB756"/>
<ellipse cx="29.5274" cy="19.2005" rx="29.5274" ry="19.2005" transform="matrix(0.9302 0.367053 -0.38084 0.924641 312.404 463.461)" fill="#06A7E2"/>
<g filter="url(#filter1_d_367_4517)">
<path d="M338.717 341.164L336.427 368.566L321.917 362.84L338.717 341.164Z" fill="#F8931F"/>
</g>
<g filter="url(#filter2_d_367_4517)">
<path d="M381.125 395.541L354.844 404.824L354.235 389.29L381.125 395.541Z" fill="#F8931F"/>
</g>
<g filter="url(#filter3_d_367_4517)">
<path d="M323.142 465.843L313.658 440.119L329.528 439.523L323.142 465.843Z" fill="#F8931F"/>
</g>
<g filter="url(#filter4_d_367_4517)">
<path d="M249.834 408.504L276.115 399.221L276.723 414.755L249.834 408.504Z" fill="#F8931F"/>
</g>
<g filter="url(#filter5_d_367_4517)">
<path d="M307.389 334.867L316.873 360.591L301.003 361.186L307.389 334.867Z" fill="#F8931F"/>
</g>
<g filter="url(#filter6_d_367_4517)">
<path d="M368.852 363.431L351.047 384.506L342.452 371.434L368.852 363.431Z" fill="#F8931F"/>
</g>
<g filter="url(#filter7_d_367_4517)">
<path d="M353.357 453.793L331.824 436.366L345.179 427.953L353.357 453.793Z" fill="#F8931F"/>
</g>
<g filter="url(#filter8_d_367_4517)">
<path d="M262.038 438.036L279.843 416.96L288.438 430.032L262.038 438.036Z" fill="#F8931F"/>
</g>
<g filter="url(#filter9_d_367_4517)">
<path d="M275.576 348.137L297.108 365.564L283.754 373.977L275.576 348.137Z" fill="#F8931F"/>
</g>
<g filter="url(#filter10_d_367_4517)">
<path d="M375.793 423.648L347.798 421.407L353.648 407.204L375.793 423.648Z" fill="#F8931F"/>
</g>
<g filter="url(#filter11_d_367_4517)">
<path d="M293.045 459.949L294.849 432.946L309.878 438.876L293.045 459.949Z" fill="#F8931F"/>
</g>
<g filter="url(#filter12_d_367_4517)">
<path d="M254.137 376.743L282.132 378.984L276.282 393.187L254.137 376.743Z" fill="#F8931F"/>
</g>
<g filter="url(#filter13_d_367_4517)">
<path d="M393.501 247.153C378.072 284.613 389.147 303.275 362.266 292.668C335.385 282.061 359.389 269.331 374.817 231.871C390.246 194.411 381.974 168.945 408.855 179.552C435.736 190.159 408.93 209.693 393.501 247.153Z" fill="#6A92F7"/>
</g>
<g filter="url(#filter14_d_367_4517)">
<ellipse cx="28.6917" cy="28.2521" rx="28.6917" ry="28.2521" transform="matrix(0.9302 0.367053 -0.38084 0.924641 345.137 258.194)" fill="#FD4F00"/>
</g>
<g filter="url(#filter15_d_367_4517)">
<ellipse cx="10.3067" cy="13.166" rx="10.3067" ry="13.166" transform="matrix(0.9302 0.367053 -0.38084 0.924641 311.477 236.066)" fill="#3D1B11"/>
</g>
<g filter="url(#filter16_d_367_4517)">
<ellipse cx="10.0282" cy="13.166" rx="10.0282" ry="13.166" transform="matrix(0.9302 0.367053 -0.38084 0.924641 416.16 277.374)" fill="#3D1B11"/>
</g>
<g filter="url(#filter17_d_367_4517)">
<ellipse cx="11.432" cy="3.20399" rx="11.432" ry="3.20399" transform="matrix(0.975278 0.22098 -0.230156 0.973154 311.385 217.169)" fill="#FFA409"/>
</g>
<g filter="url(#filter18_d_367_4517)">
<ellipse cx="11.3861" cy="3.21729" rx="11.3861" ry="3.21729" transform="matrix(0.875577 0.483079 0.499051 -0.866572 421.361 264.222)" fill="#FFA409"/>
</g>
<path d="M125.29 140.531C95.912 119.05 91.1706 105.951 67.4814 136.999C43.7922 168.047 48.4038 210.63 77.7816 232.111C107.159 253.592 132.507 257.363 156.196 226.315C127.673 163.354 154.668 162.012 125.29 140.531Z" fill="#F8931F"/>
<path d="M192.054 91.6739C167.331 65.1651 165.194 51.4268 135.958 77.5559C106.722 103.685 103.063 146.356 127.785 172.865C152.507 199.374 176.676 207.747 205.912 181.618C190.006 114.528 216.776 118.183 192.054 91.6739Z" fill="#F8931F"/>
<path d="M118.446 86.0861C104.929 52.7207 123.65 61.2131 86.8497 75.5013C50.0492 89.7894 4.66022 116.134 18.1763 149.499C31.6925 182.864 62.0281 189.286 98.8287 174.998C108.254 106.746 131.962 119.451 118.446 86.0861Z" fill="#F8931F"/>
<path d="M339.597 71.1439C341.812 41.7495 352.541 54.5857 320.118 52.2498C287.695 49.9139 244.516 53.4785 242.301 82.8729C240.086 112.267 260.157 127.643 292.579 129.979C324.509 82.8408 337.383 100.538 339.597 71.1439Z" fill="#F8931F"/>
<path d="M501.875 533.81C531.253 512.33 535.995 499.231 559.684 530.279C583.373 561.327 578.761 603.91 549.384 625.39C520.006 646.871 494.659 650.642 470.969 619.594C499.492 556.633 472.498 555.291 501.875 533.81Z" fill="#F8931F"/>
<path d="M430.077 85.2189C427.38 49.4237 414.314 65.0551 453.798 62.2105C493.281 59.3659 545.863 63.7068 548.56 99.502C551.257 135.297 526.817 154.021 487.333 156.866C448.451 99.4629 432.774 121.014 430.077 85.2189Z" fill="#F8931F"/>
<g filter="url(#filter19_d_367_4517)">
<path d="M530.77 207.358C574.705 207.839 586.707 187.712 585.308 308.56C583.909 429.408 524.468 540.21 480.532 539.729C436.596 539.248 489.91 524.395 491.308 403.547C566.023 299.152 595.001 380.382 530.77 207.358Z" fill="white"/>
</g>
<g filter="url(#filter20_d_367_4517)">
<path d="M322.05 69.5046C296.941 44.6801 257.683 43.6746 195.273 104.167C132.863 164.66 108.545 253.3 133.653 278.124C158.762 302.949 136.367 265.2 198.777 204.708C211.104 110.521 195.222 118.334 322.05 69.5046Z" fill="white"/>
</g>
<g filter="url(#filter21_d_367_4517)">
<path d="M513.455 101.335C497.604 61.224 394.044 30.9609 278.891 74.5764C163.738 118.192 80.8017 209.743 96.6527 249.854C112.504 289.964 131.935 231.144 228.672 171.128C302.398 66.0623 309.689 64.5369 513.455 101.335Z" fill="#FFD13B"/>
</g>
<path d="M524.09 385.307C548.813 358.798 550.951 345.06 580.187 371.189C609.423 397.318 613.082 439.989 588.359 466.498C563.637 493.007 539.468 501.38 510.232 475.251C526.138 408.161 499.368 411.816 524.09 385.307Z" fill="#F8931F"/>
<path d="M517.991 141.511C531.508 108.145 512.787 116.638 549.587 130.926C586.388 145.214 631.777 171.558 618.261 204.924C604.744 238.289 574.409 244.711 537.608 230.423C528.183 162.17 504.475 174.876 517.991 141.511Z" fill="#F8931F"/>
<g filter="url(#filter22_d_367_4517)">
<path d="M513.191 127.622C557 130.92 616.45 219.263 606.964 339.762C597.477 460.26 531.81 564.377 488.001 561.079C444.192 557.78 496.138 522.617 526.976 414.654C608.519 315.276 607.911 308.003 513.191 127.622Z" fill="#FFD13B"/>
</g>
<defs>
<filter id="filter0_d_367_4517" x="279.58" y="367.919" width="70.7706" height="72.9864" filterUnits="userSpaceOnUse" color-interpolation-filters="sRGB">
<feFlood flood-opacity="0" result="BackgroundImageFix"/>
<feColorMatrix in="SourceAlpha" type="matrix" values="0 0 0 0 0 0 0 0 0 0 0 0 0 0 0 0 0 0 127 0" result="hardAlpha"/>
<feOffset dy="6.02398"/>
<feGaussianBlur stdDeviation="1.2048"/>
<feComposite in2="hardAlpha" operator="out"/>
<feColorMatrix type="matrix" values="0 0 0 0 0 0 0 0 0 0 0 0 0 0 0 0 0 0 0.5 0"/>
<feBlend mode="normal" in2="BackgroundImageFix" result="effect1_dropShadow_367_4517"/>
<feBlend mode="normal" in="SourceGraphic" in2="effect1_dropShadow_367_4517" result="shape"/>
</filter>
<filter id="filter1_d_367_4517" x="319.507" y="341.164" width="21.6191" height="35.8351" filterUnits="userSpaceOnUse" color-interpolation-filters="sRGB">
<feFlood flood-opacity="0" result="BackgroundImageFix"/>
<feColorMatrix in="SourceAlpha" type="matrix" values="0 0 0 0 0 0 0 0 0 0 0 0 0 0 0 0 0 0 127 0" result="hardAlpha"/>
<feOffset dy="6.02398"/>
<feGaussianBlur stdDeviation="1.2048"/>
<feComposite in2="hardAlpha" operator="out"/>
<feColorMatrix type="matrix" values="0 0 0 0 0 0 0 0 0 0 0 0 0 0 0 0 0 0 0.5 0"/>
<feBlend mode="normal" in2="BackgroundImageFix" result="effect1_dropShadow_367_4517"/>
<feBlend mode="normal" in="SourceGraphic" in2="effect1_dropShadow_367_4517" result="shape"/>
</filter>
<filter id="filter2_d_367_4517" x="351.826" y="389.29" width="31.7087" height="23.9671" filterUnits="userSpaceOnUse" color-interpolation-filters="sRGB">
<feFlood flood-opacity="0" result="BackgroundImageFix"/>
<feColorMatrix in="SourceAlpha" type="matrix" values="0 0 0 0 0 0 0 0 0 0 0 0 0 0 0 0 0 0 127 0" result="hardAlpha"/>
<feOffset dy="6.02398"/>
<feGaussianBlur stdDeviation="1.2048"/>
<feComposite in2="hardAlpha" operator="out"/>
<feColorMatrix type="matrix" values="0 0 0 0 0 0 0 0 0 0 0 0 0 0 0 0 0 0 0.5 0"/>
<feBlend mode="normal" in2="BackgroundImageFix" result="effect1_dropShadow_367_4517"/>
<feBlend mode="normal" in="SourceGraphic" in2="effect1_dropShadow_367_4517" result="shape"/>
</filter>
<filter id="filter3_d_367_4517" x="311.248" y="439.523" width="20.6893" height="34.7529" filterUnits="userSpaceOnUse" color-interpolation-filters="sRGB">
<feFlood flood-opacity="0" result="BackgroundImageFix"/>
<feColorMatrix in="SourceAlpha" type="matrix" values="0 0 0 0 0 0 0 0 0 0 0 0 0 0 0 0 0 0 127 0" result="hardAlpha"/>
<feOffset dy="6.02398"/>
<feGaussianBlur stdDeviation="1.2048"/>
<feComposite in2="hardAlpha" operator="out"/>
<feColorMatrix type="matrix" values="0 0 0 0 0 0 0 0 0 0 0 0 0 0 0 0 0 0 0.5 0"/>
<feBlend mode="normal" in2="BackgroundImageFix" result="effect1_dropShadow_367_4517"/>
<feBlend mode="normal" in="SourceGraphic" in2="effect1_dropShadow_367_4517" result="shape"/>
</filter>
<filter id="filter4_d_367_4517" x="247.424" y="399.221" width="31.7087" height="23.9671" filterUnits="userSpaceOnUse" color-interpolation-filters="sRGB">
<feFlood flood-opacity="0" result="BackgroundImageFix"/>
<feColorMatrix in="SourceAlpha" type="matrix" values="0 0 0 0 0 0 0 0 0 0 0 0 0 0 0 0 0 0 127 0" result="hardAlpha"/>
<feOffset dy="6.02398"/>
<feGaussianBlur stdDeviation="1.2048"/>
<feComposite in2="hardAlpha" operator="out"/>
<feColorMatrix type="matrix" values="0 0 0 0 0 0 0 0 0 0 0 0 0 0 0 0 0 0 0.5 0"/>
<feBlend mode="normal" in2="BackgroundImageFix" result="effect1_dropShadow_367_4517"/>
<feBlend mode="normal" in="SourceGraphic" in2="effect1_dropShadow_367_4517" result="shape"/>
</filter>
<filter id="filter5_d_367_4517" x="298.593" y="334.867" width="20.6893" height="34.7529" filterUnits="userSpaceOnUse" color-interpolation-filters="sRGB">
<feFlood flood-opacity="0" result="BackgroundImageFix"/>
<feColorMatrix in="SourceAlpha" type="matrix" values="0 0 0 0 0 0 0 0 0 0 0 0 0 0 0 0 0 0 127 0" result="hardAlpha"/>
<feOffset dy="6.02398"/>
<feGaussianBlur stdDeviation="1.2048"/>
<feComposite in2="hardAlpha" operator="out"/>
<feColorMatrix type="matrix" values="0 0 0 0 0 0 0 0 0 0 0 0 0 0 0 0 0 0 0.5 0"/>
<feBlend mode="normal" in2="BackgroundImageFix" result="effect1_dropShadow_367_4517"/>
<feBlend mode="normal" in="SourceGraphic" in2="effect1_dropShadow_367_4517" result="shape"/>
</filter>
<filter id="filter6_d_367_4517" x="340.042" y="363.431" width="31.2193" height="29.5091" filterUnits="userSpaceOnUse" color-interpolation-filters="sRGB">
<feFlood flood-opacity="0" result="BackgroundImageFix"/>
<feColorMatrix in="SourceAlpha" type="matrix" values="0 0 0 0 0 0 0 0 0 0 0 0 0 0 0 0 0 0 127 0" result="hardAlpha"/>
<feOffset dy="6.02398"/>
<feGaussianBlur stdDeviation="1.2048"/>
<feComposite in2="hardAlpha" operator="out"/>
<feColorMatrix type="matrix" values="0 0 0 0 0 0 0 0 0 0 0 0 0 0 0 0 0 0 0.5 0"/>
<feBlend mode="normal" in2="BackgroundImageFix" result="effect1_dropShadow_367_4517"/>
<feBlend mode="normal" in="SourceGraphic" in2="effect1_dropShadow_367_4517" result="shape"/>
</filter>
<filter id="filter7_d_367_4517" x="329.415" y="427.953" width="26.3513" height="34.2739" filterUnits="userSpaceOnUse" color-interpolation-filters="sRGB">
<feFlood flood-opacity="0" result="BackgroundImageFix"/>
<feColorMatrix in="SourceAlpha" type="matrix" values="0 0 0 0 0 0 0 0 0 0 0 0 0 0 0 0 0 0 127 0" result="hardAlpha"/>
<feOffset dy="6.02398"/>
<feGaussianBlur stdDeviation="1.2048"/>
<feComposite in2="hardAlpha" operator="out"/>
<feColorMatrix type="matrix" values="0 0 0 0 0 0 0 0 0 0 0 0 0 0 0 0 0 0 0.5 0"/>
<feBlend mode="normal" in2="BackgroundImageFix" result="effect1_dropShadow_367_4517"/>
<feBlend mode="normal" in="SourceGraphic" in2="effect1_dropShadow_367_4517" result="shape"/>
</filter>
<filter id="filter8_d_367_4517" x="259.629" y="416.96" width="31.2193" height="29.5091" filterUnits="userSpaceOnUse" color-interpolation-filters="sRGB">
<feFlood flood-opacity="0" result="BackgroundImageFix"/>
<feColorMatrix in="SourceAlpha" type="matrix" values="0 0 0 0 0 0 0 0 0 0 0 0 0 0 0 0 0 0 127 0" result="hardAlpha"/>
<feOffset dy="6.02398"/>
<feGaussianBlur stdDeviation="1.2048"/>
<feComposite in2="hardAlpha" operator="out"/>
<feColorMatrix type="matrix" values="0 0 0 0 0 0 0 0 0 0 0 0 0 0 0 0 0 0 0.5 0"/>
<feBlend mode="normal" in2="BackgroundImageFix" result="effect1_dropShadow_367_4517"/>
<feBlend mode="normal" in="SourceGraphic" in2="effect1_dropShadow_367_4517" result="shape"/>
</filter>
<filter id="filter9_d_367_4517" x="273.167" y="348.137" width="26.3513" height="34.2739" filterUnits="userSpaceOnUse" color-interpolation-filters="sRGB">
<feFlood flood-opacity="0" result="BackgroundImageFix"/>
<feColorMatrix in="SourceAlpha" type="matrix" values="0 0 0 0 0 0 0 0 0 0 0 0 0 0 0 0 0 0 127 0" result="hardAlpha"/>
<feOffset dy="6.02398"/>
<feGaussianBlur stdDeviation="1.2048"/>
<feComposite in2="hardAlpha" operator="out"/>
<feColorMatrix type="matrix" values="0 0 0 0 0 0 0 0 0 0 0 0 0 0 0 0 0 0 0.5 0"/>
<feBlend mode="normal" in2="BackgroundImageFix" result="effect1_dropShadow_367_4517"/>
<feBlend mode="normal" in="SourceGraphic" in2="effect1_dropShadow_367_4517" result="shape"/>
</filter>
<filter id="filter10_d_367_4517" x="345.389" y="407.204" width="32.8143" height="24.8772" filterUnits="userSpaceOnUse" color-interpolation-filters="sRGB">
<feFlood flood-opacity="0" result="BackgroundImageFix"/>
<feColorMatrix in="SourceAlpha" type="matrix" values="0 0 0 0 0 0 0 0 0 0 0 0 0 0 0 0 0 0 127 0" result="hardAlpha"/>
<feOffset dy="6.02398"/>
<feGaussianBlur stdDeviation="1.2048"/>
<feComposite in2="hardAlpha" operator="out"/>
<feColorMatrix type="matrix" values="0 0 0 0 0 0 0 0 0 0 0 0 0 0 0 0 0 0 0.5 0"/>
<feBlend mode="normal" in2="BackgroundImageFix" result="effect1_dropShadow_367_4517"/>
<feBlend mode="normal" in="SourceGraphic" in2="effect1_dropShadow_367_4517" result="shape"/>
</filter>
<filter id="filter11_d_367_4517" x="290.635" y="432.946" width="21.6519" height="35.4369" filterUnits="userSpaceOnUse" color-interpolation-filters="sRGB">
<feFlood flood-opacity="0" result="BackgroundImageFix"/>
<feColorMatrix in="SourceAlpha" type="matrix" values="0 0 0 0 0 0 0 0 0 0 0 0 0 0 0 0 0 0 127 0" result="hardAlpha"/>
<feOffset dy="6.02398"/>
<feGaussianBlur stdDeviation="1.2048"/>
<feComposite in2="hardAlpha" operator="out"/>
<feColorMatrix type="matrix" values="0 0 0 0 0 0 0 0 0 0 0 0 0 0 0 0 0 0 0.5 0"/>
<feBlend mode="normal" in2="BackgroundImageFix" result="effect1_dropShadow_367_4517"/>
<feBlend mode="normal" in="SourceGraphic" in2="effect1_dropShadow_367_4517" result="shape"/>
</filter>
<filter id="filter12_d_367_4517" x="251.728" y="376.743" width="32.8143" height="24.8772" filterUnits="userSpaceOnUse" color-interpolation-filters="sRGB">
<feFlood flood-opacity="0" result="BackgroundImageFix"/>
<feColorMatrix in="SourceAlpha" type="matrix" values="0 0 0 0 0 0 0 0 0 0 0 0 0 0 0 0 0 0 127 0" result="hardAlpha"/>
<feOffset dy="6.02398"/>
<feGaussianBlur stdDeviation="1.2048"/>
<feComposite in2="hardAlpha" operator="out"/>
<feColorMatrix type="matrix" values="0 0 0 0 0 0 0 0 0 0 0 0 0 0 0 0 0 0 0.5 0"/>
<feBlend mode="normal" in2="BackgroundImageFix" result="effect1_dropShadow_367_4517"/>
<feBlend mode="normal" in="SourceGraphic" in2="effect1_dropShadow_367_4517" result="shape"/>
</filter>
<filter id="filter13_d_367_4517" x="347.73" y="177.13" width="74.9952" height="126.92" filterUnits="userSpaceOnUse" color-interpolation-filters="sRGB">
<feFlood flood-opacity="0" result="BackgroundImageFix"/>
<feColorMatrix in="SourceAlpha" type="matrix" values="0 0 0 0 0 0 0 0 0 0 0 0 0 0 0 0 0 0 127 0" result="hardAlpha"/>
<feOffset dy="6.02398"/>
<feGaussianBlur stdDeviation="1.2048"/>
<feComposite in2="hardAlpha" operator="out"/>
<feColorMatrix type="matrix" values="0 0 0 0 0 0 0 0 0 0 0 0 0 0 0 0 0 0 0.5 0"/>
<feBlend mode="normal" in2="BackgroundImageFix" result="effect1_dropShadow_367_4517"/>
<feBlend mode="normal" in="SourceGraphic" in2="effect1_dropShadow_367_4517" result="shape"/>
</filter>
<filter id="filter14_d_367_4517" x="329.873" y="266.675" width="62.3869" height="64.7806" filterUnits="userSpaceOnUse" color-interpolation-filters="sRGB">
<feFlood flood-opacity="0" result="BackgroundImageFix"/>
<feColorMatrix in="SourceAlpha" type="matrix" values="0 0 0 0 0 0 0 0 0 0 0 0 0 0 0 0 0 0 127 0" result="hardAlpha"/>
<feOffset dy="6.02398"/>
<feGaussianBlur stdDeviation="1.2048"/>
<feComposite in2="hardAlpha" operator="out"/>
<feColorMatrix type="matrix" values="0 0 0 0 0 0 0 0 0 0 0 0 0 0 0 0 0 0 0.5 0"/>
<feBlend mode="normal" in2="BackgroundImageFix" result="effect1_dropShadow_367_4517"/>
<feBlend mode="normal" in="SourceGraphic" in2="effect1_dropShadow_367_4517" result="shape"/>
</filter>
<filter id="filter15_d_367_4517" x="302.819" y="239.272" width="26.4624" height="33.9366" filterUnits="userSpaceOnUse" color-interpolation-filters="sRGB">
<feFlood flood-opacity="0" result="BackgroundImageFix"/>
<feColorMatrix in="SourceAlpha" type="matrix" values="0 0 0 0 0 0 0 0 0 0 0 0 0 0 0 0 0 0 127 0" result="hardAlpha"/>
<feOffset dy="6.02398"/>
<feGaussianBlur stdDeviation="1.2048"/>
<feComposite in2="hardAlpha" operator="out"/>
<feColorMatrix type="matrix" values="0 0 0 0 0 0 0 0 0 0 0 0 0 0 0 0 0 0 0.5 0"/>
<feBlend mode="normal" in2="BackgroundImageFix" result="effect1_dropShadow_367_4517"/>
<feBlend mode="normal" in="SourceGraphic" in2="effect1_dropShadow_367_4517" result="shape"/>
</filter>
<filter id="filter16_d_367_4517" x="407.472" y="280.507" width="26.0041" height="33.8766" filterUnits="userSpaceOnUse" color-interpolation-filters="sRGB">
<feFlood flood-opacity="0" result="BackgroundImageFix"/>
<feColorMatrix in="SourceAlpha" type="matrix" values="0 0 0 0 0 0 0 0 0 0 0 0 0 0 0 0 0 0 127 0" result="hardAlpha"/>
<feOffset dy="6.02398"/>
<feGaussianBlur stdDeviation="1.2048"/>
<feComposite in2="hardAlpha" operator="out"/>
<feColorMatrix type="matrix" values="0 0 0 0 0 0 0 0 0 0 0 0 0 0 0 0 0 0 0.5 0"/>
<feBlend mode="normal" in2="BackgroundImageFix" result="effect1_dropShadow_367_4517"/>
<feBlend mode="normal" in="SourceGraphic" in2="effect1_dropShadow_367_4517" result="shape"/>
</filter>
<filter id="filter17_d_367_4517" x="308.213" y="218.8" width="27.1674" height="16.4597" filterUnits="userSpaceOnUse" color-interpolation-filters="sRGB">
<feFlood flood-opacity="0" result="BackgroundImageFix"/>
<feColorMatrix in="SourceAlpha" type="matrix" values="0 0 0 0 0 0 0 0 0 0 0 0 0 0 0 0 0 0 127 0" result="hardAlpha"/>
<feOffset dy="6.02398"/>
<feGaussianBlur stdDeviation="1.2048"/>
<feComposite in2="hardAlpha" operator="out"/>
<feColorMatrix type="matrix" values="0 0 0 0 0 0 0 0 0 0 0 0 0 0 0 0 0 0 0.5 0"/>
<feBlend mode="normal" in2="BackgroundImageFix" result="effect1_dropShadow_367_4517"/>
<feBlend mode="normal" in="SourceGraphic" in2="effect1_dropShadow_367_4517" result="shape"/>
</filter>
<filter id="filter18_d_367_4517" x="420.427" y="260.767" width="25.018" height="20.7695" filterUnits="userSpaceOnUse" color-interpolation-filters="sRGB">
<feFlood flood-opacity="0" result="BackgroundImageFix"/>
<feColorMatrix in="SourceAlpha" type="matrix" values="0 0 0 0 0 0 0 0 0 0 0 0 0 0 0 0 0 0 127 0" result="hardAlpha"/>
<feOffset dy="6.02398"/>
<feGaussianBlur stdDeviation="1.2048"/>
<feComposite in2="hardAlpha" operator="out"/>
<feColorMatrix type="matrix" values="0 0 0 0 0 0 0 0 0 0 0 0 0 0 0 0 0 0 0.5 0"/>
<feBlend mode="normal" in2="BackgroundImageFix" result="effect1_dropShadow_367_4517"/>
<feBlend mode="normal" in="SourceGraphic" in2="effect1_dropShadow_367_4517" result="shape"/>
</filter>
<filter id="filter19_d_367_4517" x="460.796" y="206.376" width="127.028" height="341.788" filterUnits="userSpaceOnUse" color-interpolation-filters="sRGB">
<feFlood flood-opacity="0" result="BackgroundImageFix"/>
<feColorMatrix in="SourceAlpha" type="matrix" values="0 0 0 0 0 0 0 0 0 0 0 0 0 0 0 0 0 0 127 0" result="hardAlpha"/>
<feOffset dy="6.02398"/>
<feGaussianBlur stdDeviation="1.2048"/>
<feComposite in2="hardAlpha" operator="out"/>
<feColorMatrix type="matrix" values="0 0 0 0 0 0 0 0 0 0 0 0 0 0 0 0 0 0 0.5 0"/>
<feBlend mode="normal" in2="BackgroundImageFix" result="effect1_dropShadow_367_4517"/>
<feBlend mode="normal" in="SourceGraphic" in2="effect1_dropShadow_367_4517" result="shape"/>
</filter>
<filter id="filter20_d_367_4517" x="121.483" y="53.5585" width="202.976" height="240.73" filterUnits="userSpaceOnUse" color-interpolation-filters="sRGB">
<feFlood flood-opacity="0" result="BackgroundImageFix"/>
<feColorMatrix in="SourceAlpha" type="matrix" values="0 0 0 0 0 0 0 0 0 0 0 0 0 0 0 0 0 0 127 0" result="hardAlpha"/>
<feOffset dy="6.02398"/>
<feGaussianBlur stdDeviation="1.2048"/>
<feComposite in2="hardAlpha" operator="out"/>
<feColorMatrix type="matrix" values="0 0 0 0 0 0 0 0 0 0 0 0 0 0 0 0 0 0 0.5 0"/>
<feBlend mode="normal" in2="BackgroundImageFix" result="effect1_dropShadow_367_4517"/>
<feBlend mode="normal" in="SourceGraphic" in2="effect1_dropShadow_367_4517" result="shape"/>
</filter>
<filter id="filter21_d_367_4517" x="92.2998" y="53.1842" width="423.565" height="218.269" filterUnits="userSpaceOnUse" color-interpolation-filters="sRGB">
<feFlood flood-opacity="0" result="BackgroundImageFix"/>
<feColorMatrix in="SourceAlpha" type="matrix" values="0 0 0 0 0 0 0 0 0 0 0 0 0 0 0 0 0 0 127 0" result="hardAlpha"/>
<feOffset dy="6.02398"/>
<feGaussianBlur stdDeviation="1.2048"/>
<feComposite in2="hardAlpha" operator="out"/>
<feColorMatrix type="matrix" values="0 0 0 0 0 0 0 0 0 0 0 0 0 0 0 0 0 0 0.5 0"/>
<feBlend mode="normal" in2="BackgroundImageFix" result="effect1_dropShadow_367_4517"/>
<feBlend mode="normal" in="SourceGraphic" in2="effect1_dropShadow_367_4517" result="shape"/>
</filter>
<filter id="filter22_d_367_4517" x="468.743" y="127.622" width="141.639" height="441.966" filterUnits="userSpaceOnUse" color-interpolation-filters="sRGB">
<feFlood flood-opacity="0" result="BackgroundImageFix"/>
<feColorMatrix in="SourceAlpha" type="matrix" values="0 0 0 0 0 0 0 0 0 0 0 0 0 0 0 0 0 0 127 0" result="hardAlpha"/>
<feOffset dy="6.02398"/>
<feGaussianBlur stdDeviation="1.2048"/>
<feComposite in2="hardAlpha" operator="out"/>
<feColorMatrix type="matrix" values="0 0 0 0 0 0 0 0 0 0 0 0 0 0 0 0 0 0 0.5 0"/>
<feBlend mode="normal" in2="BackgroundImageFix" result="effect1_dropShadow_367_4517"/>
<feBlend mode="normal" in="SourceGraphic" in2="effect1_dropShadow_367_4517" result="shape"/>
</filter>
</defs>
</svg>
