<svg xmlns="http://www.w3.org/2000/svg" id="Layer_1" data-name="Layer 1" version="1.1" viewBox="395.17 412.77 1123.65 252.47"><path fill="#fcfcf9" stroke-width="0" d="M612.1,488.4h-29.8v-75.6l-72.6,67.7v-67.7h-12.1v67.7l-72.6-67.7v75.6h-29.8v108.9h29.7v67.9l72.7-64.7v64.7h12.1v-64.7l72.7,64.7v-67.9h29.7v-108.9ZM570.2,440.6v47.7h-51.2l51.2-47.7ZM437.1,440.6l51.2,47.7h-51.2v-47.7ZM407.3,585.2v-84.7h80.8l-63.2,58.1v26.6h-17.6,0ZM437,563.9l60.6-55.7v76.1l-60.6,53.9v-74.4h0ZM570.3,638.2l-60.6-53.9v-76.1l60.6,55.7v74.4h0ZM600,585.2h-17.6v-26.6l-63.2-58.1h80.8v84.7Z"/><path fill="#fcfcf9" stroke-width="0" d="M948.5,488.8h8.6v17.7h-11.1c-8.7,0-15.2,2.1-19.5,6.3-4.3,4.2-6.4,11.1-6.4,20.6v58h-17.5v-102.2h17.5v16.3c0,.9.5,1.4,1.4,1.4s.9-.1,1.2-.4c.3-.3.5-.8.8-1.6,3.4-10.7,11.8-16.1,25.2-16.1h0ZM1063.1,510.7c4.6,8.2,6.9,18.1,6.9,29.6s-2.3,21.4-6.9,29.6c-4.6,8.2-10.6,14.3-17.9,18.4-7.3,4.1-15.2,6.1-23.7,6.1-16.6,0-28.3-6.7-35.1-20.1-.5-1-1.2-1.6-2-1.6s-1.2.4-1.2,1.2v54.8h-17.5v-139.5h17.5v17.5c0,.8.4,1.2,1.2,1.2s1.4-.5,2-1.6c6.8-13.4,18.5-20.1,35.1-20.1s16.3,2,23.7,6.1c7.3,4.1,13.3,10.2,17.9,18.4ZM1052.5,540.2c0-12.1-3.2-21.5-9.7-28.2-6.4-6.7-14.9-10.1-25.4-10.1s-19,3.4-25.4,10.1c-6.4,6.8-8.8,16.2-8.8,28.2s2.4,21.5,8.8,28.2c6.4,6.8,14.9,10.1,25.4,10.1s19-3.4,25.4-10.1c6.4-6.7,9.7-16.2,9.7-28.2ZM773.2,510.8c4.6,8.2,6.9,18.1,6.9,29.6s-2.3,21.4-6.9,29.6-10.6,14.3-17.9,18.4c-7.3,4.1-15.2,6.1-23.7,6.1-16.6,0-28.3-6.7-35.1-20.1-.5-1-1.2-1.6-2-1.6s-1.2.4-1.2,1.2v54.8h-17.5v-139.5h17.5v17.5c0,.8.4,1.2,1.2,1.2s1.4-.5,2-1.6c6.8-13.4,18.5-20.1,35.1-20.1s16.3,2,23.7,6.1c7.3,4.1,13.3,10.2,17.9,18.4h0ZM762.6,540.4c0-12.1-3.2-21.5-9.6-28.2-6.4-6.7-14.9-10.1-25.4-10.1s-19,3.4-25.4,10.1c-6.4,6.8-8.8,16.2-8.8,28.2s2.4,21.5,8.8,28.2c6.4,6.8,14.9,10.1,25.4,10.1s19-3.4,25.4-10.1c6.4-6.7,9.6-16.2,9.6-28.2ZM870.2,558.9h18.5c-2.5,9.6-7.5,17.9-15.1,24.9-7.6,7-18.5,10.5-32.7,10.5s-20-2.2-28.2-6.6c-8.1-4.4-14.4-10.6-18.8-18.8-4.4-8.1-6.6-17.7-6.6-28.7s2.2-20.6,6.4-28.7c4.3-8.1,10.3-14.4,18-18.8,7.7-4.4,16.8-6.6,27.2-6.6s19,2.2,26.2,6.5c7.2,4.3,12.6,10.1,16.2,17.2,3.6,7.1,5.4,15,5.4,23.5v11.8h-80.9c.6,10.2,4.1,18.3,10.2,24.4,6.2,6,14.5,9,24.9,9s14.9-1.7,19.4-5.2c4.5-3.5,7.8-8.3,9.8-14.5ZM806,530.4h61.2c0-8.9-2.3-15.9-6.8-20.9-4.5-5-11.7-7.6-21.4-7.6s-16.5,2.5-22.3,7.4c-5.8,4.9-9.3,12-10.6,21.1h0ZM1083.9,591.3h17.5v-141.5h-17.5v141.5h0ZM1327.4,478h20.5v-22.1h-20.5v22.1ZM1399.6,576.1c-3.2.3-5.1.5-5.8.5s-1.6-.3-2.2-.8c-.5-.5-.8-1.2-.8-2.2s.2-2.6.5-5.8c.3-3.2.5-8.2.5-14.8v-48.9h25l-4.9-15h-20.1v-27.5h-17.5v27.5h-19.1v15h19.1v53.8c0,11.3,2.7,19.7,8.2,25.2,5.5,5.5,13.8,8.3,25,8.3h13.6v-15.7h-6.8c-6.6,0-11.5.2-14.7.5h0ZM1502.3,489.1l-29.1,85.7c-.4,1.1-1,2.4-3,2.4s-2.6-1.4-3-2.4l-29.1-85.7h-17.9l33.6,102.2h11.9c.8,0,1.4,0,1.8.2.4.1.7.5,1,1,.5.8.5,2-.2,3.5l-5.5,14.9c-.8,2-2.3,3-4.5,3s-2.6-.2-5.5-.5c-2.9-.3-6.6-.5-11.1-.5h-14.2v15.7h18.7c10.9,0,17.5-1.9,23.1-5.6,5.7-3.7,10-10.3,13.2-19.8l36.3-110.3v-3.9h-16.7ZM1270,527.3l-27.5-38.1h-19.3v3.9l32.9,44.2-40.2,50.1v3.9h19.7l32-41.1,29.8,41.1h18.9v-3.9l-34.9-47.2,37.8-47v-4.1h-19.7l-29.6,38.1h0ZM1329.2,591.3h17.5v-102.2h-17.5v102.2h0ZM1216.8,558.9c-2.5,9.6-7.5,17.9-15.1,24.9-7.6,7-18.5,10.5-32.7,10.5s-20-2.2-28.2-6.6c-8.1-4.4-14.4-10.6-18.8-18.8-4.4-8.1-6.6-17.7-6.6-28.7s2.2-20.6,6.4-28.7c4.3-8.1,10.3-14.4,18-18.8,7.7-4.4,16.8-6.6,27.2-6.6s19,2.2,26.2,6.5c7.2,4.3,12.6,10.1,16.2,17.2,3.6,7.1,5.4,15,5.4,23.5v11.8h-80.9c.6,10.2,4.1,18.3,10.2,24.4,6.2,6,14.5,9,24.9,9s14.9-1.7,19.4-5.2c4.5-3.5,7.8-8.3,9.8-14.5h18.5ZM1134.2,530.4h61.2c0-8.9-2.3-15.9-6.8-20.9-4.5-5-11.7-7.6-21.4-7.6s-16.5,2.5-22.3,7.4c-5.8,4.9-9.3,12-10.6,21.1h0Z"/><metadata/></svg>