<svg width="540" height="116" viewBox="0 0 540 116" fill="none" xmlns="http://www.w3.org/2000/svg">
<path d="M81.4709 41.2786H38.5228C37.4968 41.2786 36.665 42.1094 36.665 43.1342V45.7473C36.665 46.7722 37.4968 47.603 38.5228 47.603H81.4709C82.4969 47.603 83.3286 46.7722 83.3286 45.7473V43.1342C83.3286 42.1094 82.4969 41.2786 81.4709 41.2786Z" fill="white"/>
<path d="M28.5746 41.2786H6.69658C5.67059 41.2786 4.83887 42.1094 4.83887 43.1342V45.7473C4.83887 46.7722 5.67059 47.603 6.69658 47.603H28.5746C29.6006 47.603 30.4323 46.7722 30.4323 45.7473V43.1342C30.4323 42.1094 29.6006 41.2786 28.5746 41.2786Z" fill="white"/>
<path d="M122.301 41.2786H96.7972C95.7712 41.2786 94.9395 42.1094 94.9395 43.1342V45.7473C94.9395 46.7722 95.7712 47.603 96.7972 47.603H122.301C123.327 47.603 124.158 46.7722 124.158 45.7473V43.1342C124.158 42.1094 123.327 41.2786 122.301 41.2786Z" fill="white"/>
<path d="M122.301 32.2161H100.985C99.9587 32.2161 99.127 33.0469 99.127 34.0717V36.6848C99.127 37.7097 99.9587 38.5405 100.985 38.5405H122.301C123.327 38.5405 124.159 37.7097 124.159 36.6848V34.0717C124.159 33.0469 123.327 32.2161 122.301 32.2161Z" fill="white"/>
<path d="M145.438 32.2161H129.303C128.277 32.2161 127.445 33.0469 127.445 34.0717V36.6848C127.445 37.7097 128.277 38.5405 129.303 38.5405H145.438C146.464 38.5405 147.295 37.7097 147.295 36.6848V34.0717C147.295 33.0469 146.464 32.2161 145.438 32.2161Z" fill="white"/>
<path d="M139.732 22.9556H120.852C119.826 22.9556 118.994 23.7864 118.994 24.8112V27.4243C118.994 28.4492 119.826 29.28 120.852 29.28H139.732C140.758 29.28 141.59 28.4492 141.59 27.4243V24.8112C141.59 23.7864 140.758 22.9556 139.732 22.9556Z" fill="white"/>
<path d="M130.942 13.8959H128.009C126.983 13.8959 126.151 14.7267 126.151 15.7515V18.3646C126.151 19.3895 126.983 20.2203 128.009 20.2203H130.942C131.968 20.2203 132.8 19.3895 132.8 18.3646V15.7515C132.8 14.7267 131.968 13.8959 130.942 13.8959Z" fill="white"/>
<path d="M68.407 86.5881H60.6155C59.5895 86.5881 58.7578 87.4189 58.7578 88.4438V91.0569C58.7578 92.0817 59.5895 92.9126 60.6155 92.9126H68.407C69.433 92.9126 70.2647 92.0817 70.2647 91.0569V88.4438C70.2647 87.4189 69.433 86.5881 68.407 86.5881Z" fill="white"/>
<path d="M84.424 86.5881H80.5999C79.5739 86.5881 78.7422 87.4189 78.7422 88.4438V91.0569C78.7422 92.0817 79.5739 92.9126 80.5999 92.9126H84.424C85.45 92.9126 86.2817 92.0817 86.2817 91.0569V88.4438C86.2817 87.4189 85.45 86.5881 84.424 86.5881Z" fill="white"/>
<path d="M108.232 86.5881H91.6155C90.5895 86.5881 89.7578 87.4189 89.7578 88.4438V91.0569C89.7578 92.0817 90.5895 92.9126 91.6155 92.9126H108.232C109.258 92.9126 110.09 92.0817 110.09 91.0569V88.4438C110.09 87.4189 109.258 86.5881 108.232 86.5881Z" fill="white"/>
<path d="M106.522 77.5256H101.798C100.772 77.5256 99.9404 78.3564 99.9404 79.3813V81.9944C99.9404 83.0192 100.772 83.8501 101.798 83.8501H106.522C107.548 83.8501 108.38 83.0192 108.38 81.9944V79.3813C108.38 78.3564 107.548 77.5256 106.522 77.5256Z" fill="white"/>
<path d="M47.693 86.5881H44.7601C43.7341 86.5881 42.9023 87.4189 42.9023 88.4438V91.0569C42.9023 92.0817 43.7341 92.9126 44.7601 92.9126H47.693C48.719 92.9126 49.5507 92.0817 49.5507 91.0569V88.4438C49.5507 87.4189 48.719 86.5881 47.693 86.5881Z" fill="white"/>
<path d="M78.3815 95.6483H75.4485C74.4225 95.6483 73.5908 96.4791 73.5908 97.504V100.117C73.5908 101.142 74.4225 101.973 75.4485 101.973H78.3815C79.4075 101.973 80.2392 101.142 80.2392 100.117V97.504C80.2392 96.4791 79.4075 95.6483 78.3815 95.6483Z" fill="white"/>
<path d="M71.5722 104.711H68.9563C67.9304 104.711 67.0986 105.542 67.0986 106.566V109.18C67.0986 110.204 67.9304 111.035 68.9563 111.035H71.5722C72.5982 111.035 73.4299 110.204 73.4299 109.18V106.566C73.4299 105.542 72.5982 104.711 71.5722 104.711Z" fill="white"/>
<path d="M98.6029 4.83337H94.0784C93.0524 4.83337 92.2207 5.66418 92.2207 6.68902V9.30214C92.2207 10.327 93.0524 11.1578 94.0784 11.1578H98.6029C99.6289 11.1578 100.461 10.327 100.461 9.30214V6.68902C100.461 5.66418 99.6289 4.83337 98.6029 4.83337Z" fill="white"/>
<path d="M64.5691 32.2161H47.2073C46.1813 32.2161 45.3496 33.0469 45.3496 34.0717V36.6848C45.3496 37.7097 46.1813 38.5405 47.2073 38.5405H64.5691C65.5951 38.5405 66.4268 37.7097 66.4268 36.6848V34.0717C66.4268 33.0469 65.5951 32.2161 64.5691 32.2161Z" fill="white"/>
<path d="M95.3761 13.8959H86.2884C85.2624 13.8959 84.4307 14.7267 84.4307 15.7515V18.3646C84.4307 19.3895 85.2624 20.2203 86.2884 20.2203H95.3761C96.4021 20.2203 97.2338 19.3895 97.2338 18.3646V15.7515C97.2338 14.7267 96.4021 13.8959 95.3761 13.8959Z" fill="white"/>
<path d="M95.3761 22.9556H78.431C77.405 22.9556 76.5732 23.7864 76.5732 24.8112V27.4243C76.5732 28.4492 77.405 29.28 78.431 29.28H95.3761C96.402 29.28 97.2338 28.4492 97.2338 27.4243V24.8112C97.2338 23.7864 96.402 22.9556 95.3761 22.9556Z" fill="white"/>
<path d="M151.044 41.2786H142.703C141.677 41.2786 140.846 42.1094 140.846 43.1342V45.7473C140.846 46.7722 141.677 47.603 142.703 47.603H151.044C152.07 47.603 152.902 46.7722 152.902 45.7473V43.1342C152.902 42.1094 152.07 41.2786 151.044 41.2786Z" fill="white"/>
<path d="M84.7532 50.3411H28.9085C27.8825 50.3411 27.0508 51.1719 27.0508 52.1967V54.8098C27.0508 55.8347 27.8825 56.6655 28.9085 56.6655H84.7532C85.7792 56.6655 86.6109 55.8347 86.6109 54.8098V52.1967C86.6109 51.1719 85.7792 50.3411 84.7532 50.3411Z" fill="white"/>
<path d="M102.524 68.4631H82.971C81.945 68.4631 81.1133 69.2939 81.1133 70.3188V72.9319C81.1133 73.9567 81.945 74.7876 82.971 74.7876H102.524C103.55 74.7876 104.382 73.9567 104.382 72.9319V70.3188C104.382 69.2939 103.55 68.4631 102.524 68.4631Z" fill="white"/>
<path d="M110.476 59.4036H38.5228C37.4968 59.4036 36.665 60.2344 36.665 61.2592V63.8723C36.665 64.8972 37.4968 65.728 38.5228 65.728H110.476C111.502 65.728 112.333 64.8972 112.333 63.8723V61.2592C112.333 60.2344 111.502 59.4036 110.476 59.4036Z" fill="white"/>
<path d="M51.3639 68.4631H26.9476C25.9216 68.4631 25.0898 69.2939 25.0898 70.3188V72.9319C25.0898 73.9567 25.9216 74.7876 26.9476 74.7876H51.3639C52.3898 74.7876 53.2216 73.9567 53.2216 72.9319V70.3188C53.2216 69.2939 52.3898 68.4631 51.3639 68.4631Z" fill="white"/>
<path d="M58.1396 77.5256H52.6272C51.6013 77.5256 50.7695 78.3564 50.7695 79.3813V81.9944C50.7695 83.0192 51.6013 83.8501 52.6272 83.8501H58.1396C59.1656 83.8501 59.9973 83.0192 59.9973 81.9944V79.3813C59.9973 78.3564 59.1656 77.5256 58.1396 77.5256Z" fill="white"/>
<path d="M91.406 77.5256H85.1868C84.1608 77.5256 83.3291 78.3564 83.3291 79.3813V81.9944C83.3291 83.0192 84.1608 83.8501 85.1868 83.8501H91.406C92.432 83.8501 93.2637 83.0192 93.2637 81.9944V79.3813C93.2637 78.3564 92.432 77.5256 91.406 77.5256Z" fill="white"/>
<path d="M41.2035 77.5256H35.5921C34.5661 77.5256 33.7344 78.3564 33.7344 79.3813V81.9944C33.7344 83.0192 34.5661 83.8501 35.5921 83.8501H41.2035C42.2295 83.8501 43.0612 83.0192 43.0612 81.9944V79.3813C43.0612 78.3564 42.2295 77.5256 41.2035 77.5256Z" fill="white"/>
<path d="M117.137 50.3411H96.7972C95.7712 50.3411 94.9395 51.1719 94.9395 52.1967V54.8098C94.9395 55.8347 95.7712 56.6655 96.7972 56.6655H117.137C118.163 56.6655 118.994 55.8347 118.994 54.8098V52.1967C118.994 51.1719 118.163 50.3411 117.137 50.3411Z" fill="white"/>
<path d="M519.9 84.764C508.253 84.764 504.987 78.5668 505.055 73.4023C505.069 72.1114 505.892 71.4656 507.203 71.4656H509.531C510.871 71.4656 511.452 72.1761 511.582 73.5154C511.921 76.7108 514.021 78.6799 519.822 78.6799C525.764 78.6799 528.416 76.5658 528.416 73.3057C528.416 70.4327 526.785 69.3839 522.731 68.6898L515.748 67.4955C509.903 66.495 506.022 63.2026 506.022 57.2957C506.022 50.647 510.968 45.7731 520.113 45.7731C529.577 45.7731 534.508 50.7277 534.426 56.505C534.411 57.78 533.555 58.4258 532.263 58.4258H529.902C528.561 58.4258 528.077 57.7158 527.884 56.4083C527.545 54.0038 525.571 51.8089 520.113 51.8089C514.684 51.8089 512.55 54.1004 512.55 57.07C512.55 59.636 514.035 60.7656 517.752 61.4273L524.734 62.654C530.777 63.7192 534.977 66.6724 534.977 72.9988C534.977 78.9056 531.406 84.764 519.9 84.764Z" fill="white"/>
<path d="M472.902 81.7945C472.902 83.1338 472.171 83.8602 470.831 83.8602H468.392C467.052 83.8602 466.326 83.1338 466.326 81.7945V34.2818C466.326 32.9425 467.052 32.2161 468.392 32.2161H470.85C472.191 32.2161 472.916 32.9425 472.916 34.2818V51.3082C475.099 47.9031 479.008 45.7726 484.017 45.7726C493.583 45.7726 500.836 53.3416 500.836 65.2683C500.836 77.1951 493.583 84.7641 484.017 84.7641C478.989 84.7641 475.079 82.6335 472.902 79.212V81.7945ZM494.178 65.2683C494.178 56.6664 489.252 51.9056 483.387 51.9056C477.523 51.9056 472.529 56.6664 472.529 65.2683C472.529 73.8702 477.523 78.631 483.387 78.631C489.252 78.631 494.178 73.8702 494.178 65.2683Z" fill="white"/>
<path d="M443.816 45.7731C453.833 45.7731 458.371 50.5175 458.357 58.1836L458.323 72.3371C458.323 75.0486 458.42 78.938 458.778 81.6494C458.957 83.0535 458.357 83.8602 456.934 83.8602H454.737C453.46 83.8602 452.734 83.3764 452.604 82.3919L452.236 79.5996C450.262 82.8438 446.4 84.506 441.668 84.506C433.12 84.506 427.854 79.4706 427.854 72.6116C427.854 66.6081 432.086 62.9121 439.292 62.3959L449.812 61.6535C451.718 61.5244 451.795 61.3466 451.795 59.5718V58.0062C451.795 53.8747 449.294 51.7765 443.816 51.7765C438.47 51.7765 436.093 53.8264 435.867 56.6988C435.77 58.0546 435.302 58.7805 433.929 58.7805H431.408C430.099 58.7805 429.275 58.1189 429.259 56.8279C429.211 50.792 433.654 45.7731 443.816 45.7731ZM434.51 72.6764C434.51 76.2912 437.468 78.8896 442.51 78.8896C448.404 78.8896 451.795 75.3391 451.795 70.0132V66.511C451.021 66.7855 450.102 66.9793 449.052 67.076L439.844 67.9474C436.481 68.2703 434.51 69.5613 434.51 72.6764Z" fill="white"/>
<path d="M396.251 83.8602C394.909 83.8602 394.183 83.1338 394.183 81.7945V34.2818C394.183 32.9425 394.909 32.2161 396.251 32.2161H398.836C400.177 32.2161 400.904 32.9425 400.904 34.2818V77.5015H424.105C425.446 77.5015 426.173 78.2279 426.173 79.5673V81.7945C426.173 83.1338 425.446 83.8602 424.105 83.8602H396.251Z" fill="white"/>
<path d="M371.518 84.764C360.725 84.764 353.503 77.0819 353.503 65.0266C353.503 53.0999 360.612 45.7731 370.904 45.7731C381.325 45.7731 387.804 53.2614 387.804 63.8966V64.6874C387.804 66.0272 387.077 66.7531 385.736 66.7531H360.16C360.725 74.1612 364.991 78.6475 371.518 78.6475C376.058 78.6475 378.821 76.8722 379.935 73.7735C380.355 72.5956 380.969 71.9823 382.213 71.9823H384.589C385.978 71.9823 386.802 72.7571 386.56 74.1288C385.477 80.4227 379.596 84.764 371.518 84.764ZM360.418 61.1856H381.099C380.339 55.214 376.656 51.5504 370.904 51.5504C365.33 51.5504 361.517 55.1333 360.418 61.1856Z" fill="white"/>
<path d="M332.591 83.8603C331.396 83.8603 330.652 83.3436 330.216 82.23L318.034 50.0656C317.646 49.0651 317.63 48.3711 317.986 47.6611C318.325 46.9829 319.003 46.6765 320.166 46.6765H321.976C323.172 46.6765 323.931 47.1927 324.352 48.3227L334.255 74.9191L334.805 76.6301L335.354 74.9191L345.258 48.3227C345.678 47.1927 346.437 46.6765 347.633 46.6765H349.443C350.606 46.6765 351.284 46.9829 351.624 47.6611C351.979 48.3711 351.963 49.0651 351.576 50.0656L339.393 82.23C338.957 83.3436 338.214 83.8603 337.018 83.8603H332.591Z" fill="white"/>
<path d="M306.64 34.2818C306.64 32.9425 307.367 32.2161 308.708 32.2161H311.164C312.505 32.2161 313.232 32.9425 313.232 34.2818V81.7945C313.232 83.1338 312.505 83.8602 311.164 83.8602H308.708C307.367 83.8602 306.64 83.1338 306.64 81.7945V34.2818Z" fill="white"/>
<path d="M284.408 84.764C273.616 84.764 266.394 77.0819 266.394 65.0266C266.394 53.0999 273.503 45.7731 283.795 45.7731C294.215 45.7731 300.694 53.2614 300.694 63.8966V64.6874C300.694 66.0272 299.967 66.7531 298.626 66.7531H273.05C273.616 74.1612 277.881 78.6475 284.408 78.6475C288.948 78.6475 291.711 76.8722 292.826 73.7735C293.246 72.5956 293.86 71.9823 295.104 71.9823H297.479C298.869 71.9823 299.693 72.7571 299.45 74.1288C298.368 80.4227 292.487 84.764 284.408 84.764ZM273.309 61.1856H293.989C293.23 55.214 289.546 51.5504 283.795 51.5504C278.22 51.5504 274.407 55.1333 273.309 61.1856Z" fill="white"/>
<path d="M221.88 83.8603C220.668 83.8603 219.909 83.3112 219.553 82.1493L209.601 50.0173C209.278 49.0004 209.294 48.3227 209.633 47.6287C209.972 46.967 210.635 46.6765 211.798 46.6765H213.64C214.868 46.6765 215.611 47.2251 215.966 48.4035L224.045 75.0806L224.19 75.7263L224.336 75.0482L232.64 48.387C232.996 47.2251 233.755 46.6765 234.967 46.6765H238.715C239.927 46.6765 240.686 47.2251 241.041 48.387L249.346 75.0482L249.508 75.7746L249.669 75.0646L257.748 48.4035C258.103 47.2251 258.846 46.6765 260.074 46.6765H261.884C263.047 46.6765 263.709 46.967 264.049 47.6287C264.388 48.3227 264.404 49.0004 264.081 50.0173L254.129 82.1493C253.773 83.3112 253.014 83.8603 251.802 83.8603H247.65C246.438 83.8603 245.678 83.3112 245.323 82.1493L237.035 55.4882L236.825 54.6491L236.615 55.4882L228.342 82.1493C227.971 83.3112 227.211 83.8603 226 83.8603H221.88Z" fill="white"/>
<path d="M181.099 38.5424C179.759 38.5424 179.031 37.8164 179.031 36.4766V34.2818C179.031 32.9425 179.759 32.2161 181.099 32.2161H216.434C217.775 32.2161 218.502 32.9425 218.502 34.2818V36.4766C218.502 37.8164 217.775 38.5424 216.434 38.5424H202.136V81.7945C202.136 83.1338 201.408 83.8602 200.068 83.8602H197.482C196.141 83.8602 195.414 83.1338 195.414 81.7945V38.5424H181.099Z" fill="white"/>
</svg>
