<?xml version="1.0" encoding="UTF-8"?>
<svg id="Layer_1" data-name="Layer 1" xmlns="http://www.w3.org/2000/svg" viewBox="0 0 443 105">
  <defs>
    <style>
      .cls-1 {
        fill: #fff;
      }
    </style>
  </defs>
  <g>
    <g>
      <path class="cls-1" d="m32.26,26.35c0,7.67-1.12,13.49-12.77,13.49s-13.38-5.6-13.38-13.49V7.7c0-4.2-1.79-4.59-4.87-4.59v-1.12h14.72v1.12c-3.02,0-4.87.39-4.87,4.59v18.64c0,5.71,1.35,11.3,8.62,11.3,8.07,0,9.35-4.64,9.35-11.3V7.7c0-4.2-1.84-4.59-4.87-4.59v-1.12h12.93v1.12c-3.08,0-4.87.39-4.87,4.59v18.64Z"/>
      <path class="cls-1" d="m63.22,38.32c-2.74,1.01-5.88,1.51-10.02,1.51-11.19,0-16.57-8.51-16.57-20.43,0-10.36,3.35-17.97,15.34-17.97,4.48,0,8.29.9,10.75,1.56l.5,8.79h-1.4c-.73-3.14-2.96-8.18-9.91-8.18-9.01,0-9.74,9.57-9.74,15.34,0,7.22,1.57,18.36,13.83,18.36,3.75,0,5.77-.84,7.22-1.4v2.41Z"/>
      <path class="cls-1" d="m93.29,10.05c-.51-2.96-2.75-6.44-8.74-6.44-3.75,0-7.06,2.41-7.06,6.1,0,4.98,6.67,6.61,11.54,9.46,4.42,2.58,7.38,4.87,7.38,10.19,0,7.11-6.16,10.47-13.83,10.47-3.81,0-8.22-.84-9.63-1.07l-.39-7.89h1.4c.45,2.97,3.08,6.44,9.07,6.44,4.93,0,8.12-3.19,8.12-7.05,0-6.04-9.29-7.89-14.5-11.87-2.46-1.9-3.64-3.92-3.64-7.5,0-6.72,5.54-9.46,12.59-9.46,3.76,0,6.16.45,8.68.95l.39,7.67h-1.4Z"/>
      <path class="cls-1" d="m119.3,39.33c-.6.15-1.84.45-3.63.45-2.89,0-3.74-1.49-3.74-3.63h-.1c-1.53,2.24-3.68,3.63-7.07,3.63s-5.97-2.39-5.97-5.63c0-7.22,9.36-7.22,13.15-7.57v-1.89c0-3.49-.05-7.17-4.23-7.17-3.09,0-3.49,1.3-3.49,2.89,0,2.04-1.49,2.59-2.34,2.59-1.35,0-2.39-.9-2.39-2.24,0-3.24,4.83-4.88,8.27-4.88,6.82,0,8.06,3.28,8.06,7.91v12.35c0,1.74.6,2.34,2.14,2.34.45,0,.9-.1,1.34-.2v1.04Zm-7.37-11.11c-2.34.05-8.72.5-8.72,5.13,0,2.59,1.7,4.33,3.39,4.33,3.24,0,5.33-3.14,5.33-6.52v-2.94Z"/>
      <path class="cls-1" d="m120.39,38.43c2.09,0,3.78-.45,3.78-3.68v-13.6c0-2.99-2.34-3.14-3.78-3.24v-.85l7.67-1.19v6.57h.1c.69-1.84,2.93-6.57,7.86-6.57,5.28,0,5.78,2.88,5.78,7.52v11.36c0,3.24,1.69,3.68,3.78,3.68v.85h-11.45v-.85c2.09,0,3.79-.45,3.79-3.68v-10.26c0-4.28-.05-6.23-3.34-6.23-2.93,0-6.52,5.62-6.52,10.36v6.13c0,3.24,1.69,3.68,3.79,3.68v.85h-11.45v-.85Z"/>
      <path class="cls-1" d="m151.29,38.15c3.03,0,4.87-.39,4.87-4.59V7.7c0-4.2-1.85-4.59-4.87-4.59v-1.12h13.1c9.29,0,19.14,2.02,19.14,18.7s-10.35,18.59-19.14,18.59h-13.1v-1.12Zm9.85-5.76c0,4.08.45,4.7,3.25,4.7,9.63,0,13.6-5.15,13.6-16.4,0-10.3-2.96-16.51-13.6-16.51-2.8,0-3.25.34-3.25,4.7v23.51Z"/>
      <path class="cls-1" d="m185.57,38.43c2.1,0,3.79-.45,3.79-3.68v-13.6c0-2.99-2.29-3.14-3.79-3.24v-.85l7.67-1.19v18.87c0,3.24,1.69,3.68,3.78,3.68v.85h-11.46v-.85Zm2.75-29.98c0-1.59,1.24-2.84,2.83-2.84s2.84,1.24,2.84,2.84-1.24,2.84-2.84,2.84-2.83-1.24-2.83-2.84Z"/>
      <path class="cls-1" d="m215.06,38.87c-1.2.45-2.89.9-5.93.9-7.72,0-12.05-4.23-12.05-12.6,0-7.27,2.94-11.3,10.11-11.3,4.48,0,8.52,2.49,8.52,8.26v1.1h-14.49c0,4.18,2.04,12.7,10.36,12.7,1.14,0,2.49-.15,3.49-.65v1.59Zm-3.79-15.29c0-2.64-.9-6.07-4.73-6.07s-5.33,4.23-5.33,6.07h10.06Z"/>
      <path class="cls-1" d="m231.89,35.29c2.38,0,7.92.1,7.92,5.63s-5.58,8.86-12.2,8.86c-4.88,0-9.96-1.84-9.96-6.32,0-3.09,2.29-4.43,3.89-5.23-.85-.49-2.14-1.44-2.14-3.53,0-1.84,1.59-3.73,2.14-4.34-1.15-.94-2.89-2.44-2.89-6.67,0-6.42,4.68-7.82,9.41-7.82,2.29,0,3.54.4,5.14,1.24.79-1.89,1.98-5.33,5.02-5.33,1.4,0,2.39.9,2.39,2.39,0,1.35-.85,2.25-2.34,2.25-1.29,0-1.59-.7-2.24-.7-1.09,0-1.54,1.45-1.79,2.24.59.65,2.24,2.49,2.24,5.98,0,5.03-3.13,7.87-9.11,7.87-1.99,0-3.44-.25-4.53-.75-.31.4-.9,1.14-.9,2.24,0,1.99,2.49,1.99,4.08,1.99h5.88Zm-8.62,3.54c-1,.75-2.39,1.59-2.39,3.83,0,2.94,2.63,5.48,6.97,5.48s8.72-2.34,8.72-5.92c0-2.54-2.09-3.39-4.58-3.39h-8.71Zm4.33-8.67c4.18,0,4.73-3.28,4.73-5.93,0-3.73-1.29-6.72-4.88-6.72-3.94,0-4.68,2.89-4.68,5.78,0,3.78,1.24,6.87,4.83,6.87Z"/>
      <path class="cls-1" d="m239.85,27.82c0-7.47,4.03-11.95,10.4-11.95s10.41,4.48,10.41,11.95-4.03,11.95-10.41,11.95-10.4-4.48-10.4-11.95Zm10.4,10.3c4.98,0,5.98-6.17,5.98-10.3s-1-10.31-5.98-10.31-5.97,6.17-5.97,10.31.99,10.3,5.97,10.3Z"/>
      <g id="line">
        <path class="cls-1" d="m215.1,47.86H1.24v1.26h215.07c-.46-.39-.86-.81-1.21-1.26Z"/>
        <path class="cls-1" d="m260.27,47.86h-19.67c-.45.46-.94.88-1.48,1.26h21.15v-1.26Z"/>
      </g>
    </g>
    <g>
      <path class="cls-1" d="m6.48,85.22c1.11-.17,2.44-.29,3.88-.29,2.62,0,4.49.61,5.73,1.76,1.26,1.15,1.99,2.79,1.99,5.08s-.71,4.2-2.04,5.5c-1.32,1.32-3.51,2.04-6.26,2.04-1.3,0-2.39-.06-3.32-.17v-13.92Zm1.83,12.51c.46.08,1.13.11,1.85.11,3.91,0,6.03-2.18,6.03-6,.02-3.34-1.87-5.46-5.73-5.46-.94,0-1.66.08-2.14.19v11.17Z"/>
      <path class="cls-1" d="m21.41,94.43c.04,2.5,1.64,3.53,3.49,3.53,1.32,0,2.12-.23,2.81-.52l.31,1.32c-.65.29-1.76.63-3.38.63-3.13,0-5-2.06-5-5.12s1.81-5.48,4.77-5.48c3.32,0,4.2,2.92,4.2,4.79,0,.38-.04.67-.06.86h-7.14Zm5.42-1.32c.02-1.18-.48-3-2.56-3-1.87,0-2.69,1.72-2.83,3h5.4Z"/>
      <path class="cls-1" d="m30.8,92.33c0-1.3-.04-2.35-.08-3.32h1.66l.08,1.74h.04c.76-1.24,1.95-1.97,3.61-1.97,2.46,0,4.3,2.08,4.3,5.16,0,3.65-2.23,5.46-4.62,5.46-1.34,0-2.52-.59-3.13-1.6h-.04v5.52h-1.83v-11Zm1.83,2.71c0,.27.04.53.08.76.34,1.28,1.45,2.16,2.77,2.16,1.95,0,3.09-1.6,3.09-3.93,0-2.04-1.07-3.78-3.02-3.78-1.26,0-2.44.9-2.79,2.29-.06.23-.13.5-.13.76v1.74Z"/>
      <path class="cls-1" d="m48.27,99.18l-.15-1.28h-.06c-.57.8-1.66,1.51-3.11,1.51-2.06,0-3.11-1.45-3.11-2.92,0-2.46,2.18-3.8,6.11-3.78v-.21c0-.84-.23-2.35-2.31-2.35-.94,0-1.93.29-2.65.76l-.42-1.22c.84-.55,2.06-.9,3.34-.9,3.11,0,3.86,2.12,3.86,4.16v3.8c0,.88.04,1.74.17,2.44h-1.68Zm-.27-5.19c-2.02-.04-4.3.31-4.3,2.29,0,1.2.8,1.76,1.74,1.76,1.32,0,2.16-.84,2.46-1.7.06-.19.1-.4.1-.59v-1.76Z"/>
      <path class="cls-1" d="m52.66,92.19c0-1.2-.02-2.22-.08-3.17h1.62l.06,1.99h.08c.46-1.36,1.57-2.22,2.81-2.22.21,0,.36.02.52.06v1.74c-.19-.04-.38-.06-.63-.06-1.3,0-2.23.99-2.48,2.37-.04.25-.08.54-.08.86v5.42h-1.83v-6.99Z"/>
      <path class="cls-1" d="m62.15,86.1v2.92h2.65v1.41h-2.65v5.48c0,1.26.36,1.97,1.39,1.97.48,0,.84-.06,1.07-.13l.08,1.39c-.36.15-.92.25-1.64.25-.86,0-1.55-.27-1.99-.78-.52-.55-.71-1.45-.71-2.65v-5.54h-1.57v-1.41h1.57v-2.44l1.81-.48Z"/>
      <path class="cls-1" d="m66.77,91.77c0-1.05-.02-1.91-.08-2.75h1.62l.08,1.64h.06c.57-.97,1.51-1.87,3.19-1.87,1.39,0,2.44.84,2.88,2.04h.04c.31-.57.71-1.01,1.13-1.32.61-.46,1.28-.71,2.25-.71,1.34,0,3.34.88,3.34,4.41v5.98h-1.81v-5.75c0-1.95-.71-3.13-2.2-3.13-1.05,0-1.87.78-2.18,1.68-.08.25-.15.59-.15.92v6.28h-1.81v-6.09c0-1.62-.71-2.79-2.12-2.79-1.15,0-1.99.92-2.29,1.85-.1.27-.15.59-.15.9v6.13h-1.81v-7.41Z"/>
      <path class="cls-1" d="m85.21,94.43c.04,2.5,1.64,3.53,3.49,3.53,1.32,0,2.12-.23,2.81-.52l.31,1.32c-.65.29-1.76.63-3.38.63-3.13,0-5-2.06-5-5.12s1.81-5.48,4.77-5.48c3.32,0,4.2,2.92,4.2,4.79,0,.38-.04.67-.06.86h-7.14Zm5.42-1.32c.02-1.18-.48-3-2.56-3-1.87,0-2.69,1.72-2.83,3h5.4Z"/>
      <path class="cls-1" d="m94.59,91.77c0-1.05-.02-1.91-.08-2.75h1.64l.1,1.68h.04c.5-.97,1.68-1.91,3.36-1.91,1.41,0,3.59.84,3.59,4.32v6.07h-1.85v-5.86c0-1.64-.61-3-2.35-3-1.22,0-2.16.86-2.48,1.89-.08.23-.13.55-.13.86v6.11h-1.85v-7.41Z"/>
      <path class="cls-1" d="m108.28,86.1v2.92h2.65v1.41h-2.65v5.48c0,1.26.36,1.97,1.39,1.97.48,0,.84-.06,1.07-.13l.08,1.39c-.36.15-.92.25-1.64.25-.86,0-1.55-.27-1.99-.78-.52-.55-.71-1.45-.71-2.65v-5.54h-1.57v-1.41h1.57v-2.44l1.81-.48Z"/>
      <path class="cls-1" d="m126.45,94.01c0,3.76-2.6,5.4-5.06,5.4-2.75,0-4.87-2.02-4.87-5.23,0-3.4,2.23-5.4,5.04-5.4s4.89,2.12,4.89,5.23Zm-8.06.1c0,2.23,1.28,3.91,3.09,3.91s3.09-1.66,3.09-3.95c0-1.72-.86-3.91-3.04-3.91s-3.13,2.02-3.13,3.95Z"/>
      <path class="cls-1" d="m128.86,99.18v-8.76h-1.43v-1.41h1.43v-.48c0-1.43.31-2.73,1.18-3.55.69-.67,1.62-.95,2.48-.95.65,0,1.22.15,1.57.29l-.25,1.43c-.27-.13-.65-.23-1.18-.23-1.57,0-1.97,1.39-1.97,2.94v.55h2.46v1.41h-2.46v8.76h-1.83Z"/>
      <path class="cls-1" d="m149,98.72c-.67.34-2.02.67-3.74.67-3.99,0-6.99-2.52-6.99-7.16s3-7.43,7.39-7.43c1.76,0,2.88.38,3.36.63l-.44,1.49c-.69-.34-1.68-.59-2.86-.59-3.32,0-5.52,2.12-5.52,5.84,0,3.46,1.99,5.69,5.44,5.69,1.11,0,2.25-.23,2.98-.59l.38,1.45Z"/>
      <path class="cls-1" d="m160.09,94.01c0,3.76-2.6,5.4-5.06,5.4-2.75,0-4.87-2.02-4.87-5.23,0-3.4,2.23-5.4,5.04-5.4s4.89,2.12,4.89,5.23Zm-8.06.1c0,2.23,1.28,3.91,3.09,3.91s3.09-1.66,3.09-3.95c0-1.72-.86-3.91-3.04-3.91s-3.13,2.02-3.13,3.95Z"/>
      <path class="cls-1" d="m162.32,91.77c0-1.05-.02-1.91-.08-2.75h1.62l.08,1.64h.06c.57-.97,1.51-1.87,3.19-1.87,1.39,0,2.44.84,2.88,2.04h.04c.31-.57.71-1.01,1.13-1.32.61-.46,1.28-.71,2.25-.71,1.34,0,3.34.88,3.34,4.41v5.98h-1.81v-5.75c0-1.95-.71-3.13-2.21-3.13-1.05,0-1.87.78-2.18,1.68-.08.25-.15.59-.15.92v6.28h-1.81v-6.09c0-1.62-.71-2.79-2.12-2.79-1.15,0-1.99.92-2.29,1.85-.1.27-.15.59-.15.9v6.13h-1.81v-7.41Z"/>
      <path class="cls-1" d="m179.73,92.33c0-1.3-.04-2.35-.08-3.32h1.66l.08,1.74h.04c.76-1.24,1.95-1.97,3.61-1.97,2.46,0,4.3,2.08,4.3,5.16,0,3.65-2.23,5.46-4.62,5.46-1.34,0-2.52-.59-3.13-1.6h-.04v5.52h-1.83v-11Zm1.83,2.71c0,.27.04.53.08.76.34,1.28,1.45,2.16,2.77,2.16,1.95,0,3.09-1.6,3.09-3.93,0-2.04-1.07-3.78-3.02-3.78-1.26,0-2.44.9-2.79,2.29-.06.23-.13.5-.13.76v1.74Z"/>
      <path class="cls-1" d="m200.07,96.41c0,1.05.02,1.97.08,2.77h-1.64l-.11-1.66h-.04c-.48.82-1.55,1.89-3.36,1.89-1.6,0-3.51-.88-3.51-4.45v-5.94h1.85v5.63c0,1.93.59,3.23,2.27,3.23,1.24,0,2.1-.86,2.44-1.68.1-.27.17-.61.17-.94v-6.24h1.85v7.39Z"/>
      <path class="cls-1" d="m205.26,86.1v2.92h2.65v1.41h-2.65v5.48c0,1.26.36,1.97,1.39,1.97.48,0,.84-.06,1.07-.13l.08,1.39c-.36.15-.92.25-1.64.25-.86,0-1.55-.27-2-.78-.52-.55-.71-1.45-.71-2.65v-5.54h-1.57v-1.41h1.57v-2.44l1.81-.48Z"/>
      <path class="cls-1" d="m210.78,94.43c.04,2.5,1.64,3.53,3.49,3.53,1.32,0,2.12-.23,2.81-.52l.31,1.32c-.65.29-1.76.63-3.38.63-3.13,0-5-2.06-5-5.12s1.81-5.48,4.77-5.48c3.32,0,4.2,2.92,4.2,4.79,0,.38-.04.67-.06.86h-7.14Zm5.42-1.32c.02-1.18-.48-3-2.56-3-1.87,0-2.69,1.72-2.83,3h5.4Z"/>
      <path class="cls-1" d="m220.17,92.19c0-1.2-.02-2.22-.08-3.17h1.62l.06,1.99h.08c.46-1.36,1.58-2.22,2.81-2.22.21,0,.36.02.53.06v1.74c-.19-.04-.38-.06-.63-.06-1.3,0-2.23.99-2.48,2.37-.04.25-.08.54-.08.86v5.42h-1.83v-6.99Z"/>
      <path class="cls-1" d="m231.09,96.95c.82.5,2.02.92,3.28.92,1.87,0,2.96-.99,2.96-2.42,0-1.32-.76-2.08-2.67-2.81-2.31-.82-3.74-2.02-3.74-4.01,0-2.2,1.83-3.84,4.58-3.84,1.45,0,2.5.34,3.13.69l-.5,1.49c-.46-.25-1.41-.67-2.69-.67-1.93,0-2.67,1.16-2.67,2.12,0,1.32.86,1.97,2.81,2.73,2.39.92,3.61,2.08,3.61,4.16,0,2.18-1.62,4.07-4.96,4.07-1.37,0-2.86-.4-3.61-.9l.46-1.53Z"/>
      <path class="cls-1" d="m248.9,98.8c-.48.25-1.55.59-2.92.59-3.07,0-5.06-2.08-5.06-5.19s2.14-5.4,5.46-5.4c1.09,0,2.06.27,2.56.52l-.42,1.43c-.44-.25-1.13-.48-2.14-.48-2.33,0-3.59,1.72-3.59,3.84,0,2.35,1.51,3.8,3.53,3.8,1.05,0,1.74-.27,2.27-.5l.32,1.39Z"/>
      <path class="cls-1" d="m253.01,86.16c.02.63-.44,1.13-1.18,1.13-.65,0-1.11-.5-1.11-1.13s.48-1.15,1.15-1.15,1.13.5,1.13,1.15Zm-2.06,13.02v-10.16h1.85v10.16h-1.85Z"/>
      <path class="cls-1" d="m256.79,94.43c.04,2.5,1.64,3.53,3.49,3.53,1.32,0,2.12-.23,2.81-.52l.32,1.32c-.65.29-1.76.63-3.38.63-3.13,0-5-2.06-5-5.12s1.81-5.48,4.77-5.48c3.32,0,4.2,2.92,4.2,4.79,0,.38-.04.67-.06.86h-7.14Zm5.42-1.32c.02-1.18-.48-3-2.56-3-1.87,0-2.69,1.72-2.83,3h5.4Z"/>
      <path class="cls-1" d="m266.18,91.77c0-1.05-.02-1.91-.08-2.75h1.64l.1,1.68h.04c.5-.97,1.68-1.91,3.36-1.91,1.41,0,3.59.84,3.59,4.32v6.07h-1.85v-5.86c0-1.64-.61-3-2.35-3-1.22,0-2.16.86-2.48,1.89-.08.23-.13.55-.13.86v6.11h-1.85v-7.41Z"/>
      <path class="cls-1" d="m284.98,98.8c-.48.25-1.55.59-2.92.59-3.07,0-5.06-2.08-5.06-5.19s2.14-5.4,5.46-5.4c1.09,0,2.06.27,2.56.52l-.42,1.43c-.44-.25-1.13-.48-2.14-.48-2.33,0-3.59,1.72-3.59,3.84,0,2.35,1.51,3.8,3.53,3.8,1.05,0,1.74-.27,2.27-.5l.31,1.39Z"/>
      <path class="cls-1" d="m287.94,94.43c.04,2.5,1.64,3.53,3.49,3.53,1.32,0,2.12-.23,2.81-.52l.31,1.32c-.65.29-1.76.63-3.38.63-3.13,0-5-2.06-5-5.12s1.81-5.48,4.77-5.48c3.32,0,4.2,2.92,4.2,4.79,0,.38-.04.67-.06.86h-7.14Zm5.42-1.32c.02-1.18-.48-3-2.56-3-1.87,0-2.69,1.72-2.83,3h5.4Z"/>
      <path class="cls-1" d="m307.3,99.18l-.15-1.28h-.06c-.57.8-1.66,1.51-3.11,1.51-2.06,0-3.11-1.45-3.11-2.92,0-2.46,2.18-3.8,6.11-3.78v-.21c0-.84-.23-2.35-2.31-2.35-.95,0-1.93.29-2.65.76l-.42-1.22c.84-.55,2.06-.9,3.34-.9,3.11,0,3.86,2.12,3.86,4.16v3.8c0,.88.04,1.74.17,2.44h-1.68Zm-.27-5.19c-2.02-.04-4.3.31-4.3,2.29,0,1.2.8,1.76,1.74,1.76,1.32,0,2.16-.84,2.46-1.7.06-.19.11-.4.11-.59v-1.76Z"/>
      <path class="cls-1" d="m311.69,91.77c0-1.05-.02-1.91-.08-2.75h1.64l.1,1.68h.04c.5-.97,1.68-1.91,3.36-1.91,1.41,0,3.59.84,3.59,4.32v6.07h-1.85v-5.86c0-1.64-.61-3-2.35-3-1.22,0-2.16.86-2.48,1.89-.08.23-.13.55-.13.86v6.11h-1.85v-7.41Z"/>
      <path class="cls-1" d="m332.01,84.27v12.28c0,.9.02,1.93.08,2.62h-1.66l-.08-1.76h-.04c-.57,1.13-1.81,1.99-3.46,1.99-2.46,0-4.35-2.08-4.35-5.16-.02-3.38,2.08-5.46,4.56-5.46,1.55,0,2.6.73,3.07,1.55h.04v-6.07h1.85Zm-1.85,8.88c0-.23-.02-.55-.08-.78-.27-1.18-1.28-2.14-2.67-2.14-1.91,0-3.04,1.68-3.04,3.93,0,2.06,1.01,3.76,3,3.76,1.24,0,2.37-.82,2.71-2.21.06-.25.08-.5.08-.8v-1.76Z"/>
      <path class="cls-1" d="m346.72,92.54h-5.5v5.1h6.13v1.53h-7.96v-14.15h7.64v1.53h-5.82v4.47h5.5v1.51Z"/>
      <path class="cls-1" d="m349.55,91.77c0-1.05-.02-1.91-.08-2.75h1.64l.11,1.68h.04c.5-.97,1.68-1.91,3.36-1.91,1.41,0,3.59.84,3.59,4.32v6.07h-1.85v-5.86c0-1.64-.61-3-2.35-3-1.22,0-2.16.86-2.48,1.89-.08.23-.12.55-.12.86v6.11h-1.85v-7.41Z"/>
      <path class="cls-1" d="m369.86,89.02c-.04.73-.08,1.55-.08,2.79v5.9c0,2.33-.46,3.76-1.45,4.64-.99.92-2.41,1.22-3.7,1.22s-2.56-.29-3.38-.84l.46-1.41c.67.42,1.72.8,2.98.8,1.89,0,3.28-.99,3.28-3.55v-1.13h-.04c-.57.94-1.66,1.7-3.23,1.7-2.52,0-4.33-2.14-4.33-4.96,0-3.44,2.25-5.4,4.58-5.4,1.76,0,2.73.92,3.17,1.76h.04l.08-1.53h1.62Zm-1.91,4.01c0-.31-.02-.59-.11-.84-.34-1.07-1.24-1.95-2.58-1.95-1.76,0-3.02,1.49-3.02,3.84,0,1.99,1.01,3.65,3,3.65,1.13,0,2.16-.71,2.56-1.89.1-.32.15-.67.15-.99v-1.83Z"/>
      <path class="cls-1" d="m374.67,86.16c.02.63-.44,1.13-1.18,1.13-.65,0-1.11-.5-1.11-1.13s.48-1.15,1.15-1.15,1.13.5,1.13,1.15Zm-2.06,13.02v-10.16h1.85v10.16h-1.85Z"/>
      <path class="cls-1" d="m377.42,91.77c0-1.05-.02-1.91-.08-2.75h1.64l.1,1.68h.04c.5-.97,1.68-1.91,3.36-1.91,1.41,0,3.59.84,3.59,4.32v6.07h-1.85v-5.86c0-1.64-.61-3-2.35-3-1.22,0-2.16.86-2.48,1.89-.08.23-.13.55-.13.86v6.11h-1.85v-7.41Z"/>
      <path class="cls-1" d="m390,94.43c.04,2.5,1.64,3.53,3.49,3.53,1.32,0,2.12-.23,2.81-.52l.32,1.32c-.65.29-1.76.63-3.38.63-3.13,0-5-2.06-5-5.12s1.81-5.48,4.77-5.48c3.32,0,4.2,2.92,4.2,4.79,0,.38-.04.67-.06.86h-7.14Zm5.42-1.32c.02-1.18-.48-3-2.56-3-1.87,0-2.69,1.72-2.83,3h5.4Z"/>
      <path class="cls-1" d="m400.41,94.43c.04,2.5,1.64,3.53,3.49,3.53,1.32,0,2.12-.23,2.81-.52l.32,1.32c-.65.29-1.76.63-3.38.63-3.13,0-5-2.06-5-5.12s1.81-5.48,4.77-5.48c3.32,0,4.2,2.92,4.2,4.79,0,.38-.04.67-.06.86h-7.14Zm5.42-1.32c.02-1.18-.48-3-2.56-3-1.87,0-2.69,1.72-2.83,3h5.4Z"/>
      <path class="cls-1" d="m409.8,92.19c0-1.2-.02-2.22-.08-3.17h1.62l.06,1.99h.08c.46-1.36,1.57-2.22,2.81-2.22.21,0,.36.02.53.06v1.74c-.19-.04-.38-.06-.63-.06-1.3,0-2.23.99-2.48,2.37-.04.25-.08.54-.08.86v5.42h-1.83v-6.99Z"/>
      <path class="cls-1" d="m418.7,86.16c.02.63-.44,1.13-1.18,1.13-.65,0-1.11-.5-1.11-1.13s.48-1.15,1.16-1.15,1.13.5,1.13,1.15Zm-2.06,13.02v-10.16h1.85v10.16h-1.85Z"/>
      <path class="cls-1" d="m421.45,91.77c0-1.05-.02-1.91-.08-2.75h1.64l.11,1.68h.04c.5-.97,1.68-1.91,3.36-1.91,1.41,0,3.59.84,3.59,4.32v6.07h-1.85v-5.86c0-1.64-.61-3-2.35-3-1.22,0-2.16.86-2.48,1.89-.08.23-.12.55-.12.86v6.11h-1.85v-7.41Z"/>
      <path class="cls-1" d="m441.76,89.02c-.04.73-.08,1.55-.08,2.79v5.9c0,2.33-.46,3.76-1.45,4.64-.99.92-2.41,1.22-3.7,1.22s-2.56-.29-3.38-.84l.46-1.41c.67.42,1.72.8,2.98.8,1.89,0,3.28-.99,3.28-3.55v-1.13h-.04c-.57.94-1.66,1.7-3.23,1.7-2.52,0-4.33-2.14-4.33-4.96,0-3.44,2.25-5.4,4.58-5.4,1.76,0,2.73.92,3.17,1.76h.04l.08-1.53h1.62Zm-1.91,4.01c0-.31-.02-.59-.11-.84-.34-1.07-1.24-1.95-2.58-1.95-1.76,0-3.02,1.49-3.02,3.84,0,1.99,1.01,3.65,3,3.65,1.13,0,2.16-.71,2.56-1.89.1-.32.15-.67.15-.99v-1.83Z"/>
    </g>
  </g>
  <g>
    <path class="cls-1" d="m9.88,63h3.19v8.94c0,4.03-1.93,5.44-5.04,5.44-.73,0-1.7-.12-2.33-.34l.36-2.58c.44.15,1.01.25,1.64.25,1.34,0,2.18-.61,2.18-2.81v-8.9Z"/>
    <path class="cls-1" d="m18.7,73.52l-1.01,3.63h-3.32l4.33-14.15h4.2l4.39,14.15h-3.44l-1.09-3.63h-4.05Zm3.59-2.39l-.88-3c-.25-.84-.5-1.89-.71-2.73h-.04c-.21.84-.42,1.91-.65,2.73l-.84,3h3.13Z"/>
    <path class="cls-1" d="m39.03,76.75c-.59.29-1.91.61-3.63.61-4.89,0-7.41-3.04-7.41-7.08,0-4.83,3.44-7.52,7.73-7.52,1.66,0,2.92.34,3.49.63l-.65,2.54c-.65-.27-1.55-.52-2.69-.52-2.54,0-4.51,1.53-4.51,4.68,0,2.83,1.68,4.62,4.54,4.62.97,0,2.04-.21,2.67-.46l.48,2.5Z"/>
    <path class="cls-1" d="m53.74,69.93c0,4.64-2.81,7.45-6.95,7.45s-6.66-3.17-6.66-7.2c0-4.24,2.71-7.41,6.89-7.41s6.72,3.25,6.72,7.16Zm-10.23.19c0,2.77,1.3,4.72,3.44,4.72s3.4-2.06,3.4-4.81c0-2.54-1.22-4.72-3.42-4.72s-3.42,2.06-3.42,4.81Z"/>
    <path class="cls-1" d="m56.05,63.19c.84-.17,2.54-.29,4.14-.29,1.95,0,3.15.19,4.18.8.99.53,1.7,1.49,1.7,2.77s-.73,2.44-2.33,3.02v.04c1.62.44,2.81,1.66,2.81,3.48,0,1.28-.59,2.29-1.47,3-1.03.82-2.75,1.28-5.56,1.28-1.57,0-2.75-.1-3.46-.21v-13.9Zm3.17,5.42h1.05c1.68,0,2.58-.69,2.58-1.74s-.82-1.64-2.27-1.64c-.69,0-1.09.04-1.36.08v3.3Zm0,6.28c.31.04.69.04,1.24.04,1.45,0,2.73-.55,2.73-2.04s-1.28-2-2.88-2h-1.09v3.99Z"/>
    <path class="cls-1" d="m68.78,73.85c.86.44,2.18.88,3.55.88,1.47,0,2.25-.61,2.25-1.53s-.67-1.39-2.37-1.99c-2.35-.82-3.88-2.12-3.88-4.18,0-2.42,2.02-4.26,5.35-4.26,1.6,0,2.77.34,3.61.71l-.71,2.58c-.57-.27-1.57-.67-2.96-.67s-2.06.63-2.06,1.37c0,.9.8,1.3,2.62,1.99,2.5.92,3.67,2.23,3.67,4.22,0,2.37-1.83,4.39-5.71,4.39-1.62,0-3.21-.42-4.01-.86l.65-2.65Z"/>
    <path class="cls-1" d="m84.78,73.85c.86.44,2.18.88,3.55.88,1.47,0,2.25-.61,2.25-1.53s-.67-1.39-2.37-1.99c-2.35-.82-3.88-2.12-3.88-4.18,0-2.42,2.02-4.26,5.35-4.26,1.6,0,2.77.34,3.61.71l-.71,2.58c-.57-.27-1.57-.67-2.96-.67s-2.06.63-2.06,1.37c0,.9.8,1.3,2.62,1.99,2.5.92,3.67,2.23,3.67,4.22,0,2.37-1.83,4.39-5.71,4.39-1.62,0-3.21-.42-4.01-.86l.65-2.65Z"/>
    <path class="cls-1" d="m106.43,76.75c-.59.29-1.91.61-3.63.61-4.89,0-7.41-3.04-7.41-7.08,0-4.83,3.44-7.52,7.73-7.52,1.66,0,2.92.34,3.49.63l-.65,2.54c-.65-.27-1.55-.52-2.69-.52-2.54,0-4.51,1.53-4.51,4.68,0,2.83,1.68,4.62,4.54,4.62.97,0,2.04-.21,2.67-.46l.48,2.5Z"/>
    <path class="cls-1" d="m111.76,63v5.44h5.27v-5.44h3.19v14.15h-3.19v-5.92h-5.27v5.92h-3.21v-14.15h3.21Z"/>
    <path class="cls-1" d="m136.15,69.93c0,4.64-2.81,7.45-6.95,7.45s-6.66-3.17-6.66-7.2c0-4.24,2.71-7.41,6.89-7.41s6.72,3.25,6.72,7.16Zm-10.22.19c0,2.77,1.3,4.72,3.44,4.72s3.4-2.06,3.4-4.81c0-2.54-1.22-4.72-3.42-4.72s-3.42,2.06-3.42,4.81Z"/>
    <path class="cls-1" d="m151.36,69.93c0,4.64-2.81,7.45-6.95,7.45s-6.66-3.17-6.66-7.2c0-4.24,2.71-7.41,6.89-7.41s6.72,3.25,6.72,7.16Zm-10.23.19c0,2.77,1.3,4.72,3.44,4.72s3.4-2.06,3.4-4.81c0-2.54-1.22-4.72-3.42-4.72s-3.42,2.06-3.42,4.81Z"/>
    <path class="cls-1" d="m153.67,63h3.21v11.46h5.63v2.69h-8.84v-14.15Z"/>
    <path class="cls-1" d="m181.17,69.93c0,4.64-2.81,7.45-6.95,7.45s-6.66-3.17-6.66-7.2c0-4.24,2.71-7.41,6.89-7.41s6.72,3.25,6.72,7.16Zm-10.22.19c0,2.77,1.3,4.72,3.44,4.72s3.4-2.06,3.4-4.81c0-2.54-1.22-4.72-3.42-4.72s-3.42,2.06-3.42,4.81Z"/>
    <path class="cls-1" d="m183.48,63h8.65v2.62h-5.44v3.23h5.08v2.6h-5.08v5.69h-3.21v-14.15Z"/>
    <path class="cls-1" d="m207.63,71.17h-5.21v3.36h5.82v2.62h-9.03v-14.15h8.73v2.62h-5.52v2.94h5.21v2.6Z"/>
    <path class="cls-1" d="m210.71,77.15v-14.15h3.74l2.94,5.19c.84,1.49,1.68,3.25,2.31,4.85h.06c-.21-1.87-.27-3.78-.27-5.9v-4.14h2.94v14.15h-3.36l-3.02-5.46c-.84-1.51-1.76-3.34-2.46-5l-.06.02c.08,1.87.13,3.86.13,6.17v4.26h-2.94Z"/>
    <path class="cls-1" d="m237.14,76.5c-.99.34-2.86.8-4.72.8-2.58,0-4.45-.65-5.75-1.91-1.3-1.22-2.02-3.07-1.99-5.14.02-4.7,3.44-7.39,8.08-7.39,1.83,0,3.23.36,3.93.69l-.67,2.56c-.78-.34-1.74-.61-3.3-.61-2.67,0-4.68,1.51-4.68,4.58s1.83,4.64,4.45,4.64c.73,0,1.32-.08,1.57-.21v-2.96h-2.18v-2.5h5.27v7.45Z"/>
    <path class="cls-1" d="m243.13,63v14.15h-3.21v-14.15h3.21Z"/>
    <path class="cls-1" d="m246.08,77.15v-14.15h3.74l2.94,5.19c.84,1.49,1.68,3.25,2.31,4.85h.06c-.21-1.87-.27-3.78-.27-5.9v-4.14h2.94v14.15h-3.36l-3.02-5.46c-.84-1.51-1.76-3.34-2.46-5l-.06.02c.08,1.87.13,3.86.13,6.17v4.26h-2.94Z"/>
    <path class="cls-1" d="m269.2,71.17h-5.21v3.36h5.82v2.62h-9.03v-14.15h8.73v2.62h-5.52v2.94h5.21v2.6Z"/>
    <path class="cls-1" d="m280.7,71.17h-5.21v3.36h5.82v2.62h-9.03v-14.15h8.73v2.62h-5.52v2.94h5.21v2.6Z"/>
    <path class="cls-1" d="m283.78,63.19c1.03-.17,2.56-.29,4.26-.29,2.1,0,3.57.31,4.58,1.11.84.67,1.3,1.66,1.3,2.96,0,1.81-1.28,3.04-2.5,3.49v.06c.99.4,1.53,1.34,1.89,2.65.44,1.6.88,3.44,1.16,3.99h-3.28c-.23-.4-.57-1.55-.99-3.3-.38-1.76-.99-2.25-2.29-2.27h-.97v5.56h-3.17v-13.96Zm3.17,6.09h1.26c1.6,0,2.54-.8,2.54-2.04,0-1.3-.88-1.95-2.35-1.97-.78,0-1.22.06-1.45.1v3.91Z"/>
    <path class="cls-1" d="m299.68,63v14.15h-3.21v-14.15h3.21Z"/>
    <path class="cls-1" d="m302.63,77.15v-14.15h3.74l2.94,5.19c.84,1.49,1.68,3.25,2.31,4.85h.06c-.21-1.87-.27-3.78-.27-5.9v-4.14h2.94v14.15h-3.36l-3.02-5.46c-.84-1.51-1.76-3.34-2.46-5l-.06.02c.08,1.87.13,3.86.13,6.17v4.26h-2.94Z"/>
    <path class="cls-1" d="m329.06,76.5c-.99.34-2.86.8-4.72.8-2.58,0-4.45-.65-5.75-1.91-1.3-1.22-2.02-3.07-1.99-5.14.02-4.7,3.44-7.39,8.08-7.39,1.83,0,3.23.36,3.93.69l-.67,2.56c-.78-.34-1.74-.61-3.3-.61-2.67,0-4.68,1.51-4.68,4.58s1.83,4.64,4.45,4.64c.73,0,1.32-.08,1.57-.21v-2.96h-2.18v-2.5h5.27v7.45Z"/>
  </g>
</svg>