<svg xmlns="http://www.w3.org/2000/svg" xmlns:xlink="http://www.w3.org/1999/xlink" id="Layer_1" x="0" y="0" version="1.1" viewBox="0 0 1200 431.2" xml:space="preserve" style="enable-background:new 0 0 1200 431.2"><style type="text/css">.st0{fill:#000}.st1{fill:#c11920}</style><path d="M518,0h-66.6v429.2H518V0z" class="st0"/><path d="M192.6,0H126v429.2h66.6V0z" class="st0"/><path d="M51.5,215.6c72.5,82.3,199.9,88.2,280.3,15.7l-27.4-29.4c-64.7,58.8-164.6,52.9-223.4-11.8	c-29.4-33.3-45.1-78.4-39.2-121.5L0.5,64.7C-3.4,117.6,14.3,172.5,51.5,215.6z" class="st1"/><path d="M308.2,199.9l27.4,29.4c31.4-27.4,72.5-43.1,113.7-41.2c43.1,2,80.4,21.6,109.8,52.9	c29.4,33.3,45.1,78.4,39.2,121.5l41.2,3.9c5.9-56.8-11.8-111.7-49-152.9c-35.3-39.2-84.3-62.7-137.2-64.7	C400.3,143.1,349.4,162.7,308.2,199.9z" class="st1"/><path d="M355.3,0h-66.6v429.2h66.6V0z" class="st0"/><path d="M1039.3,0c45.1,0,80.4,9.8,103.9,29.4c23.5,19.6,35.3,49,35.3,88.2c0,17.6-3.9,33.3-11.8,47	s-19.6,25.5-33.3,33.3c21.6,5.9,37.2,17.6,49,37.2c11.8,17.6,17.6,39.2,17.6,64.7c0,19.6-3.9,39.2-11.8,56.8s-17.6,31.4-31.4,43.1	c-13.7,11.8-27.4,19.6-43.1,23.5s-39.2,7.8-68.6,7.8h-100V0H1039.3z M1007.9,372.4h49c29.4,0,49-5.9,62.7-15.7	c13.7-9.8,19.6-27.4,19.6-49c0-23.5-7.8-43.1-21.6-54.9c-13.7-11.8-35.3-19.6-62.7-19.6h-49L1007.9,372.4z M1007.9,180.3h19.6	c31.4,0,54.9-3.9,68.6-13.7c13.7-9.8,19.6-25.5,19.6-49c0-19.6-5.9-35.3-17.6-43.1c-11.8-9.8-31.4-13.7-56.8-13.7h-33.3V180.3z" class="st0"/><path d="M649.3,270.5c13.7,31.4,17.6,64.7,15.7,98l-15.7-2v64.7H712V0h-62.7V270.5z" class="st0"/><path d="M951.1,0h-74.5L714,215.6l154.8,215.6h78.4L784.5,211.7L951.1,0z" class="st0"/></svg>